<svg xmlns="http://www.w3.org/2000/svg" width="832" height="821" viewBox="0 0 832 821"><path fill="#a3b1bf" fill-opacity=".396" fill-rule="evenodd" d="M425.24 254.07c-.01 0-.03 0-.04-.01-1.98-.05-3.96-.07-5.94-.05h-.02c-.82 0-1.49-.66-1.5-1.49s.66-1.5 1.48-1.51q3.045-.03 6.06.06c.83.02 1.48.71 1.46 1.54-.02.81-.69 1.46-1.5 1.46m-17.98.49c-.77 0-1.43-.59-1.5-1.37-.06-.83.55-1.55 1.37-1.62 2-.17 4.03-.3 6.05-.4.81-.01 1.52.61 1.56 1.43a1.5 1.5 0 0 1-1.43 1.57c-1.97.09-3.97.22-5.92.39zm29.95.29h-.16c-1.94-.21-3.93-.38-5.92-.51-.82-.05-1.45-.77-1.4-1.59.06-.83.79-1.46 1.6-1.4 2.02.13 4.05.31 6.03.51.83.09 1.43.82 1.34 1.65-.08.77-.73 1.34-1.49 1.34m-41.86 1.17c-.72 0-1.36-.53-1.47-1.26a1.49 1.49 0 0 1 1.24-1.72c1.97-.32 3.99-.61 5.99-.85.82-.09 1.57.48 1.67 1.31.1.82-.48 1.57-1.3 1.67-1.97.24-3.95.52-5.89.83-.08.01-.16.02-.24.02m53.73.52c-.09 0-.18 0-.27-.02-1.93-.35-3.9-.67-5.86-.95a1.5 1.5 0 1 1 .42-2.97c2 .29 4.01.61 5.98.97.81.15 1.35.93 1.21 1.74-.13.73-.77 1.23-1.48 1.23m-65.48 1.84c-.68 0-1.3-.46-1.46-1.15-.2-.81.3-1.62 1.11-1.81 1.95-.47 3.94-.91 5.91-1.3.81-.16 1.6.36 1.76 1.17.17.81-.36 1.6-1.17 1.77-1.94.39-3.89.82-5.8 1.28-.12.02-.24.04-.35.04m77.19.76c-.12 0-.25-.02-.38-.05-1.92-.5-3.86-.97-5.77-1.4a1.5 1.5 0 0 1-1.14-1.79c.18-.8.97-1.31 1.79-1.14 1.95.44 3.93.91 5.88 1.42.8.21 1.28 1.03 1.07 1.84-.17.67-.78 1.12-1.45 1.12m-88.74 2.49c-.63 0-1.22-.41-1.43-1.04-.25-.79.18-1.64.97-1.89 1.9-.61 3.85-1.2 5.8-1.75.79-.23 1.62.24 1.85 1.03.22.8-.24 1.63-1.04 1.86-1.91.53-3.83 1.11-5.69 1.71-.15.05-.31.08-.46.08m100.22.98c-.16 0-.33-.02-.49-.08-1.86-.64-3.76-1.26-5.65-1.83a1.503 1.503 0 0 1-1-1.87c.24-.79 1.08-1.24 1.87-1 1.93.58 3.87 1.21 5.76 1.87.78.27 1.2 1.12.93 1.9-.22.62-.8 1.01-1.42 1.01m-111.51 3.15c-.59 0-1.15-.35-1.39-.93-.32-.77.05-1.64.82-1.96 1.87-.76 3.77-1.5 5.66-2.19.77-.29 1.64.11 1.92.89.29.78-.11 1.64-.89 1.92-1.85.68-3.72 1.41-5.55 2.16-.19.07-.38.11-.57.11m122.67 1.19c-.2 0-.4-.04-.59-.12-1.81-.78-3.65-1.54-5.48-2.25a1.51 1.51 0 0 1-.86-1.95c.3-.77 1.17-1.15 1.94-.85 1.87.73 3.75 1.5 5.59 2.3.76.32 1.11 1.21.78 1.97-.25.56-.8.9-1.38.9m-133.61 3.8a1.498 1.498 0 0 1-.67-2.84c1.79-.91 3.63-1.79 5.47-2.63.75-.34 1.64-.01 1.98.75.35.75.02 1.64-.74 1.98-1.8.83-3.61 1.69-5.37 2.58-.21.1-.44.16-.67.16m144.4 1.37c-.23 0-.47-.05-.69-.17-1.75-.92-3.53-1.82-5.3-2.66a1.5 1.5 0 1 1 1.29-2.71c1.81.86 3.62 1.78 5.4 2.72.74.38 1.02 1.29.63 2.02-.27.51-.79.8-1.33.8m-154.92 4.42c-.51 0-1-.25-1.29-.72a1.51 1.51 0 0 1 .52-2.06c1.71-1.03 3.47-2.05 5.25-3.03a1.5 1.5 0 0 1 2.04.59c.4.73.13 1.64-.59 2.04-1.74.96-3.48 1.96-5.16 2.97-.24.15-.51.21-.77.21m165.3 1.56c-.27 0-.55-.07-.8-.23-1.65-1.03-3.36-2.06-5.08-3.06a1.501 1.501 0 0 1 1.5-2.6c1.75 1.02 3.49 2.07 5.18 3.12.7.44.91 1.37.47 2.07-.29.45-.77.7-1.27.7m-175.34 5.02a1.496 1.496 0 0 1-.87-2.72c1.64-1.17 3.33-2.32 5-3.42.69-.45 1.62-.26 2.08.44.45.69.26 1.62-.43 2.07-1.65 1.08-3.3 2.21-4.92 3.36-.26.18-.56.27-.86.27m185.24 1.73c-.31 0-.63-.09-.9-.29a163 163 0 0 0-4.83-3.44c-.69-.46-.86-1.4-.4-2.08.47-.69 1.4-.86 2.09-.4 1.65 1.13 3.31 2.31 4.93 3.51.66.49.8 1.43.31 2.1-.29.39-.75.6-1.2.6m-194.76 5.59c-.43 0-.85-.18-1.15-.54-.53-.64-.44-1.58.19-2.11 1.56-1.29 3.15-2.56 4.73-3.78a1.497 1.497 0 1 1 1.83 2.37c-1.55 1.2-3.12 2.45-4.64 3.72-.28.23-.62.34-.96.34m-8.93 8.02c-.39 0-.78-.16-1.08-.46a1.5 1.5 0 0 1 .04-2.12c1.44-1.4 2.93-2.79 4.43-4.13.62-.55 1.57-.5 2.12.11.55.62.5 1.57-.12 2.12-1.46 1.32-2.93 2.68-4.34 4.05-.3.28-.67.43-1.05.43m-8.3 8.65c-.35 0-.71-.12-.99-.37-.62-.56-.68-1.5-.13-2.12 1.35-1.51 2.73-3.01 4.11-4.45a1.5 1.5 0 0 1 2.12-.05c.6.58.62 1.53.05 2.13-1.36 1.41-2.72 2.88-4.03 4.36-.3.33-.71.5-1.13.5m-7.61 9.26c-.32 0-.64-.1-.91-.31-.66-.5-.79-1.44-.28-2.1 1.21-1.6 2.48-3.19 3.75-4.74.53-.64 1.47-.73 2.11-.21.64.53.73 1.47.21 2.11-1.25 1.52-2.49 3.09-3.69 4.66-.29.39-.74.59-1.19.59m-6.89 9.8c-.28 0-.57-.08-.82-.24a1.5 1.5 0 0 1-.44-2.07c1.08-1.68 2.22-3.37 3.38-5.02.48-.67 1.42-.84 2.09-.36.68.48.84 1.41.37 2.09-1.14 1.62-2.26 3.27-3.32 4.92-.29.44-.77.68-1.26.68m-6.13 10.29q-.375 0-.72-.18c-.73-.4-1-1.31-.6-2.04.96-1.76 1.97-3.52 2.99-5.25a1.51 1.51 0 0 1 2.06-.52c.71.42.95 1.34.52 2.06-1.01 1.69-2 3.42-2.94 5.15-.27.5-.78.78-1.31.78m-5.33 10.72c-.21 0-.41-.05-.62-.14a1.5 1.5 0 0 1-.75-1.98c.83-1.83 1.7-3.67 2.59-5.46.37-.74 1.27-1.05 2.01-.68s1.04 1.27.67 2.02c-.87 1.75-1.72 3.56-2.53 5.35-.25.56-.8.89-1.37.89m-13.72 58h-.06c-.83-.04-1.47-.74-1.44-1.56.08-2 .21-4.03.37-6.05.07-.82.81-1.44 1.62-1.37.82.06 1.44.79 1.37 1.61-.16 1.98-.28 3.98-.36 5.93-.04.81-.7 1.44-1.5 1.44m315.81 3.1c-.81 0-1.48-.65-1.5-1.47-.05-1.97-.13-3.97-.25-5.93a1.5 1.5 0 0 1 1.41-1.59c.84-.06 1.54.58 1.59 1.4.12 2.01.2 4.04.25 6.05.02.83-.64 1.52-1.46 1.54zm-315.88 8.89c-.8 0-1.47-.64-1.49-1.45-.06-1.72-.09-3.47-.09-5.22v-.83c.01-.83.68-1.5 1.5-1.5h.01c.83 0 1.5.68 1.49 1.51v.82c0 1.72.03 3.44.08 5.12.03.83-.62 1.52-1.45 1.55zm315.71 3.1h-.08c-.82-.04-1.46-.75-1.42-1.57.1-1.97.17-3.96.2-5.94.01-.83.68-1.48 1.5-1.48h.02c.83.01 1.49.69 1.48 1.52-.03 2.02-.1 4.05-.2 6.05-.04.8-.71 1.42-1.5 1.42m-1.07 11.95c-.06 0-.12-.01-.19-.01-.82-.11-1.4-.86-1.3-1.68.25-1.96.47-3.94.64-5.91.08-.82.8-1.43 1.63-1.36.83.08 1.43.81 1.36 1.63-.18 2-.4 4.02-.65 6.02a1.5 1.5 0 0 1-1.49 1.31m-1.97 11.83q-.15 0-.3-.03c-.81-.17-1.34-.96-1.17-1.77.4-1.93.76-3.9 1.09-5.84.13-.82.91-1.37 1.72-1.24.82.14 1.37.91 1.24 1.73-.33 1.98-.7 3.98-1.11 5.95-.15.71-.77 1.2-1.47 1.2m-2.87 11.64c-.13 0-.27-.01-.41-.05a1.5 1.5 0 0 1-1.03-1.86c.55-1.91 1.06-3.84 1.53-5.74.2-.8 1.01-1.3 1.82-1.1.8.2 1.29 1.01 1.1 1.82-.48 1.94-1.01 3.9-1.56 5.85-.19.66-.79 1.08-1.45 1.08m-3.75 11.4c-.17 0-.35-.03-.52-.1a1.495 1.495 0 0 1-.88-1.93c.68-1.84 1.35-3.73 1.96-5.6.26-.79 1.11-1.22 1.9-.96.78.26 1.21 1.11.95 1.9-.63 1.91-1.3 3.83-2 5.71-.22.6-.8.98-1.41.98m-292.9 8.28c-.58 0-1.13-.33-1.38-.9-.81-1.84-1.59-3.73-2.33-5.6-.3-.77.08-1.64.85-1.94.77-.31 1.64.07 1.94.84.73 1.84 1.49 3.69 2.29 5.5.33.76-.01 1.65-.77 1.98q-.3.12-.6.12m288.31 2.76c-.21 0-.42-.04-.63-.14a1.496 1.496 0 0 1-.73-1.99c.82-1.78 1.62-3.61 2.38-5.42a1.49 1.49 0 0 1 1.96-.81 1.5 1.5 0 0 1 .81 1.96c-.77 1.85-1.59 3.71-2.43 5.53-.25.55-.79.87-1.36.87m-283.07 8.06c-.54 0-1.06-.29-1.33-.8-.94-1.77-1.87-3.59-2.75-5.4-.36-.75-.05-1.65.7-2.01s1.64-.05 2 .7c.87 1.78 1.78 3.56 2.7 5.3.39.73.11 1.64-.62 2.03-.22.12-.46.18-.7.18m277.65 2.61c-.25 0-.5-.06-.73-.19-.73-.4-.99-1.32-.58-2.04.95-1.72 1.89-3.48 2.78-5.23a1.5 1.5 0 0 1 2.02-.66c.74.37 1.03 1.28.66 2.01-.91 1.79-1.87 3.59-2.84 5.34-.28.49-.79.77-1.31.77m-6.23 10.23c-.28 0-.57-.08-.82-.25-.7-.45-.88-1.39-.43-2.08 1.08-1.63 2.15-3.32 3.18-5.01.43-.7 1.35-.93 2.06-.5s.93 1.35.5 2.06c-1.04 1.72-2.13 3.44-3.24 5.11-.28.43-.76.67-1.25.67m-6.98 9.74c-.32 0-.65-.1-.92-.31a1.52 1.52 0 0 1-.27-2.11c1.21-1.55 2.4-3.15 3.55-4.76.49-.67 1.42-.83 2.1-.34.67.48.83 1.42.34 2.09a161 161 0 0 1-3.61 4.85c-.3.38-.74.58-1.19.58m-7.7 9.19a1.502 1.502 0 0 1-1.11-2.51c1.31-1.45 2.62-2.95 3.9-4.48.53-.63 1.48-.72 2.11-.18.64.53.72 1.48.19 2.11-1.3 1.55-2.64 3.09-3.98 4.56-.29.33-.7.5-1.11.5m-8.37 8.58c-.4 0-.8-.16-1.09-.47a1.5 1.5 0 0 1 .05-2.12c1.42-1.35 2.85-2.75 4.23-4.17.58-.59 1.53-.6 2.12-.03.6.58.61 1.53.03 2.13-1.41 1.44-2.86 2.87-4.31 4.25-.29.27-.66.41-1.03.41m-210.9 6.07c-.35 0-.69-.11-.97-.35-1.54-1.31-3.07-2.65-4.55-4a1.501 1.501 0 0 1 2.03-2.21c1.44 1.32 2.94 2.64 4.46 3.92.63.53.71 1.48.17 2.11-.3.35-.72.53-1.14.53m201.89 1.86c-.43 0-.86-.19-1.16-.55-.52-.64-.43-1.58.21-2.11 1.53-1.25 3.06-2.54 4.54-3.85.62-.54 1.57-.48 2.12.14.54.62.48 1.57-.14 2.12-1.51 1.32-3.06 2.64-4.62 3.91-.28.23-.61.34-.95.34m-192.46 5.54c-.31 0-.62-.09-.88-.29-1.63-1.18-3.26-2.4-4.83-3.64-.65-.51-.77-1.45-.26-2.1s1.46-.77 2.11-.26c1.55 1.21 3.14 2.42 4.74 3.57a1.503 1.503 0 0 1-.88 2.72m182.88 1.69c-.47 0-.93-.22-1.23-.64-.47-.68-.3-1.61.38-2.09 1.61-1.12 3.23-2.3 4.81-3.49.66-.5 1.6-.37 2.1.3.5.66.37 1.6-.29 2.1-1.61 1.21-3.26 2.41-4.91 3.55-.26.19-.56.27-.86.27m-172.92 4.97c-.27 0-.54-.07-.79-.22-1.71-1.06-3.43-2.16-5.09-3.27-.69-.46-.87-1.39-.41-2.08s1.39-.87 2.08-.41c1.63 1.09 3.31 2.17 4.99 3.2.71.43.93 1.36.49 2.06-.28.46-.77.72-1.27.72m162.82 1.52a1.5 1.5 0 0 1-1.29-.73 1.5 1.5 0 0 1 .53-2.06c1.7-1 3.4-2.05 5.06-3.12.7-.44 1.63-.24 2.07.45.45.7.25 1.63-.45 2.08a178 178 0 0 1-5.16 3.18c-.24.14-.5.2-.76.2m-152.4 4.36a1.4 1.4 0 0 1-.68-.17c-1.79-.92-3.58-1.88-5.32-2.86-.72-.41-.98-1.33-.57-2.05s1.32-.97 2.04-.57c1.71.97 3.47 1.91 5.22 2.82.74.38 1.03 1.28.65 2.02-.27.51-.79.81-1.34.81m141.83 1.35c-.56 0-1.09-.31-1.35-.84-.36-.75-.06-1.64.69-2.01 1.76-.86 3.54-1.78 5.29-2.72.73-.4 1.64-.13 2.03.6s.12 1.64-.61 2.04c-1.78.96-3.6 1.89-5.39 2.77-.21.11-.44.16-.66.16m-130.99 3.72c-.19 0-.39-.04-.58-.12-1.85-.78-3.7-1.6-5.52-2.45a1.506 1.506 0 0 1-.72-2c.35-.75 1.24-1.07 1.99-.72 1.78.83 3.61 1.64 5.42 2.41.76.32 1.12 1.2.79 1.96-.24.58-.79.92-1.38.92m120 1.16c-.59 0-1.15-.36-1.39-.94a1.5 1.5 0 0 1 .84-1.95c1.83-.74 3.68-1.51 5.48-2.32a1.5 1.5 0 0 1 1.98.76c.34.76 0 1.65-.76 1.98-1.84.82-3.72 1.62-5.59 2.36-.18.08-.37.11-.56.11m-108.79 3.08c-.16 0-.32-.03-.48-.08-1.91-.64-3.83-1.33-5.7-2.03a1.51 1.51 0 0 1-.88-1.94c.3-.77 1.17-1.16 1.94-.87 1.83.69 3.72 1.37 5.59 1.99.79.27 1.21 1.12.95 1.9-.21.63-.8 1.03-1.42 1.03m97.46.95a1.498 1.498 0 0 1-.45-2.93c1.89-.59 3.79-1.23 5.65-1.89.78-.28 1.64.13 1.92.91s-.13 1.64-.91 1.92c-1.9.67-3.84 1.32-5.76 1.92-.15.05-.3.07-.45.07m-85.95 2.42c-.12 0-.25-.02-.37-.05-1.95-.49-3.92-1.02-5.84-1.59a1.5 1.5 0 1 1 .84-2.88c1.89.56 3.82 1.08 5.73 1.56.81.2 1.29 1.02 1.09 1.82-.17.68-.78 1.14-1.45 1.14m74.37.72c-.68 0-1.3-.46-1.46-1.16-.18-.81.32-1.61 1.13-1.8 1.91-.44 3.85-.93 5.76-1.44a1.497 1.497 0 1 1 .78 2.89c-1.94.53-3.92 1.02-5.87 1.48-.11.02-.22.03-.34.03m-62.64 1.76c-.08 0-.17-.01-.25-.02-1.97-.34-3.97-.72-5.95-1.14-.81-.17-1.33-.97-1.16-1.78s.97-1.32 1.78-1.16c1.95.41 3.91.79 5.83 1.12.82.14 1.37.91 1.23 1.73-.13.73-.76 1.25-1.48 1.25m50.86.49c-.73 0-1.36-.53-1.48-1.27-.12-.82.44-1.58 1.26-1.71 1.94-.29 3.91-.63 5.86-1 .8-.15 1.6.38 1.75 1.19.16.82-.38 1.6-1.19 1.76-1.99.37-3.99.72-5.97 1.02-.08.01-.15.01-.23.01m-38.97 1.09c-.05 0-.1 0-.14-.01-1.99-.18-4.02-.41-6.02-.68-.82-.11-1.4-.86-1.29-1.69a1.5 1.5 0 0 1 1.69-1.28c1.96.26 3.95.48 5.9.67.82.07 1.43.81 1.35 1.63-.07.78-.73 1.36-1.49 1.36m27.06.26c-.78 0-1.44-.6-1.5-1.39-.06-.82.56-1.54 1.39-1.6 1.96-.15 3.95-.34 5.91-.56.81-.1 1.57.5 1.66 1.32.09.83-.5 1.57-1.32 1.66-2 .23-4.03.42-6.03.57zm-15.09.42h-.03c-2-.04-4.04-.11-6.05-.23-.82-.05-1.46-.75-1.41-1.58s.76-1.44 1.58-1.41c1.97.11 3.97.18 5.94.22.83.02 1.49.7 1.47 1.53-.01.82-.68 1.47-1.5 1.47m3.1.03c-.83 0-1.5-.67-1.5-1.5s.67-1.5 1.5-1.5c1.98 0 3.98-.04 5.94-.11.82-.03 1.53.62 1.56 1.44.03.83-.62 1.53-1.45 1.56-1.99.07-4.03.11-6.05.11M417.45 140.02a1.5 1.5 0 0 1-.02-3c2-.02 4.02-.02 6.03-.01.83.01 1.49.69 1.48 1.52 0 .82-.67 1.48-1.5 1.48h-.01c-1.99-.02-3.98-.01-5.97.01zm17.98.37h-.08c-1.98-.11-3.97-.19-5.96-.25-.83-.03-1.48-.72-1.45-1.55.02-.83.7-1.51 1.54-1.45 2.02.06 4.03.15 6.03.25.83.05 1.46.76 1.42 1.58-.05.8-.71 1.42-1.5 1.42m11.96.9h-.14c-1.98-.19-3.96-.37-5.95-.52-.82-.06-1.44-.78-1.38-1.61.06-.82.8-1.44 1.61-1.38 2.01.15 4.01.33 6.01.52.82.08 1.43.82 1.35 1.64-.08.78-.73 1.35-1.5 1.35m11.92 1.43c-.07 0-.15 0-.22-.01-1.96-.28-3.94-.54-5.91-.78-.83-.1-1.41-.84-1.31-1.67.1-.82.84-1.41 1.66-1.31 1.99.24 4.01.5 5.98.79.83.11 1.4.87 1.28 1.69-.11.75-.75 1.29-1.48 1.29m11.83 1.95c-.09 0-.18-.01-.28-.02-1.95-.37-3.91-.72-5.87-1.04a1.499 1.499 0 1 1 .49-2.96q2.97.495 5.94 1.05c.81.15 1.35.93 1.2 1.75-.14.72-.77 1.22-1.48 1.22m11.74 2.47c-.11 0-.23-.01-.34-.03-1.94-.46-3.88-.89-5.83-1.3a1.49 1.49 0 0 1-1.15-1.78c.17-.81.96-1.33 1.77-1.16 1.98.42 3.96.86 5.89 1.31.81.19 1.31 1 1.12 1.81-.16.69-.78 1.15-1.46 1.15m11.62 2.99c-.14 0-.27-.01-.41-.05-1.92-.54-3.85-1.06-5.76-1.55-.8-.21-1.28-1.03-1.08-1.83.21-.8 1.03-1.29 1.83-1.08 1.93.5 3.89 1.03 5.82 1.57.8.22 1.27 1.05 1.04 1.85-.18.66-.79 1.09-1.44 1.09m11.47 3.51c-.15 0-.31-.02-.47-.08-1.89-.62-3.78-1.22-5.68-1.8-.8-.24-1.24-1.08-1-1.88a1.49 1.49 0 0 1 1.87-.99c1.93.59 3.86 1.2 5.75 1.82.79.26 1.22 1.11.96 1.9-.21.63-.8 1.03-1.43 1.03m-171.06.16c-.62 0-1.21-.4-1.42-1.03-.26-.78.17-1.63.95-1.9 1.91-.63 3.85-1.25 5.77-1.84.79-.24 1.63.2 1.87.99.25.8-.2 1.64-.99 1.88-1.91.59-3.81 1.19-5.7 1.82-.16.05-.32.08-.48.08m182.37 3.85c-.18 0-.36-.03-.54-.1-1.85-.7-3.72-1.39-5.6-2.05a1.51 1.51 0 0 1-.91-1.92c.28-.78 1.14-1.19 1.92-.91 1.9.67 3.81 1.37 5.66 2.08.78.29 1.16 1.16.87 1.93-.23.6-.8.97-1.4.97m-193.7.2c-.61 0-1.17-.37-1.4-.97-.3-.77.09-1.64.86-1.93 1.86-.72 3.77-1.42 5.68-2.1.78-.28 1.64.13 1.92.91.27.78-.13 1.63-.91 1.91-1.89.67-3.78 1.37-5.62 2.08-.17.07-.35.1-.53.1m204.79 4.3c-.2 0-.4-.04-.59-.12-1.82-.79-3.67-1.56-5.48-2.3a1.495 1.495 0 0 1-.83-1.95c.31-.77 1.19-1.13 1.95-.83 1.84.75 3.71 1.53 5.55 2.32.76.33 1.11 1.22.78 1.98-.24.56-.8.9-1.38.9m-215.93.24c-.58 0-1.13-.34-1.38-.9-.33-.76.02-1.64.78-1.97 1.83-.8 3.7-1.59 5.57-2.35.77-.32 1.65.05 1.96.82s-.06 1.64-.82 1.96c-1.85.75-3.69 1.52-5.52 2.32-.19.08-.39.12-.59.12m226.81 4.74c-.22 0-.45-.05-.66-.15-1.78-.86-3.57-1.71-5.38-2.54a1.497 1.497 0 1 1 1.25-2.72c1.83.83 3.64 1.69 5.44 2.56.75.36 1.06 1.26.7 2.01-.26.53-.8.84-1.35.84m-237.74.3c-.55 0-1.09-.31-1.34-.85-.37-.74-.06-1.64.68-2 1.8-.88 3.64-1.75 5.47-2.59.75-.35 1.64-.02 1.99.73s.02 1.64-.74 1.99c-1.81.83-3.62 1.7-5.4 2.56-.21.11-.44.16-.66.16m248.38 5.16c-.24 0-.48-.06-.71-.18-1.74-.95-3.5-1.87-5.27-2.78a1.5 1.5 0 0 1-.65-2.01c.38-.74 1.29-1.03 2.02-.66 1.79.92 3.56 1.86 5.33 2.81.73.39 1 1.3.6 2.03-.27.5-.79.79-1.32.79m-259.06.35a1.501 1.501 0 0 1-.72-2.82c1.76-.96 3.56-1.91 5.34-2.83.74-.38 1.64-.09 2.02.65.38.73.09 1.64-.64 2.02-1.77.91-3.54 1.85-5.28 2.8-.23.12-.48.18-.72.18m269.46 5.57c-.26 0-.53-.06-.77-.21-1.7-1.02-3.41-2.02-5.14-3-.72-.41-.97-1.33-.56-2.05s1.33-.97 2.05-.56c1.74.99 3.47 2.01 5.19 3.04.71.42.95 1.34.52 2.06-.28.46-.78.72-1.29.72m-279.89.41c-.5 0-1-.26-1.28-.73-.43-.71-.2-1.63.51-2.06 1.72-1.04 3.46-2.06 5.21-3.06.71-.41 1.63-.17 2.04.55.42.72.17 1.64-.55 2.05-1.73.99-3.45 2-5.15 3.03-.24.15-.51.22-.78.22m290.02 5.97c-.28 0-.57-.08-.82-.24-1.66-1.1-3.33-2.17-5.01-3.23-.7-.45-.91-1.37-.47-2.07.45-.7 1.37-.91 2.07-.47 1.7 1.07 3.39 2.16 5.06 3.26.69.46.88 1.39.43 2.08-.29.44-.77.67-1.26.67m-300.16.46a1.505 1.505 0 0 1-.84-2.75c1.68-1.11 3.38-2.22 5.07-3.29.7-.44 1.63-.24 2.07.46s.24 1.63-.46 2.07c-1.68 1.06-3.36 2.16-5.01 3.26-.26.17-.55.25-.83.25m310.01 6.36c-.3 0-.61-.09-.88-.28-1.6-1.16-3.23-2.32-4.86-3.45-.68-.47-.85-1.4-.38-2.09.48-.68 1.41-.85 2.09-.38 1.64 1.14 3.3 2.32 4.91 3.49.67.49.82 1.42.34 2.09-.3.41-.75.62-1.22.62m-319.86.51a1.503 1.503 0 0 1-.89-2.72c1.62-1.18 3.26-2.35 4.91-3.5.68-.48 1.62-.31 2.09.37.48.68.31 1.61-.37 2.09a269 269 0 0 0-4.86 3.47c-.27.19-.58.29-.88.29m329.4 6.74c-.32 0-.65-.1-.93-.32-1.55-1.24-3.12-2.46-4.7-3.66a1.499 1.499 0 1 1 1.81-2.39c1.6 1.22 3.19 2.45 4.76 3.7.65.52.75 1.46.24 2.11-.3.37-.73.56-1.18.56m-338.94.55c-.44 0-.88-.19-1.17-.56-.52-.65-.42-1.59.23-2.11 1.57-1.26 3.16-2.5 4.75-3.72.66-.5 1.6-.38 2.11.28.5.66.37 1.6-.28 2.1-1.59 1.21-3.15 2.44-4.71 3.68-.27.22-.6.33-.93.33m348.16 7.12c-.35 0-.7-.12-.98-.37-1.5-1.3-3.02-2.59-4.54-3.86-.64-.53-.73-1.48-.2-2.11.53-.64 1.48-.73 2.11-.2 1.55 1.29 3.08 2.59 4.6 3.91.62.54.69 1.49.14 2.11-.29.34-.71.52-1.13.52m-357.37.58c-.41 0-.83-.17-1.13-.51-.54-.62-.48-1.57.15-2.12 1.51-1.32 3.04-2.63 4.58-3.92.64-.53 1.58-.45 2.11.19.53.63.45 1.58-.18 2.11-1.53 1.28-3.04 2.57-4.54 3.88-.28.25-.64.37-.99.37m366.25 7.48c-.37 0-.74-.14-1.04-.41-1.44-1.37-2.91-2.74-4.36-4.06-.62-.56-.66-1.51-.11-2.12.56-.61 1.51-.66 2.12-.1 1.48 1.34 2.96 2.72 4.42 4.1a1.5 1.5 0 0 1-1.03 2.59m-375.1.62c-.4 0-.79-.16-1.09-.47a1.5 1.5 0 0 1 .05-2.12c1.46-1.39 2.92-2.76 4.41-4.11.61-.57 1.56-.52 2.12.09s.51 1.56-.1 2.12c-1.46 1.34-2.92 2.7-4.36 4.07-.29.28-.66.42-1.03.42m383.61 7.83c-.39 0-.78-.16-1.08-.46-1.38-1.43-2.77-2.85-4.18-4.25a1.49 1.49 0 0 1-.01-2.12 1.5 1.5 0 0 1 2.12-.01q2.145 2.13 4.23 4.29c.58.6.56 1.55-.03 2.12-.3.29-.67.43-1.05.43m-392.1.64a1.491 1.491 0 0 1-1.08-2.53c1.37-1.43 2.79-2.88 4.22-4.31a1.49 1.49 0 0 1 2.12 0c.58.59.58 1.54 0 2.12-1.42 1.41-2.82 2.85-4.18 4.26-.29.31-.69.46-1.08.46m400.25 8.17c-.42 0-.83-.17-1.13-.51-1.32-1.49-2.66-2.98-4-4.42a1.51 1.51 0 0 1 .08-2.12c.61-.57 1.56-.53 2.12.08 1.36 1.46 2.72 2.97 4.05 4.48.55.62.49 1.57-.13 2.11-.29.26-.64.38-.99.38m-408.36.67c-.35 0-.7-.12-.99-.37-.62-.55-.68-1.5-.14-2.12 1.33-1.51 2.67-3.01 4.03-4.49a1.501 1.501 0 0 1 2.21 2.03c-1.34 1.47-2.67 2.95-3.98 4.44-.3.34-.71.51-1.13.51m416.1 8.5c-.43 0-.87-.2-1.16-.56-1.26-1.56-2.54-3.11-3.81-4.6-.53-.63-.45-1.58.18-2.12.63-.53 1.58-.45 2.11.18 1.28 1.51 2.58 3.08 3.85 4.65a1.504 1.504 0 0 1-1.17 2.45m-423.81.68c-.33 0-.66-.11-.94-.33-.64-.52-.75-1.47-.23-2.11 1.25-1.55 2.53-3.12 3.83-4.66a1.502 1.502 0 0 1 2.3 1.93c-1.28 1.52-2.56 3.07-3.79 4.61-.29.37-.73.56-1.17.56m431.16 8.82c-.46 0-.92-.22-1.21-.61-1.18-1.6-2.39-3.2-3.6-4.77a1.49 1.49 0 0 1 .27-2.1c.65-.51 1.6-.39 2.1.27 1.23 1.58 2.45 3.2 3.64 4.81a1.509 1.509 0 0 1-1.2 2.4m-438.46.68c-.31 0-.62-.09-.88-.29-.67-.49-.81-1.43-.32-2.1 1.18-1.61 2.39-3.22 3.61-4.81.5-.66 1.45-.79 2.1-.28.66.51.79 1.45.28 2.1-1.21 1.58-2.4 3.17-3.58 4.77-.29.4-.75.61-1.21.61m445.37 9.13c-.48 0-.95-.23-1.24-.66a320 320 0 0 0-3.39-4.92c-.48-.68-.32-1.61.36-2.09s1.61-.32 2.09.36c1.14 1.61 2.29 3.29 3.43 4.97.46.69.28 1.62-.41 2.09-.26.17-.55.25-.84.25m-452.24.69c-.28 0-.57-.09-.83-.26-.69-.46-.87-1.39-.41-2.08 1.11-1.67 2.24-3.32 3.4-4.97.47-.68 1.41-.84 2.08-.37.68.48.85 1.41.37 2.09q-1.71 2.445-3.36 4.92c-.29.43-.76.67-1.25.67m-6.43 10.1c-.26 0-.53-.07-.78-.22-.7-.43-.93-1.35-.5-2.06 1.04-1.72 2.1-3.42 3.18-5.11.44-.7 1.37-.9 2.07-.46s.9 1.37.46 2.07a287 287 0 0 0-3.15 5.06c-.28.46-.77.72-1.28.72m-5.97 10.37q-.375 0-.72-.18c-.73-.4-1-1.31-.6-2.04.96-1.76 1.95-3.51 2.95-5.25.41-.72 1.33-.96 2.05-.55.71.41.96 1.33.55 2.05-.99 1.72-1.96 3.45-2.92 5.19-.27.5-.78.78-1.31.78m-5.52 10.62c-.22 0-.44-.05-.66-.16a1.49 1.49 0 0 1-.68-2c.88-1.8 1.79-3.59 2.71-5.37.38-.74 1.29-1.02 2.02-.64.74.38 1.02 1.28.64 2.02-.91 1.76-1.8 3.53-2.68 5.31-.26.53-.79.84-1.35.84m-5.03 10.85c-.2 0-.41-.04-.6-.13a1.51 1.51 0 0 1-.78-1.98c.81-1.83 1.63-3.66 2.48-5.48.34-.75 1.24-1.07 1.99-.73.75.35 1.08 1.24.73 2-.84 1.79-1.65 3.6-2.45 5.42-.24.56-.79.9-1.37.9m-4.56 11.07c-.18 0-.36-.03-.54-.1-.77-.3-1.15-1.17-.86-1.94.73-1.88 1.47-3.75 2.24-5.6.31-.77 1.19-1.13 1.95-.82.77.31 1.14 1.19.82 1.96-.75 1.83-1.49 3.68-2.21 5.54-.23.59-.8.96-1.4.96m511.63 10.8c-.63 0-1.21-.4-1.42-1.02-.64-1.9-1.31-3.8-1.98-5.65-.29-.78.12-1.64.9-1.93.77-.28 1.63.12 1.92.9.68 1.88 1.35 3.8 2 5.72.26.78-.16 1.63-.94 1.9-.16.05-.32.08-.48.08m-515.7.49a1.503 1.503 0 0 1-1.42-1.98c.64-1.9 1.3-3.82 1.98-5.7.28-.78 1.14-1.18 1.92-.9s1.19 1.14.91 1.92c-.67 1.86-1.33 3.75-1.97 5.63-.2.63-.79 1.03-1.42 1.03m519.29 10.98c-.65 0-1.25-.43-1.44-1.09-.56-1.91-1.13-3.81-1.72-5.71a1.498 1.498 0 1 1 2.86-.89c.6 1.91 1.18 3.84 1.74 5.77a1.5 1.5 0 0 1-1.44 1.92m3.07 11.6c-.68 0-1.29-.47-1.46-1.15-.47-1.94-.95-3.87-1.46-5.79-.21-.8.26-1.62 1.07-1.83.8-.21 1.62.27 1.83 1.06.51 1.95 1.01 3.9 1.48 5.85.19.81-.3 1.62-1.11 1.81-.12.03-.24.05-.35.05m-531.5 12.2c-.09 0-.19-.01-.29-.03-.81-.15-1.34-.94-1.18-1.75q.57-2.97 1.2-5.91c.18-.81.98-1.33 1.79-1.15.81.17 1.32.97 1.15 1.78q-.63 2.91-1.2 5.85c-.14.71-.77 1.21-1.47 1.21m539.03 47.19c-.81 0-1.48-.66-1.5-1.48-.03-1.99-.08-3.98-.16-5.96a1.5 1.5 0 0 1 1.44-1.56c.85-.03 1.53.61 1.56 1.44.08 2.01.13 4.02.16 6.03.02.83-.64 1.51-1.47 1.53zm-.05 11.99h-.05a1.49 1.49 0 0 1-1.45-1.54c.05-1.98.08-3.97.09-5.96 0-.83.67-1.46 1.51-1.49.83 0 1.49.68 1.49 1.5-.01 2.02-.04 4.03-.1 6.03-.02.82-.69 1.46-1.49 1.46m-.58 11.98h-.11c-.83-.06-1.45-.78-1.39-1.6.14-1.98.25-3.97.35-5.96.04-.83.72-1.46 1.57-1.42a1.5 1.5 0 0 1 1.43 1.57c-.1 2.01-.22 4.02-.36 6.02-.05.79-.71 1.39-1.49 1.39m-1.11 11.95c-.06 0-.11 0-.17-.01-.82-.09-1.41-.84-1.32-1.66.23-1.97.43-3.95.62-5.94.07-.82.81-1.43 1.63-1.35a1.5 1.5 0 0 1 1.35 1.63c-.18 2.01-.39 4.01-.62 6-.09.77-.74 1.33-1.49 1.33m-1.63 11.88c-.07 0-.15 0-.23-.01-.82-.14-1.38-.9-1.25-1.72.31-1.96.61-3.93.88-5.9.11-.82.87-1.39 1.69-1.29.82.12 1.39.87 1.28 1.69-.28 2-.57 3.99-.89 5.97-.11.74-.75 1.26-1.48 1.26M687.12 467q-.15 0-.3-.03c-.81-.17-1.33-.96-1.17-1.78q.6-2.91 1.14-5.85c.15-.82.93-1.36 1.74-1.21.82.15 1.36.93 1.21 1.74-.36 1.96-.74 3.95-1.15 5.93-.15.71-.77 1.2-1.47 1.2m-2.67 11.69c-.12 0-.25-.01-.37-.04a1.51 1.51 0 0 1-1.09-1.82c.48-1.91.95-3.86 1.4-5.8.18-.81.98-1.32 1.79-1.13.81.18 1.31.99 1.13 1.79-.45 1.97-.92 3.94-1.41 5.87-.17.68-.78 1.13-1.45 1.13m-3.19 11.57c-.14 0-.29-.02-.43-.07-.8-.23-1.25-1.07-1.01-1.86.57-1.91 1.12-3.82 1.65-5.74.22-.8 1.05-1.26 1.85-1.05.79.23 1.26 1.05 1.04 1.85-.53 1.94-1.09 3.87-1.67 5.8-.19.65-.79 1.07-1.43 1.07m-3.7 11.41c-.17 0-.34-.03-.5-.09a1.5 1.5 0 0 1-.92-1.91c.65-1.87 1.29-3.76 1.9-5.65.26-.79 1.11-1.22 1.89-.96.79.25 1.22 1.1.97 1.89-.63 1.91-1.27 3.82-1.93 5.71a1.49 1.49 0 0 1-1.41 1.01m-4.21 11.23c-.18 0-.37-.03-.55-.1a1.5 1.5 0 0 1-.84-1.95c.74-1.85 1.45-3.7 2.15-5.57a1.499 1.499 0 1 1 2.81 1.05c-.7 1.89-1.43 3.76-2.18 5.63-.23.59-.79.94-1.39.94m-4.68 11a1.5 1.5 0 0 1-.62-.13 1.5 1.5 0 0 1-.75-1.98c.82-1.81 1.62-3.62 2.39-5.45a1.501 1.501 0 0 1 2.76 1.18c-.78 1.83-1.59 3.69-2.41 5.5-.25.56-.8.88-1.37.88m-5.17 10.79a1.497 1.497 0 0 1-1.33-2.18c.89-1.76 1.77-3.54 2.63-5.33.35-.75 1.25-1.06 2-.71.74.36 1.06 1.26.7 2-.87 1.81-1.75 3.61-2.66 5.4-.26.52-.79.82-1.34.82m-5.64 10.56c-.24 0-.5-.07-.73-.2-.72-.4-.98-1.32-.57-2.04.97-1.73 1.92-3.47 2.86-5.22.39-.73 1.3-1 2.03-.61s1.01 1.3.62 2.03c-.95 1.77-1.91 3.52-2.9 5.27-.27.49-.78.77-1.31.77m-473.98.66c-.53 0-1.03-.27-1.31-.76-.99-1.75-1.98-3.53-2.92-5.29a1.499 1.499 0 0 1 2.64-1.42c.94 1.74 1.91 3.5 2.89 5.23.41.72.16 1.64-.56 2.05-.24.13-.49.19-.74.19m467.88 9.63c-.27 0-.54-.07-.79-.22-.7-.44-.92-1.36-.48-2.07 1.05-1.68 2.08-3.38 3.09-5.09a1.51 1.51 0 0 1 2.06-.52c.71.42.95 1.34.52 2.05-1.02 1.73-2.06 3.44-3.12 5.15-.28.45-.77.7-1.28.7m-461.73.69c-.5 0-.98-.25-1.27-.7-1.06-1.69-2.12-3.43-3.15-5.16-.43-.71-.19-1.63.52-2.05.71-.43 1.63-.19 2.05.52 1.03 1.71 2.06 3.41 3.12 5.1a1.492 1.492 0 0 1-1.27 2.29m455.18 9.34a1.498 1.498 0 0 1-1.23-2.35c1.12-1.64 2.22-3.29 3.31-4.95.45-.69 1.38-.88 2.08-.43.69.45.88 1.38.43 2.07-1.1 1.68-2.21 3.35-3.35 5.01-.29.42-.76.65-1.24.65m-448.58.7c-.47 0-.94-.23-1.23-.65-1.14-1.66-2.27-3.33-3.38-5.01-.45-.69-.26-1.62.43-2.07.69-.46 1.63-.27 2.08.42a239 239 0 0 0 3.34 4.96c.47.68.3 1.61-.39 2.08-.26.18-.55.27-.85.27m441.6 9.03c-.32 0-.64-.1-.9-.3-.67-.5-.8-1.44-.3-2.1 1.19-1.58 2.37-3.19 3.53-4.8.48-.67 1.41-.83 2.09-.35.67.49.83 1.43.34 2.1a241 241 0 0 1-3.56 4.85c-.3.4-.75.6-1.2.6m-434.56.7c-.45 0-.9-.2-1.2-.59-1.21-1.61-2.41-3.23-3.59-4.86-.49-.67-.33-1.61.34-2.09.67-.49 1.61-.34 2.09.34 1.17 1.61 2.35 3.21 3.55 4.8.5.66.37 1.6-.29 2.1-.27.2-.59.3-.9.3m427.15 8.72a1.495 1.495 0 0 1-1.16-2.45c1.26-1.54 2.52-3.1 3.74-4.65.51-.65 1.45-.76 2.1-.25s.77 1.46.25 2.11c-1.23 1.56-2.5 3.14-3.78 4.69-.29.36-.72.55-1.15.55m-419.7.69c-.43 0-.86-.18-1.15-.54-1.29-1.55-2.55-3.12-3.8-4.69-.52-.65-.41-1.59.24-2.11.65-.51 1.59-.4 2.11.25 1.23 1.56 2.49 3.1 3.76 4.63.52.64.44 1.59-.2 2.12-.28.23-.62.34-.96.34m411.88 8.4a1.499 1.499 0 0 1-1.12-2.5c1.33-1.48 2.64-2.97 3.94-4.48.54-.63 1.49-.7 2.11-.16.63.54.7 1.49.16 2.12-1.3 1.51-2.64 3.03-3.98 4.52-.29.33-.7.5-1.11.5m-404.02.67c-.41 0-.82-.16-1.12-.49-1.34-1.49-2.68-3-3.99-4.52-.55-.62-.48-1.57.15-2.11.62-.55 1.57-.48 2.11.15 1.31 1.5 2.62 2.99 3.96 4.47.55.61.51 1.56-.11 2.12-.28.26-.64.38-1 .38m395.81 8.07c-.38 0-.76-.14-1.06-.43a1.49 1.49 0 0 1-.01-2.12c1.39-1.42 2.76-2.86 4.13-4.3.56-.61 1.51-.64 2.12-.07.6.57.63 1.52.06 2.12a341 341 0 0 1-4.17 4.35c-.3.3-.69.45-1.07.45m-387.57.65a1.5 1.5 0 0 1-1.07-.45c-1.4-1.41-2.81-2.87-4.19-4.33a1.5 1.5 0 0 1 .06-2.12c.6-.57 1.55-.55 2.12.06 1.37 1.44 2.76 2.88 4.15 4.28.58.59.57 1.54-.01 2.12-.3.29-.68.44-1.06.44m378.97 7.72c-.4 0-.8-.16-1.09-.47a1.5 1.5 0 0 1 .07-2.12c1.46-1.36 2.89-2.73 4.32-4.12a1.5 1.5 0 1 1 2.09 2.15c-1.44 1.4-2.89 2.79-4.36 4.16-.29.27-.66.4-1.03.4m-370.35.62c-.37 0-.73-.13-1.02-.4-1.48-1.36-2.94-2.75-4.38-4.15a1.49 1.49 0 0 1-.03-2.12 1.5 1.5 0 0 1 2.12-.03c1.43 1.38 2.87 2.75 4.33 4.1.6.56.64 1.51.08 2.12-.3.32-.7.48-1.1.48m361.4 7.37c-.42 0-.84-.17-1.14-.52-.54-.63-.46-1.58.17-2.12a300 300 0 0 0 4.49-3.92c.62-.55 1.57-.5 2.12.12.55.61.5 1.56-.12 2.11-1.48 1.33-3 2.66-4.54 3.97-.29.25-.63.36-.98.36m-352.43.59c-.35 0-.69-.12-.97-.36-1.53-1.3-3.05-2.62-4.56-3.95-.62-.55-.67-1.5-.12-2.12s1.5-.67 2.11-.12c1.49 1.32 2.99 2.62 4.51 3.9a1.505 1.505 0 0 1-.97 2.65m343.14 7.01c-.45 0-.89-.2-1.19-.58-.5-.65-.39-1.6.26-2.11 1.57-1.22 3.13-2.46 4.67-3.72.64-.53 1.59-.43 2.11.21s.43 1.59-.21 2.11c-1.56 1.28-3.13 2.53-4.72 3.77-.27.21-.6.32-.92.32m-333.84.54c-.32 0-.64-.1-.91-.32-1.59-1.23-3.17-2.48-4.72-3.74-.65-.52-.75-1.47-.22-2.11.52-.64 1.46-.74 2.11-.22 1.54 1.25 3.1 2.49 4.67 3.71.65.5.77 1.45.26 2.1-.3.38-.74.58-1.19.58m324.21 6.64c-.46 0-.93-.22-1.22-.63-.48-.68-.32-1.61.35-2.1 1.63-1.15 3.23-2.32 4.83-3.51a1.5 1.5 0 0 1 2.1.3c.49.66.36 1.61-.31 2.1-1.61 1.2-3.24 2.39-4.88 3.56-.26.19-.56.28-.87.28m-314.58.49c-.3 0-.6-.08-.86-.27-1.62-1.14-3.26-2.33-4.88-3.54a1.49 1.49 0 0 1-.32-2.09c.5-.67 1.44-.81 2.1-.32 1.6 1.19 3.21 2.35 4.83 3.5.68.48.84 1.41.36 2.09-.3.41-.76.63-1.23.63m304.65 6.26c-.49 0-.97-.24-1.26-.69a1.5 1.5 0 0 1 .44-2.07c1.68-1.08 3.33-2.18 4.98-3.3.68-.47 1.62-.29 2.09.39.46.69.28 1.62-.4 2.09-1.67 1.13-3.34 2.24-5.03 3.34-.26.16-.54.24-.82.24m-294.72.45a1.5 1.5 0 0 1-.81-.24c-1.69-1.09-3.37-2.19-5.03-3.32-.69-.46-.87-1.39-.4-2.08.46-.69 1.39-.87 2.08-.4 1.64 1.11 3.3 2.2 4.97 3.28.7.44.9 1.37.45 2.07-.29.44-.77.69-1.26.69m284.5 5.86c-.52 0-1.02-.27-1.3-.74-.42-.72-.18-1.64.54-2.06 1.72-1.01 3.42-2.03 5.12-3.08.7-.43 1.63-.21 2.06.49.44.71.22 1.63-.49 2.06-1.71 1.06-3.44 2.1-5.18 3.12-.23.14-.5.21-.75.21m-274.29.39c-.26 0-.52-.06-.76-.2-1.73-1.01-3.46-2.04-5.17-3.09-.7-.43-.92-1.36-.49-2.06.43-.71 1.36-.93 2.06-.5 1.69 1.04 3.4 2.06 5.11 3.06.72.41.96 1.33.54 2.05-.28.48-.78.74-1.29.74m263.79 5.46a1.501 1.501 0 0 1-.7-2.83q2.64-1.395 5.25-2.85c.72-.4 1.63-.14 2.04.58.4.73.14 1.64-.58 2.04-1.74.97-3.53 1.95-5.31 2.89-.22.11-.46.17-.7.17m-253.33.34c-.23 0-.47-.05-.69-.17-1.78-.93-3.55-1.89-5.3-2.86-.72-.4-.98-1.31-.58-2.04.4-.72 1.31-.98 2.04-.58 1.73.96 3.48 1.9 5.23 2.82a1.501 1.501 0 0 1-.7 2.83m242.58 5.04c-.56 0-1.1-.31-1.36-.85-.35-.75-.03-1.65.72-2 1.8-.85 3.59-1.73 5.37-2.62a1.51 1.51 0 0 1 2.02.67c.37.74.07 1.64-.67 2.01-1.81.9-3.62 1.79-5.44 2.65-.21.1-.43.14-.64.14m-231.87.29c-.21 0-.43-.04-.63-.14-1.82-.86-3.62-1.73-5.42-2.62a1.5 1.5 0 0 1-.67-2.01c.37-.74 1.27-1.05 2.01-.68 1.77.89 3.56 1.75 5.35 2.59.75.36 1.07 1.25.72 2-.25.54-.79.86-1.36.86m220.88 4.62a1.5 1.5 0 0 1-.58-2.88c1.84-.78 3.69-1.58 5.49-2.38.76-.34 1.65 0 1.98.76.34.75 0 1.64-.76 1.98-1.82.81-3.69 1.62-5.55 2.4-.19.08-.38.12-.58.12m-11.19 4.41a1.5 1.5 0 0 1-.52-2.91c1.86-.68 3.74-1.4 5.59-2.13.77-.3 1.64.08 1.95.85.3.77-.08 1.64-.85 1.94-1.87.74-3.78 1.47-5.65 2.16-.18.06-.35.09-.52.09m-11.39 3.91c-.64 0-1.23-.41-1.43-1.05-.25-.78.18-1.63.97-1.88 1.91-.61 3.8-1.23 5.69-1.88.78-.27 1.64.15 1.9.93.27.79-.14 1.64-.93 1.91-1.9.65-3.82 1.29-5.75 1.9-.15.05-.3.07-.45.07m-164.86.15c-.15 0-.3-.02-.45-.07-1.91-.6-3.84-1.24-5.74-1.88-.78-.27-1.2-1.12-.93-1.91.27-.78 1.12-1.2 1.9-.93 1.88.64 3.79 1.26 5.67 1.86a1.498 1.498 0 0 1-.45 2.93m153.35 3.24c-.66 0-1.27-.44-1.45-1.11-.21-.8.26-1.62 1.06-1.84 1.93-.52 3.86-1.07 5.74-1.62.8-.24 1.63.22 1.86 1.01.24.8-.22 1.63-1.01 1.87-1.9.56-3.86 1.11-5.81 1.64-.13.03-.26.05-.39.05m-141.84.13c-.12 0-.26-.02-.39-.05-1.92-.52-3.88-1.07-5.8-1.63-.8-.24-1.26-1.07-1.02-1.86.23-.8 1.06-1.25 1.86-1.02 1.9.56 3.84 1.1 5.74 1.61.8.21 1.28 1.03 1.06 1.84-.18.67-.78 1.11-1.45 1.11m130.19 2.74c-.69 0-1.31-.47-1.46-1.17a1.5 1.5 0 0 1 1.14-1.79c1.94-.44 3.88-.89 5.8-1.37.81-.2 1.62.3 1.82 1.1s-.29 1.62-1.1 1.81c-1.93.48-3.91.95-5.87 1.38-.11.03-.22.04-.33.04m-118.53.11c-.11 0-.22-.01-.33-.04-1.94-.43-3.91-.89-5.87-1.37-.81-.19-1.3-1-1.1-1.81.19-.8 1-1.3 1.81-1.1 1.94.47 3.89.93 5.81 1.35a1.5 1.5 0 0 1 1.14 1.79c-.15.7-.77 1.18-1.46 1.18m106.77 2.24a1.495 1.495 0 0 1-.26-2.97c1.96-.35 3.91-.72 5.86-1.11a1.5 1.5 0 0 1 1.76 1.18c.17.81-.36 1.6-1.17 1.76-1.97.4-3.95.77-5.93 1.12-.09.02-.18.02-.26.02m-95.01.09c-.08 0-.17-.01-.26-.02-1.98-.35-3.96-.72-5.92-1.11a1.5 1.5 0 0 1-1.19-1.76c.17-.82.96-1.34 1.77-1.18 1.94.38 3.9.75 5.86 1.09a1.5 1.5 0 0 1-.26 2.98m83.15 1.74c-.74 0-1.39-.55-1.48-1.3-.11-.82.46-1.58 1.29-1.68 1.96-.26 3.95-.55 5.9-.85.82-.12 1.59.44 1.71 1.26a1.5 1.5 0 0 1-1.25 1.71c-1.97.3-3.98.59-5.97.85-.07.01-.13.01-.2.01m-71.28.07c-.07 0-.13-.01-.2-.01-2-.26-3.99-.55-5.97-.85-.82-.12-1.38-.89-1.26-1.71.13-.82.89-1.38 1.71-1.25 1.96.3 3.93.57 5.91.83.82.11 1.4.86 1.29 1.68-.1.76-.74 1.31-1.48 1.31m59.36 1.24c-.77 0-1.43-.59-1.5-1.37a1.51 1.51 0 0 1 1.37-1.63c1.98-.17 3.96-.36 5.93-.58a1.499 1.499 0 1 1 .33 2.98c-1.99.22-4 .42-6 .59-.05.01-.09.01-.13.01m-47.44.04h-.13c-1.98-.17-4-.37-6-.58-.82-.09-1.42-.83-1.33-1.66.09-.82.82-1.42 1.65-1.33 1.98.22 3.98.41 5.94.58.82.07 1.44.79 1.37 1.62a1.51 1.51 0 0 1-1.5 1.37m35.46.74c-.79 0-1.46-.63-1.49-1.43a1.5 1.5 0 0 1 1.43-1.57c1.99-.08 3.98-.19 5.96-.32.81-.05 1.54.57 1.59 1.4.06.82-.57 1.54-1.4 1.59-2 .13-4.01.24-6.02.33zm-23.49.02h-.06c-2.01-.08-4.02-.19-6.02-.32-.83-.05-1.46-.76-1.4-1.59.05-.83.77-1.46 1.59-1.4 1.98.13 3.96.23 5.96.31.82.04 1.47.74 1.43 1.56a1.5 1.5 0 0 1-1.5 1.44m11.5.24c-1.85 0-3.7-.02-5.54-.05-.83-.02-1.49-.71-1.47-1.53.01-.82.68-1.47 1.5-1.47h.03c3.8.07 7.64.07 11.45-.02.87 0 1.51.64 1.53 1.47s-.64 1.52-1.47 1.53c-2 .05-4.01.07-6.03.07M415.9 3.03a1.5 1.5 0 0 1-.02-3q2.4-.03 4.8-.03h1.22c.83 0 1.5.68 1.5 1.51 0 .82-.67 1.49-1.5 1.49h-1.22c-1.59 0-3.17.01-4.76.03zm17.98.18h-.04c-1.99-.07-3.98-.11-5.97-.15-.83-.01-1.49-.69-1.47-1.52a1.5 1.5 0 0 1 1.5-1.48h.02c2.01.04 4.01.09 6.01.15.83.03 1.48.72 1.45 1.55-.02.81-.69 1.45-1.5 1.45m-29.97.13a1.5 1.5 0 0 1-1.5-1.44c-.04-.83.61-1.53 1.44-1.56 2-.08 4-.15 6.01-.2h.04c.81 0 1.48.65 1.5 1.46.02.83-.63 1.52-1.46 1.54-1.99.05-3.99.12-5.97.2zm41.96.42h-.09c-1.99-.12-3.98-.23-5.97-.32a1.5 1.5 0 0 1-1.43-1.57c.04-.82.74-1.45 1.57-1.43 2.01.1 4.01.2 6.01.33.83.05 1.46.76 1.41 1.58a1.5 1.5 0 0 1-1.5 1.41M391.93 4c-.78 0-1.44-.61-1.5-1.4a1.5 1.5 0 0 1 1.39-1.6c2-.14 4.01-.26 6.01-.37.83-.02 1.54.58 1.58 1.41.05.83-.59 1.54-1.41 1.58-2 .11-3.98.23-5.97.37-.03 0-.07.01-.1.01m65.91.66h-.14c-1.98-.18-3.97-.34-5.96-.49-.82-.07-1.44-.79-1.38-1.61.06-.83.79-1.44 1.61-1.39 2 .16 4 .32 6 .5a1.498 1.498 0 0 1-.13 2.99M379.97 5c-.76 0-1.41-.58-1.49-1.35-.08-.83.52-1.56 1.34-1.64 2-.2 4-.38 6-.55a1.5 1.5 0 0 1 .25 2.99c-1.99.17-3.97.35-5.95.54-.05.01-.1.01-.15.01m89.8.91c-.06 0-.12 0-.18-.01q-2.97-.345-5.94-.66c-.82-.09-1.42-.83-1.34-1.65.09-.83.84-1.41 1.65-1.34 2 .21 4 .44 5.99.67.82.1 1.4.85 1.31 1.67-.09.76-.74 1.32-1.49 1.32m-101.72.44a1.5 1.5 0 0 1-1.49-1.3c-.1-.83.48-1.58 1.3-1.68 1.99-.26 3.98-.5 5.98-.73a1.499 1.499 0 1 1 .33 2.98c-1.98.23-3.96.47-5.93.72-.06.01-.13.01-.19.01m113.61 1.16c-.07 0-.15 0-.22-.01-1.97-.3-3.94-.58-5.92-.84-.82-.11-1.4-.87-1.29-1.69s.89-1.4 1.69-1.29c1.99.27 3.98.56 5.96.85.82.12 1.38.89 1.26 1.71-.11.74-.75 1.27-1.48 1.27m-125.49.55c-.72 0-1.36-.53-1.48-1.27a1.5 1.5 0 0 1 1.25-1.71c1.98-.32 3.97-.62 5.95-.9.81-.13 1.58.45 1.7 1.27a1.5 1.5 0 0 1-1.27 1.7c-1.97.28-3.94.58-5.91.89-.08.01-.16.02-.24.02m137.33 1.4c-.09 0-.18 0-.27-.02-1.96-.35-3.92-.69-5.89-1.01-.82-.14-1.37-.91-1.24-1.73.14-.82.91-1.37 1.73-1.23 1.98.32 3.96.66 5.93 1.02.82.14 1.36.92 1.21 1.74-.13.72-.76 1.23-1.47 1.23m-149.15.65a1.497 1.497 0 0 1-.27-2.97c1.97-.38 3.94-.73 5.92-1.08.83-.14 1.59.41 1.73 1.22.15.82-.4 1.6-1.22 1.74-1.96.34-3.92.69-5.88 1.06-.09.02-.19.03-.28.03m160.92 1.65c-.1 0-.2-.01-.31-.03-1.95-.41-3.9-.81-5.86-1.19a1.5 1.5 0 0 1-1.18-1.76c.16-.81.95-1.34 1.76-1.19 1.97.39 3.94.79 5.9 1.2.81.17 1.33.97 1.16 1.78-.15.7-.77 1.19-1.47 1.19m-172.67.75c-.69 0-1.31-.48-1.47-1.18-.18-.81.34-1.61 1.14-1.78 1.96-.44 3.93-.85 5.9-1.25.8-.17 1.6.35 1.77 1.17.16.81-.36 1.6-1.17 1.77-1.96.39-3.91.81-5.85 1.23-.11.03-.22.04-.32.04m184.38 1.89c-.12 0-.24-.01-.36-.04-1.93-.47-3.87-.92-5.82-1.36-.81-.18-1.31-.99-1.13-1.79a1.5 1.5 0 0 1 1.79-1.14c1.96.44 3.92.9 5.87 1.37.8.2 1.3 1.01 1.1 1.81-.16.69-.78 1.15-1.45 1.15m-196.06.86c-.67 0-1.29-.46-1.46-1.14-.2-.8.29-1.62 1.09-1.82 1.95-.49 3.9-.96 5.86-1.42a1.499 1.499 0 1 1 .68 2.92c-1.94.46-3.88.93-5.81 1.41-.12.03-.24.05-.36.05m207.68 2.13c-.13 0-.27-.02-.4-.06-1.92-.52-3.85-1.03-5.78-1.53a1.499 1.499 0 1 1 .75-2.9c1.95.5 3.89 1.01 5.82 1.54.8.22 1.27 1.04 1.05 1.84-.18.67-.78 1.11-1.44 1.11m-219.28.95c-.65 0-1.25-.43-1.44-1.09a1.5 1.5 0 0 1 1.04-1.85c1.93-.55 3.86-1.08 5.8-1.59.81-.22 1.63.26 1.84 1.06s-.26 1.62-1.06 1.83c-1.93.52-3.85 1.05-5.77 1.59-.14.03-.27.05-.41.05m230.8 2.37c-.14 0-.29-.02-.44-.06-1.9-.58-3.81-1.15-5.72-1.7a1.5 1.5 0 0 1-1.03-1.86c.23-.79 1.06-1.25 1.86-1.02 1.93.55 3.85 1.13 5.77 1.71a1.497 1.497 0 0 1-.44 2.93m-242.29 1.06a1.498 1.498 0 0 1-.45-2.93c1.91-.6 3.83-1.19 5.75-1.76a1.5 1.5 0 0 1 1.87 1.01c.24.79-.21 1.63-1.01 1.86-1.91.57-3.81 1.16-5.71 1.75-.15.05-.31.07-.45.07m253.72 2.61c-.16 0-.32-.02-.48-.08-1.89-.63-3.78-1.25-5.68-1.87a1.493 1.493 0 0 1-.97-1.88c.25-.79 1.1-1.22 1.89-.97 1.91.61 3.82 1.24 5.72 1.88.78.27 1.2 1.12.94 1.9-.21.63-.8 1.02-1.42 1.02m-265.16 1.18a1.5 1.5 0 0 1-.49-2.92c1.9-.66 3.81-1.31 5.72-1.94.79-.26 1.64.17 1.9.95.26.79-.17 1.64-.96 1.9-1.89.63-3.79 1.27-5.68 1.93-.16.05-.33.08-.49.08m276.47 2.83c-.18 0-.35-.03-.52-.1-1.87-.69-3.75-1.37-5.63-2.03a1.51 1.51 0 0 1-.91-1.92 1.5 1.5 0 0 1 1.92-.91c1.89.67 3.78 1.35 5.66 2.05a1.503 1.503 0 0 1-.52 2.91m-287.78 1.29c-.61 0-1.18-.37-1.41-.97-.29-.77.1-1.64.87-1.93 1.88-.72 3.77-1.42 5.66-2.11.78-.28 1.64.11 1.93.89.28.78-.12 1.64-.9 1.93-1.88.68-3.75 1.38-5.62 2.09-.18.07-.36.1-.53.1m298.96 3.04c-.18 0-.37-.03-.56-.1-1.84-.75-3.7-1.49-5.56-2.21-.77-.3-1.15-1.16-.85-1.94a1.49 1.49 0 0 1 1.94-.85c1.87.72 3.74 1.46 5.6 2.21.77.32 1.14 1.19.82 1.96-.23.58-.79.93-1.39.93m-310.15 1.41c-.59 0-1.15-.35-1.38-.92-.32-.77.04-1.65.8-1.96 1.86-.78 3.73-1.53 5.6-2.28a1.5 1.5 0 1 1 1.11 2.79c-1.86.74-3.71 1.49-5.55 2.26-.19.07-.39.11-.58.11m321.16 3.24c-.2 0-.4-.04-.6-.13-1.82-.79-3.64-1.58-5.47-2.35-.76-.32-1.12-1.2-.8-1.97.33-.76 1.2-1.12 1.97-.79 1.84.77 3.68 1.56 5.51 2.37a1.499 1.499 0 0 1-.61 2.87m-332.2 1.54c-.57 0-1.12-.33-1.37-.88-.34-.76 0-1.65.75-1.99 1.83-.82 3.68-1.64 5.53-2.44.76-.33 1.64.03 1.97.78.33.77-.02 1.65-.78 1.98-1.84.79-3.67 1.6-5.49 2.42-.2.09-.41.13-.61.13m343.07 3.43c-.21 0-.43-.05-.64-.15-1.79-.85-3.59-1.68-5.4-2.51a1.51 1.51 0 0 1-.74-1.99c.35-.75 1.24-1.08 1.99-.74 1.82.83 3.63 1.68 5.44 2.54.75.35 1.07 1.25.71 1.99-.26.54-.79.86-1.36.86m-353.97 1.68c-.55 0-1.09-.31-1.35-.85-.36-.74-.05-1.64.7-2 1.81-.88 3.62-1.75 5.45-2.6.74-.36 1.64-.03 1.99.72s.03 1.64-.72 1.99c-1.81.85-3.62 1.71-5.41 2.58-.21.11-.44.16-.66.16m364.7 3.61a1.4 1.4 0 0 1-.68-.17c-1.77-.9-3.54-1.79-5.32-2.67a1.506 1.506 0 0 1-.69-2.01c.37-.74 1.27-1.05 2.01-.68 1.8.88 3.59 1.78 5.37 2.69a1.505 1.505 0 0 1-.69 2.84m-375.43 1.81c-.54 0-1.06-.3-1.33-.81a1.5 1.5 0 0 1 .63-2.02q2.67-1.395 5.37-2.76c.74-.38 1.64-.08 2.01.66a1.5 1.5 0 0 1-.66 2.02c-1.78.9-3.56 1.81-5.33 2.74-.22.11-.46.17-.69.17m386 3.79c-.24 0-.49-.06-.72-.18-1.74-.96-3.49-1.9-5.25-2.84a1.49 1.49 0 0 1-.62-2.02c.39-.74 1.3-1.01 2.03-.63 1.77.94 3.53 1.89 5.28 2.86.73.39 1 1.3.6 2.03-.28.5-.79.78-1.32.78m-396.57 1.94c-.52 0-1.03-.27-1.31-.76-.4-.73-.15-1.64.58-2.05q2.625-1.47 5.28-2.91c.72-.4 1.64-.13 2.03.6.4.73.13 1.64-.6 2.03-1.76.96-3.5 1.92-5.25 2.9-.23.13-.48.19-.73.19m406.98 3.97c-.26 0-.53-.06-.76-.21-1.72-1-3.44-2-5.17-2.98-.72-.41-.97-1.32-.56-2.04.41-.73 1.33-.98 2.05-.57 1.74.99 3.47 1.99 5.2 3.01a1.5 1.5 0 0 1-.76 2.79m-417.37 2.07c-.51 0-1-.26-1.29-.73-.42-.71-.19-1.63.52-2.05 1.72-1.04 3.45-2.06 5.19-3.07.72-.42 1.63-.18 2.05.54a1.5 1.5 0 0 1-.54 2.05c-1.73 1-3.45 2.02-5.16 3.05-.24.14-.51.21-.77.21m427.59 4.15c-.27 0-.54-.08-.79-.23-1.68-1.06-3.38-2.1-5.08-3.13-.7-.44-.93-1.36-.5-2.07.43-.7 1.35-.93 2.06-.5 1.71 1.04 3.42 2.09 5.11 3.16.7.44.92 1.36.48 2.07-.29.45-.78.7-1.28.7m-437.8 2.19c-.49 0-.97-.24-1.26-.69-.45-.69-.25-1.62.45-2.07 1.69-1.08 3.39-2.16 5.1-3.22.7-.43 1.63-.22 2.07.48.43.71.22 1.63-.49 2.07-1.69 1.05-3.38 2.12-5.06 3.2-.25.16-.53.23-.81.23m-10.01 6.64c-.48 0-.95-.23-1.24-.65-.47-.69-.29-1.62.39-2.09 1.66-1.13 3.33-2.25 5-3.36a1.49 1.49 0 0 1 2.08.42 1.5 1.5 0 0 1-.42 2.08c-1.66 1.1-3.32 2.21-4.97 3.34-.25.18-.55.26-.84.26m-9.81 6.93c-.47 0-.92-.22-1.22-.62-.48-.67-.34-1.61.33-2.1 1.63-1.18 3.26-2.35 4.9-3.51.68-.48 1.61-.32 2.09.36s.32 1.61-.36 2.09c-1.63 1.15-3.25 2.31-4.86 3.49-.27.19-.58.29-.88.29m-9.61 7.2c-.45 0-.89-.2-1.19-.58-.5-.65-.38-1.6.27-2.1 1.59-1.23 3.19-2.45 4.8-3.65.66-.5 1.6-.37 2.1.29.49.67.36 1.61-.3 2.1-1.6 1.2-3.18 2.41-4.76 3.63-.27.21-.6.31-.92.31m-9.38 7.49c-.44 0-.87-.19-1.16-.55-.53-.64-.44-1.58.2-2.11 1.55-1.28 3.12-2.54 4.69-3.79.64-.52 1.59-.41 2.1.24.52.65.41 1.59-.23 2.11-1.56 1.24-3.11 2.49-4.65 3.76-.28.23-.62.34-.95.34m-9.17 7.75c-.42 0-.83-.17-1.13-.51-.54-.63-.48-1.57.15-2.12 1.51-1.32 3.03-2.63 4.57-3.92.63-.54 1.58-.46 2.11.17.54.64.46 1.58-.18 2.12-1.52 1.28-3.03 2.58-4.53 3.89-.29.25-.64.37-.99.37m551.79 13.33c-.37 0-.74-.14-1.03-.42q-2.16-2.07-4.35-4.11a1.51 1.51 0 0 1-.07-2.12c.57-.6 1.51-.63 2.12-.07 1.47 1.37 2.92 2.75 4.37 4.14.6.57.62 1.52.05 2.12-.3.3-.69.46-1.09.46m8.53 8.43c-.38 0-.77-.15-1.06-.45q-2.1-2.13-4.23-4.23c-.58-.58-.59-1.53-.01-2.12s1.53-.6 2.12-.01c1.43 1.41 2.85 2.83 4.25 4.26.59.59.58 1.54-.01 2.12-.3.29-.68.43-1.06.43m8.29 8.68c-.4 0-.81-.16-1.1-.48-1.36-1.46-2.72-2.91-4.1-4.35-.57-.6-.55-1.55.05-2.13a1.5 1.5 0 0 1 2.12.05c1.39 1.46 2.76 2.92 4.13 4.39a1.5 1.5 0 0 1-1.1 2.52m8.03 8.92c-.42 0-.84-.18-1.13-.52-1.31-1.5-2.64-2.99-3.97-4.47-.55-.61-.5-1.56.11-2.12.62-.55 1.57-.5 2.12.11 1.34 1.5 2.67 3 4 4.51.54.62.48 1.57-.15 2.12-.28.25-.63.37-.98.37m7.77 9.15c-.44 0-.87-.19-1.16-.55a424 424 0 0 0-3.84-4.59 1.501 1.501 0 0 1 2.29-1.94c1.3 1.53 2.59 3.07 3.86 4.62.53.64.44 1.59-.2 2.11-.28.23-.62.35-.95.35m7.49 9.37c-.44 0-.88-.2-1.18-.58-1.22-1.57-2.46-3.14-3.7-4.7-.52-.64-.42-1.59.23-2.11.65-.51 1.59-.41 2.11.24 1.25 1.57 2.5 3.14 3.73 4.73a1.5 1.5 0 0 1-1.19 2.42m7.23 9.59c-.46 0-.92-.21-1.21-.61-1.18-1.61-2.37-3.21-3.57-4.81a1.5 1.5 0 0 1 .3-2.1c.66-.49 1.6-.36 2.1.3 1.21 1.6 2.4 3.22 3.59 4.84.49.67.34 1.61-.33 2.1-.26.19-.57.28-.88.28m6.94 9.81c-.48 0-.95-.23-1.24-.66-1.13-1.64-2.27-3.28-3.42-4.9-.48-.68-.32-1.62.36-2.09.67-.48 1.61-.32 2.09.35q1.74 2.46 3.45 4.95a1.505 1.505 0 0 1-1.24 2.35m6.65 10c-.49 0-.97-.24-1.26-.69-1.08-1.68-2.18-3.35-3.28-5.01a1.5 1.5 0 0 1 .42-2.08c.69-.45 1.62-.27 2.08.42 1.11 1.68 2.21 3.36 3.3 5.05.45.69.25 1.62-.45 2.07a1.5 1.5 0 0 1-.81.24m6.36 10.2a1.5 1.5 0 0 1-1.29-.73c-1.03-1.71-2.07-3.41-3.13-5.1-.43-.7-.22-1.63.48-2.07.71-.44 1.63-.22 2.07.48 1.06 1.71 2.11 3.42 3.15 5.14.43.71.2 1.63-.51 2.06-.24.15-.51.22-.77.22m6.06 10.38c-.53 0-1.04-.28-1.31-.76-.98-1.74-1.98-3.48-2.98-5.2-.42-.71-.18-1.63.54-2.05.71-.42 1.63-.17 2.05.54 1.01 1.74 2.01 3.48 3 5.23.41.72.15 1.64-.57 2.05-.23.13-.48.19-.73.19m5.75 10.56c-.54 0-1.07-.29-1.33-.8-.93-1.77-1.87-3.53-2.83-5.28-.4-.73-.13-1.64.6-2.04.73-.39 1.64-.13 2.03.6.97 1.77 1.92 3.54 2.85 5.32.39.73.1 1.64-.63 2.03-.22.11-.46.17-.69.17m5.43 10.73c-.55 0-1.09-.31-1.35-.85-.87-1.79-1.76-3.58-2.66-5.36a1.497 1.497 0 1 1 2.67-1.36c.91 1.8 1.81 3.6 2.69 5.41a1.5 1.5 0 0 1-.69 2c-.21.11-.44.16-.66.16m5.12 10.88c-.57 0-1.11-.33-1.36-.88-.83-1.82-1.67-3.64-2.52-5.44-.35-.75-.03-1.65.72-2s1.65-.03 2 .72c.86 1.82 1.7 3.65 2.53 5.48.34.76 0 1.65-.75 1.99-.2.09-.41.13-.62.13m4.8 11.04c-.59 0-1.14-.35-1.39-.93-.76-1.84-1.55-3.68-2.34-5.51-.33-.76.01-1.64.77-1.98.77-.33 1.65.02 1.98.78.8 1.85 1.59 3.7 2.36 5.56a1.5 1.5 0 0 1-1.38 2.08m4.47 11.17c-.61 0-1.17-.36-1.4-.96-.72-1.87-1.45-3.73-2.19-5.59a1.5 1.5 0 1 1 2.79-1.11c.74 1.87 1.48 3.74 2.2 5.63.3.77-.09 1.64-.87 1.93-.17.07-.35.1-.53.1m-765.49 3.44c-.18 0-.35-.03-.53-.1a1.49 1.49 0 0 1-.88-1.92c.7-1.89 1.42-3.76 2.15-5.63a1.49 1.49 0 0 1 1.94-.85c.77.3 1.15 1.17.85 1.94q-1.08 2.775-2.13 5.58c-.22.61-.79.98-1.4.98m769.63 7.87c-.62 0-1.2-.39-1.42-1-.66-1.89-1.33-3.78-2.02-5.65-.28-.78.12-1.64.9-1.93.77-.28 1.63.12 1.92.9.69 1.89 1.37 3.78 2.03 5.69a1.494 1.494 0 0 1-1.41 1.99m-773.65 3.44c-.16 0-.33-.03-.49-.08-.78-.27-1.2-1.12-.94-1.91.65-1.9 1.31-3.8 1.98-5.68a1.5 1.5 0 1 1 2.83 1c-.67 1.88-1.32 3.76-1.96 5.65-.22.62-.8 1.02-1.42 1.02m777.45 7.99c-.64 0-1.23-.41-1.43-1.05-.6-1.91-1.22-3.81-1.85-5.7a1.5 1.5 0 0 1 .95-1.9c.79-.26 1.63.16 1.89.95.64 1.91 1.26 3.83 1.87 5.75a1.498 1.498 0 0 1-1.43 1.95m-781.14 3.42c-.14 0-.29-.02-.44-.06a1.496 1.496 0 0 1-.99-1.88c.59-1.92 1.19-3.83 1.8-5.74.26-.79 1.1-1.22 1.89-.97.79.26 1.22 1.1.97 1.89-.61 1.89-1.21 3.79-1.79 5.7-.2.65-.8 1.06-1.44 1.06m784.59 8.1c-.65 0-1.25-.43-1.44-1.09-.54-1.92-1.1-3.83-1.67-5.74-.24-.79.21-1.63 1-1.87.79-.23 1.63.21 1.87 1.01.58 1.92 1.14 3.85 1.69 5.78a1.502 1.502 0 0 1-1.45 1.91m-787.93 3.42a1.495 1.495 0 0 1-1.45-1.89c.53-1.94 1.08-3.87 1.63-5.8.24-.79 1.06-1.25 1.86-1.02a1.5 1.5 0 0 1 1.03 1.86c-.56 1.91-1.1 3.83-1.63 5.75-.18.67-.79 1.1-1.44 1.1m791.04 8.17c-.67 0-1.28-.45-1.45-1.13-.49-1.94-.99-3.87-1.51-5.79-.21-.8.26-1.62 1.06-1.84.8-.2 1.63.26 1.84 1.06.52 1.94 1.03 3.88 1.52 5.83a1.5 1.5 0 0 1-1.09 1.82c-.12.03-.25.05-.37.05M23.23 315.1c-.12 0-.24-.01-.36-.04-.8-.2-1.29-1.01-1.1-1.81.48-1.96.96-3.9 1.47-5.84.2-.81 1.02-1.29 1.82-1.08.81.21 1.29 1.02 1.08 1.83-.5 1.92-.98 3.86-1.45 5.8-.17.68-.78 1.14-1.46 1.14m796.81 8.22c-.69 0-1.31-.47-1.46-1.17-.43-1.95-.88-3.89-1.33-5.83-.2-.81.3-1.61 1.11-1.8.8-.2 1.61.3 1.81 1.11.46 1.95.9 3.91 1.34 5.87a1.5 1.5 0 0 1-1.14 1.79q-.165.03-.33.03M20.57 326.8c-.1 0-.21-.01-.31-.03-.81-.17-1.33-.97-1.16-1.78q.63-2.955 1.29-5.88a1.5 1.5 0 0 1 1.8-1.13c.81.18 1.31.99 1.13 1.79-.44 1.94-.87 3.89-1.28 5.84-.15.71-.78 1.19-1.47 1.19m801.89 8.28c-.71 0-1.34-.51-1.47-1.22-.38-1.96-.76-3.92-1.16-5.87a1.495 1.495 0 1 1 2.93-.6q.615 2.94 1.17 5.91c.16.81-.38 1.59-1.19 1.75-.09.02-.19.03-.28.03m-804.2 3.49c-.09 0-.18-.01-.27-.02a1.5 1.5 0 0 1-1.21-1.75c.36-1.97.73-3.95 1.12-5.91.16-.81.94-1.35 1.76-1.18.81.15 1.34.94 1.18 1.76-.38 1.95-.75 3.91-1.11 5.87-.13.72-.76 1.23-1.47 1.23m806.27 8.32c-.73 0-1.36-.52-1.48-1.26-.32-1.97-.65-3.93-.99-5.89a1.5 1.5 0 0 1 1.22-1.74c.82-.15 1.59.4 1.74 1.22q.51 2.955.99 5.94c.13.81-.43 1.58-1.24 1.72-.08.01-.16.01-.24.01m-808.24 3.52c-.07 0-.15-.01-.22-.02-.82-.12-1.39-.89-1.26-1.71.3-1.98.61-3.97.94-5.94.14-.82.9-1.37 1.73-1.24.81.14 1.36.91 1.23 1.73-.33 1.96-.64 3.93-.94 5.9-.11.75-.75 1.28-1.48 1.28m809.96 8.36c-.74 0-1.39-.55-1.49-1.31-.25-1.98-.53-3.95-.81-5.92a1.5 1.5 0 1 1 2.97-.43c.29 1.98.56 3.97.82 5.96.1.82-.48 1.58-1.3 1.68-.06.01-.13.02-.19.02M14.67 362.3c-.06 0-.12-.01-.18-.01-.82-.1-1.41-.85-1.31-1.67.24-2 .5-3.99.77-5.98.11-.82.87-1.4 1.69-1.28.82.11 1.4.87 1.28 1.69-.26 1.97-.52 3.95-.76 5.93-.09.76-.74 1.32-1.49 1.32m812.95 8.39c-.76 0-1.41-.58-1.49-1.35-.2-1.99-.41-3.97-.64-5.95-.1-.82.5-1.56 1.32-1.66s1.57.5 1.66 1.32c.23 1.99.44 3.99.64 5.99.09.82-.51 1.56-1.34 1.64-.05 0-.1.01-.15.01M13.4 374.23c-.04 0-.09-.01-.13-.01a1.5 1.5 0 0 1-1.36-1.63c.18-2 .38-4 .59-5.99.09-.83.84-1.43 1.65-1.34.83.09 1.42.83 1.33 1.65-.21 1.98-.4 3.97-.58 5.95a1.51 1.51 0 0 1-1.5 1.37m815.24 8.41c-.78 0-1.43-.6-1.49-1.39-.14-1.99-.3-3.98-.47-5.96-.07-.83.54-1.55 1.37-1.62.83-.09 1.55.54 1.62 1.36.17 2 .33 4 .47 6 .06.83-.56 1.55-1.39 1.61zm-816.15 3.55h-.1c-.82-.06-1.45-.77-1.4-1.59.12-2.01.26-4.01.42-6.01.06-.83.79-1.48 1.61-1.38.82.06 1.44.78 1.38 1.61-.16 1.98-.29 3.97-.42 5.96-.05.8-.71 1.41-1.49 1.41m816.83 8.43a1.5 1.5 0 0 1-1.5-1.44c-.08-1.99-.18-3.98-.29-5.97-.05-.83.58-1.54 1.41-1.58.82-.02 1.54.58 1.58 1.41.12 2 .21 4.01.3 6.02.03.82-.61 1.52-1.44 1.56zm-817.41 3.55h-.05c-.83-.03-1.47-.72-1.45-1.55.07-2.01.15-4.01.25-6.01.04-.83.72-1.45 1.57-1.43.82.04 1.46.74 1.42 1.57q-.135 2.985-.24 5.97c-.03.81-.69 1.45-1.5 1.45m817.74 8.44a1.5 1.5 0 0 1-1.5-1.48c-.03-2-.07-3.99-.12-5.98-.02-.82.63-1.51 1.46-1.54h.04c.81 0 1.48.65 1.5 1.46.05 2.01.09 4.01.12 6.02.01.83-.65 1.51-1.48 1.52zm-817.96 3.55h-.01c-.83-.01-1.5-.68-1.49-1.51.01-2.01.03-4.02.07-6.02.01-.82.68-1.47 1.5-1.47h.03c.82.01 1.48.7 1.47 1.53-.04 1.98-.06 3.98-.07 5.97-.01.83-.68 1.5-1.5 1.5m817.94 8.45h-.02c-.83-.01-1.49-.7-1.48-1.52.03-1.99.05-3.99.05-5.98 0-.83.67-1.5 1.5-1.5s1.5.67 1.5 1.5c0 2.01-.02 4.02-.05 6.02a1.5 1.5 0 0 1-1.5 1.48M11.8 422.15c-.81 0-1.47-.64-1.49-1.46-.05-2-.09-4.01-.11-6.02 0-.83.66-1.51 1.49-1.52h.01c.83 0 1.5.67 1.5 1.49.02 1.99.06 3.99.11 5.98.02.82-.64 1.51-1.47 1.53zm817.47 8.44h-.07c-.83-.04-1.47-.74-1.43-1.56.09-1.99.16-3.98.22-5.98.03-.83.76-1.5 1.55-1.45.83.02 1.48.72 1.45 1.54-.06 2.01-.13 4.02-.22 6.02-.04.8-.7 1.43-1.5 1.43m-817 3.55c-.79 0-1.45-.62-1.5-1.42-.1-2-.2-4.01-.27-6.01-.04-.83.61-1.53 1.44-1.56.85-.01 1.52.61 1.55 1.44.08 1.99.17 3.98.28 5.97a1.5 1.5 0 0 1-1.42 1.58zm816.29 8.43h-.11c-.83-.07-1.45-.79-1.39-1.61.15-1.99.28-3.97.4-5.97.05-.82.75-1.45 1.59-1.4.82.04 1.45.75 1.4 1.58-.11 2.01-.25 4.01-.4 6.01-.05.79-.71 1.39-1.49 1.39m-815.48 3.54c-.77 0-1.43-.59-1.49-1.38-.16-1.99-.32-3.99-.45-6a1.5 1.5 0 0 1 1.39-1.6c.82-.07 1.55.57 1.6 1.4.14 1.99.29 3.98.45 5.96.07.82-.55 1.55-1.37 1.62zm814.42 8.41c-.05 0-.1 0-.16-.01-.82-.08-1.42-.82-1.33-1.64.2-1.98.39-3.97.57-5.95a1.495 1.495 0 1 1 2.98.26c-.17 2-.36 4-.57 5.99-.08.78-.73 1.35-1.49 1.35m-813.25 3.53c-.76 0-1.41-.56-1.49-1.33-.23-1.99-.44-3.99-.63-5.99-.08-.82.52-1.56 1.35-1.64.81-.08 1.55.53 1.64 1.35.19 1.99.4 3.97.62 5.95.09.82-.5 1.56-1.33 1.65-.05.01-.11.01-.16.01m811.84 8.39c-.06 0-.13-.01-.2-.02-.82-.11-1.39-.86-1.29-1.68.27-1.97.52-3.95.75-5.93.1-.83.82-1.42 1.67-1.32.82.1 1.41.85 1.31 1.67q-.36 3-.75 5.97c-.1.76-.75 1.31-1.49 1.31m-810.33 3.52c-.74 0-1.38-.55-1.49-1.29-.28-1.99-.55-3.98-.8-5.97-.1-.82.48-1.57 1.3-1.68.82-.09 1.57.48 1.68 1.3.25 1.98.51 3.95.79 5.92a1.5 1.5 0 0 1-1.27 1.7c-.07.01-.14.02-.21.02m808.58 8.34c-.08 0-.16 0-.25-.02a1.49 1.49 0 0 1-1.23-1.72c.32-1.96.62-3.93.91-5.9.12-.82.89-1.39 1.71-1.27s1.38.88 1.26 1.7c-.29 1.99-.6 3.98-.92 5.96-.12.73-.76 1.25-1.48 1.25m-806.72 3.51c-.72 0-1.36-.52-1.48-1.25-.34-1.97-.67-3.95-.98-5.94-.13-.82.43-1.58 1.25-1.71s1.59.43 1.72 1.25c.3 1.97.63 3.93.97 5.89a1.507 1.507 0 0 1-1.48 1.76m804.61 8.31c-.09 0-.19-.01-.28-.03a1.5 1.5 0 0 1-1.19-1.76c.37-1.95.74-3.91 1.09-5.88.15-.81.93-1.35 1.74-1.21.82.15 1.36.93 1.21 1.74-.35 1.98-.72 3.95-1.1 5.92-.14.72-.76 1.22-1.47 1.22M19.82 493.6c-.7 0-1.32-.49-1.47-1.2-.39-1.97-.78-3.94-1.15-5.91a1.502 1.502 0 0 1 2.95-.55c.37 1.96.75 3.91 1.14 5.86a1.492 1.492 0 0 1-1.47 1.8m799.96 8.26c-.11 0-.22-.01-.33-.04-.81-.18-1.32-.98-1.13-1.79.43-1.94.85-3.89 1.26-5.84.17-.81.96-1.33 1.77-1.16.82.17 1.34.96 1.17 1.77-.41 1.97-.84 3.93-1.28 5.89-.15.7-.77 1.17-1.46 1.17m-797.4 3.47c-.68 0-1.3-.47-1.46-1.16-.46-1.96-.9-3.91-1.33-5.88-.17-.81.34-1.61 1.15-1.78.8-.18 1.61.33 1.78 1.14.43 1.95.87 3.9 1.32 5.83.19.81-.31 1.62-1.12 1.81-.12.02-.23.04-.34.04m794.6 8.2c-.12 0-.24-.02-.37-.05-.8-.2-1.29-1.02-1.08-1.82.49-1.93.97-3.87 1.44-5.81.19-.8 1-1.3 1.81-1.1.8.19 1.3 1 1.1 1.8q-.705 2.94-1.44 5.85c-.18.68-.79 1.13-1.46 1.13m-791.7 3.44c-.67 0-1.27-.45-1.45-1.12-.52-1.94-1.02-3.88-1.5-5.83a1.5 1.5 0 0 1 2.91-.73c.48 1.94.98 3.87 1.49 5.79.21.8-.27 1.62-1.07 1.84-.13.03-.26.05-.38.05m788.56 8.14a1.5 1.5 0 0 1-1.44-1.92c.55-1.91 1.09-3.83 1.61-5.75a1.5 1.5 0 0 1 1.84-1.06c.8.22 1.27 1.04 1.05 1.84-.52 1.94-1.06 3.87-1.62 5.8-.18.66-.78 1.09-1.44 1.09m-785.32 3.41c-.65 0-1.25-.42-1.44-1.08-.57-1.92-1.13-3.85-1.67-5.78a1.5 1.5 0 0 1 1.04-1.85 1.5 1.5 0 0 1 1.85 1.04c.54 1.92 1.09 3.83 1.66 5.74a1.51 1.51 0 0 1-1.44 1.93m781.84 8.07c-.15 0-.3-.02-.46-.07-.79-.25-1.22-1.1-.97-1.89.61-1.89 1.2-3.8 1.78-5.7.24-.8 1.08-1.24 1.87-1.01.79.25 1.24 1.08 1 1.88-.58 1.92-1.18 3.83-1.79 5.75a1.5 1.5 0 0 1-1.43 1.04m-778.25 3.4c-.63 0-1.22-.4-1.43-1.03-.63-1.91-1.24-3.83-1.84-5.76-.25-.79.19-1.63.98-1.87.79-.25 1.63.19 1.88.98.6 1.91 1.21 3.82 1.83 5.71.26.79-.17 1.64-.95 1.9-.16.05-.32.07-.47.07m774.43 7.97c-.16 0-.33-.02-.5-.08a1.5 1.5 0 0 1-.91-1.92c.66-1.87 1.31-3.76 1.94-5.65.27-.78 1.11-1.21 1.9-.94a1.5 1.5 0 0 1 .95 1.9c-.64 1.9-1.3 3.8-1.96 5.69-.22.62-.8 1-1.42 1m-770.5 3.42c-.61 0-1.19-.38-1.41-.99q-1.02-2.85-2.01-5.7c-.27-.78.14-1.64.92-1.91.79-.27 1.64.15 1.91.93.66 1.89 1.32 3.78 2 5.66.29.77-.12 1.63-.9 1.92-.16.06-.34.09-.51.09m766.35 7.84a1.495 1.495 0 0 1-1.4-2.04c.71-1.86 1.42-3.72 2.11-5.59a1.49 1.49 0 0 1 1.92-.89 1.5 1.5 0 0 1 .89 1.93c-.69 1.88-1.4 3.76-2.12 5.63-.23.59-.8.96-1.4.96m-762.08 3.41c-.59 0-1.16-.36-1.39-.94-.74-1.88-1.47-3.75-2.18-5.64-.3-.77.09-1.64.87-1.93.77-.3 1.64.09 1.93.87.71 1.87 1.43 3.73 2.17 5.59.3.77-.07 1.64-.84 1.95-.18.07-.37.1-.56.1m4.61 11.13c-.58 0-1.14-.34-1.38-.91-.8-1.85-1.58-3.7-2.35-5.56a1.5 1.5 0 0 1 2.77-1.15c.76 1.85 1.54 3.69 2.33 5.52.33.76-.02 1.65-.78 1.97-.19.09-.39.13-.59.13m4.92 10.97c-.56 0-1.1-.32-1.36-.86-.85-1.82-1.69-3.65-2.51-5.49-.34-.76 0-1.65.75-1.99.76-.33 1.65 0 1.99.76.81 1.82 1.64 3.64 2.49 5.45.35.75.02 1.64-.73 1.99-.2.1-.42.14-.63.14m5.25 10.83c-.55 0-1.08-.3-1.34-.83-.91-1.79-1.8-3.6-2.68-5.41-.36-.75-.05-1.64.7-2a1.48 1.48 0 0 1 2 .69c.88 1.8 1.76 3.59 2.66 5.37.37.74.07 1.64-.67 2.02-.21.11-.45.16-.67.16m5.56 10.66c-.53 0-1.05-.29-1.32-.79-.96-1.77-1.9-3.54-2.83-5.33a1.5 1.5 0 0 1 .63-2.02c.74-.38 1.64-.1 2.03.63.92 1.78 1.86 3.54 2.81 5.3a1.504 1.504 0 0 1-1.32 2.21m5.87 10.49c-.52 0-1.02-.27-1.3-.75-1.01-1.74-2-3.49-2.98-5.24-.41-.72-.15-1.64.57-2.04.73-.41 1.64-.15 2.04.57.98 1.75 1.97 3.48 2.97 5.21.41.71.17 1.63-.55 2.05-.23.14-.49.2-.75.2m6.18 10.31c-.5 0-.99-.25-1.28-.71-1.06-1.71-2.1-3.43-3.14-5.15a1.51 1.51 0 0 1 .52-2.06c.71-.43 1.63-.19 2.06.52 1.02 1.71 2.06 3.41 3.11 5.11.44.7.22 1.63-.48 2.06-.25.16-.52.23-.79.23m6.47 10.12c-.48 0-.96-.24-1.25-.67-1.11-1.68-2.2-3.36-3.29-5.06-.44-.7-.24-1.62.46-2.07s1.62-.24 2.07.46c1.08 1.68 2.16 3.35 3.26 5.01.46.7.27 1.63-.42 2.08-.26.17-.54.25-.83.25m6.77 9.92c-.47 0-.94-.22-1.23-.63-1.16-1.65-2.3-3.3-3.43-4.96-.47-.68-.29-1.62.39-2.08.69-.47 1.62-.29 2.09.39 1.12 1.65 2.26 3.29 3.41 4.92.47.68.31 1.61-.37 2.09-.26.19-.56.27-.86.27m664.91 6.38c-.31 0-.62-.1-.89-.29a1.51 1.51 0 0 1-.32-2.1c1.18-1.6 2.34-3.22 3.49-4.84.48-.67 1.42-.83 2.09-.35.68.48.84 1.41.36 2.09-1.16 1.63-2.34 3.26-3.52 4.88-.29.4-.75.61-1.21.61m-657.86 3.34c-.45 0-.9-.2-1.2-.6-1.2-1.61-2.4-3.22-3.58-4.85a1.5 1.5 0 0 1 .34-2.09 1.49 1.49 0 0 1 2.09.33c1.17 1.61 2.36 3.22 3.55 4.82.5.66.36 1.6-.3 2.1-.27.2-.59.29-.9.29M743.63 663c-.32 0-.65-.1-.92-.32-.65-.51-.77-1.45-.26-2.1q1.83-2.355 3.63-4.74a1.499 1.499 0 1 1 2.39 1.81c-1.2 1.6-2.42 3.19-3.65 4.77-.3.38-.74.58-1.19.58m-643.3 3.29c-.45 0-.88-.19-1.18-.56-1.25-1.58-2.49-3.16-3.71-4.75-.51-.65-.39-1.6.27-2.1.65-.51 1.6-.39 2.1.27q1.83 2.37 3.69 4.71c.51.65.41 1.59-.24 2.11a1.5 1.5 0 0 1-.93.32m635.8 6.06c-.33 0-.67-.11-.95-.34-.64-.53-.73-1.48-.2-2.12 1.26-1.53 2.52-3.07 3.77-4.63.51-.64 1.46-.75 2.1-.23.65.52.75 1.46.24 2.11-1.26 1.56-2.52 3.12-3.8 4.66-.3.36-.73.55-1.16.55m-628.2 3.23c-.42 0-.85-.18-1.15-.53-1.29-1.54-2.57-3.08-3.85-4.63-.52-.65-.43-1.59.21-2.12.64-.52 1.59-.43 2.11.21 1.27 1.55 2.54 3.08 3.83 4.6.53.64.45 1.58-.18 2.12-.28.23-.63.35-.97.35m620.43 5.9c-.35 0-.7-.12-.98-.37-.63-.55-.69-1.5-.14-2.12 1.31-1.5 2.61-3 3.9-4.52.54-.63 1.48-.71 2.12-.17.63.54.7 1.48.16 2.11q-1.95 2.295-3.93 4.56c-.3.33-.71.51-1.13.51m-612.56 3.16c-.41 0-.82-.17-1.12-.5-1.33-1.5-2.66-3-3.98-4.52-.54-.62-.48-1.57.15-2.11a1.49 1.49 0 0 1 2.11.14c1.31 1.51 2.63 3 3.96 4.49a1.502 1.502 0 0 1-1.12 2.5m604.53 5.74a1.501 1.501 0 0 1-1.1-2.52c1.36-1.46 2.7-2.93 4.04-4.41.55-.61 1.5-.66 2.11-.11.62.56.67 1.51.11 2.12-1.34 1.49-2.7 2.97-4.06 4.44-.3.32-.7.48-1.1.48m-596.4 3.08c-.39 0-.79-.15-1.08-.46-1.39-1.46-2.76-2.93-4.12-4.4-.56-.61-.52-1.56.09-2.12a1.51 1.51 0 0 1 2.12.08c1.35 1.47 2.71 2.93 4.08 4.37.57.6.55 1.55-.05 2.12-.29.28-.67.41-1.04.41m588.11 5.58c-.38 0-.76-.14-1.06-.43a1.5 1.5 0 0 1-.01-2.12c1.4-1.42 2.78-2.85 4.16-4.28a1.5 1.5 0 0 1 2.17 2.07q-2.085 2.175-4.2 4.32c-.29.29-.68.44-1.06.44m-579.72 3.01c-.39 0-.77-.15-1.06-.44-1.42-1.42-2.84-2.84-4.24-4.28-.58-.59-.57-1.54.03-2.12a1.5 1.5 0 0 1 2.12.03c1.39 1.42 2.79 2.84 4.2 4.24.59.59.59 1.54.01 2.12-.29.3-.68.45-1.06.45m571.17 5.41c-.39 0-.79-.15-1.08-.46a1.5 1.5 0 0 1 .05-2.12c1.43-1.38 2.86-2.76 4.28-4.16a1.49 1.49 0 0 1 2.12.01c.59.59.58 1.54-.01 2.12q-2.145 2.115-4.32 4.2c-.29.28-.66.41-1.04.41m-562.55 2.92c-.36 0-.73-.14-1.02-.41-1.47-1.37-2.92-2.76-4.36-4.15a1.5 1.5 0 0 1 2.08-2.16c1.43 1.39 2.88 2.76 4.33 4.12.6.57.63 1.52.07 2.12-.3.32-.7.48-1.1.48m553.77 5.25c-.41 0-.82-.16-1.12-.49-.55-.61-.5-1.56.11-2.12 1.48-1.33 2.95-2.68 4.41-4.04a1.5 1.5 0 0 1 2.04 2.2c-1.47 1.37-2.95 2.72-4.44 4.07-.28.26-.64.38-1 .38m-544.9 2.82c-.36 0-.71-.12-1-.38-1.5-1.32-2.99-2.66-4.47-4.01-.62-.56-.66-1.51-.1-2.12.56-.62 1.51-.66 2.12-.1q2.205 2.01 4.44 3.99c.62.55.68 1.5.13 2.12-.3.33-.71.5-1.12.5m535.87 5.1a1.5 1.5 0 0 1-.97-2.64c1.52-1.3 3.03-2.6 4.52-3.91.63-.55 1.58-.49 2.12.13.55.63.49 1.58-.14 2.12a338 338 0 0 1-4.55 3.94c-.29.24-.63.36-.98.36m-526.78 2.71c-.34 0-.68-.11-.96-.34a428 428 0 0 1-4.59-3.89c-.63-.54-.7-1.49-.16-2.12.54-.62 1.48-.7 2.11-.16 1.51 1.3 3.03 2.59 4.56 3.86a1.495 1.495 0 0 1-.96 2.65m517.53 4.94c-.44 0-.87-.2-1.17-.57-.52-.64-.41-1.59.23-2.1 1.56-1.25 3.1-2.51 4.64-3.78.64-.53 1.58-.44 2.11.2s.44 1.58-.2 2.11c-1.55 1.28-3.1 2.55-4.67 3.81-.28.22-.61.33-.94.33m-508.21 2.6c-.33 0-.65-.1-.93-.32a429 429 0 0 1-4.7-3.75c-.65-.52-.75-1.46-.22-2.11.52-.64 1.46-.74 2.11-.22 1.54 1.25 3.1 2.49 4.66 3.72a1.495 1.495 0 0 1-.92 2.68m498.74 4.77c-.45 0-.9-.2-1.2-.6-.5-.66-.37-1.6.29-2.1 1.6-1.2 3.18-2.41 4.75-3.64.66-.5 1.6-.39 2.11.27.51.65.39 1.59-.27 2.1-1.58 1.24-3.17 2.46-4.78 3.67-.27.2-.59.3-.9.3m-489.21 2.5c-.31 0-.63-.1-.89-.3-1.62-1.19-3.22-2.39-4.81-3.61a1.499 1.499 0 1 1 1.82-2.38c1.58 1.2 3.17 2.4 4.77 3.58.66.49.81 1.43.31 2.1-.29.4-.74.61-1.2.61m479.52 4.6a1.5 1.5 0 0 1-.87-2.72c1.63-1.16 3.24-2.33 4.85-3.51.67-.48 1.61-.34 2.1.33s.34 1.61-.32 2.09c-1.62 1.19-3.25 2.37-4.89 3.53-.26.19-.57.28-.87.28m-469.79 2.38c-.3 0-.59-.09-.85-.27-1.65-1.15-3.29-2.3-4.92-3.47a1.5 1.5 0 0 1 1.75-2.44c1.62 1.16 3.24 2.31 4.88 3.45.68.47.85 1.4.37 2.08-.29.42-.75.65-1.23.65m459.9 4.43c-.49 0-.96-.23-1.25-.67a1.5 1.5 0 0 1 .42-2.08c1.65-1.11 3.31-2.22 4.95-3.36.68-.46 1.61-.29 2.09.39.46.68.29 1.62-.39 2.08-1.65 1.14-3.32 2.27-4.99 3.39-.26.17-.55.25-.83.25m-449.97 2.26c-.28 0-.56-.08-.82-.24-1.67-1.1-3.34-2.21-5-3.33-.69-.46-.87-1.39-.41-2.08s1.4-.87 2.08-.4c1.65 1.11 3.31 2.21 4.97 3.29.7.46.89 1.39.44 2.08-.29.44-.77.68-1.26.68M637.29 759c-.5 0-.99-.25-1.28-.7-.44-.71-.22-1.63.48-2.07 1.69-1.06 3.38-2.13 5.05-3.21a1.5 1.5 0 0 1 2.07.44c.45.7.25 1.63-.44 2.08-1.69 1.09-3.39 2.17-5.09 3.23-.25.16-.52.23-.79.23m-429.76 2.14c-.26 0-.53-.07-.78-.22q-2.565-1.575-5.1-3.18c-.7-.44-.91-1.36-.47-2.07.45-.7 1.37-.9 2.07-.46q2.52 1.59 5.07 3.15c.7.43.93 1.35.49 2.06-.28.46-.77.72-1.28.72m419.48 4.08c-.52 0-1.02-.26-1.3-.74-.42-.71-.18-1.63.54-2.05 1.72-1.01 3.43-2.03 5.14-3.06.71-.43 1.63-.2 2.06.5.43.71.2 1.63-.5 2.06q-2.58 1.56-5.19 3.09c-.24.14-.5.2-.75.2m-409.18 2.01c-.25 0-.51-.06-.74-.19q-2.61-1.5-5.19-3.03c-.72-.42-.95-1.34-.53-2.05a1.5 1.5 0 0 1 2.05-.53q2.565 1.515 5.16 3c.72.41.97 1.33.55 2.05-.27.48-.78.75-1.3.75m398.71 3.91c-.53 0-1.04-.28-1.32-.78-.39-.72-.13-1.64.6-2.03 1.75-.96 3.5-1.93 5.23-2.91.72-.41 1.64-.16 2.05.56s.15 1.64-.57 2.05c-1.75.99-3.51 1.97-5.27 2.93-.23.13-.48.18-.72.18m-388.24 1.88c-.23 0-.48-.05-.7-.17-1.77-.95-3.53-1.9-5.28-2.87-.72-.4-.99-1.31-.58-2.04.4-.72 1.31-.98 2.03-.59 1.74.97 3.49 1.91 5.24 2.85.73.39 1.01 1.3.62 2.03-.27.51-.79.79-1.33.79m377.61 3.73c-.55 0-1.08-.3-1.34-.82-.38-.74-.08-1.64.66-2.01 1.78-.91 3.55-1.83 5.32-2.76.72-.38 1.63-.11 2.02.63.39.73.11 1.64-.63 2.02-1.77.94-3.56 1.87-5.35 2.78-.22.11-.45.16-.68.16m-366.97 1.75c-.23 0-.46-.05-.67-.15-1.79-.89-3.58-1.8-5.36-2.72a1.499 1.499 0 0 1 1.38-2.66c1.76.91 3.54 1.81 5.31 2.69.75.37 1.05 1.27.68 2.01-.26.53-.79.83-1.34.83m356.17 3.55c-.56 0-1.1-.32-1.36-.86a1.51 1.51 0 0 1 .72-2c1.8-.85 3.6-1.72 5.4-2.6a1.502 1.502 0 0 1 1.32 2.7c-1.81.88-3.62 1.76-5.44 2.62-.21.09-.43.14-.64.14m-345.39 1.62c-.21 0-.42-.05-.63-.14q-2.715-1.26-5.43-2.55a1.504 1.504 0 0 1-.7-2c.36-.75 1.25-1.07 2-.71 1.79.86 3.59 1.7 5.39 2.53.75.35 1.08 1.24.74 1.99-.26.55-.8.88-1.37.88m334.43 3.36c-.58 0-1.13-.34-1.37-.9-.33-.76.01-1.65.77-1.98 1.83-.8 3.66-1.61 5.48-2.44.75-.34 1.64-.01 1.98.75.35.75.01 1.64-.74 1.98-1.83.84-3.67 1.65-5.52 2.46-.19.09-.4.13-.6.13m-323.5 1.48c-.2 0-.39-.04-.59-.12-1.84-.79-3.67-1.58-5.5-2.39-.76-.34-1.1-1.22-.76-1.98.33-.76 1.22-1.1 1.98-.76q2.715 1.2 5.46 2.37c.76.32 1.11 1.2.79 1.96-.24.57-.8.92-1.38.92m312.4 3.17c-.59 0-1.15-.36-1.39-.94-.31-.77.06-1.65.83-1.96 1.86-.74 3.71-1.5 5.55-2.27.76-.33 1.64.04 1.96.8a1.5 1.5 0 0 1-.8 1.96c-1.86.78-3.72 1.55-5.59 2.3-.18.07-.37.11-.56.11m-301.31 1.35c-.19 0-.37-.03-.55-.1-1.87-.73-3.73-1.48-5.59-2.24a1.483 1.483 0 0 1-.82-1.95c.31-.77 1.18-1.14 1.95-.82q2.775 1.125 5.55 2.22c.77.3 1.16 1.17.85 1.94-.23.59-.79.95-1.39.95M561.81 796c-.61 0-1.18-.38-1.4-.99-.29-.77.11-1.63.89-1.92 1.87-.69 3.75-1.39 5.61-2.11.77-.3 1.64.09 1.94.86s-.09 1.64-.86 1.94c-1.88.72-3.77 1.43-5.66 2.13-.17.06-.34.09-.52.09m-278.84 1.24c-.17 0-.34-.03-.5-.09-1.89-.68-3.78-1.37-5.66-2.07a1.499 1.499 0 1 1 1.05-2.81c1.87.7 3.74 1.38 5.62 2.06.78.27 1.18 1.13.9 1.91-.21.62-.79 1-1.41 1m267.48 2.75c-.63 0-1.21-.4-1.42-1.03-.27-.79.16-1.63.94-1.9 1.9-.63 3.79-1.28 5.68-1.94.78-.28 1.64.14 1.91.92.28.78-.13 1.63-.91 1.91-1.9.67-3.81 1.32-5.72 1.96-.16.05-.32.08-.48.08m-256.12 1.12c-.15 0-.31-.02-.46-.07-1.91-.62-3.82-1.26-5.72-1.9-.78-.27-1.2-1.12-.93-1.91.26-.78 1.12-1.2 1.9-.93 1.89.64 3.78 1.27 5.67 1.88.79.26 1.22 1.11.97 1.89-.21.64-.8 1.04-1.43 1.04m244.64 2.53a1.5 1.5 0 0 1-.43-2.94c1.91-.58 3.82-1.17 5.73-1.78.79-.25 1.63.19 1.88.98s-.18 1.63-.97 1.88c-1.92.61-3.85 1.21-5.78 1.79-.14.05-.29.07-.43.07m-233.17 1q-.21 0-.42-.06c-1.93-.56-3.86-1.14-5.77-1.73a1.49 1.49 0 0 1-.99-1.87c.24-.8 1.08-1.24 1.87-.99 1.9.58 3.81 1.16 5.72 1.71.8.24 1.26 1.07 1.03 1.86-.2.66-.79 1.08-1.44 1.08m221.63 2.29c-.66 0-1.27-.44-1.45-1.11-.21-.8.26-1.62 1.06-1.84 1.93-.52 3.85-1.05 5.76-1.6.8-.22 1.63.24 1.86 1.03.22.8-.24 1.63-1.04 1.86-1.92.55-3.86 1.08-5.8 1.61-.13.03-.26.05-.39.05m-210.07.91c-.12 0-.25-.02-.38-.05-1.94-.51-3.88-1.03-5.81-1.56-.8-.22-1.27-1.05-1.05-1.85.22-.79 1.05-1.26 1.85-1.04 1.91.53 3.84 1.04 5.77 1.55a1.5 1.5 0 0 1-.38 2.95m198.44 2.04c-.68 0-1.29-.46-1.46-1.15-.19-.81.31-1.62 1.11-1.81 1.94-.46 3.88-.94 5.81-1.43.8-.2 1.62.29 1.82 1.09.21.8-.28 1.62-1.08 1.82q-2.925.75-5.85 1.44c-.12.03-.23.04-.35.04m-186.78.81c-.11 0-.23-.01-.34-.04-1.96-.45-3.91-.91-5.86-1.39-.8-.19-1.3-1.01-1.1-1.81.2-.81 1.01-1.3 1.81-1.1q2.91.705 5.82 1.38c.81.18 1.31.98 1.13 1.79-.16.7-.78 1.17-1.46 1.17m175.07 1.8c-.7 0-1.32-.49-1.47-1.2-.17-.81.36-1.6 1.17-1.77 1.95-.4 3.9-.82 5.84-1.26a1.5 1.5 0 0 1 1.79 1.14 1.5 1.5 0 0 1-1.14 1.79c-1.95.44-3.92.86-5.88 1.27-.11.02-.21.03-.31.03m-163.34.7c-.1 0-.2-.01-.29-.03-1.97-.39-3.94-.79-5.9-1.21a1.49 1.49 0 0 1-1.15-1.78c.17-.81.96-1.33 1.78-1.15q2.91.615 5.85 1.2a1.5 1.5 0 0 1 1.18 1.76c-.14.72-.77 1.21-1.47 1.21m151.56 1.56a1.5 1.5 0 0 1-1.48-1.24c-.14-.81.4-1.59 1.22-1.74 1.96-.34 3.92-.71 5.88-1.08.8-.15 1.59.38 1.75 1.19s-.38 1.6-1.19 1.76c-1.97.37-3.94.74-5.92 1.09-.09.01-.18.02-.26.02m-139.76.6c-.08 0-.16-.01-.25-.02-1.98-.33-3.96-.68-5.93-1.04-.81-.15-1.35-.93-1.2-1.74.15-.82.93-1.36 1.74-1.21 1.96.36 3.92.7 5.89 1.03a1.501 1.501 0 0 1-.25 2.98m127.91 1.31c-.73 0-1.37-.53-1.48-1.28a1.5 1.5 0 0 1 1.27-1.7c1.97-.29 3.94-.59 5.9-.91.83-.14 1.59.42 1.72 1.24.14.82-.42 1.59-1.24 1.72-1.98.32-3.96.63-5.95.92-.07.01-.15.01-.22.01m-116.05.5c-.07 0-.14 0-.2-.01-2-.28-3.98-.57-5.96-.87-.82-.12-1.38-.89-1.26-1.71.13-.82.88-1.38 1.71-1.25 1.97.3 3.94.58 5.92.85.82.12 1.39.88 1.28 1.7-.11.75-.75 1.29-1.49 1.29m104.16 1.07c-.75 0-1.4-.57-1.49-1.33-.1-.82.49-1.57 1.31-1.66 1.99-.23 3.96-.48 5.94-.74.82-.1 1.57.47 1.68 1.29s-.47 1.58-1.29 1.68c-1.99.27-3.98.51-5.98.75-.06 0-.12.01-.17.01m-92.25.39c-.05 0-.11 0-.16-.01-2-.21-3.99-.44-5.98-.69-.83-.1-1.41-.84-1.31-1.67.1-.82.87-1.39 1.67-1.3 1.98.24 3.96.47 5.94.68.82.09 1.42.83 1.33 1.65-.08.77-.73 1.34-1.49 1.34m80.31.82a1.5 1.5 0 0 1-1.49-1.37 1.5 1.5 0 0 1 1.36-1.62c1.99-.18 3.97-.36 5.95-.57.83-.08 1.56.52 1.65 1.35.08.82-.52 1.56-1.34 1.64q-3 .3-6 .57zm-68.36.29h-.12c-2.01-.16-4.01-.33-6-.52a1.496 1.496 0 1 1 .28-2.98c1.98.18 3.96.35 5.95.51.83.06 1.44.78 1.38 1.61-.06.79-.72 1.38-1.49 1.38m56.39.58a1.5 1.5 0 0 1-1.49-1.42c-.05-.82.58-1.53 1.41-1.58 1.99-.11 3.98-.24 5.96-.39.82-.05 1.55.56 1.61 1.39s-.56 1.55-1.39 1.61c-2 .14-4 .27-6.01.39zm-44.42.19h-.07c-2.01-.1-4.02-.22-6.02-.34-.82-.06-1.45-.77-1.4-1.6.05-.82.76-1.44 1.59-1.4 1.99.13 3.98.24 5.97.34a1.5 1.5 0 0 1-.07 3m32.44.33c-.81 0-1.48-.65-1.5-1.46-.02-.83.63-1.52 1.46-1.54 1.99-.06 3.98-.13 5.97-.22.81-.04 1.53.61 1.56 1.44.04.82-.6 1.52-1.43 1.56-2 .09-4.01.16-6.02.22zm-20.46.08h-.03c-2.01-.04-4.01-.09-6.01-.16-.83-.03-1.48-.73-1.45-1.55.03-.83.74-1.48 1.55-1.45 1.99.07 3.98.12 5.97.16.82.02 1.48.71 1.47 1.53-.02.82-.69 1.47-1.5 1.47m8.46.09c-.83 0-1.65 0-2.48-.01-.82 0-1.49-.68-1.49-1.51.01-.82.68-1.49 1.5-1.49h.01c2.81.02 5.63.01 8.44-.03h.02c.82 0 1.49.65 1.5 1.48.01.82-.65 1.51-1.48 1.52-2 .03-4.01.04-6.02.04"/><path fill="#a3b1bf" fill-rule="evenodd" d="M51.68 646c-4.13 0-7.5 3.36-7.5 7.5s3.37 7.5 7.5 7.5c4.14 0 7.5-3.36 7.5-7.5s-3.36-7.5-7.5-7.5m0 18c-5.79 0-10.5-4.71-10.5-10.5s4.71-10.5 10.5-10.5 10.5 4.71 10.5 10.5-4.71 10.5-10.5 10.5M285.18 553.5c-8.56 0-15.5 6.94-15.5 15.5s6.94 15.5 15.5 15.5 15.5-6.94 15.5-15.5-6.94-15.5-15.5-15.5m0 3c6.9 0 12.5 5.61 12.5 12.5s-5.6 12.5-12.5 12.5c-6.89 0-12.5-5.61-12.5-12.5s5.61-12.5 12.5-12.5"/><path fill="#a0c8ff" fill-opacity=".151" d="M285.18 556.5c-6.89 0-12.5 5.61-12.5 12.5s5.61 12.5 12.5 12.5c6.9 0 12.5-5.61 12.5-12.5s-5.6-12.5-12.5-12.5"/><path fill="#a3b1bf" fill-rule="evenodd" d="M531.68 243.5a9 9 0 1 0 .001 18.001 9 9 0 0 0-.001-18.001m0 3c3.31 0 6 2.69 6 6s-2.69 6-6 6-6-2.69-6-6 2.69-6 6-6"/><path fill="#f3f8ff" fill-rule="evenodd" d="M531.68 246.5c3.31 0 6 2.69 6 6s-2.69 6-6 6-6-2.69-6-6 2.69-6 6-6M321.68 670.5c2.77 0 5-2.24 5-5s-2.23-5-5-5c-2.76 0-5 2.24-5 5s2.24 5 5 5"/><path fill="#a3b1bf" fill-rule="evenodd" d="M105.68 579.5a2.5 2.5 0 0 1 2.5 2.5v10a2.5 2.5 0 0 1-5 0v-10a2.5 2.5 0 0 1 2.5-2.5M95.18 569a2.5 2.5 0 0 1 0 5h-10a2.5 2.5 0 0 1 0-5zm31 0a2.5 2.5 0 0 1 0 5h-10a2.5 2.5 0 0 1 0-5zm-20.5-20.5a2.5 2.5 0 0 1 2.5 2.5v10a2.5 2.5 0 0 1-5 0v-10a2.5 2.5 0 0 1 2.5-2.5M779.68 482.5a2.5 2.5 0 0 1 2.5 2.5v10a2.5 2.5 0 0 1-5 0v-10a2.5 2.5 0 0 1 2.5-2.5m-10.5-10.5a2.5 2.5 0 0 1 0 5h-10a2.5 2.5 0 0 1 0-5zm31 0a2.5 2.5 0 0 1 0 5h-10a2.5 2.5 0 0 1 0-5zm-20.5-20.5a2.5 2.5 0 0 1 2.5 2.5v10a2.5 2.5 0 0 1-5 0v-10a2.5 2.5 0 0 1 2.5-2.5M499.68 288.5h-154c-11.58 0-21 9.42-21 21v196c0 11.58 9.42 21 21 21h154c11.58 0 21-9.42 21-21v-196c0-11.58-9.42-21-21-21m0 3c9.93 0 18 8.07 18 18v196c0 9.92-8.07 18-18 18h-154c-9.92 0-18-8.08-18-18v-196c0-9.93 8.08-18 18-18z"/><path fill="#acc0dc" fill-opacity=".196" d="M324.68 359.07v99.86h-55.59c-9.17 0-16.6 7.45-16.6 16.64s7.43 16.64 16.6 16.64h20.47c9.17 0 16.6 7.46 16.6 16.65s-7.43 16.64-16.6 16.64H91.68c-9.17 0-16.6-7.45-16.6-16.64s7.43-16.65 16.6-16.65h104.2c1.71 0 3.37-.26 4.92-.74 2.99 2.51 6.84 4.03 11.03 4.03 9.46 0 17.2-7.73 17.2-17.17V457.3h9.14c7.98 0 14.51-6.52 14.51-14.49s-6.53-14.49-14.51-14.49h-9.14v-2.68h57.05c9.17 0 16.6-7.45 16.6-16.64s-7.43-16.64-16.6-16.64h-19.94c-9.17 0-16.6-7.45-16.6-16.65 0-9.19 7.43-16.64 16.6-16.64zm336.97-66.57c9.17 0 16.6 7.45 16.6 16.64 0 9.2-7.43 16.65-16.6 16.65h-25.59c-4.92-4.53-11.39-7.29-18.46-7.29-7.08 0-13.54 2.76-18.47 7.29h-11.71c-9.16 0-16.6 7.45-16.6 16.64s7.44 16.64 16.6 16.64h3.16c1.09 9.25 3.08 21.63 5.61 33.29h-75.51v-32.04c7.91-1.18 14-8.47 14-17.32s-6.09-16.14-14-17.32V309.5c0-6.99-3.45-13.18-8.72-17Zm34.43 66.57c9.17 0 16.6 7.45 16.6 16.65 0 9.19-7.43 16.64-16.6 16.64h-57.07c2.52-11.66 4.52-24.04 5.6-33.29Z"/><path fill="#a0c8ff" fill-opacity=".151" d="M499.68 307.5h-154c-1.1 0-2 .9-2 2v196c0 1.1.9 2 2 2h42.08v-11h-.19l-.04 7.71c-2.08 4.93-6.82 1.23-6.82 1.23s-5.75-5.3-11.62-13.59c-3-2.53-5.16-5.92-6.01-9.77-5.99-11.5-9.57-25.8-2.47-39.51.68-1.28 1.37-2.51 2.07-3.7v-23.29c0-8.02 5.59-14.83 13.3-17.19-1-2.78-1.98-5.78-2.89-8.96-2.64-1.9-9.35-7.54-9.76-16.29-.43-9.08 5.9-13.96 10.45-15.78.89-3.24 3.31-10.49 8.78-17.76 6.67-8.89 19.27-19.48 41.45-19.48 22.3 0 34.9 10.59 41.55 19.48 5.32 7.13 7.73 14.22 8.64 17.56 4.29 1.37 9.95 5.76 9.88 15.86-.07 9.38-5.83 14.55-10.1 16.62-.2 2.04-.71 5.46-2.01 9.76 6.34 2.96 10.71 9.09 10.71 16.18v23.29c.7 1.19 1.4 2.42 2.08 3.7 7.1 13.71 3.51 28.01-2.47 39.51-.85 3.85-3.01 7.24-6.01 9.77-5.88 8.29-11.62 13.59-11.62 13.59s-4.98 3.7-7.05-1.23v3.29h42.07a2 2 0 0 0 2-2v-196a2 2 0 0 0-2-2"/><path fill="#a3b1bf" fill-rule="evenodd" d="M617.71 448.5c-12.7 0-23.03 10.33-23.03 23.03s10.33 23.03 23.03 23.03 23.03-10.33 23.03-23.03-10.33-23.03-23.03-23.03m0 3c11.06 0 20.03 8.97 20.03 20.03s-8.97 20.03-20.03 20.03-20.03-8.97-20.03-20.03 8.97-20.03 20.03-20.03"/><path fill="#a0c8ff" fill-opacity=".151" d="M617.71 451.5c11.06 0 20.03 8.97 20.03 20.03s-8.97 20.03-20.03 20.03-20.03-8.97-20.03-20.03 8.97-20.03 20.03-20.03"/><path fill="#a3b1bf" fill-rule="evenodd" d="m144.68 428.5 50-55v55zm67.15-109c-.13 0-.26.02-.39.02-.24-.01-.47-.02-.71-.02-3.97 0-7.92 1.6-10.77 4.75l-.26.28c-.41.41-.8.84-1.17 1.28l-2.45 2.71h-40.25c-4.73 0-8.6 3.86-8.6 8.58s3.87 8.59 8.6 8.59h18.28c4.73 0 8.6 3.86 8.6 8.58s-3.87 8.59-8.6 8.59h-9.18l-.02.02c-.16-.01-.31-.02-.48-.02h-40.85c-4.73 0-8.6 3.86-8.6 8.58 0 4.73 3.87 8.59 8.6 8.59h25.78l-47.94 52.85c-5.36 5.9-4.9 15.11 1.02 20.46 2.28 2.06 5.06 3.26 7.91 3.61 1.01.22 2.05.35 3.11.35h81.17v21.03c0 9.44 7.74 17.17 17.2 17.17s17.2-7.73 17.2-17.17V457.3h9.14c7.98 0 14.51-6.52 14.51-14.49s-6.53-14.49-14.51-14.49h-9.14v-91.65c0-9.44-7.74-17.17-17.2-17.17m-73.93 112h59.78v-65.76l-5.22 5.74-50 55zm73.97-109c7.81.02 14.16 6.37 14.16 14.17v94.65h12.14c6.35 0 11.51 5.16 11.51 11.49s-5.16 11.49-11.51 11.49h-12.14v24.03c0 7.81-6.37 14.17-14.2 14.17s-14.2-6.36-14.2-14.17V454.3h-84.17c-.8 0-1.63-.1-2.46-.28l-.14-.03-.14-.02c-2.36-.29-4.53-1.28-6.27-2.85-2.27-2.06-3.6-4.88-3.75-7.95-.15-3.08.89-6.02 2.94-8.28l47.94-52.85 4.55-5.01h-32.55c-3.09 0-5.6-2.51-5.6-5.59s2.51-5.58 5.6-5.58h40.97l.22.02 1.38.04.06-.06h7.9c6.39 0 11.6-5.2 11.6-11.59s-5.21-11.58-11.6-11.58h-18.28c-3.09 0-5.6-2.51-5.6-5.59s2.51-5.58 5.6-5.58h41.58l.9-.99 2.45-2.7.04-.05.05-.06c.31-.38.64-.74.97-1.07l.05-.05.05-.06.26-.28c2.17-2.39 5.28-3.76 8.55-3.76.19 0 .38.01.57.02h.19c.11 0 .22-.01.38-.02"/><path fill="#a0c8ff" fill-opacity=".151" d="M216.68 332.5a9 9 0 0 1 9 9v81a9 9 0 0 1-18 0v-81a9 9 0 0 1 9-9"/><path fill="#a3b1bf" fill-rule="evenodd" d="M298.68 124.5c-7.73 0-14 6.27-14 14s6.27 14 14 14c7.74 0 14-6.27 14-14s-6.26-14-14-14m0 3c6.07 0 11 4.94 11 11s-4.93 11-11 11c-6.06 0-11-4.94-11-11s4.94-11 11-11"/><path fill="#a0c8ff" fill-opacity=".151" d="M298.68 149.5c-6.06 0-11-4.94-11-11s4.94-11 11-11c6.07 0 11 4.94 11 11s-4.93 11-11 11"/><path fill="#a3b1bf" fill-rule="evenodd" d="M647.68 157.5c2.77 0 5-2.24 5-5s-2.23-5-5-5c-2.76 0-5 2.24-5 5s2.24 5 5 5M734.68 382.5c2.77 0 5-2.24 5-5s-2.23-5-5-5c-2.76 0-5 2.24-5 5s2.24 5 5 5M657.68 36.5c-2.76 0-5 2.24-5 5s2.24 5 5 5c2.77 0 5-2.24 5-5s-2.23-5-5-5m0 3a2 2 0 1 1 .001 3.999 2 2 0 0 1-.001-3.999M777.18 571.5c-15.98 0-29.09 11.29-30.39 25.65-2.75-.42-5.63-.65-8.61-.65-18.5 0-33.5 8.73-33.5 19.5s15 19.5 33.5 19.5c9.83 0 18.67-2.46 24.79-6.39 3.19 3.72 11.93 6.39 22.21 6.39 11.72 0 21.44-3.47 23.21-8h.29c11.6 0 21-6.04 21-13.5s-9.4-13.5-21-13.5c-.34 0-.68.01-1.02.02.02-.34.02-.68.02-1.02 0-15.46-13.65-28-30.5-28m0 3c15.17 0 27.5 11.22 27.5 25 0 .3 0 .6-.01.9l-.13 3.22 3.22-.11c.31-.01.61-.01.92-.01 9.76 0 18 4.81 18 10.5s-8.24 10.5-17.97 10.5h-.29l-2.07-.02-.75 1.92c-1 2.56-8.65 6.1-20.42 6.1-10.07 0-17.65-2.69-19.93-5.34l-1.7-1.98-2.19 1.41c-5.87 3.76-14.32 5.91-23.18 5.91-16.53 0-30.5-7.56-30.5-16.5s13.97-16.5 30.5-16.5c2.77 0 5.51.21 8.15.62l3.16.48.29-3.18c1.16-12.85 13.2-22.92 27.4-22.92"/><path fill="#a0c8ff" fill-opacity=".151" d="M777.18 574.5c-14.2 0-26.24 10.07-27.4 22.92l-.29 3.18-3.16-.49c-2.64-.4-5.38-.61-8.15-.61-16.53 0-30.5 7.56-30.5 16.5s13.97 16.5 30.5 16.5c8.86 0 17.31-2.15 23.18-5.91l2.19-1.41 1.7 1.98c2.28 2.65 9.86 5.34 19.93 5.34 11.77 0 19.42-3.54 20.42-6.1l.75-1.92 2.33.02c9.76 0 18-4.81 18-10.5s-8.24-10.5-18-10.5c-.31 0-.61 0-.92.01l-3.22.11.13-3.22c.01-.3.01-.6.01-.9 0-13.78-12.33-25-27.5-25m0 3c13.51 0 24.5 9.87 24.5 22 0 .26 0 .52-.01.79l-.12 3.21-.12 3.22 3.21-.1 3.22-.11c.27-.01.55-.01.82-.01 8.45 0 15 4.03 15 7.5s-6.55 7.5-14.98 7.5l-2.33-.02-2.06-.01-.75 1.92-.72 1.84c-.92 1.29-7.17 4.27-17.66 4.27-9.53 0-16.17-2.56-17.65-4.29l-1.7-1.98-1.7-1.98-2.19 1.4-2.2 1.41c-5.4 3.46-13.26 5.44-21.56 5.44-15.74 0-27.5-7.13-27.5-13.5 0-3.13 2.73-6.39 7.48-8.97 5.33-2.88 12.63-4.53 20.02-4.53 2.61 0 5.2.2 7.69.58l3.16.49 3.16.48.29-3.18.29-3.18c1.02-11.32 11.74-20.19 24.41-20.19"/><path fill="#a3b1bf" fill-rule="evenodd" d="M383.68 137.5c-20.43 0-37 11.87-37 26.5 0 .56.03 1.12.08 1.68-1.17-.12-2.36-.18-3.58-.18-14.63 0-26.5 8.95-26.5 20s11.87 20 26.5 20c7.54 0 14.34-2.37 19.16-6.18 2.43 8.72 11.29 15.18 21.84 15.18 11.07 0 20.27-7.1 22.15-16.46 2.04.3 4.17.46 6.35.46 14.92 0 27-7.39 27-16.5 0-7.44-8.05-13.73-19.12-15.79.08-.73.12-1.46.12-2.21 0-14.63-16.56-26.5-37-26.5m0 3c18.75 0 34 10.54 34 23.5 0 .62-.03 1.25-.1 1.87l-.32 2.78 2.75.51c9.82 1.83 16.67 7.11 16.67 12.84 0 7.32-10.99 13.5-24 13.5-2 0-3.99-.14-5.91-.43l-2.82-.41-.56 2.79c-1.64 8.14-9.71 14.05-19.21 14.05-9.03 0-16.82-5.34-18.95-12.99l-1.21-4.34-3.54 2.79c-4.45 3.52-10.76 5.54-17.3 5.54-12.95 0-23.5-7.63-23.5-17s10.55-17 23.5-17c1.1 0 2.2.06 3.27.16l3.61.37-.31-3.61c-.05-.47-.07-.95-.07-1.42 0-12.96 15.26-23.5 34-23.5"/><path fill="#a0c8ff" fill-opacity=".151" d="M383.68 140.5c-18.74 0-34 10.54-34 23.5 0 .47.02.95.07 1.42l.31 3.61-3.61-.37c-1.07-.1-2.17-.16-3.27-.16-12.95 0-23.5 7.63-23.5 17s10.55 17 23.5 17c6.54 0 12.85-2.02 17.3-5.54l3.54-2.79 1.21 4.34c2.13 7.65 9.92 12.99 18.95 12.99 9.5 0 17.57-5.91 19.21-14.05l.56-2.79 2.82.41c1.92.29 3.91.43 5.91.43 13.01 0 24-6.18 24-13.5 0-5.73-6.85-11.01-16.67-12.84l-2.75-.51.32-2.78c.07-.62.1-1.25.1-1.87 0-12.96-15.25-23.5-34-23.5m0 3c8.47 0 16.4 2.26 22.33 6.36 5.59 3.87 8.67 8.89 8.67 14.14 0 .51-.03 1.02-.08 1.53l-.32 2.78-.33 2.78 2.76.51 2.75.51c8.11 1.51 14.22 5.76 14.22 9.89 0 4.96-8.98 10.5-21 10.5-1.85 0-3.7-.13-5.47-.4l-2.82-.41-2.82-.42-.56 2.79-.56 2.8c-1.36 6.74-8.2 11.64-16.27 11.64-7.68 0-14.29-4.44-16.06-10.79l-1.21-4.34-1.21-4.35-3.54 2.8-3.54 2.79c-3.93 3.11-9.56 4.89-15.44 4.89-11.11 0-20.5-6.41-20.5-14s9.39-14 20.5-14q1.5 0 2.97.15l3.61.37 3.61.37-.32-3.62-.32-3.62c-.03-.37-.05-.76-.05-1.15 0-5.25 3.08-10.27 8.68-14.14 5.93-4.1 13.86-6.36 22.32-6.36"/><path fill="#a3b1bf" fill-rule="evenodd" d="M670.34 246.5c-5 0-9.56 1.15-12.91 3.44-.54 1.21-4.17 16.22-10.88 45.03q7.995-2.31 14.91-2.31c8.96 0 16.56 2.91 22.79 8.73 7.11 6.64 16.14 9.97 27.09 9.97 3.58 0 7.36-.36 11.34-1.07l11-43.67c-5.02 1.21-9.61 1.82-13.77 1.82-9.3 0-16.47-3.02-21.51-9.05-7.2-8.62-18.43-12.89-28.06-12.89m0 3c7.68 0 18.48 3.1 25.76 11.81 5.61 6.72 13.62 10.13 23.81 10.13 3.01 0 6.26-.31 9.69-.91l-9.35 37.12c-3.1.47-6.09.71-8.91.71-10.25 0-18.45-3-25.05-9.16-6.77-6.33-15.13-9.54-24.83-9.54-3.43 0-7.07.4-10.87 1.21 6.47-27.71 8.66-36.46 9.37-38.97 2.69-1.55 6.33-2.4 10.38-2.4"/><path fill="#a0c8ff" fill-opacity=".151" d="M670.34 249.5c-4.05 0-7.69.85-10.38 2.4-.71 2.51-2.9 11.27-9.37 38.97 3.8-.81 7.44-1.21 10.87-1.21 9.7 0 18.06 3.21 24.83 9.54 6.6 6.16 14.8 9.16 25.06 9.16 2.81 0 5.8-.24 8.9-.71l9.35-37.12c-3.43.6-6.68.91-9.69.91-10.19 0-18.2-3.41-23.81-10.13-7.28-8.71-18.08-11.81-25.76-11.81m0 3c7 0 16.84 2.82 23.45 10.74 6.21 7.43 15 11.2 26.12 11.2 1.82 0 3.72-.11 5.7-.32l-7.77 30.83c-2.25.27-4.43.41-6.49.41-9.47 0-16.99-2.74-23.01-8.36-7.35-6.86-16.39-10.34-26.88-10.34-2.22 0-4.54.16-6.92.48 4.9-20.91 7.05-29.68 7.97-33.18 2.12-.95 4.85-1.46 7.83-1.46"/><path fill="#a3b1bf" fill-rule="evenodd" d="M658.32 242.44c-9.55 38.29-16.71 67-21.48 86.14-.13 2.45 2.15 3.88 3.04 4.35l22.32-89.52a2.01 2.01 0 0 0-1.46-2.43c-1.07-.26-2.15.39-2.42 1.46"/><path fill="#a3b1bf" fill-rule="evenodd" d="M617.6 318.5c-15.4 0-27.92 13.02-27.92 29.02 0 7.93 3.03 29.9 7.38 48.74 8.2 35.51 15.65 39.62 20.54 39.62 4.61 0 8.56-4.17 12.44-13.12 2.81-6.48 5.53-15.39 8.09-26.49 4.35-18.84 7.38-40.81 7.38-48.75 0-16-12.52-29.02-27.91-29.02m0 3c13.77 0 24.91 11.64 24.91 26.02 0 14.39-11.17 85.36-24.91 85.36-13.75 0-24.92-71-24.92-85.36 0-14.35 11.14-26.02 24.92-26.02"/><path fill="#a0c8ff" fill-opacity=".151" d="M617.6 432.88c-1.22 0-2.75-.6-4.28-2.25-3-3.23-4.74-6.83-2.95-10.87 7.77-17.53 13.22-41.93 16.22-72.54.43-4.4 4.34-7.61 8.74-7.18 4.39.43 7.58 4.34 7.18 8.74-2.56 32.86-11.28 67.17-17.51 77.46-1.42 2.69-4.25 6.69-7.4 6.64M652.68 122.5c12.71 0 23-10.3 23-23s-10.29-23-23-23c-12.7 0-23 10.3-23 23s10.3 23 23 23"/><path fill="#a3b1bf" fill-rule="evenodd" d="M642.18 93.5c-3.03 0-5.5 2.46-5.5 5.5s2.47 5.5 5.5 5.5c3.04 0 5.5-2.46 5.5-5.5s-2.46-5.5-5.5-5.5m0 3a2.5 2.5 0 0 1 0 5 2.5 2.5 0 0 1 0-5"/><path fill="#a3b1bf" fill-rule="evenodd" d="M683.13 93.66a31.04 31.04 0 0 0-10.17-17.6c10.54-3.34 18.37-3.62 20.43-.06 2.05 3.56-2.11 10.2-10.26 17.66m-2.45 5.84c0 15.44-12.56 28-28 28a27.8 27.8 0 0 1-13.99-3.76c6.86-2.49 14.38-5.99 21.99-10.38 7.63-4.4 14.42-9.17 20-13.87zm-56 0c0-15.44 12.56-28 28-28 14.26 0 26.05 10.71 27.78 24.51-5.74 4.87-13.02 9.98-21.28 14.75-8.25 4.76-16.31 8.51-23.4 11.05-6.74-5.12-11.1-13.21-11.1-22.31m71.3-25c-2.75-4.77-12.73-4.61-25.65-.48a30.83 30.83 0 0 0-17.65-5.52c-17.12 0-31 13.88-31 31 0 9.37 4.16 17.76 10.73 23.44-10.54 3.34-18.37 3.63-20.43.06-2.04-3.53 2.02-10.08 10.03-17.45l-.5-3.26c-9.86 9.02-14.86 17.48-12.13 22.21 2.76 4.78 12.74 4.63 25.66.49a30.9 30.9 0 0 0 17.64 5.51c17.12 0 31-13.88 31-31 0-.85-.04-1.69-.11-2.53 10.05-9.12 15.17-17.69 12.41-22.47"/><path fill="#a0c8ff" fill-opacity=".151" d="m90.76 156.14-27.58 27.58 43.84 43.84 27.58-27.57zm0 4.25 39.59 39.6-23.33 23.33-39.6-39.6z"/><path fill="#a3b1bf" fill-rule="evenodd" d="m107.02 227.56-10.1-10.1c4.57-6.58 3.9-15.72-2.01-21.63-3.34-3.33-7.7-5-12.06-5-3.36 0-6.7 1-9.57 2.99l-10.1-10.1 27.58-27.57 10.1 10.1c-4.57 6.58-3.9 15.72 2 21.63 3.34 3.33 7.71 5 12.06 5 3.36 0 6.71-1.01 9.58-2.99l10.1 10.1zM94.76 215.3l-19.32-19.32a13.7 13.7 0 0 1 7.41-2.15c3.75 0 7.28 1.46 9.94 4.12 4.72 4.73 5.38 11.98 1.97 17.35m-29.23-47.76 8.48-8.49 4.8 4.8-8.49 8.48zm-11.64 7.39-21.22-21.21c-3.51-3.51-3.51-9.22 0-12.73l14.85-14.85c1.7-1.7 3.96-2.64 6.37-2.64 2.4 0 4.66.94 6.36 2.64l21.21 21.21zm49.13-6.52 19.32 19.32c-2.2 1.39-4.75 2.15-7.42 2.15-3.74 0-7.27-1.46-9.93-4.13-4.73-4.72-5.38-11.97-1.97-17.34m44.33 40.14-13.47-3.61 3.54-3.54c.79-.78.79-2.05 0-2.83l-10.6-10.61-.34-.33 12.1-12.09-2.12-2.12-12.1 12.09-19.09-19.09 12.1-12.1-2.12-2.12-12.1 12.1-.37-.38-10.61-10.6a1.993 1.993 0 0 0-2.83 0l-8.41 8.41-4.8-4.8 8.16-8.16c.78-.78.78-2.05 0-2.83l-21.92-21.92a11.97 11.97 0 0 0-8.48-3.52c-3.07 0-6.14 1.18-8.49 3.52l-5.26 5.26-7.55-7.55c2.03-3.11 1.68-7.31-1.05-10.03a7.985 7.985 0 0 0-11.31 0c-3.12 3.12-3.12 8.19 0 11.31a8 8 0 0 0 9.4 1.42l7.68 7.68-6.76 6.76c-4.68 4.68-4.68 12.28 0 16.97l21.92 21.92a1.993 1.993 0 0 0 2.83 0l8.1-8.1 4.8 4.8-7.85 7.85c-.78.78-.78 2.05 0 2.83l10.98 10.98-12.65 12.65 2.12 2.12 12.65-12.65 19.09 19.09-11.94 11.95 2.12 2.12 11.94-11.95.34.34 10.6 10.6c.4.39.91.59 1.42.59s1.02-.2 1.41-.59l3.69-3.69 3.83 14.28c-1.48 1.77-1.41 4.4.26 6.06 1.75 1.75 4.6 1.75 6.36 0a4.503 4.503 0 0 0 0-6.37c-.75-.75-1.69-1.15-2.67-1.27l-4.33-16.15 14.86-14.86 15.52 4.16c.15.91.55 1.79 1.26 2.49 1.75 1.75 4.6 1.75 6.36 0a4.503 4.503 0 0 0 0-6.37c-1.71-1.71-4.45-1.74-6.22-.12"/><path fill="#a0c8ff" fill-opacity=".151" d="M53.89 123.5c-2.41 0-4.67.94-6.37 2.64l-14.85 14.85a8.93 8.93 0 0 0-2.63 6.36c0 2.41.93 4.67 2.63 6.37l21.22 21.21 27.57-27.58-21.21-21.21a8.94 8.94 0 0 0-6.36-2.64m0 3c1.6 0 3.11.63 4.24 1.76l19.09 19.09-23.33 23.34-19.1-19.09a5.98 5.98 0 0 1-1.75-4.25c0-1.6.62-3.11 1.75-4.24l14.85-14.85a6 6 0 0 1 4.25-1.76"/><path fill="#a3b1bf" fill-rule="evenodd" d="M118.7 92.97c-.51 0-1.02.19-1.42.58l-29.69 29.7c-.79.78-.79 2.05 0 2.83l77.07 77.07a1.993 1.993 0 0 0 2.83 0l29.7-29.69c.78-.78.78-2.05 0-2.83l-77.08-77.08c-.39-.39-.9-.58-1.41-.58m0 3.41 75.66 75.66-28.29 28.29-75.66-75.66z"/><path fill="#a0c8ff" fill-opacity=".151" d="m118.7 96.38-28.29 28.29 75.66 75.66 28.29-28.29zm0 4.24 71.42 71.42-24.05 24.04-71.41-71.41z"/><path fill="#a3b1bf" fill-opacity=".404" fill-rule="evenodd" d="m114.62 151.29 29.7-29.7c.59-.58 1.54-.58 2.12 0 .59.59.59 1.54 0 2.12l-29.7 29.7c-.58.59-1.53.59-2.12 0-.58-.59-.58-1.53 0-2.12M138.62 174.29l29.7-29.7c.59-.58 1.54-.58 2.12 0 .59.59.59 1.54 0 2.12l-29.7 29.7c-.58.59-1.53.59-2.12 0-.58-.59-.58-1.53 0-2.12"/><path fill="#a3b1bf" fill-opacity=".219" fill-rule="evenodd" d="M103.14 109.32a1.49 1.49 0 0 1 2.12 0l75.66 75.66c.59.58.59 1.53 0 2.12-.58.58-1.53.58-2.12 0l-75.66-75.66c-.58-.59-.58-1.54 0-2.12"/><path fill="#a3b1bf" fill-rule="evenodd" d="M31.7 179.97c-.51 0-1.02.19-1.42.58L.59 210.25c-.79.78-.79 2.05 0 2.83l77.07 77.07a1.993 1.993 0 0 0 2.83 0l29.7-29.69c.78-.79.78-2.05 0-2.83l-77.08-77.08c-.39-.39-.9-.58-1.41-.58m0 3.41 75.66 75.66-28.29 28.29-75.66-75.66z"/><path fill="#a0c8ff" fill-opacity=".151" d="M31.7 183.38 3.41 211.67l75.66 75.66 28.29-28.29zm0 4.24 71.42 71.42-24.05 24.04-71.41-71.41z"/><path fill="#a3b1bf" fill-opacity=".404" fill-rule="evenodd" d="m27.62 237.29 29.7-29.7c.59-.58 1.54-.58 2.12 0 .59.59.59 1.54 0 2.12l-29.7 29.7c-.58.59-1.53.59-2.12 0-.58-.59-.58-1.53 0-2.12M51.62 261.29l29.7-29.7c.59-.58 1.54-.58 2.12 0 .59.59.59 1.54 0 2.12l-29.7 29.7c-.58.59-1.53.59-2.12 0-.58-.59-.58-1.53 0-2.12"/><path fill="#a3b1bf" fill-opacity=".219" fill-rule="evenodd" d="M16.14 196.32a1.49 1.49 0 0 1 2.12 0l75.66 75.66c.59.58.59 1.53 0 2.12-.58.58-1.53.58-2.12 0l-75.66-75.66c-.58-.59-.58-1.54 0-2.12"/><path fill="#a3b1bf" fill-rule="evenodd" d="M479.68 415.58v19.07l3 4.05v-23.12c0-7.83-5.32-14.51-12.73-17.02l-.2 3.13c5.83 2.3 9.93 7.67 9.93 13.89M365.68 434.58v-19c0-7.1 5.36-13.1 12.52-14.68l-.09-3.04c-8.79 1.66-15.43 8.98-15.43 17.72v22.99z"/><path fill="#a0c8ff" fill-opacity=".151" d="M476.68 415.58v15.51l3 3.8v-19.31c0-6.22-4.1-11.59-9.93-13.89l-1.15 2.76c4.74 1.84 8.08 6.14 8.08 11.13M368.68 430.29v-14.71c0-5.83 4.55-10.7 10.57-11.83l-.08-3.03c-7.63 1.22-13.49 7.44-13.49 14.86v18.27z"/><path fill="#a3b1bf" fill-rule="evenodd" d="M386.26 503.89c-.54 1.1-1.14 1.26-1.34 1.32-1.14.31-2.71-.55-3.26-.93-1.66-1.57-34.26-32.95-19.73-61.01 6.44-12.09 14.53-21.11 23.83-26.69l-1.26-2.76c-12.03 7.12-20.14 18.51-25.22 28.06-6.61 12.74-5.14 28 4.25 44.13 7.01 12.03 15.79 20.2 16.16 20.54l.13.1c.12.09.66.48 1.45.85h7.99v-48.9h-3zM486.09 441.88l-.01-.02c-4.82-9.05-12.38-19.78-23.43-26.93l-1.36 2.72c8.59 5.63 16.1 14.26 22.14 25.62 14.52 28.03-18.05 59.43-19.73 61.01-.55.39-2.12 1.24-3.25.93-.21-.06-.81-.24-1.35-1.36v-45.78c0-.83-.67-1.5-1.5-1.5-.82 0-1.5.67-1.5 1.5v49.2c0 .04.01.07.01.11v.12h7.99c.78-.37 1.33-.76 1.45-.85l.12-.1c.37-.34 9.16-8.51 16.16-20.54 9.39-16.13 10.87-31.39 4.26-44.13M421.68 496.5h1a2 2 0 0 1 2 2v9h-5v-9c0-1.1.9-2 2-2M437.68 447.5h-29c-2.76 0-5 2.24-5 5v36c0 2.76 2.24 5 5 5h29c2.77 0 5-2.24 5-5v-36c0-2.76-2.23-5-5-5m0 3a2 2 0 0 1 2 2v36a2 2 0 0 1-2 2h-29c-1.1 0-2-.9-2-2v-36c0-1.1.9-2 2-2z"/><path fill="#a0c8ff" fill-opacity=".151" d="M437.65 450.5h-28.97c-1.1 0-2 .9-2 2v36c0 1.1.9 2 2 2h29a2 2 0 0 0 2-2v-36c0-1.1-.93-2-2.03-2m-27.97 37h27v-34h-27z"/><path fill="#a3b1bf" fill-rule="evenodd" d="M419.18 459.5c-1.93 0-3.5 1.57-3.5 3.5s1.57 3.5 3.5 3.5c1.94 0 3.5-1.57 3.5-3.5s-1.56-3.5-3.5-3.5m0 3c.28 0 .5.23.5.5 0 .28-.22.5-.5.5-.27 0-.5-.22-.5-.5 0-.27.23-.5.5-.5M419.18 472.5c-1.93 0-3.5 1.57-3.5 3.5s1.57 3.5 3.5 3.5c1.94 0 3.5-1.57 3.5-3.5s-1.56-3.5-3.5-3.5m0 3c.28 0 .5.23.5.5 0 .28-.22.5-.5.5-.27 0-.5-.22-.5-.5 0-.27.23-.5.5-.5M423.67 433.87h.1c6.17-.04 12.46-3.59 18.72-10.55-1.81.02-14.42 2.05-17.82 2.04-6.88 0-6.94-2.09-20.19-2.2 6.49 7.11 12.93 10.71 19.19 10.71m23.05-10.89c-.46.57-.93 1.12-1.4 1.66-7.04 8.07-14.28 12.19-21.53 12.23h-.12c-7.57 0-15.21-4.43-22.71-13.17-.32-.36-.63-.74-.94-1.12 7.76 1.82 15.84 2.75 24.24 2.78 6.8.03 14.28-.76 22.46-2.38"/><path fill="#a0c8ff" fill-opacity=".151" d="M423.67 433.87h.1c6.17-.04 12.46-3.59 18.72-10.55-1.81.02-15.32 2.05-18.72 2.04-6.88 0-6.04-2.09-19.29-2.2 6.49 7.11 12.93 10.71 19.19 10.71M424.01 323.12c40.77 0 47.71 36.55 47.71 36.55s9.44.96 9.36 13.33c-.08 11.39-9.52 14.41-9.96 14.55l-.02.01s0 7.51-4.54 17.8c-1.37.59-2.73 1.14-4.1 1.66 5.42-10.72 5.63-18.94 5.64-19.44v-2.27l2.16-.63s2.02-.65 3.99-2.43c2.51-2.3 3.8-5.42 3.83-9.28.07-9.52-6.38-10.28-6.66-10.31l-2.23-.23-.41-2.2c-.02-.08-1.76-8.74-8.17-17.23-8.47-11.2-20.78-16.88-36.6-16.88-15.72 0-28.01 5.68-36.51 16.89-6.45 8.49-8.24 17.16-8.25 17.25l-.37 1.85-1.83.47c-.82.22-8.1 2.41-7.73 10.27.35 7.51 7.83 12.09 7.9 12.13l1.03.62.32 1.15c2.21 7.97 4.94 14.84 7.25 19.95a82 82 0 0 1-3.9-1.4c-2.07-4.85-4.34-10.89-6.24-17.74 0 0-8.92-5.36-9.35-14.56-.5-10.64 9.97-13.33 9.97-13.33s7.18-36.55 47.71-36.55"/><path fill="#a3b1bf" fill-rule="evenodd" d="M430.88 342.5h-13.4c-14.74 0-26.8 13.95-26.8 31s12.06 31 26.8 31h13.4c14.74 0 26.8-13.95 26.8-31s-12.06-31-26.8-31m0 3c13.13 0 23.8 12.56 23.8 28s-10.67 28-23.8 28h-13.4c-13.12 0-23.8-12.56-23.8-28s10.68-28 23.8-28z"/><path fill="#a0c8ff" fill-opacity=".151" d="M430.88 345.5c13.13 0 23.8 12.56 23.8 28s-10.67 28-23.8 28h-13.4c-13.12 0-23.8-12.56-23.8-28s10.68-28 23.8-28z"/><path fill="#a3b1bf" fill-rule="evenodd" d="M400.68 371c-.13 0-.26-.02-.4-.05a1.51 1.51 0 0 1-1.04-1.85c3.95-14.28 12.28-20.16 24.76-17.48.81.17 1.32.97 1.15 1.78a1.49 1.49 0 0 1-1.78 1.15c-10.79-2.32-17.74 2.7-21.24 15.35-.18.66-.79 1.1-1.45 1.1"/><path fill="#a0c8ff" fill-opacity=".151" d="M386.02 462.16v41.28c-.89 4.7-6.36-.2-16.4-14.71-4.65-7.18.82-16.03 16.4-26.57M459.27 462.16v41.28c.89 4.7 6.35-.2 16.4-14.71 4.64-7.18-.82-16.03-16.4-26.57"/><path fill="#a3b1bf" fill-rule="evenodd" d="M383.21 460c-10.3 0-18.31-5.3-23.85-15.8-.39-.73-.11-1.64.62-2.03.73-.38 1.64-.1 2.03.63 5.78 10.95 14.11 15.51 25.46 13.89a1.5 1.5 0 0 1 1.7 1.27c.11.82-.46 1.58-1.28 1.7-1.6.23-3.17.34-4.68.34"/><path fill="#a3b1bf" fill-rule="evenodd" d="M369.01 463.98c-4.82 0-9.16-.95-13-2.88a1.5 1.5 0 0 1-.67-2.01c.37-.74 1.27-1.04 2.02-.67 7.61 3.82 17.64 3.37 29.78-1.32.77-.3 1.64.09 1.94.86s-.08 1.64-.86 1.94c-7.04 2.72-13.46 4.08-19.21 4.08"/><path fill="#a3b1bf" fill-rule="evenodd" d="M361.68 475c-.71 0-1.34-.51-1.47-1.23-.15-.82.39-1.6 1.2-1.75 9.94-1.81 18.39-6.69 25.14-14.5.54-.62 1.49-.7 2.11-.16.63.54.7 1.49.16 2.12-7.2 8.35-16.24 13.56-26.87 15.5-.09.01-.18.02-.27.02M462.64 459.88c-1.49 0-3.04-.11-4.63-.34-.82-.12-1.39-.88-1.28-1.7.12-.82.88-1.38 1.7-1.27 11.24 1.59 19.48-2.91 25.21-13.77a1.5 1.5 0 0 1 2.02-.63c.74.39 1.02 1.3.63 2.03-5.5 10.42-13.44 15.68-23.65 15.68"/><path fill="#a3b1bf" fill-rule="evenodd" d="M476.56 463.8c-5.65 0-11.97-1.34-18.9-4.02-.78-.3-1.16-1.17-.86-1.94a1.5 1.5 0 0 1 1.94-.86c11.94 4.61 21.78 5.05 29.27 1.3a1.51 1.51 0 0 1 2.02.67c.37.74.07 1.64-.68 2.01-3.77 1.89-8.05 2.84-12.79 2.84"/><path fill="#a3b1bf" fill-rule="evenodd" d="M483.73 475.32c-.1 0-.19-.01-.29-.03-10.46-1.99-19.36-7.36-26.44-15.96-.53-.64-.44-1.58.2-2.11.64-.52 1.59-.43 2.12.21 6.62 8.04 14.93 13.06 24.68 14.92a1.5 1.5 0 0 1 1.2 1.75c-.14.72-.77 1.22-1.47 1.22"/><path fill="#a0c8ff" fill-opacity=".151" d="M379.93 404.5s45.23 19.96 88.67-.05l-8.27 14.74s-33.76 14.26-74.25-.56z"/><path fill="#a3b1bf" fill-rule="evenodd" d="M471.1 387.55s0 6.16-3.36 14.94c-38 18.88-79.87 3.19-86.85.32-1.78-4.37-3.62-9.53-5.21-15.26 0 0-8.92-5.35-9.35-14.56-.5-10.63 9.97-13.32 9.97-13.32s7.18-36.55 47.71-36.55c40.77 0 47.71 36.55 47.71 36.55s9.44.96 9.36 13.32c-.08 11.67-9.98 14.56-9.98 14.56m-11.85 30.36s-13.58 6.06-34.65 6.06c-10.53 0-22.93-1.51-36.45-6.06 0 0-2.53-4.2-5.64-11.25 7.3 2.7 24.14 7.98 44.13 7.98 12.41 0 26.03-2.05 39.33-8-1.65 3.53-3.83 7.34-6.72 11.27m14.95-60.75c-.91-3.34-3.32-10.43-8.64-17.56-6.65-8.89-19.25-19.48-41.55-19.48-22.18 0-34.78 10.59-41.45 19.48-5.47 7.27-7.89 14.52-8.78 17.76-4.55 1.82-10.88 6.69-10.45 15.78.41 8.75 7.12 14.39 9.76 16.29 5.03 17.57 12.19 29.52 12.49 30.03l.57.95 1.05.35c12.26 4.12 24.84 6.21 37.4 6.21 21.46 0 35.29-6.06 35.87-6.32l.73-.32.47-.64c9.76-13.27 11.86-25.33 12.31-30.05 4.27-2.07 10.03-7.24 10.1-16.62.07-10.1-5.59-14.49-9.88-15.86"/></svg>