<svg xmlns="http://www.w3.org/2000/svg" width="891" height="821" fill="none" viewBox="0 0 891 821"><path fill="#a3b1bf" fill-rule="evenodd" d="m440.558 254.063-.044-.001a158 158 0 0 0-4.415-.062c-.528.008-1.02.001-1.524.006h-.016a1.5 1.5 0 0 1-.016-3 157.867 157.867 0 0 1 6.057.058 1.5 1.5 0 0 1-.042 2.999m-17.982.498a1.5 1.5 0 0 1-1.494-1.374 1.5 1.5 0 0 1 1.37-1.621c1.993-.167 4.026-.3 6.041-.393a1.5 1.5 0 1 1 .138 2.996c-1.977.092-3.971.222-5.927.387a2 2 0 0 1-.128.005m29.951.292a2 2 0 0 1-.157-.008 159 159 0 0 0-5.92-.503 1.5 1.5 0 0 1-1.398-1.596 1.51 1.51 0 0 1 1.597-1.398c2.02.135 4.05.307 6.031.513a1.5 1.5 0 0 1-.153 2.992m-41.855 1.165a1.5 1.5 0 0 1-.237-2.98c1.977-.32 3.995-.605 5.996-.85a1.51 1.51 0 0 1 1.671 1.308 1.5 1.5 0 0 1-1.308 1.671c-1.963.239-3.941.519-5.881.832a1.5 1.5 0 0 1-.241.019m53.729.526q-.133 0-.27-.024a156 156 0 0 0-5.865-.948 1.5 1.5 0 0 1 .424-2.971c1.995.285 4.006.61 5.976.968a1.497 1.497 0 0 1 1.208 1.743 1.5 1.5 0 0 1-1.473 1.232m-65.487 1.832a1.5 1.5 0 0 1-.349-2.958c1.95-.469 3.939-.908 5.912-1.303a1.505 1.505 0 0 1 1.766 1.176 1.5 1.5 0 0 1-1.176 1.765c-1.936.389-3.888.819-5.801 1.278a1.5 1.5 0 0 1-.352.042m77.197.758q-.189.001-.381-.049c-1.918-.501-3.86-.97-5.775-1.393a1.5 1.5 0 0 1-1.14-1.789 1.506 1.506 0 0 1 1.789-1.141c1.95.432 3.931.909 5.886 1.421a1.5 1.5 0 0 1-.379 2.951m-88.742 2.492a1.499 1.499 0 0 1-.462-2.926 157 157 0 0 1 5.797-1.753 1.5 1.5 0 1 1 .812 2.888 160 160 0 0 0-5.686 1.718q-.231.074-.461.073m100.218.988q-.244 0-.49-.082a153 153 0 0 0-5.65-1.831 1.5 1.5 0 1 1 .869-2.871c1.93.585 3.868 1.212 5.762 1.866a1.5 1.5 0 0 1-.491 2.918m-111.51 3.145a1.499 1.499 0 0 1-.571-2.887 160 160 0 0 1 5.659-2.196 1.5 1.5 0 0 1 1.032 2.817 155 155 0 0 0-5.552 2.154 1.5 1.5 0 0 1-.568.112m122.673 1.192c-.199 0-.401-.039-.595-.124a156 156 0 0 0-5.48-2.25 1.5 1.5 0 1 1 1.088-2.797 159 159 0 0 1 5.584 2.295 1.5 1.5 0 0 1-.597 2.876m-133.611 3.793a1.499 1.499 0 0 1-.675-2.84c1.79-.901 3.631-1.782 5.472-2.622a1.5 1.5 0 1 1 1.244 2.73 156 156 0 0 0-5.368 2.572c-.216.109-.446.16-.673.16m144.403 1.379c-.236 0-.475-.056-.698-.173a154 154 0 0 0-5.296-2.663 1.5 1.5 0 1 1 1.295-2.705c1.802.862 3.618 1.775 5.4 2.713a1.502 1.502 0 0 1-.701 2.828m-154.922 4.42a1.5 1.5 0 0 1-1.287-.725 1.503 1.503 0 0 1 .511-2.06 162 162 0 0 1 5.253-3.028 1.5 1.5 0 0 1 1.449 2.627 154 154 0 0 0-5.153 2.972c-.242.145-.51.214-.773.214m165.295 1.559c-.272 0-.548-.074-.796-.229a161 161 0 0 0-5.083-3.061 1.5 1.5 0 1 1 1.5-2.598 164 164 0 0 1 5.178 3.118 1.5 1.5 0 0 1-.799 2.77m-175.341 5.022a1.5 1.5 0 0 1-.87-2.723 162 162 0 0 1 5.005-3.417 1.501 1.501 0 0 1 1.645 2.51 155 155 0 0 0-4.912 3.352 1.5 1.5 0 0 1-.868.278m185.239 1.729c-.31 0-.622-.096-.891-.294a157 157 0 0 0-4.839-3.436 1.502 1.502 0 0 1 1.692-2.479 163 163 0 0 1 4.93 3.503 1.5 1.5 0 0 1-.892 2.706m-194.751 5.588a1.498 1.498 0 0 1-.959-2.654 167 167 0 0 1 4.729-3.783 1.5 1.5 0 0 1 2.104.274 1.5 1.5 0 0 1-.274 2.103c-1.557 1.2-3.12 2.449-4.643 3.714a1.5 1.5 0 0 1-.957.346m204.113 1.895a1.5 1.5 0 0 1-.979-.364 156 156 0 0 0-4.568-3.794 1.5 1.5 0 0 1 1.873-2.344 162 162 0 0 1 4.656 3.867 1.5 1.5 0 0 1-.982 2.635m-213.045 6.119a1.5 1.5 0 0 1-1.043-2.579 163 163 0 0 1 4.43-4.127 1.5 1.5 0 1 1 2.004 2.232 159 159 0 0 0-4.348 4.052 1.5 1.5 0 0 1-1.043.422m221.824 2.052c-.385 0-.77-.147-1.063-.441a159 159 0 0 0-4.271-4.13 1.5 1.5 0 1 1 2.044-2.195 162 162 0 0 1 4.352 4.208 1.5 1.5 0 0 1-1.062 2.558m-230.121 6.606a1.498 1.498 0 0 1-1.12-2.496 162 162 0 0 1 4.105-4.45 1.5 1.5 0 0 1 2.166 2.077 159 159 0 0 0-4.029 4.365 1.5 1.5 0 0 1-1.122.504m-7.617 9.257a1.5 1.5 0 0 1-1.192-2.409 159 159 0 0 1 3.756-4.744 1.5 1.5 0 0 1 2.316 1.907 155 155 0 0 0-3.685 4.654 1.5 1.5 0 0 1-1.195.592m-6.892 9.799a1.5 1.5 0 0 1-1.258-2.315 157 157 0 0 1 3.385-5.013 1.5 1.5 0 0 1 2.453 1.727 155 155 0 0 0-3.321 4.917 1.5 1.5 0 0 1-1.259.684m-6.13 10.289a1.5 1.5 0 0 1-1.317-2.218 159 159 0 0 1 2.994-5.251 1.502 1.502 0 0 1 2.579 1.535 156 156 0 0 0-2.938 5.151 1.5 1.5 0 0 1-1.318.783m-5.325 10.716a1.5 1.5 0 0 1-1.367-2.116c.825-1.83 1.694-3.667 2.585-5.46a1.5 1.5 0 0 1 2.686 1.336 157 157 0 0 0-2.536 5.357c-.25.555-.796.883-1.368.883m-4.499 11.102q-.255.001-.51-.089a1.5 1.5 0 0 1-.902-1.921 160 160 0 0 1 2.168-5.655 1.499 1.499 0 1 1 2.78 1.127 152 152 0 0 0-2.125 5.548c-.221.61-.797.99-1.411.99m-3.642 11.426a1.498 1.498 0 0 1-1.446-1.9 155 155 0 0 1 1.728-5.804 1.5 1.5 0 0 1 2.858.912 152 152 0 0 0-1.696 5.691 1.5 1.5 0 0 1-1.444 1.101m-2.759 11.672a1.498 1.498 0 0 1-1.473-1.79c.385-1.969.816-3.96 1.279-5.917a1.5 1.5 0 1 1 2.92.691 154 154 0 0 0-1.256 5.805 1.5 1.5 0 0 1-1.47 1.211m-1.862 11.848q-.088 0-.177-.011a1.497 1.497 0 0 1-1.314-1.664c.232-1.977.509-3.996.825-6a1.496 1.496 0 0 1 1.715-1.248 1.5 1.5 0 0 1 1.248 1.715 156 156 0 0 0-.81 5.883 1.5 1.5 0 0 1-1.487 1.325m-.96 11.955-.064-.001a1.5 1.5 0 0 1-1.436-1.561c.084-1.991.208-4.025.37-6.044.065-.827.799-1.43 1.615-1.375a1.5 1.5 0 0 1 1.375 1.615 155 155 0 0 0-.362 5.929 1.5 1.5 0 0 1-1.498 1.437m-.065 11.992a1.5 1.5 0 0 1-1.498-1.451c-.055-1.715-.084-3.47-.084-5.218l.002-.833a1.5 1.5 0 0 1 1.5-1.496h.005a1.5 1.5 0 0 1 1.495 1.505l-.002.824c0 1.715.028 3.438.082 5.121a1.497 1.497 0 0 1-1.45 1.547zm315.706 3.103-.078-.002a1.5 1.5 0 0 1-1.421-1.575c.102-1.961.167-3.959.195-5.94a1.5 1.5 0 0 1 1.5-1.478h.021a1.5 1.5 0 0 1 1.479 1.521 166 166 0 0 1-.198 6.051 1.5 1.5 0 0 1-1.498 1.423m-314.871 8.86a1.5 1.5 0 0 1-1.489-1.339c-.215-1.99-.395-4.018-.535-6.03a1.5 1.5 0 0 1 1.392-1.6c.824-.075 1.544.564 1.6 1.391.138 1.974.315 3.965.526 5.917a1.5 1.5 0 0 1-1.494 1.661m305.214 37.954q-.262.001-.523-.094a1.5 1.5 0 0 1-.882-1.929 155 155 0 0 0 1.964-5.605 1.5 1.5 0 1 1 2.849.937 156 156 0 0 1-2.002 5.715 1.5 1.5 0 0 1-1.406.976m-4.594 11.043a1.502 1.502 0 0 1-1.362-2.128 158 158 0 0 0 2.38-5.426 1.5 1.5 0 1 1 2.77 1.152 160 160 0 0 1-2.425 5.53 1.5 1.5 0 0 1-1.363.872m-283.072 8.056a1.5 1.5 0 0 1-1.325-.795 159 159 0 0 1-2.749-5.406 1.5 1.5 0 0 1 2.699-1.309 156 156 0 0 0 2.698 5.305 1.5 1.5 0 0 1-1.323 2.205m277.647 2.613a1.501 1.501 0 0 1-1.31-2.23 155 155 0 0 0 2.788-5.233 1.5 1.5 0 1 1 2.674 1.36c-.91 1.79-1.866 3.584-2.841 5.334a1.5 1.5 0 0 1-1.311.769m-271.6 7.767c-.496 0-.981-.246-1.267-.696a159 159 0 0 1-3.151-5.18 1.5 1.5 0 1 1 2.592-1.51 158 158 0 0 0 3.092 5.082 1.502 1.502 0 0 1-1.266 2.304m265.378 2.466a1.499 1.499 0 0 1-1.25-2.327 157 157 0 0 0 3.177-5.011 1.5 1.5 0 0 1 2.564 1.558 161 161 0 0 1-3.239 5.107 1.5 1.5 0 0 1-1.252.673m-6.982 9.737a1.501 1.501 0 0 1-1.185-2.42 158 158 0 0 0 3.55-4.757 1.5 1.5 0 0 1 2.093-.344c.673.482.828 1.42.344 2.092a161 161 0 0 1-3.616 4.849c-.296.381-.739.58-1.186.58m-7.701 9.188a1.5 1.5 0 0 1-1.112-2.507 160 160 0 0 0 3.901-4.478 1.5 1.5 0 1 1 2.298 1.928 160 160 0 0 1-3.974 4.563 1.5 1.5 0 0 1-1.113.494m-8.374 8.585a1.5 1.5 0 0 1-1.033-2.587 161 161 0 0 0 4.229-4.175 1.5 1.5 0 1 1 2.146 2.096 163 163 0 0 1-4.308 4.252c-.29.277-.663.414-1.034.414m-9.002 7.931a1.5 1.5 0 0 1-.95-2.662 157 157 0 0 0 4.534-3.846 1.501 1.501 0 0 1 1.983 2.252 164 164 0 0 1-4.618 3.918c-.28.228-.616.338-.949.338m-192.465 5.537c-.306 0-.614-.092-.879-.285a161 161 0 0 1-4.831-3.642 1.501 1.501 0 0 1 1.851-2.362 157 157 0 0 0 4.739 3.574 1.5 1.5 0 0 1-.88 2.715m182.886 1.696a1.499 1.499 0 0 1-.859-2.731 160 160 0 0 0 4.813-3.492 1.5 1.5 0 1 1 1.807 2.394 163 163 0 0 1-4.903 3.559c-.262.183-.561.27-.858.27m-172.929 4.962c-.269 0-.54-.071-.786-.222a160 160 0 0 1-5.088-3.265 1.5 1.5 0 0 1 1.668-2.494 153 153 0 0 0 4.993 3.204 1.5 1.5 0 0 1-.787 2.777m162.824 1.526a1.499 1.499 0 0 1-.763-2.792 159 159 0 0 0 5.065-3.118 1.499 1.499 0 1 1 1.621 2.523 159 159 0 0 1-5.162 3.179c-.24.141-.501.208-.761.208m-152.396 4.358c-.231 0-.465-.053-.685-.167a158 158 0 0 1-5.321-2.868 1.5 1.5 0 0 1 1.475-2.613 156 156 0 0 0 5.219 2.815 1.5 1.5 0 0 1 .646 2.02c-.265.516-.79.813-1.334.813m141.825 1.345a1.5 1.5 0 0 1-.663-2.847 155 155 0 0 0 5.291-2.724 1.5 1.5 0 1 1 1.424 2.64 161 161 0 0 1-5.392 2.778 1.5 1.5 0 0 1-.66.153m-130.987 3.725c-.194 0-.391-.038-.582-.119a157 157 0 0 1-5.518-2.454 1.5 1.5 0 0 1-.723-1.994 1.495 1.495 0 0 1 1.994-.722c1.782.833 3.604 1.643 5.413 2.407a1.5 1.5 0 0 1-.584 2.882m120.001 1.159a1.5 1.5 0 0 1-.556-2.893 158 158 0 0 0 5.486-2.315 1.5 1.5 0 0 1 1.219 2.742 162 162 0 0 1-5.592 2.358 1.5 1.5 0 0 1-.557.108m-108.796 3.075q-.237.001-.476-.077a162 162 0 0 1-5.704-2.032 1.5 1.5 0 0 1 1.06-2.807c1.838.695 3.721 1.366 5.597 1.993a1.502 1.502 0 0 1-.477 2.923m97.464.956a1.5 1.5 0 0 1-.448-2.932 157 157 0 0 0 5.652-1.887 1.494 1.494 0 0 1 1.915.911c.278.78-.13 1.638-.911 1.915a159 159 0 0 1-5.76 1.925 1.5 1.5 0 0 1-.448.068m-85.954 2.414q-.182 0-.367-.045a159 159 0 0 1-5.843-1.591 1.5 1.5 0 0 1-1.017-1.861 1.505 1.505 0 0 1 1.861-1.018c1.891.554 3.819 1.079 5.731 1.56a1.5 1.5 0 0 1-.365 2.955m74.378.729a1.501 1.501 0 0 1-.337-2.962c1.914-.442 3.853-.929 5.762-1.447a1.5 1.5 0 0 1 .785 2.897 167 167 0 0 1-5.871 1.474 1.6 1.6 0 0 1-.339.038m-62.642 1.754a1.5 1.5 0 0 1-.255-.022c-1.963-.337-3.964-.72-5.948-1.139a1.5 1.5 0 0 1-1.157-1.778 1.505 1.505 0 0 1 1.778-1.157c1.946.411 3.909.787 5.834 1.117a1.5 1.5 0 0 1-.252 2.979m50.86.496c-.73 0-1.368-.533-1.482-1.276a1.5 1.5 0 0 1 1.259-1.708c1.939-.294 3.909-.631 5.857-1.002a1.5 1.5 0 1 1 .56 2.948c-1.983.377-3.991.721-5.968 1.021a2 2 0 0 1-.226.017m-38.972 1.087q-.072 0-.142-.007a160 160 0 0 1-6.016-.684 1.5 1.5 0 0 1-1.29-1.684 1.51 1.51 0 0 1 1.684-1.291c1.965.262 3.951.488 5.903.672a1.5 1.5 0 0 1-.139 2.994m27.056.26a1.5 1.5 0 0 1-.111-2.996 161 161 0 0 0 5.915-.555 1.5 1.5 0 1 1 .336 2.98c-1.997.226-4.024.417-6.026.567a2 2 0 0 1-.114.004m-15.082.418h-.03a161 161 0 0 1-6.05-.229 1.5 1.5 0 0 1-1.413-1.583c.047-.827.767-1.472 1.583-1.412 1.968.111 3.966.187 5.937.224a1.5 1.5 0 0 1-.027 3M436 570a1.5 1.5 0 0 1 0-3c1.981 0 3.979-.038 5.941-.111.793-.05 1.523.615 1.555 1.444a1.5 1.5 0 0 1-1.444 1.554c-1.998.074-4.034.113-6.052.113M432.763 140.018a1.5 1.5 0 0 1-.018-3c2.006-.023 4.024-.024 6.032-.005a1.5 1.5 0 0 1-.015 3h-.015a283 283 0 0 0-5.966.005zm17.984.374-.081-.002q-2.971-.159-5.961-.254a1.5 1.5 0 0 1-1.451-1.547c.026-.829.727-1.49 1.547-1.451q3.022.096 6.025.256a1.5 1.5 0 0 1-.079 2.998m-29.975.026a1.5 1.5 0 0 1-.082-2.998c2.008-.111 4.035-.201 6.026-.266l.051-.001a1.5 1.5 0 0 1 .049 2.999q-2.988.099-5.96.264zm41.94.876q-.073 0-.147-.006a271 271 0 0 0-5.945-.514 1.5 1.5 0 0 1-1.382-1.61c.061-.826.801-1.439 1.609-1.382q3.014.228 6.009.519a1.5 1.5 0 0 1-.144 2.993m-53.903.047a1.5 1.5 0 0 1-.146-2.993q2.994-.296 6.008-.528c.813-.073 1.547.553 1.611 1.38a1.5 1.5 0 0 1-1.38 1.61q-2.982.231-5.944.524a2 2 0 0 1-.149.007m65.814 1.379q-.105 0-.213-.014c-1.958-.28-3.947-.541-5.916-.776a1.5 1.5 0 1 1 .358-2.978c1.989.238 4.002.502 5.98.783a1.501 1.501 0 0 1-.209 2.985m-77.722.069a1.5 1.5 0 0 1-.212-2.985 269 269 0 0 1 5.98-.794 1.5 1.5 0 0 1 .362 2.979c-1.983.24-3.973.504-5.914.784a1.5 1.5 0 0 1-.216.016m89.559 1.881a1.5 1.5 0 0 1-.278-.025 276 276 0 0 0-5.876-1.036 1.5 1.5 0 0 1-1.235-1.724 1.495 1.495 0 0 1 1.723-1.235q2.982.49 5.941 1.046c.814.153 1.35.937 1.198 1.751a1.5 1.5 0 0 1-1.473 1.223m-101.392.089a1.5 1.5 0 0 1-.277-2.973 277 277 0 0 1 5.939-1.057 1.501 1.501 0 0 1 .492 2.959q-2.947.491-5.874 1.045a1.6 1.6 0 0 1-.28.026m113.131 2.385a1.6 1.6 0 0 1-.343-.039 268 268 0 0 0-5.824-1.295 1.5 1.5 0 1 1 .619-2.936c1.975.416 3.957.857 5.888 1.309a1.5 1.5 0 0 1 1.12 1.803 1.5 1.5 0 0 1-1.46 1.158m-124.865.109a1.5 1.5 0 0 1-.343-2.96 267 267 0 0 1 5.886-1.319c.8-.175 1.607.345 1.78 1.155a1.5 1.5 0 0 1-1.157 1.78c-1.938.411-3.896.85-5.82 1.304q-.174.041-.346.04m136.482 2.881a1.5 1.5 0 0 1-.407-.055 261 261 0 0 0-5.76-1.552 1.502 1.502 0 0 1 .748-2.906c1.928.496 3.887 1.024 5.824 1.569a1.5 1.5 0 0 1-.405 2.944m-148.096.132a1.501 1.501 0 0 1-.408-2.943 270 270 0 0 1 5.822-1.58 1.501 1.501 0 0 1 .754 2.904c-1.929.5-3.865 1.025-5.758 1.562a1.5 1.5 0 0 1-.41.057m159.568 3.373c-.155 0-.314-.024-.469-.075a270 270 0 0 0-5.686-1.807 1.5 1.5 0 0 1 .877-2.869c1.925.588 3.858 1.203 5.748 1.826a1.5 1.5 0 0 1-.47 2.925m-171.056.159a1.501 1.501 0 0 1-.473-2.924 282 282 0 0 1 5.768-1.843 1.5 1.5 0 0 1 .882 2.867 269 269 0 0 0-5.705 1.824 1.5 1.5 0 0 1-.472.076m182.363 3.853a1.5 1.5 0 0 1-.533-.098 275 275 0 0 0-5.6-2.058 1.5 1.5 0 0 1 1.004-2.827c1.901.675 3.807 1.375 5.662 2.08a1.501 1.501 0 0 1-.533 2.903m-193.701.195a1.499 1.499 0 0 1-.536-2.9 268 268 0 0 1 5.677-2.1 1.5 1.5 0 0 1 1.008 2.826c-1.884.672-3.772 1.37-5.613 2.075a1.5 1.5 0 0 1-.536.099m204.797 4.305c-.199 0-.401-.039-.594-.123a262 262 0 0 0-5.482-2.294 1.5 1.5 0 0 1-.828-1.954 1.503 1.503 0 0 1 1.955-.827c1.837.745 3.704 1.526 5.544 2.321a1.5 1.5 0 0 1-.595 2.877m-215.935.24a1.5 1.5 0 0 1-.598-2.876 278 278 0 0 1 5.574-2.348 1.501 1.501 0 0 1 1.135 2.778 268 268 0 0 0-5.514 2.322 1.5 1.5 0 0 1-.597.124m226.807 4.74c-.22 0-.443-.048-.654-.15a275 275 0 0 0-5.379-2.537 1.5 1.5 0 1 1 1.25-2.727q2.736 1.253 5.438 2.565a1.498 1.498 0 0 1-.655 2.849m-237.732.295a1.498 1.498 0 0 1-.659-2.847 270 270 0 0 1 5.464-2.593 1.5 1.5 0 1 1 1.256 2.724c-1.792.827-3.61 1.689-5.403 2.564a1.5 1.5 0 0 1-.658.152m248.378 5.162c-.241 0-.485-.057-.713-.18a266 266 0 0 0-5.264-2.774 1.5 1.5 0 1 1 1.369-2.67q2.679 1.375 5.323 2.805a1.5 1.5 0 0 1-.715 2.819m-259.061.351a1.5 1.5 0 0 1-.719-2.817 269 269 0 0 1 5.342-2.832 1.5 1.5 0 0 1 1.375 2.666 271 271 0 0 0-5.281 2.8 1.5 1.5 0 0 1-.717.183m269.461 5.574c-.263 0-.529-.068-.771-.214a277 277 0 0 0-5.138-3.003 1.5 1.5 0 1 1 1.484-2.607q2.616 1.491 5.197 3.038a1.5 1.5 0 0 1-.772 2.786m-279.887.402a1.5 1.5 0 0 1-.775-2.785 282 282 0 0 1 5.208-3.061 1.497 1.497 0 0 1 2.046.554 1.5 1.5 0 0 1-.554 2.047 279 279 0 0 0-5.152 3.031 1.5 1.5 0 0 1-.773.214m290.02 5.978a1.5 1.5 0 0 1-.825-.248 275 275 0 0 0-5.006-3.229 1.5 1.5 0 1 1 1.6-2.539 291 291 0 0 1 5.059 3.264 1.5 1.5 0 0 1-.828 2.752m-300.167.454a1.5 1.5 0 0 1-.833-2.749 277 277 0 0 1 5.067-3.29 1.5 1.5 0 0 1 2.069.465 1.5 1.5 0 0 1-.464 2.07 268 268 0 0 0-5.009 3.253c-.256.17-.544.251-.83.251m310.014 6.366c-.305 0-.614-.092-.881-.286a264 264 0 0 0-4.859-3.446 1.5 1.5 0 0 1 1.709-2.467 279 279 0 0 1 4.913 3.485 1.5 1.5 0 0 1-.882 2.714m-319.866.502a1.499 1.499 0 0 1-.886-2.712 284 284 0 0 1 4.914-3.506 1.5 1.5 0 1 1 1.717 2.46 274 274 0 0 0-4.861 3.47 1.5 1.5 0 0 1-.884.288m329.408 6.748a1.5 1.5 0 0 1-.932-.326 273 273 0 0 0-4.706-3.657 1.5 1.5 0 1 1 1.815-2.389q2.4 1.824 4.758 3.698a1.5 1.5 0 0 1-.935 2.674m-338.945.546a1.5 1.5 0 0 1-.939-2.671 279 279 0 0 1 4.755-3.719 1.5 1.5 0 0 1 1.823 2.382 270 270 0 0 0-4.703 3.679 1.5 1.5 0 0 1-.936.329m348.162 7.117c-.349 0-.699-.121-.983-.368a279 279 0 0 0-4.542-3.861 1.5 1.5 0 0 1 1.918-2.307 271 271 0 0 1 4.592 3.905 1.5 1.5 0 0 1-.985 2.631m-357.366.586a1.5 1.5 0 0 1-.989-2.629 280 280 0 0 1 4.584-3.923 1.5 1.5 0 1 1 1.926 2.3 279 279 0 0 0-4.535 3.881 1.5 1.5 0 0 1-.986.371m366.243 7.477a1.5 1.5 0 0 1-1.033-.412 270 270 0 0 0-4.369-4.058 1.498 1.498 0 1 1 2.015-2.221 268 268 0 0 1 4.42 4.103 1.5 1.5 0 0 1-1.033 2.588m-375.099.619a1.501 1.501 0 0 1-1.036-2.585 276 276 0 0 1 4.406-4.118 1.5 1.5 0 1 1 2.026 2.213 275 275 0 0 0-4.36 4.075c-.29.277-.663.415-1.036.415m383.616 7.827c-.393 0-.786-.153-1.08-.458a284 284 0 0 0-4.189-4.248 1.5 1.5 0 1 1 2.113-2.129 281 281 0 0 1 4.235 4.293 1.501 1.501 0 0 1-1.079 2.542m-392.104.649a1.5 1.5 0 0 1-1.084-2.537 266 266 0 0 1 4.222-4.309 1.5 1.5 0 1 1 2.119 2.123 264 264 0 0 0-4.174 4.26 1.5 1.5 0 0 1-1.083.463m400.245 8.166c-.416 0-.829-.171-1.125-.507a264 264 0 0 0-4-4.427 1.5 1.5 0 0 1 2.203-2.037 273 273 0 0 1 4.045 4.477 1.5 1.5 0 0 1-1.123 2.494m-408.354.669a1.498 1.498 0 0 1-1.126-2.491 285 285 0 0 1 4.026-4.485 1.5 1.5 0 1 1 2.211 2.027 275 275 0 0 0-3.983 4.439 1.5 1.5 0 0 1-1.128.51m416.103 8.496c-.437 0-.871-.191-1.167-.557a269 269 0 0 0-3.805-4.601 1.5 1.5 0 1 1 2.291-1.937 270 270 0 0 1 3.846 4.651 1.5 1.5 0 0 1-1.165 2.444m-423.814.682a1.499 1.499 0 0 1-1.169-2.438 263 263 0 0 1 3.826-4.658 1.499 1.499 0 1 1 2.297 1.929 268 268 0 0 0-3.783 4.606 1.5 1.5 0 0 1-1.171.561m431.156 8.818c-.46 0-.914-.211-1.208-.61a272 272 0 0 0-3.598-4.763 1.5 1.5 0 1 1 2.373-1.834 266 266 0 0 1 3.639 4.816 1.5 1.5 0 0 1-1.206 2.391m6.917 9.816c-.482 0-.956-.232-1.246-.663a264 264 0 0 0-3.387-4.919 1.501 1.501 0 0 1 2.451-1.73 273 273 0 0 1 3.426 4.975 1.5 1.5 0 0 1-1.244 2.337m6.481 10.115a1.5 1.5 0 0 1-1.281-.718 264 264 0 0 0-3.167-5.066 1.5 1.5 0 1 1 2.526-1.619 275 275 0 0 1 3.202 5.122 1.5 1.5 0 0 1-1.28 2.281m6.031 10.395c-.529 0-1.042-.28-1.315-.777a274 274 0 0 0-2.941-5.202 1.5 1.5 0 0 1 .544-2.049 1.5 1.5 0 0 1 2.05.543 280 280 0 0 1 2.975 5.261 1.5 1.5 0 0 1-1.313 2.224m5.566 10.656a1.5 1.5 0 0 1-1.346-.835 275 275 0 0 0-2.709-5.33 1.5 1.5 0 0 1 2.659-1.389 279 279 0 0 1 2.74 5.389 1.5 1.5 0 0 1-1.344 2.165m-488.238.61a1.5 1.5 0 0 1-1.346-2.161q1.328-2.7 2.713-5.37a1.5 1.5 0 0 1 2.662 1.383 272 272 0 0 0-2.682 5.31c-.26.531-.794.838-1.347.838m493.328 10.287a1.5 1.5 0 0 1-1.374-.896 263 263 0 0 0-2.471-5.446 1.5 1.5 0 0 1 2.717-1.272c.842 1.8 1.683 3.654 2.5 5.509a1.5 1.5 0 0 1-1.372 2.105m-498.364.561a1.5 1.5 0 0 1-1.373-2.101 270 270 0 0 1 2.471-5.482 1.5 1.5 0 0 1 2.721 1.264 272 272 0 0 0-2.444 5.421 1.5 1.5 0 0 1-1.375.898M689.66 313.61a1.5 1.5 0 0 1-1.398-.957 266 266 0 0 0-2.228-5.554 1.5 1.5 0 1 1 2.772-1.148 280 280 0 0 1 2.253 5.616 1.5 1.5 0 0 1-1.399 2.043m-507.52.518q-.272.001-.54-.1a1.5 1.5 0 0 1-.859-1.94 272 272 0 0 1 2.232-5.602 1.5 1.5 0 1 1 2.775 1.14 274 274 0 0 0-2.209 5.542c-.229.596-.797.96-1.399.96m-4.068 11.287q-.24.002-.477-.078a1.497 1.497 0 0 1-.945-1.898 259 259 0 0 1 1.982-5.698 1.5 1.5 0 1 1 2.822 1.017c-.67 1.86-1.33 3.755-1.961 5.634a1.5 1.5 0 0 1-1.421 1.023m-9.144 34.786q-.142 0-.286-.028a1.5 1.5 0 0 1-1.189-1.757 280 280 0 0 1 1.208-5.91 1.5 1.5 0 1 1 2.932.633 280 280 0 0 0-1.194 5.846 1.5 1.5 0 0 1-1.471 1.216m537.589 23.24a1.5 1.5 0 0 1-1.49-1.345 263 263 0 0 0-.685-5.926 1.5 1.5 0 0 1 1.3-1.676 1.51 1.51 0 0 1 1.677 1.299c.251 1.982.484 3.997.692 5.993a1.5 1.5 0 0 1-1.494 1.655m.984 11.956a1.5 1.5 0 0 1-1.496-1.41c-.12-1.993-.263-3.995-.424-5.95a1.5 1.5 0 0 1 1.372-1.619c.819-.053 1.55.545 1.619 1.372.163 1.978.306 4.002.427 6.017a1.5 1.5 0 0 1-1.498 1.59m-537.842 72.074a1.5 1.5 0 0 1-1.466-1.195 277 277 0 0 1-1.159-5.919 1.5 1.5 0 1 1 2.951-.545q.54 2.939 1.145 5.854a1.5 1.5 0 0 1-1.471 1.805m2.696 11.691c-.67 0-1.28-.452-1.453-1.13a275 275 0 0 1-1.421-5.864 1.5 1.5 0 1 1 2.924-.673c.448 1.944.921 3.895 1.405 5.796a1.5 1.5 0 0 1-1.455 1.871m3.211 11.559a1.5 1.5 0 0 1-1.435-1.066 277 277 0 0 1-1.68-5.794 1.501 1.501 0 0 1 2.891-.803 277 277 0 0 0 1.66 5.73 1.5 1.5 0 0 1-1.436 1.933m3.736 11.447a1.5 1.5 0 0 1-1.415-1.003 260 260 0 0 1-1.942-5.734 1.499 1.499 0 1 1 2.851-.93 264 264 0 0 0 1.921 5.67 1.5 1.5 0 0 1-1.415 1.997m509.367 10.736a1.497 1.497 0 0 1-1.392-2.057q1.105-2.768 2.153-5.565a1.495 1.495 0 0 1 1.931-.878 1.5 1.5 0 0 1 .878 1.93 275 275 0 0 1-2.177 5.626 1.5 1.5 0 0 1-1.393.944m-505.125.529a1.5 1.5 0 0 1-1.391-.94 279 279 0 0 1-2.196-5.639 1.5 1.5 0 0 1 2.807-1.059 270 270 0 0 0 2.172 5.578 1.5 1.5 0 0 1-1.392 2.06m500.443 10.471a1.503 1.503 0 0 1-1.367-2.118q1.225-2.707 2.39-5.445a1.499 1.499 0 1 1 2.76 1.174 273 273 0 0 1-2.415 5.507 1.5 1.5 0 0 1-1.368.882m-495.705.589a1.5 1.5 0 0 1-1.367-.879 272 272 0 0 1-2.443-5.534 1.5 1.5 0 0 1 2.758-1.181 266 266 0 0 0 2.416 5.473 1.5 1.5 0 0 1-1.364 2.121m490.54 10.198a1.502 1.502 0 0 1-1.337-2.178 281 281 0 0 0 2.628-5.336 1.5 1.5 0 0 1 2.705 1.297 290 290 0 0 1-2.657 5.395 1.5 1.5 0 0 1-1.339.822m-485.32.635a1.5 1.5 0 0 1-1.338-.82 278 278 0 0 1-2.685-5.417 1.501 1.501 0 0 1 2.703-1.302 275 275 0 0 0 2.656 5.358 1.5 1.5 0 0 1-1.336 2.181m479.68 9.919a1.5 1.5 0 0 1-1.307-2.236 277 277 0 0 0 2.864-5.219 1.499 1.499 0 1 1 2.644 1.416 283 283 0 0 1-2.892 5.274 1.5 1.5 0 0 1-1.309.765m-473.987.668a1.5 1.5 0 0 1-1.306-.761 270 270 0 0 1-2.922-5.291 1.5 1.5 0 1 1 2.643-1.42 269 269 0 0 0 2.888 5.232 1.497 1.497 0 0 1-1.303 2.24m467.887 9.631a1.5 1.5 0 0 1-1.272-2.293 272 272 0 0 0 3.091-5.088 1.5 1.5 0 1 1 2.581 1.529 289 289 0 0 1-3.125 5.145 1.5 1.5 0 0 1-1.275.707m-461.732.688a1.5 1.5 0 0 1-1.272-.703 276 276 0 0 1-3.152-5.155 1.5 1.5 0 0 1 2.576-1.537 275 275 0 0 0 3.117 5.098 1.498 1.498 0 0 1-1.269 2.297m455.181 9.338a1.498 1.498 0 0 1-1.237-2.348 279 279 0 0 0 3.313-4.95 1.5 1.5 0 1 1 2.511 1.641 272 272 0 0 1-3.349 5.004c-.29.425-.761.653-1.238.653m-448.581.698c-.477 0-.946-.227-1.237-.648a292 292 0 0 1-3.373-5.008 1.499 1.499 0 1 1 2.506-1.649 277 277 0 0 0 3.338 4.953 1.5 1.5 0 0 1-1.234 2.352m441.593 9.033a1.5 1.5 0 0 1-1.198-2.401 263 263 0 0 0 3.528-4.802 1.501 1.501 0 0 1 2.438 1.75 269 269 0 0 1-3.568 4.855 1.5 1.5 0 0 1-1.2.598m-434.556.7a1.5 1.5 0 0 1-1.198-.594 284 284 0 0 1-3.59-4.854 1.5 1.5 0 0 1 .336-2.095 1.503 1.503 0 0 1 2.095.337 264 264 0 0 0 3.552 4.801 1.501 1.501 0 0 1-1.195 2.405m427.146 8.719a1.5 1.5 0 0 1-1.157-2.453 267 267 0 0 0 3.737-4.644 1.501 1.501 0 0 1 2.359 1.854 271 271 0 0 1-3.78 4.696 1.5 1.5 0 0 1-1.159.547m-419.694.691c-.432 0-.86-.185-1.156-.543a279 279 0 0 1-3.799-4.69 1.5 1.5 0 0 1 .244-2.107 1.5 1.5 0 0 1 2.107.244 279 279 0 0 0 3.758 4.639 1.5 1.5 0 0 1-1.154 2.457m411.876 8.397a1.5 1.5 0 0 1-1.115-2.503 270 270 0 0 0 3.936-4.476 1.503 1.503 0 0 1 2.116-.16c.628.541.699 1.488.159 2.117a273 273 0 0 1-3.981 4.525 1.5 1.5 0 0 1-1.115.497m-404.02.675c-.409 0-.817-.166-1.113-.494a280 280 0 0 1-3.999-4.516 1.5 1.5 0 0 1 2.268-1.965 274 274 0 0 0 3.956 4.469 1.5 1.5 0 0 1-1.112 2.506m395.808 8.064a1.5 1.5 0 0 1-1.07-2.55 280 280 0 0 0 4.131-4.302 1.5 1.5 0 0 1 2.186 2.054 272 272 0 0 1-4.177 4.349 1.5 1.5 0 0 1-1.07.449m-387.564.65c-.386 0-.773-.149-1.066-.446a266 266 0 0 1-4.193-4.337 1.499 1.499 0 1 1 2.179-2.06 268 268 0 0 0 4.147 4.288 1.5 1.5 0 0 1-1.067 2.555m378.973 7.724a1.499 1.499 0 0 1-1.023-2.596 275 275 0 0 0 4.318-4.119 1.5 1.5 0 1 1 2.094 2.149 281 281 0 0 1-4.366 4.163c-.289.27-.656.403-1.023.403m-370.356.62c-.366 0-.731-.131-1.02-.399a272 272 0 0 1-4.378-4.148 1.502 1.502 0 0 1 2.088-2.155 271 271 0 0 0 4.329 4.102 1.5 1.5 0 0 1-1.019 2.6m361.406 7.373a1.5 1.5 0 0 1-.975-2.641 265 265 0 0 0 4.493-3.925 1.5 1.5 0 1 1 2 2.236 255 255 0 0 1-4.546 3.97c-.282.241-.628.36-.972.36m-352.437.583c-.342 0-.687-.118-.969-.357q-2.298-1.95-4.553-3.95a1.499 1.499 0 1 1 1.99-2.244 270 270 0 0 0 4.504 3.907 1.5 1.5 0 0 1-.972 2.644m343.141 7.009a1.499 1.499 0 0 1-.924-2.682 274 274 0 0 0 4.664-3.726 1.5 1.5 0 0 1 1.899 2.324 275 275 0 0 1-4.717 3.767 1.5 1.5 0 0 1-.922.317m-333.835.543a1.5 1.5 0 0 1-.919-.315 289 289 0 0 1-4.72-3.745 1.501 1.501 0 0 1 1.891-2.33q2.314 1.878 4.669 3.706a1.5 1.5 0 0 1-.921 2.684m324.211 6.637a1.5 1.5 0 0 1-.871-2.722 278 278 0 0 0 4.825-3.518 1.5 1.5 0 1 1 1.793 2.404 273 273 0 0 1-4.878 3.558 1.5 1.5 0 0 1-.869.278m-314.582.498c-.3 0-.603-.089-.865-.275a275 275 0 0 1-4.88-3.535 1.5 1.5 0 0 1 1.787-2.41 261 261 0 0 0 4.825 3.495 1.499 1.499 0 0 1-.867 2.725m304.648 6.254a1.5 1.5 0 0 1-.816-2.759 270 270 0 0 0 4.977-3.304 1.5 1.5 0 0 1 1.686 2.483 277 277 0 0 1-5.032 3.339 1.5 1.5 0 0 1-.815.241m-294.722.448c-.279 0-.561-.077-.812-.239a278 278 0 0 1-5.026-3.315 1.499 1.499 0 1 1 1.678-2.486 274 274 0 0 0 4.973 3.279 1.5 1.5 0 0 1-.813 2.761m284.498 5.861a1.5 1.5 0 0 1-.761-2.794 278 278 0 0 0 5.121-3.081 1.5 1.5 0 1 1 1.574 2.552 273 273 0 0 1-5.176 3.116c-.239.14-.5.207-.758.207m-274.29.396a1.5 1.5 0 0 1-.755-.204 276 276 0 0 1-5.167-3.089 1.5 1.5 0 0 1 1.568-2.559 262 262 0 0 0 5.111 3.056c.714.417.957 1.336.54 2.052a1.5 1.5 0 0 1-1.297.744m263.793 5.457a1.502 1.502 0 0 1-.703-2.826 263 263 0 0 0 5.252-2.853 1.501 1.501 0 0 1 1.461 2.621c-1.743.972-3.53 1.943-5.31 2.884a1.5 1.5 0 0 1-.7.174m-253.326.341c-.235 0-.474-.056-.697-.172a286 286 0 0 1-5.294-2.857 1.503 1.503 0 0 1-.586-2.04 1.5 1.5 0 0 1 2.039-.585q2.603 1.44 5.238 2.826a1.501 1.501 0 0 1-.7 2.828m242.575 5.043a1.5 1.5 0 0 1-.643-2.856 262 262 0 0 0 5.376-2.619 1.505 1.505 0 0 1 2.014.67c.37.741.07 1.643-.67 2.014a273 273 0 0 1-5.437 2.646 1.5 1.5 0 0 1-.64.145m-231.864.287c-.213 0-.431-.046-.637-.143a270 270 0 0 1-5.414-2.62 1.5 1.5 0 1 1 1.337-2.685 272 272 0 0 0 5.354 2.591 1.5 1.5 0 0 1-.64 2.857m220.879 4.617a1.501 1.501 0 0 1-.582-2.883 265 265 0 0 0 5.49-2.378 1.499 1.499 0 1 1 1.223 2.739 265 265 0 0 1-5.551 2.405c-.189.08-.386.117-.58.117m-209.951.231c-.192 0-.388-.038-.576-.116a262 262 0 0 1-5.522-2.377 1.5 1.5 0 0 1 1.217-2.742c1.813.805 3.65 1.596 5.459 2.35a1.501 1.501 0 0 1-.578 2.885m198.754 4.18a1.499 1.499 0 0 1-.519-2.907 273 273 0 0 0 5.593-2.132 1.501 1.501 0 0 1 1.1 2.791 269 269 0 0 1-5.655 2.155 1.5 1.5 0 0 1-.519.093m-187.602.186q-.258 0-.515-.092a266 266 0 0 1-5.642-2.138 1.5 1.5 0 0 1-.849-1.943 1.5 1.5 0 0 1 1.943-.85q2.775 1.088 5.579 2.115a1.499 1.499 0 0 1-.516 2.908m176.214 3.724a1.5 1.5 0 0 1-1.428-1.045 1.497 1.497 0 0 1 .973-1.883 287 287 0 0 0 5.686-1.882 1.5 1.5 0 1 1 .972 2.838 270 270 0 0 1-5.748 1.901 1.5 1.5 0 0 1-.455.071m-164.86.152q-.225 0-.453-.071a272 272 0 0 1-5.731-1.884 1.5 1.5 0 0 1 .969-2.84c1.876.64 3.782 1.267 5.668 1.865a1.5 1.5 0 0 1-.453 2.93m153.351 3.236a1.5 1.5 0 0 1-.391-2.948 272 272 0 0 0 5.741-1.62 1.497 1.497 0 0 1 1.862 1.014 1.5 1.5 0 0 1-1.014 1.863c-1.901.56-3.855 1.112-5.806 1.639a1.5 1.5 0 0 1-.392.052m-141.835.129q-.194 0-.39-.051a262 262 0 0 1-5.809-1.629 1.5 1.5 0 0 1-1.018-1.86 1.504 1.504 0 0 1 1.86-1.019 267 267 0 0 0 5.744 1.61 1.5 1.5 0 0 1-.387 2.949m130.187 2.744a1.5 1.5 0 0 1-.326-2.964q2.916-.65 5.809-1.364a1.5 1.5 0 1 1 .718 2.912c-1.933.478-3.909.942-5.873 1.38a1.5 1.5 0 0 1-.328.036m-118.534.109q-.161 0-.325-.036a265 265 0 0 1-5.875-1.369 1.5 1.5 0 1 1 .713-2.914c1.936.474 3.891.93 5.81 1.354a1.5 1.5 0 0 1-.323 2.965m106.769 2.244a1.5 1.5 0 0 1-.259-2.977q2.943-.522 5.862-1.105a1.5 1.5 0 1 1 .588 2.941 268 268 0 0 1-5.927 1.117 1.5 1.5 0 0 1-.264.024m-95.001.086q-.128 0-.26-.023-2.976-.521-5.929-1.106a1.5 1.5 0 0 1-1.181-1.763 1.506 1.506 0 0 1 1.763-1.181q2.92.579 5.864 1.095a1.5 1.5 0 0 1-.257 2.978m83.145 1.744a1.5 1.5 0 0 1-.194-2.988c1.966-.258 3.953-.543 5.906-.844a1.5 1.5 0 0 1 .457 2.965 278 278 0 0 1-5.971.854 2 2 0 0 1-.198.013m-71.286.064q-.097 0-.195-.012-2.998-.39-5.973-.844a1.5 1.5 0 1 1 .453-2.965q2.942.448 5.906.834a1.5 1.5 0 0 1-.191 2.987m59.361 1.241a1.499 1.499 0 0 1-.128-2.994q2.978-.26 5.937-.584a1.5 1.5 0 0 1 .326 2.983q-2.992.326-6.003.59a2 2 0 0 1-.132.005m-47.431.042q-.065 0-.129-.005a264 264 0 0 1-6.006-.58 1.5 1.5 0 0 1-1.33-1.652 1.49 1.49 0 0 1 1.652-1.33c1.98.213 3.977.406 5.938.573a1.5 1.5 0 0 1-.125 2.994m35.46.74c-.798 0-1.462-.63-1.498-1.435a1.5 1.5 0 0 1 1.434-1.564q2.987-.129 5.958-.324c.814-.05 1.54.573 1.595 1.4a1.5 1.5 0 0 1-1.4 1.595q-3.003.194-6.022.327zm-23.489.02-.063-.001a285 285 0 0 1-6.024-.316 1.5 1.5 0 1 1 .19-2.994q2.97.188 5.959.312a1.501 1.501 0 0 1-.062 2.999m11.497.239q-2.779 0-5.545-.054a1.5 1.5 0 0 1 .029-3h.03c3.81.076 7.645.073 11.451-.011.868.01 1.515.639 1.533 1.467a1.5 1.5 0 0 1-1.466 1.533 275 275 0 0 1-6.032.065M431.218 3.027a1.5 1.5 0 0 1-.018-3Q433.597-.001 436 0l1.221.001a1.5 1.5 0 0 1-.004 3h-.004L436.004 3q-2.39 0-4.768.027zm17.983.182-.048-.001a394 394 0 0 0-5.964-.146 1.5 1.5 0 0 1 .025-3h.025q3.01.052 6.009.148a1.5 1.5 0 0 1-.047 2.999m-29.978.128a1.5 1.5 0 0 1-.06-2.999q3.005-.121 6.018-.199l.04-.001a1.5 1.5 0 0 1 .038 3q-2.993.077-5.975.198zm41.965.426q-.046 0-.092-.003-2.98-.18-5.97-.319a1.5 1.5 0 0 1-1.429-1.567c.039-.827.752-1.478 1.568-1.429q3.013.139 6.013.321a1.499 1.499 0 0 1-.09 2.997m-53.945.232a1.5 1.5 0 0 1-.102-2.996q2.998-.21 6.01-.374c.832-.021 1.534.589 1.58 1.416a1.5 1.5 0 0 1-1.416 1.58q-2.99.163-5.965.37a1 1 0 0 1-.107.004m65.909.669q-.068 0-.136-.006a403 403 0 0 0-5.958-.492 1.5 1.5 0 1 1 .224-2.993q3.008.228 6.002.497a1.5 1.5 0 0 1-.132 2.994m-77.865.337a1.501 1.501 0 0 1-.145-2.994q2.992-.294 5.995-.548c.831-.05 1.551.545 1.621 1.369a1.5 1.5 0 0 1-1.369 1.621q-2.982.25-5.952.545-.075.007-.15.007m89.798.914a1.4 1.4 0 0 1-.18-.011 415 415 0 0 0-5.939-.666 1.5 1.5 0 0 1-1.336-1.649c.087-.824.848-1.409 1.649-1.335q2.998.315 5.983.671a1.5 1.5 0 0 1-.177 2.99m-101.72.44a1.5 1.5 0 0 1-.189-2.987q2.983-.384 5.979-.724a1.493 1.493 0 0 1 1.659 1.321 1.5 1.5 0 0 1-1.322 1.66q-2.972.337-5.933.717-.098.013-.194.013m113.61 1.158q-.111 0-.224-.016-2.952-.44-5.918-.841a1.5 1.5 0 0 1-1.286-1.687c.11-.82.869-1.404 1.687-1.286q2.987.403 5.961.847a1.5 1.5 0 0 1-.22 2.983m-125.486.545a1.5 1.5 0 0 1-.232-2.981q2.97-.47 5.954-.9a1.503 1.503 0 0 1 1.697 1.273c.119.82-.451 1.58-1.271 1.697a395 395 0 0 0-5.911.893 2 2 0 0 1-.237.018m137.325 1.404q-.133 0-.268-.024-2.938-.528-5.89-1.014a1.5 1.5 0 0 1 .487-2.96q2.974.49 5.934 1.021a1.5 1.5 0 0 1-.263 2.977m-149.146.647a1.5 1.5 0 0 1-1.471-1.222 1.5 1.5 0 0 1 1.195-1.752q2.956-.557 5.925-1.073a1.494 1.494 0 0 1 1.734 1.221 1.5 1.5 0 0 1-1.221 1.734q-2.949.513-5.882 1.066a1.5 1.5 0 0 1-.28.026m160.923 1.648q-.154.001-.31-.032a408 408 0 0 0-5.859-1.186 1.5 1.5 0 0 1-1.185-1.76 1.51 1.51 0 0 1 1.759-1.186q2.958.578 5.902 1.197a1.5 1.5 0 0 1-.307 2.967m-172.678.752a1.5 1.5 0 0 1-.321-2.964q2.938-.646 5.892-1.248a1.5 1.5 0 0 1 .599 2.939q-2.931.598-5.846 1.238a1.4 1.4 0 0 1-.324.035m184.38 1.891q-.175 0-.352-.042-2.903-.7-5.822-1.359a1.5 1.5 0 0 1-1.132-1.793 1.496 1.496 0 0 1 1.793-1.133q2.94.662 5.864 1.369a1.5 1.5 0 0 1-.351 2.958m-196.058.855a1.5 1.5 0 0 1-1.455-1.135 1.5 1.5 0 0 1 1.09-1.821q2.919-.731 5.851-1.42a1.5 1.5 0 1 1 .687 2.919q-2.912.685-5.807 1.412a1.5 1.5 0 0 1-.366.045m207.678 2.131q-.197.001-.395-.052a430 430 0 0 0-5.779-1.532 1.5 1.5 0 0 1-1.078-1.826 1.496 1.496 0 0 1 1.827-1.078q2.916.75 5.819 1.541a1.501 1.501 0 0 1-.394 2.947m-219.273.956a1.5 1.5 0 0 1-.406-2.943 428 428 0 0 1 5.806-1.593 1.494 1.494 0 0 1 1.836 1.063 1.5 1.5 0 0 1-1.062 1.836 408 408 0 0 0-5.766 1.581 1.5 1.5 0 0 1-.408.056m230.8 2.372q-.22.001-.439-.065a393 393 0 0 0-5.729-1.7 1.501 1.501 0 0 1 .832-2.883 403 403 0 0 1 5.772 1.714 1.499 1.499 0 0 1-.436 2.934m-242.297 1.059a1.5 1.5 0 0 1-.45-2.931q2.87-.902 5.757-1.764a1.501 1.501 0 0 1 .858 2.875q-2.866.854-5.715 1.751a1.5 1.5 0 0 1-.45.069m253.72 2.609q-.24.001-.48-.079a460 460 0 0 0-5.679-1.87 1.5 1.5 0 1 1 .92-2.855 415 415 0 0 1 5.718 1.884 1.497 1.497 0 0 1 .941 1.9 1.5 1.5 0 0 1-1.42 1.02m-265.158 1.176a1.5 1.5 0 0 1-.493-2.917 401 401 0 0 1 5.727-1.941 1.499 1.499 0 1 1 .941 2.848q-2.849.942-5.683 1.927a1.5 1.5 0 0 1-.492.083m276.468 2.829c-.173 0-.35-.029-.521-.093a418 418 0 0 0-5.621-2.037 1.5 1.5 0 0 1 1.002-2.828q2.84 1.007 5.662 2.052a1.5 1.5 0 0 1-.522 2.906m-287.78 1.29a1.5 1.5 0 0 1-1.403-.966 1.5 1.5 0 0 1 .87-1.936q2.82-1.074 5.661-2.108a1.5 1.5 0 1 1 1.027 2.818q-2.82 1.029-5.622 2.095a1.5 1.5 0 0 1-.533.097m298.967 3.046c-.188 0-.379-.035-.563-.109a394 394 0 0 0-5.558-2.202 1.5 1.5 0 0 1 1.084-2.797q2.81 1.089 5.599 2.218a1.499 1.499 0 0 1-.562 2.89m-310.152 1.408a1.499 1.499 0 0 1-.576-2.884 390 390 0 0 1 5.596-2.277 1.501 1.501 0 0 1 1.109 2.787q-2.788 1.11-5.554 2.259a1.5 1.5 0 0 1-.575.115m321.16 3.238a1.5 1.5 0 0 1-.602-.127 402 402 0 0 0-5.468-2.355 1.499 1.499 0 1 1 1.166-2.763q2.766 1.166 5.509 2.372a1.5 1.5 0 0 1 .769 1.976 1.5 1.5 0 0 1-1.374.897m-332.202 1.542a1.5 1.5 0 0 1-1.368-.884 1.497 1.497 0 0 1 .751-1.983 395 395 0 0 1 5.523-2.441 1.5 1.5 0 1 1 1.192 2.754 401 401 0 0 0-5.483 2.421 1.5 1.5 0 0 1-.615.133m343.075 3.427c-.215 0-.434-.047-.642-.146a415 415 0 0 0-5.4-2.516 1.5 1.5 0 0 1 1.248-2.728q2.73 1.248 5.439 2.535a1.5 1.5 0 0 1-.645 2.855m-353.968 1.677a1.499 1.499 0 0 1-.658-2.848q2.713-1.32 5.449-2.602a1.5 1.5 0 1 1 1.271 2.717 406 406 0 0 0-5.407 2.582 1.5 1.5 0 0 1-.655.151m364.694 3.612c-.23 0-.464-.053-.683-.165a389 389 0 0 0-5.323-2.673 1.5 1.5 0 0 1 1.326-2.692 413 413 0 0 1 5.365 2.695 1.499 1.499 0 0 1-.685 2.835m-375.432 1.809a1.5 1.5 0 0 1-.696-2.829q2.673-1.398 5.366-2.76a1.5 1.5 0 1 1 1.354 2.678 424 424 0 0 0-5.329 2.74c-.222.116-.46.171-.695.171m386.001 3.792c-.244 0-.492-.059-.72-.185a427 427 0 0 0-5.246-2.83 1.501 1.501 0 0 1 1.406-2.651q2.653 1.409 5.283 2.851a1.5 1.5 0 0 1-.723 2.815m-396.568 1.943a1.501 1.501 0 0 1-.735-2.808 416 416 0 0 1 5.281-2.917 1.501 1.501 0 0 1 1.432 2.637 418 418 0 0 0-5.245 2.895 1.5 1.5 0 0 1-.733.193m406.974 3.969a1.5 1.5 0 0 1-.76-.207 387 387 0 0 0-5.162-2.983 1.501 1.501 0 0 1 1.482-2.61 423 423 0 0 1 5.201 3.007 1.502 1.502 0 0 1-.761 2.793m-417.365 2.071a1.5 1.5 0 0 1-.774-2.786 416 416 0 0 1 5.192-3.07 1.5 1.5 0 0 1 1.508 2.594 385 385 0 0 0-5.153 3.047 1.5 1.5 0 0 1-.773.215m427.593 4.145c-.272 0-.548-.074-.796-.229a392 392 0 0 0-5.073-3.134 1.5 1.5 0 0 1 1.557-2.565 399 399 0 0 1 5.112 3.158 1.5 1.5 0 0 1-.8 2.77m-437.801 2.196a1.5 1.5 0 0 1-.811-2.762 413 413 0 0 1 5.098-3.22 1.503 1.503 0 0 1 2.067.482 1.503 1.503 0 0 1-.483 2.067 411 411 0 0 0-5.061 3.196c-.251.16-.532.237-.81.237m447.85 4.319c-.287 0-.577-.082-.834-.254a404 404 0 0 0-4.981-3.283 1.5 1.5 0 1 1 1.632-2.516 410 410 0 0 1 5.019 3.307 1.5 1.5 0 0 1-.836 2.746M205.356 74.19a1.5 1.5 0 0 1-.849-2.738 408 408 0 0 1 5.001-3.367 1.5 1.5 0 1 1 1.658 2.5 395 395 0 0 0-4.964 3.343 1.5 1.5 0 0 1-.846.262m467.717 4.487c-.301 0-.605-.089-.869-.278a424 424 0 0 0-4.885-3.427 1.5 1.5 0 1 1 1.705-2.468 418 418 0 0 1 4.921 3.452 1.5 1.5 0 0 1-.872 2.721m-477.53 2.439a1.5 1.5 0 0 1-.884-2.713 393 393 0 0 1 4.899-3.512 1.5 1.5 0 0 1 1.73 2.451 398 398 0 0 0-4.863 3.487 1.5 1.5 0 0 1-.882.287m-9.604 7.208a1.5 1.5 0 0 1-.919-2.687 415 415 0 0 1 4.793-3.652 1.5 1.5 0 0 1 1.801 2.4 420 420 0 0 0-4.758 3.625 1.5 1.5 0 0 1-.917.314m-9.387 7.485a1.499 1.499 0 0 1-.953-2.659 428 428 0 0 1 4.682-3.791 1.505 1.505 0 0 1 2.109.237c.516.648.41 1.592-.237 2.109a409 409 0 0 0-4.65 3.763c-.279.23-.616.341-.951.341m-9.161 7.752a1.502 1.502 0 0 1-.987-2.631 388 388 0 0 1 4.569-3.924 1.5 1.5 0 1 1 1.937 2.291 401 401 0 0 0-4.534 3.894c-.284.248-.636.37-.985.37m-8.932 8.016a1.5 1.5 0 0 1-1.018-2.602 407 407 0 0 1 4.452-4.054 1.5 1.5 0 0 1 2.004 2.232 411 411 0 0 0-4.419 4.025 1.5 1.5 0 0 1-1.019.399m-8.69 8.271a1.5 1.5 0 0 1-1.05-2.571 438 438 0 0 1 4.331-4.182 1.498 1.498 0 1 1 2.068 2.172 411 411 0 0 0-4.299 4.153 1.5 1.5 0 0 1-1.05.428m-8.444 8.521a1.501 1.501 0 0 1-1.081-2.54 398 398 0 0 1 4.206-4.307 1.5 1.5 0 1 1 2.131 2.111 401 401 0 0 0-4.175 4.275 1.5 1.5 0 0 1-1.081.461m-8.193 8.758a1.5 1.5 0 0 1-1.109-2.509 406 406 0 0 1 4.078-4.425 1.499 1.499 0 1 1 2.191 2.049 420 420 0 0 0-4.049 4.393 1.5 1.5 0 0 1-1.111.492m-7.931 8.993a1.501 1.501 0 0 1-1.138-2.476 426 426 0 0 1 3.947-4.542 1.5 1.5 0 0 1 2.25 1.985 432 432 0 0 0-3.918 4.508 1.5 1.5 0 0 1-1.141.525m-7.662 9.217a1.5 1.5 0 0 1-1.166-2.443q1.889-2.34 3.812-4.653a1.5 1.5 0 1 1 2.306 1.918 409 409 0 0 0-3.784 4.62c-.296.367-.73.558-1.168.558m648.976 15.696c-.462 0-.919-.213-1.212-.615a409 409 0 0 0-3.564-4.805 1.5 1.5 0 1 1 2.396-1.805 423 423 0 0 1 3.59 4.84 1.5 1.5 0 0 1-1.21 2.385m6.94 9.802a1.5 1.5 0 0 1-1.238-.652 398 398 0 0 0-3.421-4.908 1.5 1.5 0 0 1 2.447-1.734 397 397 0 0 1 3.449 4.945 1.502 1.502 0 0 1-1.237 2.349m6.653 10.003c-.493 0-.975-.243-1.262-.688a418 418 0 0 0-3.278-5.009 1.5 1.5 0 0 1 .419-2.079 1.5 1.5 0 0 1 2.079.419 420 420 0 0 1 3.301 5.044 1.499 1.499 0 0 1-1.259 2.313m6.358 10.198a1.5 1.5 0 0 1-1.285-.726 396 396 0 0 0-3.13-5.102 1.5 1.5 0 1 1 2.545-1.588 428 428 0 0 1 3.153 5.14 1.5 1.5 0 0 1-1.283 2.276m6.057 10.382a1.5 1.5 0 0 1-1.309-.764 408 408 0 0 0-2.979-5.194 1.5 1.5 0 0 1 2.591-1.512 402 402 0 0 1 3.001 5.233 1.498 1.498 0 0 1-1.304 2.237m5.75 10.558a1.5 1.5 0 0 1-1.329-.802 387 387 0 0 0-2.827-5.281 1.5 1.5 0 0 1 2.635-1.435q1.443 2.65 2.848 5.32a1.502 1.502 0 0 1-1.327 2.198m5.437 10.727c-.555 0-1.089-.31-1.348-.842a425 425 0 0 0-2.669-5.364 1.499 1.499 0 1 1 2.675-1.356q1.365 2.69 2.689 5.404a1.5 1.5 0 0 1-1.347 2.158m5.119 10.886a1.5 1.5 0 0 1-1.367-.882 389 389 0 0 0-2.512-5.442 1.5 1.5 0 0 1 2.715-1.277q1.284 2.73 2.53 5.482a1.5 1.5 0 0 1-1.366 2.119m4.798 11.036a1.5 1.5 0 0 1-1.386-.923 390 390 0 0 0-2.348-5.515 1.499 1.499 0 1 1 2.75-1.197 374 374 0 0 1 2.368 5.558 1.5 1.5 0 0 1-1.384 2.077m4.469 11.176a1.5 1.5 0 0 1-1.4-.963 423 423 0 0 0-2.186-5.585 1.499 1.499 0 1 1 2.785-1.114 407 407 0 0 1 2.202 5.626 1.502 1.502 0 0 1-1.401 2.036m4.139 11.309a1.5 1.5 0 0 1-1.416-1.006 421 421 0 0 0-2.02-5.648 1.498 1.498 0 1 1 2.816-1.032 385 385 0 0 1 2.036 5.692 1.5 1.5 0 0 1-1.416 1.994m3.801 11.43a1.5 1.5 0 0 1-1.43-1.048 400 400 0 0 0-1.851-5.708 1.5 1.5 0 1 1 2.847-.947 415 415 0 0 1 1.865 5.751 1.5 1.5 0 0 1-1.431 1.952m-781.138 3.423a1.5 1.5 0 0 1-1.435-1.94 408 408 0 0 1 1.808-5.744 1.5 1.5 0 0 1 1.888-.967 1.5 1.5 0 0 1 .967 1.889 377 377 0 0 0-1.794 5.701 1.5 1.5 0 0 1-1.434 1.061m784.592 8.093c-.653 0-1.254-.43-1.442-1.09a390 390 0 0 0-1.675-5.737 1.5 1.5 0 0 1 2.873-.863q.865 2.882 1.689 5.78a1.503 1.503 0 0 1-1.445 1.91m-787.937 3.429q-.198 0-.397-.054a1.5 1.5 0 0 1-1.05-1.842q.796-2.907 1.636-5.796a1.5 1.5 0 1 1 2.881.838 415 415 0 0 0-1.625 5.75 1.5 1.5 0 0 1-1.445 1.104m791.045 8.161a1.5 1.5 0 0 1-1.453-1.133q-.733-2.9-1.506-5.784a1.5 1.5 0 0 1 1.06-1.838 1.506 1.506 0 0 1 1.838 1.061q.78 2.906 1.516 5.827a1.5 1.5 0 0 1-1.455 1.867M38.547 315.1q-.176.001-.355-.043a1.5 1.5 0 0 1-1.103-1.811q.712-2.928 1.465-5.84a1.499 1.499 0 1 1 2.904.75 443 443 0 0 0-1.455 5.799 1.5 1.5 0 0 1-1.456 1.145m796.813 8.222a1.5 1.5 0 0 1-1.464-1.177 403 403 0 0 0-1.333-5.826 1.5 1.5 0 1 1 2.92-.691q.692 2.927 1.342 5.871a1.5 1.5 0 0 1-1.465 1.823m-799.472 3.476q-.156 0-.313-.032a1.5 1.5 0 0 1-1.157-1.779q.626-2.947 1.292-5.881a1.5 1.5 0 1 1 2.926.666 391 391 0 0 0-1.282 5.838 1.5 1.5 0 0 1-1.466 1.188m801.888 8.276a1.5 1.5 0 0 1-1.472-1.22 389 389 0 0 0-1.161-5.863 1.5 1.5 0 0 1 2.938-.604 383 383 0 0 1 1.17 5.907 1.502 1.502 0 0 1-1.475 1.78m-804.201 3.497q-.133 0-.27-.024a1.5 1.5 0 0 1-1.207-1.744q.537-2.965 1.117-5.916a1.494 1.494 0 0 1 1.76-1.182 1.5 1.5 0 0 1 1.183 1.76 454 454 0 0 0-1.11 5.874 1.5 1.5 0 0 1-1.473 1.232m806.27 8.321a1.5 1.5 0 0 1-1.48-1.262 381 381 0 0 0-.988-5.894 1.5 1.5 0 0 1 2.955-.52q.52 2.963.996 5.939a1.5 1.5 0 0 1-1.483 1.737M31.61 350.408q-.113 0-.226-.017a1.5 1.5 0 0 1-1.26-1.707q.45-2.981.944-5.948a1.499 1.499 0 1 1 2.959.492 410 410 0 0 0-.936 5.903 1.5 1.5 0 0 1-1.481 1.277m809.956 8.358a1.5 1.5 0 0 1-1.486-1.306 394 394 0 0 0-.814-5.921 1.5 1.5 0 1 1 2.969-.432q.432 2.976.82 5.966a1.5 1.5 0 0 1-1.489 1.693m-811.575 3.53q-.09 0-.182-.011a1.5 1.5 0 0 1-1.31-1.67q.364-2.993.77-5.972a1.5 1.5 0 1 1 2.972.405 410 410 0 0 0-.762 5.928 1.5 1.5 0 0 1-1.488 1.32m812.947 8.39a1.5 1.5 0 0 1-1.491-1.349q-.3-2.979-.64-5.944a1.5 1.5 0 0 1 2.98-.344q.345 2.989.645 5.987a1.5 1.5 0 0 1-1.494 1.65m-814.215 3.539q-.069 0-.14-.006a1.5 1.5 0 0 1-1.356-1.63q.275-3.003.594-5.992a1.499 1.499 0 1 1 2.982.317q-.315 2.967-.588 5.948a1.5 1.5 0 0 1-1.492 1.363m815.238 8.414a1.5 1.5 0 0 1-1.494-1.393q-.213-2.986-.466-5.959a1.5 1.5 0 0 1 1.366-1.622c.823-.085 1.552.542 1.622 1.366q.257 2.997.47 6.002a1.5 1.5 0 0 1-1.498 1.606m-816.158 3.549q-.047 0-.094-.003a1.5 1.5 0 0 1-1.404-1.59q.187-3.008.418-6.006c.063-.828.798-1.471 1.61-1.38a1.5 1.5 0 0 1 1.38 1.61 405 405 0 0 0-.414 5.962 1.5 1.5 0 0 1-1.496 1.407m816.833 8.43a1.5 1.5 0 0 1-1.498-1.438 407 407 0 0 0-.293-5.97 1.5 1.5 0 0 1 1.414-1.582c.83-.028 1.535.586 1.582 1.414q.168 3.001.295 6.013a1.5 1.5 0 0 1-1.437 1.562zm-817.404 3.555-.051-.001a1.5 1.5 0 0 1-1.45-1.549q.1-3.014.244-6.016a1.48 1.48 0 0 1 1.569-1.427 1.5 1.5 0 0 1 1.427 1.57 421 421 0 0 0-.241 5.972 1.5 1.5 0 0 1-1.498 1.451m817.733 8.438a1.5 1.5 0 0 1-1.5-1.481 409 409 0 0 0-.119-5.976 1.5 1.5 0 0 1 1.458-1.54l.042-.001c.809 0 1.476.644 1.498 1.459q.084 3.005.121 6.02a1.5 1.5 0 0 1-1.481 1.519zm-817.96 3.544h-.007a1.5 1.5 0 0 1-1.493-1.507q.013-3.015.069-6.018a1.5 1.5 0 0 1 1.5-1.472h.029a1.5 1.5 0 0 1 1.47 1.528q-.055 2.981-.068 5.976a1.5 1.5 0 0 1-1.5 1.493m817.942 8.454h-.023a1.5 1.5 0 0 1-1.477-1.523 410 410 0 0 0 .052-5.978 1.5 1.5 0 0 1 1.5-1.498h.002a1.5 1.5 0 0 1 1.498 1.502q-.004 3.016-.052 6.02a1.5 1.5 0 0 1-1.5 1.477m-817.825 3.543a1.5 1.5 0 0 1-1.5-1.463 402 402 0 0 1-.101-6.02 1.5 1.5 0 0 1 1.485-1.515h.015a1.5 1.5 0 0 1 1.5 1.485q.029 2.993.102 5.976a1.5 1.5 0 0 1-1.463 1.537zm817.464 8.44-.067-.001a1.5 1.5 0 0 1-1.433-1.565q.133-2.982.225-5.974a1.499 1.499 0 1 1 2.998.09q-.091 3.014-.225 6.017a1.5 1.5 0 0 1-1.498 1.433m-816.998 3.549a1.5 1.5 0 0 1-1.497-1.42 428 428 0 0 1-.277-6.014 1.5 1.5 0 0 1 1.44-1.558 1.483 1.483 0 0 1 1.558 1.44q.116 2.992.275 5.972a1.5 1.5 0 0 1-1.5 1.58m816.289 8.428a1.502 1.502 0 0 1-1.498-1.61q.22-2.977.398-5.965a1.483 1.483 0 0 1 1.586-1.408 1.5 1.5 0 0 1 1.408 1.586 397 397 0 0 1-.4 6.007 1.5 1.5 0 0 1-1.494 1.39m-815.476 3.542a1.5 1.5 0 0 1-1.494-1.377 424 424 0 0 1-.451-6.004 1.5 1.5 0 0 1 2.993-.203q.203 2.986.449 5.961a1.5 1.5 0 0 1-1.497 1.623m814.417 8.409q-.078 0-.157-.008a1.5 1.5 0 0 1-1.338-1.646q.308-2.968.571-5.949a1.5 1.5 0 1 1 2.988.263q-.265 3.004-.574 5.994a1.5 1.5 0 0 1-1.49 1.346m-813.255 3.532a1.5 1.5 0 0 1-1.49-1.333 420 420 0 0 1-.626-5.988 1.5 1.5 0 0 1 2.986-.291q.29 2.98.622 5.945a1.5 1.5 0 0 1-1.492 1.667m811.848 8.383q-.098 0-.2-.012a1.5 1.5 0 0 1-1.289-1.686q.395-2.958.746-5.931c.097-.822.835-1.426 1.666-1.312a1.5 1.5 0 0 1 1.313 1.665 433 433 0 0 1-.75 5.974 1.5 1.5 0 0 1-1.486 1.302m-810.34 3.52a1.5 1.5 0 0 1-1.482-1.289 420 420 0 0 1-.802-5.968 1.5 1.5 0 0 1 1.3-1.677 1.51 1.51 0 0 1 1.677 1.3q.376 2.968.796 5.923a1.5 1.5 0 0 1-1.488 1.711m808.584 8.348q-.12.001-.243-.019a1.5 1.5 0 0 1-1.239-1.722q.48-2.946.918-5.907c.121-.82.89-1.382 1.704-1.265a1.5 1.5 0 0 1 1.264 1.704 414 414 0 0 1-.925 5.951 1.5 1.5 0 0 1-1.479 1.258m-806.722 3.505a1.5 1.5 0 0 1-1.477-1.245q-.51-2.964-.976-5.942a1.5 1.5 0 0 1 1.249-1.714 1.496 1.496 0 0 1 1.714 1.249q.463 2.955.97 5.897a1.5 1.5 0 0 1-1.48 1.755m804.617 8.308q-.142 0-.286-.027a1.5 1.5 0 0 1-1.189-1.757q.566-2.93 1.092-5.878a1.499 1.499 0 1 1 2.953.527 409 409 0 0 1-1.099 5.919 1.5 1.5 0 0 1-1.471 1.216M35.139 493.6a1.5 1.5 0 0 1-1.47-1.203 438 438 0 0 1-1.15-5.91 1.5 1.5 0 1 1 2.95-.551q.55 2.94 1.143 5.867a1.5 1.5 0 0 1-1.473 1.797m799.959 8.26q-.164 0-.329-.036a1.5 1.5 0 0 1-1.136-1.792q.652-2.913 1.264-5.842a1.5 1.5 0 0 1 2.937.613 439 439 0 0 1-1.273 5.885 1.5 1.5 0 0 1-1.463 1.172m-797.403 3.464a1.5 1.5 0 0 1-1.46-1.159 407 407 0 0 1-1.326-5.874 1.5 1.5 0 0 1 2.932-.639q.636 2.924 1.315 5.831a1.5 1.5 0 0 1-1.461 1.841m794.606 8.203q-.185 0-.372-.047a1.5 1.5 0 0 1-1.082-1.824q.738-2.893 1.437-5.803a1.499 1.499 0 1 1 2.916.701 405 405 0 0 1-1.447 5.844 1.5 1.5 0 0 1-1.452 1.129m-791.707 3.438a1.5 1.5 0 0 1-1.45-1.116 392 392 0 0 1-1.498-5.832 1.501 1.501 0 0 1 2.912-.724q.721 2.902 1.487 5.789a1.5 1.5 0 0 1-1.451 1.883m3.24 11.552a1.5 1.5 0 0 1-1.436-1.074 421 421 0 0 1-1.67-5.784 1.5 1.5 0 1 1 2.889-.811q.809 2.88 1.658 5.743a1.5 1.5 0 0 1-1.44 1.926m3.592 11.475c-.63 0-1.217-.4-1.425-1.03a390 390 0 0 1-1.847-5.758 1.499 1.499 0 1 1 2.863-.895q.895 2.866 1.834 5.713a1.502 1.502 0 0 1-1.425 1.97m738.677 83.569a1.498 1.498 0 0 1-1.282-2.277 404 404 0 0 0 3.051-5.123 1.503 1.503 0 0 1 2.052-.535c.715.419.955 1.338.536 2.051a418 418 0 0 1-3.073 5.162 1.5 1.5 0 0 1-1.284.722M94.49 637.14c-.486 0-.963-.236-1.252-.674a401 401 0 0 1-3.287-5.054 1.501 1.501 0 1 1 2.528-1.616 422 422 0 0 0 3.262 5.018 1.501 1.501 0 0 1-1.251 2.326m678.615 6.532a1.5 1.5 0 0 1-1.235-2.351 404 404 0 0 0 3.348-4.939 1.504 1.504 0 0 1 2.081-.416c.689.46.875 1.392.415 2.082a421 421 0 0 1-3.373 4.974c-.291.423-.76.65-1.236.65m-671.848 3.392c-.472 0-.935-.222-1.227-.637a381 381 0 0 1-3.433-4.956 1.5 1.5 0 1 1 2.478-1.689 425 425 0 0 0 3.408 4.919 1.5 1.5 0 0 1-1.226 2.363m664.91 6.374a1.502 1.502 0 0 1-1.209-2.387 407 407 0 0 0 3.492-4.839 1.5 1.5 0 0 1 2.092-.354c.675.481.833 1.416.354 2.092a413 413 0 0 1-3.518 4.875 1.5 1.5 0 0 1-1.211.613m-657.856 3.347c-.456 0-.907-.208-1.202-.602a415 415 0 0 1-3.576-4.851 1.5 1.5 0 0 1 2.428-1.762 409 409 0 0 0 3.55 4.816 1.501 1.501 0 0 1-1.2 2.399m650.637 6.214a1.5 1.5 0 0 1-.919-.317 1.5 1.5 0 0 1-.263-2.104 450 450 0 0 0 3.633-4.739 1.5 1.5 0 0 1 2.393 1.809 415 415 0 0 1-3.659 4.772 1.5 1.5 0 0 1-1.185.579m-643.305 3.294a1.5 1.5 0 0 1-1.176-.568 417 417 0 0 1-3.714-4.744 1.5 1.5 0 0 1 .272-2.103 1.5 1.5 0 0 1 2.103.271 417 417 0 0 0 3.689 4.711 1.5 1.5 0 0 1-1.174 2.433m635.806 6.055a1.501 1.501 0 0 1-1.155-2.455 418 418 0 0 0 3.77-4.631 1.5 1.5 0 0 1 2.108-.231c.647.518.75 1.462.232 2.108a396 396 0 0 1-3.797 4.664c-.297.36-.726.545-1.158.545m-628.2 3.232c-.427 0-.851-.182-1.147-.533a433 433 0 0 1-3.851-4.633 1.5 1.5 0 0 1 2.321-1.901 420 420 0 0 0 3.823 4.6 1.498 1.498 0 0 1-1.146 2.467m620.431 5.897a1.5 1.5 0 0 1-1.127-2.488 411 411 0 0 0 3.904-4.522 1.5 1.5 0 1 1 2.285 1.946 415 415 0 0 1-3.933 4.553 1.5 1.5 0 0 1-1.129.511m-612.559 3.162c-.412 0-.823-.169-1.119-.5a436 436 0 0 1-3.982-4.516 1.5 1.5 0 0 1 2.263-1.969q1.963 2.257 3.956 4.485a1.5 1.5 0 0 1-1.118 2.5m604.526 5.739a1.5 1.5 0 0 1-1.099-2.522q2.033-2.187 4.035-4.405a1.5 1.5 0 1 1 2.227 2.01 416 416 0 0 1-4.065 4.438 1.5 1.5 0 0 1-1.098.479m-596.396 3.085c-.396 0-.793-.157-1.088-.468a418 418 0 0 1-4.113-4.398 1.5 1.5 0 0 1 2.206-2.033 411 411 0 0 0 4.083 4.366 1.499 1.499 0 0 1-1.088 2.533m588.103 5.581a1.5 1.5 0 0 1-1.069-2.553 400 400 0 0 0 4.162-4.286 1.5 1.5 0 1 1 2.167 2.074 397 397 0 0 1-4.192 4.317 1.5 1.5 0 0 1-1.068.448m-579.72 3.001c-.383 0-.765-.146-1.058-.437a417 417 0 0 1-4.238-4.276 1.5 1.5 0 1 1 2.147-2.096 411 411 0 0 0 4.207 4.245 1.5 1.5 0 0 1-1.058 2.564m571.177 5.419a1.5 1.5 0 0 1-1.037-2.583 410 410 0 0 0 4.287-4.165 1.5 1.5 0 0 1 2.105 2.137 407 407 0 0 1-4.318 4.195c-.29.278-.664.416-1.037.416m-562.55 2.911c-.368 0-.736-.135-1.026-.407a406 406 0 0 1-4.36-4.148 1.5 1.5 0 0 1 2.084-2.158 400 400 0 0 0 4.328 4.119 1.5 1.5 0 0 1-1.026 2.594m553.765 5.259a1.499 1.499 0 0 1-1.006-2.613 411 411 0 0 0 4.408-4.039 1.5 1.5 0 1 1 2.043 2.197 427 427 0 0 1-4.44 4.069 1.5 1.5 0 0 1-1.005.386m-544.902 2.816c-.352 0-.708-.124-.993-.377a426 426 0 0 1-4.476-4.019 1.5 1.5 0 1 1 2.019-2.218 442 442 0 0 0 4.445 3.991 1.5 1.5 0 0 1-.995 2.623m535.878 5.098a1.5 1.5 0 0 1-.973-2.643 410 410 0 0 0 4.523-3.908 1.499 1.499 0 1 1 1.978 2.254 398 398 0 0 1-4.556 3.939c-.282.24-.628.358-.972.358m-526.782 2.713c-.339 0-.679-.114-.959-.347a405 405 0 0 1-4.594-3.887 1.5 1.5 0 0 1 1.955-2.275q2.265 1.945 4.559 3.857a1.498 1.498 0 0 1-.961 2.652m517.53 4.934a1.499 1.499 0 0 1-.939-2.67q2.332-1.872 4.636-3.776a1.5 1.5 0 1 1 1.913 2.312 426 426 0 0 1-4.672 3.804 1.5 1.5 0 0 1-.938.33m-508.215 2.607a1.5 1.5 0 0 1-.925-.32 396 396 0 0 1-4.703-3.75 1.5 1.5 0 0 1-.222-2.109 1.5 1.5 0 0 1 2.109-.223 428 428 0 0 0 4.669 3.723 1.5 1.5 0 0 1-.928 2.679m498.742 4.769a1.5 1.5 0 0 1-.905-2.697 390 390 0 0 0 4.746-3.64 1.5 1.5 0 0 1 1.844 2.367 396 396 0 0 1-4.783 3.667 1.5 1.5 0 0 1-.902.303m-489.212 2.495c-.311 0-.622-.096-.891-.294a413 413 0 0 1-4.809-3.609 1.5 1.5 0 0 1 1.819-2.387q2.373 1.808 4.773 3.584a1.5 1.5 0 0 1-.892 2.706m479.523 4.602a1.5 1.5 0 0 1-.869-2.723 411 411 0 0 0 4.852-3.501 1.5 1.5 0 0 1 1.773 2.42 412 412 0 0 1-4.888 3.526 1.5 1.5 0 0 1-.868.278m-469.79 2.379c-.296 0-.594-.087-.855-.269a402 402 0 0 1-4.911-3.467 1.5 1.5 0 1 1 1.749-2.437 419 419 0 0 0 4.875 3.441 1.502 1.502 0 0 1-.858 2.732m459.898 4.432a1.5 1.5 0 0 1-.833-2.748 410 410 0 0 0 4.954-3.357 1.5 1.5 0 0 1 1.701 2.47 401 401 0 0 1-4.991 3.383 1.5 1.5 0 0 1-.831.252m-449.967 2.261c-.282 0-.566-.079-.819-.244a398 398 0 0 1-5.008-3.322 1.5 1.5 0 1 1 1.677-2.488 392 392 0 0 0 4.97 3.298 1.499 1.499 0 0 1-.82 2.756m439.874 4.261a1.501 1.501 0 0 1-.797-2.772 395 395 0 0 0 5.052-3.212 1.5 1.5 0 0 1 1.629 2.52 416 416 0 0 1-5.089 3.235 1.5 1.5 0 0 1-.795.229m-429.751 2.136c-.268 0-.537-.071-.782-.22a422 422 0 0 1-5.102-3.172 1.501 1.501 0 0 1 1.602-2.537 416 416 0 0 0 5.066 3.15 1.5 1.5 0 0 1-.784 2.779m419.47 4.086a1.498 1.498 0 0 1-.758-2.794 415 415 0 0 0 5.144-3.063 1.501 1.501 0 0 1 1.555 2.566 391 391 0 0 1-5.184 3.085c-.238.14-.499.206-.757.206m-409.171 2.01c-.253 0-.509-.063-.745-.198a405 405 0 0 1-5.19-3.022 1.499 1.499 0 1 1 1.527-2.582 393 393 0 0 0 5.154 3 1.5 1.5 0 0 1-.746 2.802m398.708 3.91a1.5 1.5 0 0 1-.721-2.816 392 392 0 0 0 5.234-2.911 1.501 1.501 0 0 1 1.479 2.611 405 405 0 0 1-5.275 2.933 1.5 1.5 0 0 1-.717.183m-388.238 1.879c-.238 0-.48-.057-.705-.177a378 378 0 0 1-5.276-2.867 1.5 1.5 0 1 1 1.451-2.625q2.607 1.442 5.237 2.846a1.5 1.5 0 0 1-.707 2.823m377.603 3.731a1.501 1.501 0 0 1-.681-2.837 439 439 0 0 0 5.32-2.756 1.501 1.501 0 0 1 1.398 2.654 405 405 0 0 1-5.357 2.775 1.5 1.5 0 0 1-.68.164m-366.97 1.749c-.224 0-.452-.05-.666-.157a389 389 0 0 1-5.356-2.711 1.5 1.5 0 0 1-.646-2.02 1.5 1.5 0 0 1 2.021-.646 383 383 0 0 0 5.315 2.69 1.5 1.5 0 0 1-.668 2.844m356.171 3.546a1.5 1.5 0 0 1-.642-2.856 400 400 0 0 0 5.401-2.599 1.5 1.5 0 0 1 1.32 2.694 400 400 0 0 1-5.439 2.618 1.5 1.5 0 0 1-.64.143m-345.386 1.617c-.21 0-.423-.044-.627-.138a395 395 0 0 1-5.43-2.552 1.5 1.5 0 1 1 1.295-2.705q2.685 1.285 5.391 2.532a1.5 1.5 0 0 1 .735 1.991 1.5 1.5 0 0 1-1.364.872m334.431 3.36a1.501 1.501 0 0 1-.602-2.875q2.75-1.2 5.477-2.437a1.495 1.495 0 0 1 1.985.745c.343.754.01 1.643-.745 1.985a406 406 0 0 1-5.516 2.457 1.5 1.5 0 0 1-.599.125m-323.504 1.481c-.195 0-.394-.039-.586-.12q-2.76-1.175-5.501-2.389a1.5 1.5 0 1 1 1.215-2.742 407 407 0 0 0 5.46 2.37 1.5 1.5 0 0 1-.588 2.881m312.404 3.169a1.5 1.5 0 0 1-.559-2.891 406 406 0 0 0 5.546-2.277 1.499 1.499 0 1 1 1.16 2.766 407 407 0 0 1-5.588 2.294 1.5 1.5 0 0 1-.559.108m-301.316 1.358q-.276.001-.547-.104a397 397 0 0 1-5.592-2.235 1.5 1.5 0 0 1 1.135-2.777q2.766 1.129 5.551 2.219a1.5 1.5 0 0 1-.547 2.897m290.078 2.964a1.5 1.5 0 0 1-.518-2.908q2.817-1.036 5.615-2.112a1.501 1.501 0 0 1 1.076 2.801 426 426 0 0 1-5.655 2.127 1.5 1.5 0 0 1-.518.092m-278.841 1.24q-.253.001-.505-.088a424 424 0 0 1-5.655-2.068 1.501 1.501 0 0 1 1.051-2.811q2.797 1.047 5.614 2.055a1.5 1.5 0 0 1 .907 1.917 1.5 1.5 0 0 1-1.412.995m267.477 2.748a1.5 1.5 0 0 1-.476-2.923q2.847-.951 5.677-1.944a1.5 1.5 0 0 1 .994 2.83q-2.851 1.001-5.72 1.96a1.5 1.5 0 0 1-.475.077m-256.121 1.124q-.232.001-.464-.073a420 420 0 0 1-5.712-1.902 1.5 1.5 0 1 1 .967-2.839 419 419 0 0 0 5.673 1.887 1.5 1.5 0 0 1-.464 2.927m244.637 2.526a1.5 1.5 0 0 1-.431-2.936 373 373 0 0 0 5.733-1.776 1.502 1.502 0 0 1 .91 2.86q-2.88.915-5.778 1.789a1.5 1.5 0 0 1-.434.063m-233.17 1.008q-.21 0-.421-.059a409 409 0 0 1-5.769-1.732 1.5 1.5 0 0 1 .885-2.867 378 378 0 0 0 5.723 1.718 1.5 1.5 0 0 1-.418 2.94m221.634 2.286a1.5 1.5 0 0 1-.389-2.948 415 415 0 0 0 5.76-1.599 1.503 1.503 0 0 1 1.854 1.032 1.5 1.5 0 0 1-1.031 1.853q-2.894.825-5.802 1.611a1.5 1.5 0 0 1-.392.051m-210.069.909q-.188 0-.379-.049a398 398 0 0 1-5.816-1.561 1.498 1.498 0 1 1 .798-2.89 426 426 0 0 0 5.774 1.548 1.499 1.499 0 0 1-.377 2.952m198.439 2.043a1.5 1.5 0 0 1-.346-2.958q2.91-.694 5.803-1.429a1.5 1.5 0 0 1 .739 2.908q-2.916.74-5.847 1.438a1.5 1.5 0 0 1-.349.041m-186.785.806a1.5 1.5 0 0 1-.335-.038 381 381 0 0 1-5.86-1.387 1.5 1.5 0 1 1 .713-2.914q2.899.71 5.816 1.377a1.5 1.5 0 0 1-.334 2.962m175.073 1.801a1.5 1.5 0 0 1-.302-2.969q2.929-.606 5.843-1.256a1.5 1.5 0 1 1 .653 2.928q-2.936.655-5.887 1.266a1.5 1.5 0 0 1-.307.031m-163.338.704a1.5 1.5 0 0 1-.293-.028 408 408 0 0 1-5.899-1.214 1.5 1.5 0 0 1-1.153-1.78 1.506 1.506 0 0 1 1.78-1.154q2.919.624 5.854 1.204a1.502 1.502 0 0 1-.289 2.972m151.556 1.558a1.5 1.5 0 0 1-.259-2.978q2.947-.52 5.878-1.083a1.507 1.507 0 0 1 1.755 1.192 1.497 1.497 0 0 1-1.19 1.754q-2.952.567-5.921 1.092a1.5 1.5 0 0 1-.263.023m-139.754.601a2 2 0 0 1-.25-.02q-2.973-.499-5.93-1.04a1.5 1.5 0 0 1-1.206-1.745 1.5 1.5 0 0 1 1.745-1.207q2.937.538 5.887 1.033a1.499 1.499 0 0 1-.246 2.979m127.91 1.311a1.5 1.5 0 0 1-.216-2.985 408 408 0 0 0 5.908-.909 1.49 1.49 0 0 1 1.72 1.241 1.5 1.5 0 0 1-1.242 1.72 399 399 0 0 1-5.952.917 1.5 1.5 0 0 1-.218.016m-116.05.499a2 2 0 0 1-.207-.014 401 401 0 0 1-5.958-.866 1.5 1.5 0 0 1-1.256-1.709 1.497 1.497 0 0 1 1.709-1.256q2.95.45 5.915.858a1.5 1.5 0 0 1-.203 2.987m104.153 1.065a1.5 1.5 0 0 1-.172-2.99 412 412 0 0 0 5.932-.736 1.499 1.499 0 1 1 .391 2.974q-2.98.393-5.975.742-.088.01-.176.01m-92.246.395a2 2 0 0 1-.162-.009 408 408 0 0 1-5.982-.689 1.5 1.5 0 0 1-1.306-1.671 1.505 1.505 0 0 1 1.672-1.307q2.962.365 5.936.685a1.5 1.5 0 0 1-.158 2.991m80.31.82a1.5 1.5 0 0 1-.127-2.994q2.981-.26 5.95-.563a1.5 1.5 0 1 1 .304 2.985q-2.99.305-5.995.566a2 2 0 0 1-.132.006m-68.363.294q-.059 0-.119-.005a383 383 0 0 1-6-.515 1.5 1.5 0 0 1-1.353-1.632 1.484 1.484 0 0 1 1.632-1.354q2.97.277 5.955.511a1.5 1.5 0 0 1 1.378 1.612 1.5 1.5 0 0 1-1.493 1.383m56.398.573a1.5 1.5 0 0 1-.085-2.997q2.986-.173 5.964-.388a1.5 1.5 0 0 1 .216 2.992 398 398 0 0 1-6.095.393m-44.425.191-.075-.002a427 427 0 0 1-6.012-.34 1.5 1.5 0 0 1 .191-2.994q2.98.19 5.969.338a1.5 1.5 0 0 1-.073 2.998m32.438.328a1.5 1.5 0 0 1-.042-2.999 422 422 0 0 0 5.974-.216c.826-.061 1.527.607 1.563 1.435a1.5 1.5 0 0 1-1.434 1.563q-3.003.129-6.017.216zm-20.46.086h-.031a427 427 0 0 1-6.005-.165 1.5 1.5 0 0 1-1.447-1.551c.028-.828.702-1.518 1.551-1.447q2.975.103 5.962.163a1.5 1.5 0 0 1-.03 3M436 821q-1.243-.001-2.48-.008a1.5 1.5 0 0 1 .009-3h.008c2.811.015 5.63.005 8.441-.035h.021a1.5 1.5 0 0 1 .022 3Q439.016 821 436 821" clip-rule="evenodd" opacity=".396"/><path fill="#a3b1bf" fill-rule="evenodd" d="M338 73c-17.949 0-32.5 14.55-32.5 32.5S320.051 138 338 138s32.5-14.551 32.5-32.5c0-17.95-14.551-32.5-32.5-32.5m0 3c16.267 0 29.5 13.233 29.5 29.5S354.267 135 338 135s-29.5-13.233-29.5-29.5S321.733 76 338 76" clip-rule="evenodd"/><path fill="#a0c8ff" d="M338 126.5c11.598 0 21-9.403 21-21 0-11.598-9.402-21-21-21s-21 9.402-21 21c0 11.597 9.402 21 21 21" opacity=".151"/><path fill="#a3b1bf" fill-rule="evenodd" d="m320.005 79.898-2.576 2.061c-10.393-3.248-18.093-3.492-20.132.041-3.59 6.217 11.724 21.779 34.203 34.757 22.481 12.98 43.613 18.46 47.203 12.243 2.096-3.63-2.25-10.444-10.703-18.069v-3.7c10.636 9.421 16.139 18.354 13.302 23.269-4.418 7.652-27.387 2.663-51.302-11.144S290.281 88.152 294.699 80.5c2.732-4.732 12.553-4.63 25.306-.602" clip-rule="evenodd"/><path fill="#a3b1bf" fill-rule="evenodd" d="m306.831 108.284.496 3.261c-8.009 7.376-12.069 13.923-10.03 17.455 3.59 6.218 24.723.737 47.203-12.242S382.293 88.218 378.703 82c-2.095-3.63-10.169-3.273-20.999.235l-3.204-1.85c13.476-4.5 23.964-4.8 26.802.115 4.418 7.652-11.387 25.049-35.302 38.856s-46.883 18.796-51.301 11.144c-2.731-4.732 2.267-13.187 12.132-22.216" clip-rule="evenodd"/><path fill="#acc0dc" d="M648.315 403.357h24.082c.445 0 .883-.033 1.318-.067v-28.003zM220.948 459.296v-3h-57.663c1.415 7.753 8.176 13.633 16.318 13.633h41.345zM325.874 503.215h-20.467c-9.17 0-16.603-7.453-16.603-16.645s7.433-16.642 16.603-16.642h38.777a109.5 109.5 0 0 1-15.872-34.393 16.5 16.5 0 0 1-5.915 1.107h-52.824a11.44 11.44 0 0 1 3.427 8.167c0 6.334-5.165 11.487-11.513 11.487H249.35v24.032a14.1 14.1 0 0 1-.671 4.296 17 17 0 0 1 .122 1.946c0 9.192-7.434 16.645-16.603 16.645h-18.563c-9.169 0-16.603 7.45-16.603 16.642s7.434 16.643 16.603 16.643h112.239c9.17 0 16.604-7.452 16.604-16.643s-7.434-16.642-16.604-16.642M302.458 403.357h19.939c.797 0 1.577.075 2.344.185a109.6 109.6 0 0 1 6.418-33.471h-28.701c-9.17 0-16.604 7.451-16.604 16.643s7.434 16.643 16.604 16.643M623.741 336.785h14.223c9.17 0 16.603-7.451 16.603-16.643s-7.433-16.642-16.603-16.642H470.933c18.8 6.563 35.272 18.085 47.852 33h35.987c8.963 0 16.228 7.835 16.228 17.5s-7.265 17.5-16.228 17.5h-16.094a109.7 109.7 0 0 1 5.909 31.857h64.666l30.119-33.286h-15.631c-9.169 0-16.603-7.451-16.603-16.642 0-9.192 7.434-16.644 16.603-16.644" opacity=".196"/><path fill="#a3b1bf" fill-rule="evenodd" d="M434.667 297.373c-60.751 0-110 49.249-110 110s49.249 110 110 110 110-49.249 110-110-49.249-110-110-110m0 3c28.581 0 55.451 11.13 75.66 31.34 20.21 20.209 31.34 47.079 31.34 75.66s-11.13 55.451-31.34 75.66c-20.209 20.21-47.08 31.34-75.66 31.34s-55.451-11.13-75.66-31.34c-20.21-20.209-31.34-47.079-31.34-75.66s11.13-55.451 31.34-75.66c20.209-20.21 47.079-31.34 75.66-31.34" clip-rule="evenodd"/><path fill="#a0c8ff" d="M434.667 316.373c24.307 0 47.159 9.466 64.347 26.653 17.187 17.188 26.653 40.04 26.653 64.347s-9.466 47.159-26.653 64.347c-17.188 17.187-40.04 26.653-64.347 26.653s-47.159-9.466-64.347-26.653c-17.187-17.188-26.653-40.04-26.653-64.347s9.466-47.159 26.653-64.347c17.188-17.187 40.04-26.653 64.347-26.653" opacity=".151"/><path fill="#a3b1bf" fill-rule="evenodd" d="M339.979 495.693c-19.45 0-30.517-3.472-33.599-10.465-3.745-8.496 4.422-21.266 24.965-39.043a1.496 1.496 0 0 1 2.114.153 1.5 1.5 0 0 1-.152 2.115c-13.163 11.39-28.043 26.806-24.182 35.565 4.804 10.898 36.925 9.526 63.026 6.458 39.051-4.593 87.469-21.4 129.517-44.96 39.054-21.882 64.741-45.214 65.441-59.441.316-6.438-4.766-10.849-15.104-13.111a1.5 1.5 0 1 1 .641-2.93c14.927 3.265 17.732 10.605 17.458 16.188-.761 15.469-26.422 39.193-66.97 61.911-42.376 23.744-91.211 40.686-130.634 45.322-12.668 1.49-23.499 2.238-32.521 2.238M405.5 341.5c-11.321 0-20.5 9.178-20.5 20.5s9.179 20.5 20.5 20.5S426 373.322 426 362s-9.178-20.5-20.5-20.5m0 3c9.649 0 17.5 7.851 17.5 17.5s-7.851 17.5-17.5 17.5S388 371.649 388 362s7.851-17.5 17.5-17.5M404.384 396.88c-7.314 0-14.128-2.411-20.303-7.194a1.5 1.5 0 0 1 1.838-2.371c6.589 5.103 13.96 7.248 21.917 6.373a1.494 1.494 0 0 1 1.655 1.327 1.5 1.5 0 0 1-1.327 1.655q-1.911.21-3.78.21M428.001 390a1.498 1.498 0 0 1-.697-2.828c10.777-5.651 14.612-15.861 11.722-31.218a1.5 1.5 0 0 1 1.197-1.751 1.493 1.493 0 0 1 1.751 1.196c3.123 16.59-1.345 28.174-13.278 34.429-.221.117-.46.172-.695.172" clip-rule="evenodd"/><path fill="#a3b1bf" fill-rule="evenodd" d="M457.5 413.5a8.5 8.5 0 1 0 .001 17.001 8.5 8.5 0 0 0-.001-17.001m0 3c3.033 0 5.5 2.467 5.5 5.5s-2.467 5.5-5.5 5.5a5.506 5.506 0 0 1-5.5-5.5c0-3.033 2.468-5.5 5.5-5.5M457.417 438c-3.366 0-6.5-1.111-9.337-3.315a1.5 1.5 0 0 1 1.84-2.37c2.724 2.115 5.637 2.968 8.915 2.605a1.5 1.5 0 0 1 1.656 1.326 1.5 1.5 0 0 1-1.326 1.656q-.884.098-1.748.098M467.001 435a1.499 1.499 0 0 1-.673-2.841c4.42-2.214 5.984-6.26 4.78-12.369a1.501 1.501 0 0 1 2.944-.58c1.479 7.511-.667 12.769-6.38 15.631a1.5 1.5 0 0 1-.671.159M495 354a9 9 0 1 0 0 18 9 9 0 0 0 0-18m0 3c3.309 0 6 2.691 6 6s-2.691 6-6 6c-3.308 0-6-2.691-6-6s2.692-6 6-6M517 395.5a3 3 0 1 0 0-6 3 3 0 0 0 0 6M388 424.5c-6.627 0-12 5.373-12 12s5.373 12 12 12c6.628 0 12-5.373 12-12s-5.372-12-12-12m0 3c4.963 0 9 4.037 9 9s-4.037 9-9 9c-4.962 0-9-4.037-9-9s4.038-9 9-9" clip-rule="evenodd"/><path stroke="#a3b1bf" stroke-linecap="round" stroke-width="3" d="M376 452.5q5.884 4.688 13 3.882"/><path fill="#a0c8ff" d="M565.5 254c5.523 0 10-4.478 10-10s-4.477-10-10-10-10 4.478-10 10 4.478 10 10 10" opacity=".151"/><path fill="#a3b1bf" fill-rule="evenodd" d="M565.5 254c-5.522 0-10-4.477-10-10s4.478-10 10-10 10 4.477 10 10-4.477 10-10 10m0-23c-7.18 0-13 5.82-13 13s5.82 13 13 13c7.181 0 13-5.82 13-13s-5.819-13-13-13" clip-rule="evenodd"/><path fill="#a0c8ff" d="M302.4 301.366c5.522 0 10-4.478 10-10s-4.478-10-10-10-10 4.477-10 10 4.478 10 10 10" opacity=".151"/><path fill="#a3b1bf" fill-rule="evenodd" d="M302.4 301.366c-5.522 0-10-4.478-10-10s4.478-10 10-10 10 4.477 10 10-4.478 10-10 10m0-23c-7.18 0-13 5.82-13 13s5.82 13 13 13 13-5.82 13-13-5.82-13-13-13" clip-rule="evenodd"/><path fill="#a0c8ff" d="M84.5 700.454a6.455 6.455 0 1 0 0-12.91 6.455 6.455 0 0 0 0 12.91" opacity=".151"/><path fill="#a3b1bf" fill-rule="evenodd" d="M84.5 705.454c-6.326 0-11.454-5.128-11.454-11.454s5.128-11.454 11.454-11.454S95.955 687.674 95.955 694s-5.129 11.454-11.455 11.454m0-26.454c-8.284 0-15 6.716-15 15s6.716 15 15 15 15-6.716 15-15-6.716-15-15-15M562 570.5a5 5 0 0 0 5-5 5 5 0 1 0-10 0 5 5 0 0 0 5 5M50 355.5a5 5 0 0 0 5-5 5 5 0 1 0-10 0 5 5 0 0 0 5 5M785 334.5a5 5 0 0 0 5-5 5 5 0 1 0-10 0 5 5 0 0 0 5 5M435 506.5a5 5 0 0 0 5-5 5 5 0 1 0-10 0 5 5 0 0 0 5 5M359 255.5a5 5 0 0 0 5-5 5 5 0 1 0-10 0 5 5 0 0 0 5 5M776 715.5a5 5 0 0 0 5-5 5 5 0 1 0-10 0 5 5 0 0 0 5 5M46 554c-23.435 0-42.5 19.065-42.5 42.5S22.565 639 46 639s42.5-19.065 42.5-42.5S69.435 554 46 554m0 88.5c-25.364 0-46-20.636-46-46s20.636-46 46-46 46 20.636 46 46-20.636 46-46 46" clip-rule="evenodd"/><path fill="#a0c8ff" d="M46 633.5c20.435 0 37-16.565 37-37s-16.565-37-37-37-37 16.565-37 37 16.565 37 37 37" opacity=".151"/><path fill="#a3b1bf" fill-rule="evenodd" d="M8.5 575.5h44a1.5 1.5 0 1 0 0-3h-44a1.5 1.5 0 0 0 0 3M87.5 583.5h-26a1.5 1.5 0 0 0 0 3h26a1.5 1.5 0 1 0 0-3M54 585a1.5 1.5 0 0 0-1.5-1.5h-12a1.5 1.5 0 0 0 0 3h12A1.5 1.5 0 0 0 54 585M35.5 598.5a1.5 1.5 0 0 0 0 3h12a1.5 1.5 0 1 0 0-3zM62.5 618.5h-12a1.5 1.5 0 0 0 0 3h12a1.5 1.5 0 1 0 0-3M83.5 618.5h-12a1.5 1.5 0 0 0 0 3h12a1.5 1.5 0 1 0 0-3M28 600a1.5 1.5 0 0 0-1.5-1.5h-23a1.5 1.5 0 0 0 0 3h23A1.5 1.5 0 0 0 28 600M63.5 609.5h-57a1.5 1.5 0 0 0 0 3h57a1.5 1.5 0 1 0 0-3M168 430.5l50-55v55zm67.148-109-1.104.002c-3.964 0-7.916 1.598-10.77 4.744l-3.873 4.27h-40.252c-4.73 0-8.6 3.863-8.6 8.586 0 4.721 3.87 8.585 8.6 8.585h18.276c4.73 0 8.6 3.863 8.6 8.584 0 4.723-3.87 8.586-8.6 8.586h-50.527c-4.73 0-8.6 3.864-8.6 8.585s3.87 8.586 8.6 8.586h25.778l-47.938 52.849c-5.358 5.906-4.9 15.115 1.017 20.464a14.4 14.4 0 0 0 7.915 3.608c1.004.223 2.043.347 3.112.347h81.166v21.033c0 9.444 7.74 17.171 17.2 17.171s17.202-7.727 17.202-17.171v-21.033h9.137c7.983 0 14.513-6.52 14.513-14.487 0-7.969-6.53-14.489-14.513-14.489h-9.137v-91.649c0-9.444-7.742-17.171-17.202-17.171m-73.929 112H221v-65.76l-5.22 5.742-50 55zm73.968-109c7.812.021 14.163 6.369 14.163 14.171v94.649h12.137c6.348 0 11.513 5.154 11.513 11.489 0 6.334-5.165 11.487-11.513 11.487H249.35v24.033c0 7.814-6.371 14.171-14.202 14.171s-14.2-6.357-14.2-14.171v-24.033h-84.166c-.808 0-7.272-1.606-9.015-3.181-2.268-2.05-3.6-4.872-3.752-7.948-.153-3.074.893-6.013 2.945-8.274l52.487-57.865h-32.549c-3.088 0-5.6-2.506-5.6-5.586 0-3.079 2.512-5.585 5.6-5.585h50.527c6.396 0 11.6-5.197 11.6-11.586 0-6.387-5.204-11.584-11.6-11.584h-18.276c-3.087 0-5.6-2.506-5.6-5.585 0-3.081 2.513-5.586 5.6-5.586h41.581l4.767-5.255c2.166-2.389 5.282-3.759 8.547-3.759z" clip-rule="evenodd"/><path fill="#a0c8ff" d="M240.362 331.5a9 9 0 0 1 9 9v87a9 9 0 0 1-9 9 9 9 0 0 1-9-9v-87a9 9 0 0 1 9-9" opacity=".151"/><path fill="#a3b1bf" fill-rule="evenodd" d="m623.916 430.32 49.8-55.033v55.033zm66.96-108.82c-.131 0-.258.017-.389.019a14 14 0 0 0-.714-.017c-3.955 0-7.896 1.597-10.744 4.744l-.255.281q-.613.615-1.165 1.288l-96.88 107.062c-5.345 5.906-4.888 15.115 1.014 20.464a14.36 14.36 0 0 0 7.896 3.608c1.003.223 2.04.347 3.106.347h80.971v21.033c0 9.444 7.721 17.171 17.16 17.171 9.437 0 17.159-7.727 17.159-17.171v-21.033h9.116c7.963 0 14.478-6.52 14.478-14.488s-6.515-14.488-14.478-14.488h-9.116v-20.39h35.392c4.718 0 8.579-3.864 8.579-8.586 0-4.721-3.861-8.585-8.579-8.585h-39.682c-4.719 0-8.58-3.863-8.58-8.585s3.861-8.585 8.58-8.585h17.159c4.719 0 8.58-3.864 8.58-8.585 0-4.723-3.861-8.586-8.58-8.586h-12.869v-19.747c0-9.445-7.722-17.171-17.159-17.171m-73.721 111.82h59.561v-65.819l-5.225 5.773-49.8 55.033zm73.758-108.82c7.79.021 14.122 6.37 14.122 14.171v22.747h15.869a5.59 5.59 0 0 1 5.58 5.586 5.59 5.59 0 0 1-5.58 5.585h-17.159c-6.385 0-11.58 5.197-11.58 11.585s5.195 11.585 11.58 11.585h39.682a5.59 5.59 0 0 1 5.579 5.585c0 3.08-2.503 5.586-5.579 5.586h-38.392v26.39h12.116c6.328 0 11.478 5.153 11.478 11.488 0 6.334-5.15 11.488-11.478 11.488h-12.116v24.033c0 7.813-6.352 14.171-14.159 14.171-7.809 0-14.16-6.358-14.16-14.171v-24.033h-83.971c-.805 0-1.632-.093-2.458-.276l-.138-.03-.138-.018a11.35 11.35 0 0 1-6.253-2.855c-4.694-4.252-5.054-11.531-.804-16.227l96.879-107.062.05-.054.046-.057c.309-.376.634-.736.966-1.067l.055-.056.054-.059.249-.277c2.161-2.387 5.267-3.756 8.52-3.756q.284 0 .569.013l.096.005.096-.002c.113-.001.225-.008.379-.018" clip-rule="evenodd"/><path fill="#a0c8ff" d="M696 331.5a9 9 0 0 1 9 9v10a9 9 0 0 1-9 9 9 9 0 0 1-9-9v-10a9 9 0 0 1 9-9M696 456.5a9 9 0 0 1 9 9v16a9 9 0 0 1-9 9 9 9 0 0 1-9-9v-16a9 9 0 0 1 9-9" opacity=".151"/><path fill="#a3b1bf" fill-rule="evenodd" d="M799 448.5a2.5 2.5 0 0 1 2.5 2.5v10a2.5 2.5 0 1 1-5 0v-10a2.5 2.5 0 0 1 2.5-2.5m0 31a2.5 2.5 0 0 1 2.5 2.5v10a2.5 2.5 0 1 1-5 0v-10a2.5 2.5 0 0 1 2.5-2.5m23-8a2.5 2.5 0 0 1-2.5 2.5h-10a2.5 2.5 0 0 1 0-5h10a2.5 2.5 0 0 1 2.5 2.5m-31 0a2.5 2.5 0 0 1-2.5 2.5h-10a2.5 2.5 0 0 1 0-5h10a2.5 2.5 0 0 1 2.5 2.5M208 235a2.5 2.5 0 0 1 2.5 2.5v10a2.5 2.5 0 1 1-5 0v-10a2.5 2.5 0 0 1 2.5-2.5m0 31a2.5 2.5 0 0 1 2.5 2.5v10a2.5 2.5 0 1 1-5 0v-10a2.5 2.5 0 0 1 2.5-2.5m23-8a2.5 2.5 0 0 1-2.5 2.5h-10a2.5 2.5 0 1 1 0-5h10a2.5 2.5 0 0 1 2.5 2.5m-31 0a2.5 2.5 0 0 1-2.5 2.5h-10a2.5 2.5 0 1 1 0-5h10a2.5 2.5 0 0 1 2.5 2.5M113.791 526.631a2.5 2.5 0 0 1 2.5 2.5v10a2.5 2.5 0 1 1-5 0v-10a2.5 2.5 0 0 1 2.5-2.5m0 31a2.5 2.5 0 0 1 2.5 2.5v10a2.5 2.5 0 1 1-5 0v-10a2.5 2.5 0 0 1 2.5-2.5m23-8a2.5 2.5 0 0 1-2.5 2.5h-10a2.5 2.5 0 1 1 0-5h10a2.5 2.5 0 0 1 2.5 2.5m-31 0a2.5 2.5 0 0 1-2.5 2.5h-10a2.5 2.5 0 1 1 0-5h10a2.5 2.5 0 0 1 2.5 2.5M808 608.5c-23.71 0-43-19.29-43-43s19.29-43 43-43 43 19.29 43 43-19.29 43-43 43m0-89.5c-25.681 0-46.5 20.818-46.5 46.5S782.319 612 808 612s46.5-20.818 46.5-46.5S833.682 519 808 519" clip-rule="evenodd"/><path fill="#a0c8ff" d="M808 529.5c-19.851 0-36 16.149-36 36s16.149 36 36 36 36-16.15 36-36-16.149-36-36-36M879.5 579a8 8 0 0 0 8-8 8 8 0 1 0-16 0 8 8 0 0 0 8 8" opacity=".151"/><path fill="#a3b1bf" fill-rule="evenodd" d="M879.5 579a8 8 0 1 1 0-16 8 8 0 0 1 0 16m-11.5-8c0 4.787 2.927 8.889 7.087 10.619C867.825 611.948 840.555 634.5 808 634.5c-29.207 0-54.175-18.146-64.245-43.781l-3.035.475C751.067 618.271 777.288 637.5 808 637.5c33.946 0 62.39-23.497 69.992-55.11.495.065.995.11 1.508.11 6.352 0 11.5-5.148 11.5-11.5s-5.148-11.5-11.5-11.5c-6.351 0-11.5 5.148-11.5 11.5M820 561a5.5 5.5 0 1 1-11 0 5.5 5.5 0 0 1 11 0M795 554a5.5 5.5 0 1 1-11 0 5.5 5.5 0 0 1 11 0M501.471 540.437a9 9 0 1 1 0-18 9 9 0 0 1 0 18m0-20.862c-6.551 0-11.862 5.311-11.862 11.862s5.311 11.862 11.862 11.862 11.862-5.31 11.862-11.862c0-6.551-5.31-11.862-11.862-11.862" clip-rule="evenodd"/><path fill="#a0c8ff" d="M510.525 531.437a9.055 9.055 0 1 1-18.11 0 9.055 9.055 0 0 1 18.11 0" opacity=".151"/><path fill="#a3b1bf" fill-rule="evenodd" d="M59.64 211.737a28 28 0 0 1-3.083-1.427 52 52 0 0 1-5.953.366c-10.272 0-18.524-3.131-24.525-9.308-11.881-12.229-8.84-30.418-8.11-33.942 4.137-19.962 22.203-31.793 37.238-34.336 1.898-.322 4.503-.69 7.833-.69 7.276 0 13.96 1.771 19.87 5.264a39 39 0 0 1 3.5 2.348c2.039.01 4.073.213 6.056.66-2.447-2.319-5.094-4.321-7.825-5.935C76.799 130.102 68.916 129 63.04 129c-3.857 0-6.85.474-8.4.737-17.69 2.993-35.795 16.703-40 37-.557 2.686-4.461 23.146 9 37 7.4 7.616 17.238 10.339 26.964 10.339 4.162 0 8.3-.504 12.223-1.33a28 28 0 0 1-3.186-1.009" clip-rule="evenodd"/><path fill="#a3b1bf" fill-rule="evenodd" d="M86.238 140.008c-5.952 0-11.91 1.527-16.598 2.729-7.462 1.914-19.507 5-26 15-10.256 15.795-4.803 45.971 16 54a28.2 28.2 0 0 0 10.23 1.892c14.296 0 28.14-10.331 34.77-21.892 9.045-15.77 7.766-39.218-5-48-4.05-2.786-8.723-3.729-13.402-3.729m.001 3c4.742 0 8.57 1.047 11.701 3.201 10.82 7.443 12.812 28.843 4.098 44.035-5.632 9.819-18.1 20.385-32.169 20.385-3.165 0-6.243-.569-9.149-1.69-7.938-3.064-14.01-10.004-17.102-19.543-3.428-10.584-2.432-22.37 2.538-30.025 5.854-9.017 16.911-11.851 24.23-13.727 4.58-1.174 10.278-2.636 15.853-2.636M30.385 295.434c-19.816-11.323-16.42-33.514-16.265-34.452a1.5 1.5 0 0 0-2.96-.492c-.041.251-3.92 25.173 17.737 37.549a1.503 1.503 0 0 0 2.047-.558 1.5 1.5 0 0 0-.56-2.047M18.578 297.566c-9.325-7.46-10.43-16.849-10.445-16.981a1.49 1.49 0 0 0-1.642-1.34 1.5 1.5 0 0 0-1.343 1.641c.043.434 1.182 10.723 11.555 19.022a1.5 1.5 0 0 0 2.108-.234 1.5 1.5 0 0 0-.233-2.108M25.547 170.234q.047.003.095.003a1.5 1.5 0 0 0 1.496-1.406c.925-14.796 11.6-19.505 12.082-19.71a1.5 1.5 0 0 0-1.156-2.769c-.526.219-12.874 5.552-13.92 22.291a1.5 1.5 0 0 0 1.403 1.591M94.64 237.237a5.507 5.507 0 0 0-5.5 5.5c0 3.032 2.469 5.5 5.5 5.5 3.033 0 5.501-2.468 5.501-5.5s-2.468-5.5-5.5-5.5m0 14c-4.686 0-8.5-3.813-8.5-8.5s3.814-8.5 8.5-8.5c4.688 0 8.501 3.813 8.501 8.5s-3.813 8.5-8.5 8.5" clip-rule="evenodd"/><path fill="#a0c8ff" d="M100.141 242.737a5.501 5.501 0 1 1-11.002-.002 5.501 5.501 0 0 1 11.002.002M93.113 143.891c-24.31 3.992-36.445 12.918-35.112 27.196 2 21.418.441 29.242 10 36.339 9.557 7.098 23.627-4.619 28-9.304 4.371-4.683 11.66-13.46 11.516-30.286-.526-13.18-6.491-21.833-14.404-23.945" opacity=".151"/><path fill="#a3b1bf" fill-rule="evenodd" d="M156.626 256.632c-2.182 2.005-4.068 2.27-8.202 2.849-1.975.277-4.404.62-7.505 1.245 4.406-8.923.45-18.547-1.542-22.403 1.942-.586 4.132-1.306 6.732-2.162a146 146 0 0 0 8.336-3.029c3.182-1.248 3.803-1.438 4.49-1.072 1.468.784 2.647 3.365 3.076 6.735.707 5.558-.677 13.51-5.385 17.837m-19.251 4.298a1.5 1.5 0 0 0-.219.63c-.922.219-1.876.455-2.899.726-11.312 2.996-19.485 5.161-21.066 11.063-.647 2.416.197 3.981 1.729 6.821.41.761.878 1.63 1.399 2.657-.18.656-1.366 4.564-4.995 9.016-3.606 4.424-10.439 10.287-22.537 13.306-5.365-2.409-10.856-5.91-16.053-9.799 11.795-8.954 12.134-22.542 11.968-26.405 1.113-.475 1.779-.963 1.839-1.008l.16-.14c.048-.048 4.953-4.863 18.53-10.682 14.102-6.044 13.215-11.64 12.856-12.783-.12-.534-.705-3.08-1.642-6.355 3.446 1.317 7.777 2.259 12.17 2.259h.027c2.615-.001 4.98-.364 7.775-1.08 1.674 3.109 6.35 13.302.958 21.774m-19.261 25.689c.364.822.741 1.703 1.136 2.68 3.198 7.903 4.666 11.831 3.077 14.713-1.597 2.895-5.851 3.678-8.958 4.249-8.002 1.474-15.257.058-19.846-1.34 15.981-5.197 22.309-15.168 24.591-20.302M64.719 288.9c9.289-7.174 10.71-15.98 10.821-20.076.997.447 2.016.766 3.062.923.568.085 1.115.122 1.639.122.516 0 1.002-.043 1.469-.105.021 4.214-.917 16.151-11.454 23.683a163 163 0 0 1-5.537-4.547m-11.382-10.559c1.078-.193 2.074-.648 2.587-1.607 1.184-2.215-1.1-4.935-3.223-7.058-7.177-7.178-1.737-20.219-1.681-20.35a1.5 1.5 0 0 0-2.758-1.18c-.173.403-2.873 6.857-2.184 13.673-12.333 5.795-19.882 1.618-21.903.205.438-12.786 6.936-22.155 12.697-30.431a88 88 0 0 1 4.067-5.402c3.519-.104 17.345.178 25.61 10.237l-1.64.998c-1.492.771-2.549 2.279-3.057 4.363-1.04 4.268.14 11.981 6.576 20.829 1.284 1.767 2.642 3.195 4.059 4.321.069.563 1.237 11.535-10.084 19.942a214 214 0 0 1-9.066-8.54m-2.978-3.004c-2.854-2.87-5.11-4.278-6.933-4.278q-.768 0-1.441.328c-2.273 1.104-2.156 4.15-2.032 7.375.1 2.588.224 5.807-1.149 6.729-1.486.999-4.871-.275-7.3-1.981-3.209-2.257-6.943-7.21-7.33-17.998 2.075 1.087 5.388 2.303 9.841 2.303 3.515 0 7.744-.772 12.618-2.952.662 2.465 1.88 4.867 3.947 6.934 2.136 2.136 2.559 3.17 2.642 3.504-.467.193-1.717.208-2.863.036m-3.744-55.405c2.535.326 20.618 3.022 24.429 13.76l-1.907 1.161c-7.702-9.704-19.634-11.442-25.624-11.66a88 88 0 0 1 3.102-3.261m23.749 24.33c.814 5.639 3.954 13.859 14.088 21.458-.743.439-2.82 1.465-5.454 1.053-2.876-.452-5.616-2.443-8.144-5.918-5.839-8.029-6.928-14.906-6.087-18.355.295-1.212.843-2.071 1.545-2.422l3.942-2.398a25.9 25.9 0 0 0 .11 6.582m3.27-8.64 15.751-9.583c2.523-1.44 8.975-4.446 13.499-4.446 1.526 0 2.835.343 3.696 1.204 3.846 3.846 7.509 17.376 8.597 22.265l-.058-.034.101.186c.284 1.09-1.169 4.857-11.17 9.144-9.085 3.893-14.455 7.378-17.185 9.422-15.733-11.403-14.245-24.058-13.231-28.158m31.344-30.951a10.5 10.5 0 0 0 4.213 2.497c.183.058.376.106.567.155.433 4.816.429 11.27-.746 13.688-.104-.113-.206-.231-.311-.335-1.31-1.312-3.054-1.906-4.973-2.045.62-2.179 1.186-6.28 1.25-13.96m7.831 3.117c3.523.189 7.573-.676 10.634-2.939 4.124 5.126 11.638 16.365 9.112 22.33-3.518 1.537-7.283 2.182-10.443 1.134a22 22 0 0 1-.632-.225c-1.373-.498-3.443-1.254-6.077-.833-.672.107-1.541.327-2.417.656-.661-1.559-1.371-3.027-2.12-4.3 2.612-2.98 2.278-11.65 1.943-15.823m14.437-7.458c.864-1.471 1.489-2.535 3.015-3.227 1.802-.817 4.003-.755 5.246-.273.535.208.725.427.753.493.187.441-.366 1.74-4.071 5.421-1.651 1.643-2.743 2.728-1.69 3.965.231.272 1.092 1.073 2.455-.017.62-.496 1.946-1.556 4.649-1.456 2.666.067 3.688.549 5.104 1.674 1.071.853 2.193 3.929 2.444 6.006.387 3.205-2.247 6.372-4.585 8.774-1.284 1.318-2.849 2.569-4.559 3.651.582-8.211-7.658-19.181-10.387-22.565.674-.838 1.176-1.678 1.626-2.446m-99.304 27.6.132.059c.894.406 2.005.911 2.206 1.153.283.894-1.037 3.493-3.175 4.279a3.8 3.8 0 0 1-1.321.222c-.536 0-1.129-.095-1.76-.277 1.689-1.078 3.379-2.845 3.918-5.436m-7.329 3.729a1.5 1.5 0 0 0-.366.159 36 36 0 0 1-4-2.36c1.688-.793 3.638-2.324 4.71-5.256a55 55 0 0 0 4.142 2.352c-.251 3.884-4.289 5.052-4.486 5.105m-7.257-4.39a31.7 31.7 0 0 1-3.901-3.908 6.2 6.2 0 0 0 1.783-.535c1.102-.528 2.423-1.595 3.264-3.729 1.091 1.135 2.383 2.256 3.87 3.351-.958 3.521-3.485 4.524-4.963 4.805q-.027.008-.053.016m-6.005-6.988c-.058-.031-.119-.051-.178-.074a24.4 24.4 0 0 1-2.943-6.966 6.7 6.7 0 0 0 2.331.432c1.036 0 2.353-.265 3.766-1.155a20 20 0 0 0 1.85 3.69c-.304 1.933-.996 3.223-2.067 3.825-1.166.656-2.499.348-2.759.248m-3.752-10.987a26.6 26.6 0 0 1 .302-6.66c.603.548 1.363 1.065 2.302 1.374a5.7 5.7 0 0 0 1.783.288c.323 0 .65-.037.978-.092-.09 1.804.078 3.586.45 5.279-1.028.864-2.073 1.262-3.12 1.18-1.363-.109-2.346-.961-2.695-1.369m3.823-16.706c.696 1.311 1.87 2.796 4.056 3.407a18 18 0 0 0-1.082 2.031 17 17 0 0 0-.971 2.923c-.828.355-1.578.437-2.268.215-1.446-.466-2.267-2.05-2.287-2.088-.025-.049-.057-.092-.088-.139a36 36 0 0 1 2.64-6.349m6.561-9.451c.46 2.669 1.202 5.729 1.83 7.759-.373.36-1.983 1.992-2.323 2.375-2.639-.083-3.311-1.696-3.947-3.268-.085-.209-.168-.394-.251-.584 1.14-1.745 3.517-4.952 4.691-6.282m151.004 55.28c-.566-4.451-2.257-7.732-4.64-9.004-1.967-1.049-3.543-.428-6.997.927-1.876.735-4.446 1.743-8.186 2.974-7.93 2.609-11.909 3.919-16.524 3.922h-.025c-5.301 0-10.246-1.508-13.312-3.021a89 89 0 0 0-1.214-3.515 9.3 9.3 0 0 1 1.789-.482c1.861-.297 3.304.227 4.575.689.253.092.491.179.715.253 7.96 2.642 17.248-2.963 21.548-7.378 1.802-1.85 6.021-6.185 5.414-11.225-.267-2.21-1.468-6.334-3.556-7.994-1.812-1.442-3.448-2.239-6.895-2.327a15 15 0 0 0-.865.008c1.71-1.983 3.025-4.17 2.208-6.094-.391-.917-1.229-1.649-2.425-2.115-2.2-.855-5.244-.72-7.576.335-2.391 1.086-3.393 2.791-4.362 4.442-.594 1.01-1.154 1.966-2.063 2.848-2.74 2.658-7.457 3.532-10.979 2.991a1.5 1.5 0 0 0-.414-.076 10 10 0 0 1-1.113-.27c-4.277-1.342-5.758-5.617-7.325-10.144q-.284-.824-.577-1.646l-2.08 3.138c.577 1.66 1.194 3.374 1.998 4.975a1.5 1.5 0 0 0-.132.624c.074 7.395-.447 16.169-1.394 17.424-.027.027-.036.063-.061.092-5.653.794-11.648 4.109-12.659 4.687l-14.21 8.65c-4.089-10.189-18.32-13.735-24.332-14.796 1.833-1.722 3.846-3.513 6.097-5.463h-4.568c-6.624 5.879-11.484 10.915-16.438 18.034-2.243 3.223-4.694 6.754-6.876 10.68a35 35 0 0 1-2.186-3.934 6.743 6.743 0 0 0 2.794-.39c3.344-1.228 5.861-5.276 5-8-.601-1.894-2.563-2.289-6-4-.561-.278-1.8-.898-3.312-1.784.115-.372.239-.744.382-1.111 2.516-6.507 8.469-9.988 9.495-10.203a1.5 1.5 0 0 0 1.208-1.741 1.51 1.51 0 0 0-1.742-1.211c-2.05.369-8.738 4.562-11.659 11.819-.102.254-.194.529-.288.801-2.201-1.503-4.514-3.402-6.084-5.57-2.785-3.842-4.519-10.292-2-16 1.081-2.451 2.855-4.557 4.908-6.154-1.204-2.962-2.902-10.339-2.859-14.626-2.448 1.773-5.858 5.301-8.778 9.946a1.5 1.5 0 0 0-.225.365c-4.045 6.576-7.056 15.304-5.046 24.469 2.963 13.517 15.181 20.433 20.603 22.52.918 2.439 2.273 5.054 4.208 7.839-2.7 5.54-4.698 11.832-4.811 19.118-.18 11.272 2.726 19.094 8.637 23.251 3.088 2.172 7.744 4.003 10.7 2.018 2.761-1.857 2.608-5.829 2.473-9.335-.05-1.29-.166-4.313.345-4.562.011-.002 1.317-.37 5.248 3.675l.02.021c8.231 8.478 24.303 23.69 39.475 30.33 2.344 1.025 9.466 3.771 18.399 3.771 2.38 0 4.892-.195 7.474-.67 3.487-.642 8.759-1.611 11.042-5.752 2.349-4.261.251-9.442-2.923-17.286-1.847-4.563-3.363-7.375-4.47-9.428-1.435-2.66-1.797-3.406-1.471-4.622 1.131-4.222 8.987-6.303 18.934-8.937 6.389-1.693 10.682-2.295 13.817-2.735 4.331-.608 6.945-.974 9.814-3.611 5.524-5.075 7.159-13.915 6.332-20.424" clip-rule="evenodd"/><path fill="#a0c8ff" d="M751.816 192.315c2.76-2.064 5.346-4.152 7.536-6.163l-5.289-16.502c-2.606 2.914-5.425 5.653-8.322 8.215 3.168 5.47 5.008 10.491 6.075 14.45M731.813 188.622a185 185 0 0 1-12.67 7.886l3.542 3.236 5.071 8.067c3.822-2.12 9.94-5.767 16.174-9.938-5.136-2.573-9.178-6.083-12.117-9.251M729.96 160.922c6.29-3.871 13.26-7.793 18.304-8.22l-4.764-11.521c-9.031 1.997-18.042 6.647-25.9 12.159zM660.72 121.229c13.07-19.897 32.197-26.897 37.241-27.324l-18.008-6.485c-9.031 1.997-17.372 8.442-21.504 14.577zM716.992 153.762c-11.706 8.338-20.739 18.521-23.237 24.505l8.699 6.838 17.367-17.974c.152-.085.323-.186.482-.276z" opacity=".151"/><path fill="#a3b1bf" fill-rule="evenodd" d="M697.961 113.494c-10.201 0-18.5 8.299-18.5 18.5s8.299 18.5 18.5 18.5 18.5-8.299 18.5-18.5-8.299-18.5-18.5-18.5m0 40c-11.855 0-21.5-9.645-21.5-21.5s9.645-21.5 21.5-21.5 21.5 9.645 21.5 21.5-9.645 21.5-21.5 21.5" clip-rule="evenodd"/><path fill="#a3b1bf" fill-rule="evenodd" d="M697.961 122.494c-5.238 0-9.5 4.262-9.5 9.5s4.262 9.5 9.5 9.5 9.5-4.262 9.5-9.5-4.262-9.5-9.5-9.5m0 22c-6.893 0-12.5-5.607-12.5-12.5s5.607-12.5 12.5-12.5 12.5 5.607 12.5 12.5-5.607 12.5-12.5 12.5" clip-rule="evenodd"/><path fill="#a0c8ff" d="M697.961 122.494c-5.238 0-9.5 4.262-9.5 9.5s4.262 9.5 9.5 9.5 9.5-4.262 9.5-9.5-4.262-9.5-9.5-9.5" opacity=".151"/><path fill="#a3b1bf" fill-rule="evenodd" d="M767.19 242.281c-.183 3.888.845 12.7 12.512 18.83-1.424-2.144-2.951-5.004-4.164-8.642-1.904-5.71-5.997-8.814-8.348-10.188m25.37 26.942-8.093-2.812c-23.999-8.348-20.009-26.577-19.966-26.761l.39-1.659 1.596.599c.354.132 8.707 3.361 11.896 12.929 2.805 8.414 7.471 12.269 7.518 12.307zM729.962 96.494a1.5 1.5 0 0 1-1.128-.51c-13.976-15.905-29.938-18.483-30.098-18.507a1.5 1.5 0 0 1-1.258-1.708 1.51 1.51 0 0 1 1.708-1.258c.696.105 17.21 2.774 31.902 19.493a1.5 1.5 0 0 1-1.126 2.49M742.001 111a1.5 1.5 0 0 1-1.304-.756c-1.064-1.862-4.313-7.018-6.529-8.496a1.5 1.5 0 0 1 1.664-2.496c3.202 2.135 7.043 8.756 7.471 9.504a1.5 1.5 0 0 1-1.302 2.244M768.147 223c-12.928-.809-15.091-7.101-15.264-7.684l-3.485-9.676-2.407 9.929c-.465 3.25.129 6.283 1.031 8.781-5.858-2.322-11.336-6.74-16.347-13.198a62 62 0 0 1-2.479-3.441c3.721-2.071 8.978-5.232 14.431-8.859a46.4 46.4 0 0 0 9.029 3.108l1.902.447-.059-1.953c-.003-.105-.145-3.424-1.359-8.343 2.261-1.72 4.406-3.457 6.312-5.159 6.87 1.28 11.709 4.213 14.381 8.72 1.403 2.368 2.106 4.974 2.395 7.485-1.873-1.199-4.22-1.92-7.019-2.153-.7-.059-1.367-.088-1.982-.088-3.857 0-6.35 1.197-7.41 3.558-1.73 3.85 1.784 8.255 2.901 9.512l.331.373.435.246c5.305 2.999 9.223 6.311 11.583 9.761-1.952-.743-4.263-1.2-6.92-1.366m-44.815-26.137-.903-.486a172 172 0 0 0 9.108-6.053 41.7 41.7 0 0 0 9.041 6.94c-5.019 3.274-9.749 6.113-12.989 7.939-2.533-4.16-3.833-7.298-3.85-7.341zm-19.377-6.914c-3.222 3.78-4.614 7.863-4.136 12.136.528 4.735 3.258 8.721 5.623 11.36-4.112-1.08-7.279-3.212-9.443-6.368-5.77-8.41-3.248-21.974-2.08-26.835a129 129 0 0 0 10.912 8.724c-.306.331-.601.659-.876.983m-23.234-28.45c-8.224-11.009-14.125-23.366-17.536-36.729-.218-.855-.412-1.696-.604-2.536 9.73-15.9 24.808-23.168 34.682-26.372a89 89 0 0 1 8.868 5.02c11.171 7.212 20.916 17.001 28.963 29.097a122 122 0 0 1 6.116 10.271c-.27.074-.538.147-.816.226-25.083 7.054-41.491 25.835-47.874 34.36-4.35-4.2-8.295-8.647-11.799-13.337m-6.93-73.558a46.4 46.4 0 0 0-13.969 10.136c-.011-5.312.374-9.457.688-11.924 4.553.329 8.98.93 13.281 1.788m19.596 6.108c-9.636 3.58-22.476 10.607-31.678 24.044a110 110 0 0 1-1.788-15.671 42 42 0 0 1 1.738-2.015c4.734-5.132 10.47-8.92 17.119-11.346a94 94 0 0 1 14.609 4.988m79.865 65.849c-7.174-5.385-16.937-4.006-21.388-2.974a137 137 0 0 0-5.832-13.834c15.929 3.198 23.593 10.709 27.22 16.808m-49.084 14.101c-3.056-7.092-4.121-13.792-4.485-17.199 25.873 11.069 30.741 34.658 31.627 41.715-12.53-3.536-21.655-11.774-27.142-24.516m28.098-5.615a116 116 0 0 1-6.465 6.522 53 53 0 0 0-12.988-14.01c7.656-4.56 13.638-7.192 14.471-7.552 2.597 6.498 4.162 11.855 4.982 15.04m-6.135-17.835q-.037.029-.077.058c-1.231.526-7.792 3.408-15.968 8.367-3.116-2.049-6.647-3.9-10.608-5.487 6.274-4.153 13.542-7.821 21.729-10.123q.736-.206 1.414-.387a134 134 0 0 1 3.51 7.572m-51.387 26.381c3.68-4.895 11.108-13.719 21.815-21.428.139 1.811.6 6.044 2.022 11.288-5.965 4.536-11.904 9.954-16.73 16.184a125 125 0 0 1-7.107-6.044m24.603 17.742c-5.381-3.054-10.425-6.346-15.118-9.866 4.384-5.643 9.789-10.632 15.286-14.888 1.893 5.803 4.976 12.387 9.97 18.186-3.768 2.655-7.254 4.877-10.138 6.568m37.746-9.796.071.23a103 103 0 0 1-4.871 3.943 58 58 0 0 0-4.916-11.527 123 123 0 0 0 5.721-5.629zm7.866 27.118s-7.177-8.078 2.268-8.078q.787 0 1.732.078c12.001 1 9.001 12 9.001 12s8.999-27-18.001-32l-4-13s-.841-4.404-3.115-11.234c2.035-.466 5.153-.982 8.522-.805 7.465.379 12.595 3.837 15.248 10.277l3.766 9.15-.886-9.856c-.023-.248-.603-6.159-5.431-12.713-4.3-5.836-12.951-13.289-29.741-16.104-12.738-24.335-38.13-54.362-86.363-56.715 0 0-10.766 53.166 33.454 94.946-.817 2.86-5.28 20.049 2.106 30.828 3.466 5.056 8.975 7.888 16.374 8.417l5.072.361-4.065-3.058c-.073-.054-7.307-5.571-8.101-12.75-.377-3.412.779-6.723 3.438-9.843.332-.39.693-.788 1.069-1.19a151 151 0 0 0 13.653 8.289s11 27 33 30c0 0-4.999-6-3.999-13 0 0 2 9 18 10s11 13 11 13 8.999-14-14.001-27" clip-rule="evenodd"/></svg>