<svg xmlns="http://www.w3.org/2000/svg" width="262" height="146" viewBox="0 0 262 146"><path fill="#a3b1bf" fill-opacity=".249" d="M186 138.5c0 4.14-18.8 7.5-42 7.5s-42-3.36-42-7.5 18.8-7.5 42-7.5 42 3.36 42 7.5"/><path fill="#a3b1bf" fill-opacity=".15" d="M84 33v9.87c-.39-.1-.81-.16-1.23-.16H60.93c-2.69 0-4.88-2.17-4.88-4.85 0-2.69 2.19-4.86 4.88-4.86zm0 19.27v19.2c0 8.92 4.05 16.75 9.88 23.39.78 2.12 1.78 4.17 2.95 6.14H80.48c-2.7 0-4.89-2.17-4.89-4.86 0-2.68 2.19-4.85 4.89-4.85h1.63c2.69 0 4.88-2.18 4.88-4.86s-2.19-4.86-4.88-4.86H44.89c-2.7 0-4.89-2.17-4.89-4.86 0-2.68 2.19-4.85 4.89-4.85h28.97c2.7 0 4.89-2.18 4.89-4.86s-2.19-4.86-4.89-4.86h-4.22c-2.7 0-4.89-2.17-4.89-4.85 0-2.69 2.19-4.86 4.89-4.86h13.13c.42 0 .84-.06 1.23-.16M194 33h4.83c2.7 0 4.88 2.17 4.88 4.86 0 2.68-2.18 4.85-4.88 4.85H194zm0 19.43h17.86c2.7 0 4.88 2.17 4.88 4.86 0 2.68-2.18 4.85-4.88 4.85H194zm-.8 38.86h21.91c2.7 0 4.89 2.17 4.89 4.85 0 2.69-2.19 4.86-4.89 4.86h-25.94c1.82-3.05 3.22-6.29 4.03-9.71M197.75 71h27.5c2.07 0 3.75 2.24 3.75 5s-1.68 5-3.75 5h-27.5c-2.07 0-3.75-2.24-3.75-5s1.68-5 3.75-5"/><path fill="#a3b1bf" d="m167.66 85.83-8.46 8.4-15.74-15.61-15.74 15.61-8.46-8.4L135 70.23l-15.74-15.61 8.46-8.39 15.74 15.6 15.74-15.6 8.46 8.39-15.73 15.61Z"/><path fill="#a3b1bf" fill-opacity=".253" d="m159.2 42-15.74 15.61L127.72 42 115 54.62l15.74 15.61L115 85.83l12.72 12.62 15.74-15.61 15.74 15.61 12.72-12.62-15.73-15.6 15.73-15.61zm0 4.23 8.46 8.39-15.74 15.61 15.74 15.6-8.46 8.39-15.74-15.6-15.74 15.6-8.46-8.39L135 70.23l-15.74-15.61 8.46-8.39 15.74 15.6z"/><path fill="#a3b1bf" d="m143 13 51 18.34v53.13c0 31.63-51 49.53-51 49.53s-51-17.9-51-49.53V31.34zm0 3.19L95 33.45v51.02c0 26.79 41.04 43.66 48 46.33 6.97-2.66 48-19.51 48-46.33V33.45z"/><path fill="#a3b1bf" fill-opacity=".248" d="m143 16.19 48 17.26v51.02c0 26.82-41.03 43.67-48 46.33-6.96-2.67-48-19.54-48-46.33V33.45zm0 3.19L98 35.56v48.91c0 23.79 37.01 39.91 45 43.11 7.99-3.2 45-19.29 45-43.11V35.56z"/><path fill="#a3b1bf" d="m135 0 51 18.34v10.12l-3-1.08v-6.93L135 3.19 87 20.45v51.02c0 5.91 2 11.34 5.18 16.23.27 2.48.86 4.87 1.7 7.16-5.62-6.41-9.59-13.92-9.86-22.44l-.02-.95V18.34z"/><path fill="#a3b1bf" fill-opacity=".15" d="m135 3.19 48 17.26v6.93L143 13 92 31.34v53.13c0 1.1.06 2.17.18 3.23C89 82.81 87 77.38 87 71.47V20.45z"/><path fill="none" stroke="#a3b1bf" stroke-width="3" d="M231.5 83c0 3.04-2.46 5.5-5.5 5.5s-5.5-2.46-5.5-5.5 2.46-5.5 5.5-5.5 5.5 2.46 5.5 5.5ZM66.5 24c0 3.04-2.46 5.5-5.5 5.5s-5.5-2.46-5.5-5.5 2.46-5.5 5.5-5.5 5.5 2.46 5.5 5.5ZM75.5 138.5c0 1.66-1.34 3-3 3s-3-1.34-3-3 1.34-3 3-3 3 1.34 3 3ZM227.5 137c0 .83-.67 1.5-1.5 1.5s-1.5-.67-1.5-1.5.67-1.5 1.5-1.5 1.5.67 1.5 1.5ZM62.5 101c0 .83-.67 1.5-1.5 1.5s-1.5-.67-1.5-1.5.67-1.5 1.5-1.5 1.5.67 1.5 1.5Z"/><path fill="#a3b1bf" d="M214.5 7c.83 0 1.5.67 1.5 1.5V12h3.5c.83 0 1.5.67 1.5 1.5s-.67 1.5-1.5 1.5H216v3.5c0 .83-.67 1.5-1.5 1.5s-1.5-.67-1.5-1.5V15h-3.5c-.83 0-1.5-.67-1.5-1.5s.67-1.5 1.5-1.5h3.5V8.5c0-.83.67-1.5 1.5-1.5M255.5 108c.83 0 1.5.67 1.5 1.5v3.5h3.5c.83 0 1.5.67 1.5 1.5s-.67 1.5-1.5 1.5H257v3.5c0 .83-.67 1.5-1.5 1.5s-1.5-.67-1.5-1.5V116h-3.5c-.83 0-1.5-.67-1.5-1.5s.67-1.5 1.5-1.5h3.5v-3.5c0-.83.67-1.5 1.5-1.5M11.83 56.33c0 .83-.67 1.5-1.5 1.5h-2.5v2.5c0 .83-.67 1.5-1.5 1.5s-1.5-.67-1.5-1.5v-2.5h-2.5c-.83 0-1.5-.67-1.5-1.5s.67-1.5 1.5-1.5h2.5v-2.5c0-.83.67-1.5 1.5-1.5s1.5.67 1.5 1.5v2.5h2.5c.83 0 1.5.67 1.5 1.5"/><path fill="#a3b1bf" fill-rule="evenodd" d="M224.15 21.99c-.17 0-.34-.03-.5-.09-.92-.32-1.86-.65-2.82-.98-.78-.27-1.2-1.13-.93-1.91s1.13-1.19 1.91-.93c.97.33 1.92.67 2.84 1 .78.27 1.19 1.13.91 1.91-.22.62-.79 1-1.41 1m8.4 3.23c-.19 0-.39-.04-.57-.12q-1.335-.555-2.76-1.11c-.77-.3-1.15-1.17-.85-1.95a1.5 1.5 0 0 1 1.95-.84c.96.38 1.9.75 2.81 1.13.76.32 1.12 1.19.81 1.96-.24.58-.8.93-1.39.93m8.17 3.76c-.23 0-.47-.06-.69-.17-.83-.44-1.71-.87-2.64-1.31a1.514 1.514 0 0 1-.71-2c.36-.75 1.25-1.07 2-.71.96.45 1.87.91 2.74 1.36.73.38 1.02 1.28.64 2.02-.27.51-.79.81-1.34.81m7.62 4.76c-.33 0-.66-.11-.93-.33-.69-.55-1.47-1.11-2.33-1.67a1.5 1.5 0 0 1-.42-2.08c.46-.69 1.39-.89 2.08-.43.92.61 1.78 1.23 2.53 1.83.65.52.76 1.46.25 2.11-.3.37-.74.57-1.18.57m5.01 7.18c-.76 0-1.41-.57-1.49-1.35-.07-.7-.33-1.45-.77-2.21-.41-.71-.17-1.63.55-2.05.71-.41 1.63-.17 2.05.55.65 1.13 1.04 2.28 1.16 3.41.08.82-.52 1.56-1.34 1.64-.06.01-.11.01-.16.01m-4.47 7.24c-.47 0-.93-.21-1.22-.62-.49-.68-.33-1.61.34-2.1.82-.58 1.51-1.17 2.07-1.75a1.5 1.5 0 0 1 2.12-.04c.6.58.62 1.53.04 2.12-.68.72-1.52 1.43-2.48 2.11a1.5 1.5 0 0 1-.87.28m-7.95 4.17c-.59 0-1.15-.35-1.39-.93-.31-.77.05-1.64.82-1.96.95-.38 1.85-.78 2.68-1.17.75-.35 1.64-.03 1.99.72.36.75.03 1.64-.72 1.99-.87.42-1.82.83-2.81 1.24-.19.08-.38.11-.57.11m-8.49 2.97c-.64 0-1.24-.42-1.44-1.06-.24-.8.21-1.63 1-1.87.98-.3 1.92-.6 2.83-.9.79-.26 1.63.17 1.89.95a1.5 1.5 0 0 1-.95 1.9c-.93.31-1.89.61-2.89.92-.15.04-.3.06-.44.06m-8.68 2.38c-.67 0-1.29-.46-1.46-1.14-.19-.81.3-1.62 1.1-1.82.99-.25 1.95-.49 2.89-.74a1.5 1.5 0 0 1 .76 2.9c-.95.25-1.93.5-2.93.75-.12.03-.24.05-.36.05m-8.77 2c-.7 0-1.32-.49-1.47-1.19-.17-.81.35-1.61 1.16-1.78q1.485-.315 2.91-.63c.81-.19 1.61.33 1.79 1.14.18.8-.33 1.61-1.13 1.79-.97.21-1.95.42-2.95.63-.11.03-.21.04-.31.04m-8.83 1.74c-.71 0-1.34-.51-1.48-1.23-.15-.81.39-1.6 1.21-1.75.99-.18 1.97-.36 2.93-.55a1.5 1.5 0 0 1 1.76 1.19c.16.81-.38 1.6-1.19 1.76-.97.18-1.96.37-2.96.55q-.135.03-.27.03m-8.87 1.55c-.72 0-1.35-.52-1.48-1.25-.13-.82.42-1.59 1.24-1.73.99-.16 1.98-.33 2.95-.5.82-.13 1.59.41 1.73 1.23s-.41 1.59-1.22 1.73c-.98.17-1.97.34-2.97.5-.08.02-.17.02-.25.02M81.26 77.75a1.5 1.5 0 0 1-.26-2.98c.97-.17 1.96-.34 2.96-.51.82-.14 1.59.41 1.73 1.22.14.82-.41 1.6-1.22 1.74-1 .17-1.98.33-2.95.51-.09.01-.18.02-.26.02m-8.85 1.67c-.7 0-1.32-.49-1.47-1.2-.16-.81.37-1.6 1.18-1.77.97-.19 1.95-.39 2.95-.58.82-.16 1.6.37 1.76 1.18.16.82-.37 1.61-1.19 1.76-.99.19-1.96.39-2.93.58q-.15.03-.3.03m-8.79 1.92c-.68 0-1.29-.46-1.46-1.15-.19-.81.31-1.62 1.12-1.81.96-.22 1.94-.45 2.94-.67.82-.18 1.61.33 1.79 1.13.18.81-.33 1.61-1.13 1.8q-1.485.33-2.91.66c-.12.03-.23.04-.35.04m-8.71 2.24c-.66 0-1.26-.43-1.44-1.09-.23-.8.23-1.62 1.03-1.85.95-.27 1.93-.53 2.92-.8.81-.21 1.62.27 1.83 1.07.22.8-.26 1.62-1.06 1.83-.98.26-1.94.52-2.87.79-.14.04-.28.05-.41.05m-8.59 2.69c-.61 0-1.19-.38-1.41-1-.28-.78.14-1.64.92-1.91.93-.33 1.89-.65 2.87-.97.8-.25 1.64.18 1.89.96.26.79-.17 1.64-.96 1.89-.97.31-1.9.63-2.81.95-.16.05-.33.08-.5.08m-8.34 3.37c-.56 0-1.1-.32-1.35-.87-.36-.75-.03-1.64.72-1.99.89-.42 1.82-.83 2.79-1.24a1.5 1.5 0 1 1 1.17 2.76c-.94.39-1.83.79-2.69 1.19-.2.1-.42.15-.64.15m-7.75 4.51a1.5 1.5 0 0 1-.9-2.7c.79-.59 1.66-1.18 2.58-1.76.71-.43 1.63-.22 2.07.49.44.7.22 1.63-.49 2.06-.85.53-1.65 1.07-2.36 1.61-.27.2-.59.3-.9.3m-5.8 6.71c-.19 0-.39-.04-.59-.12a1.497 1.497 0 0 1-.78-1.97c.42-.97.98-1.94 1.68-2.87.5-.67 1.43-.8 2.1-.31.66.5.8 1.44.3 2.1-.55.75-1 1.51-1.33 2.27-.24.56-.79.9-1.38.9m.27 8.69c-.58 0-1.12-.33-1.37-.88-.48-1.07-.82-2.14-1.02-3.18-.15-.82.39-1.6 1.2-1.76.82-.15 1.6.39 1.75 1.2.16.82.43 1.66.81 2.51.33.76-.01 1.65-.76 1.99-.2.08-.41.12-.61.12m5.3 7.2c-.38 0-.76-.14-1.06-.43-.76-.76-1.48-1.53-2.12-2.29-.54-.63-.46-1.58.17-2.12.63-.53 1.58-.45 2.11.18.59.69 1.25 1.4 1.96 2.1.59.58.59 1.53.01 2.12-.3.3-.68.44-1.07.44m6.91 5.76c-.31 0-.62-.09-.88-.29a78 78 0 0 1-2.45-1.84c-.65-.51-.76-1.45-.25-2.1a1.5 1.5 0 0 1 2.11-.26c.74.59 1.52 1.18 2.35 1.77a1.503 1.503 0 0 1-.88 2.72m7.52 4.93c-.26 0-.53-.07-.77-.21-.89-.54-1.75-1.07-2.59-1.6-.7-.44-.9-1.37-.46-2.07s1.37-.9 2.07-.46q1.215.765 2.52 1.56c.71.42.94 1.34.51 2.05-.28.47-.77.73-1.28.73m7.84 4.41c-.24 0-.48-.05-.7-.17-.91-.49-1.8-.96-2.66-1.44-.73-.4-.99-1.31-.59-2.04.4-.72 1.31-.98 2.04-.59.85.47 1.72.94 2.61 1.42.74.38 1.02 1.29.63 2.02-.27.51-.79.8-1.33.8m8.04 4.05c-.22 0-.44-.05-.65-.15-.92-.44-1.82-.88-2.71-1.32a1.5 1.5 0 0 1-.68-2.01c.37-.74 1.27-1.05 2.01-.68.88.43 1.77.87 2.68 1.31.75.36 1.06 1.25.7 2-.26.54-.79.85-1.35.85m8.17 3.78c-.21 0-.42-.04-.61-.13-.93-.42-1.85-.83-2.75-1.24-.75-.35-1.09-1.24-.74-1.99.34-.75 1.23-1.08 1.99-.74.89.41 1.8.82 2.72 1.23.76.34 1.09 1.22.76 1.98-.25.56-.8.89-1.37.89"/><path fill="#a3b1bf" fill-opacity=".254" d="M222.31 22.7c-.33 0-.65-.1-.92-.31-.7-.55-1.48-1.09-2.34-1.61-.7-.44-.92-1.36-.49-2.07.44-.7 1.36-.92 2.07-.49.94.59 1.82 1.19 2.6 1.8.65.51.77 1.45.26 2.1-.29.38-.74.58-1.18.58m4.92 7.26c-.74 0-1.39-.55-1.49-1.3a6.7 6.7 0 0 0-.77-2.32 1.499 1.499 0 0 1 2.64-1.42c.58 1.08.95 2.2 1.11 3.34.11.82-.47 1.58-1.29 1.69-.07.01-.14.01-.2.01m-2.97 8.19c-.33 0-.66-.11-.94-.33-.64-.52-.74-1.47-.22-2.11.62-.77 1.14-1.52 1.54-2.25a1.5 1.5 0 0 1 2.04-.59c.73.41.99 1.32.58 2.04-.49.89-1.1 1.79-1.83 2.69-.3.36-.73.55-1.17.55m-6.61 6.06a1.501 1.501 0 0 1-.89-2.71c.81-.6 1.59-1.2 2.29-1.79.64-.53 1.59-.45 2.12.19s.44 1.58-.2 2.11c-.75.63-1.57 1.27-2.43 1.9-.27.2-.58.3-.89.3m-7.55 4.88a1.502 1.502 0 0 1-.75-2.8c.88-.51 1.72-1.02 2.53-1.52.71-.43 1.63-.21 2.07.49.43.71.22 1.63-.49 2.07-.83.51-1.71 1.03-2.61 1.56-.24.13-.5.2-.75.2m-7.94 4.23c-.55 0-1.08-.31-1.35-.83a1.52 1.52 0 0 1 .68-2.02c.91-.45 1.79-.89 2.65-1.34.74-.38 1.64-.09 2.03.64.38.74.09 1.64-.65 2.02-.87.46-1.77.91-2.69 1.37-.22.11-.45.16-.67.16m-8.15 3.82c-.57 0-1.12-.34-1.37-.9-.34-.75 0-1.64.76-1.98.93-.41 1.83-.82 2.72-1.22.75-.35 1.64-.02 1.99.73.34.76.01 1.65-.74 1.99-.9.42-1.82.83-2.75 1.25-.2.08-.41.13-.61.13M83.86 96.38c-.58 0-1.13-.34-1.38-.91-.33-.76.02-1.64.78-1.97.91-.39 1.83-.78 2.78-1.18a1.5 1.5 0 0 1 1.96.8c.32.77-.04 1.65-.8 1.97-.94.39-1.85.78-2.75 1.17-.19.08-.39.12-.59.12m-8.18 3.74c-.56 0-1.09-.31-1.35-.84-.37-.74-.06-1.64.69-2 .88-.44 1.8-.87 2.73-1.3.75-.35 1.64-.03 1.99.72s.03 1.65-.72 1.99c-.92.43-1.82.86-2.69 1.28-.21.11-.43.15-.65.15m-7.97 4.19c-.52 0-1.02-.27-1.3-.75-.41-.72-.16-1.64.56-2.05.85-.49 1.73-.98 2.65-1.48.73-.39 1.64-.12 2.03.61.4.73.13 1.64-.6 2.04-.9.48-1.76.96-2.59 1.43-.24.14-.49.2-.75.2m-7.53 4.9c-.46 0-.91-.2-1.2-.6-.5-.66-.37-1.6.29-2.1.78-.58 1.62-1.18 2.51-1.78.68-.46 1.62-.28 2.08.4.46.69.28 1.62-.4 2.09-.85.57-1.65 1.14-2.38 1.69-.27.2-.59.3-.9.3m-6.44 6.23c-.3 0-.61-.09-.87-.28-.68-.48-.83-1.42-.35-2.09.58-.81 1.27-1.63 2.06-2.46a1.5 1.5 0 0 1 2.12-.05c.6.58.62 1.53.05 2.13-.69.72-1.29 1.43-1.79 2.13-.29.41-.75.62-1.22.62m-1.86 8.43a1.5 1.5 0 0 1-1.43-1.04c-.3-.93-.45-1.88-.45-2.83 0-.23.01-.46.03-.7.06-.83.79-1.44 1.6-1.38.83.06 1.45.78 1.39 1.61-.01.15-.02.31-.02.46q0 .975.3 1.92c.26.79-.18 1.63-.96 1.89-.16.05-.31.07-.46.07m5.7 6.75c-.29 0-.6-.09-.86-.27-.92-.65-1.76-1.33-2.49-2-.61-.56-.65-1.51-.09-2.12.57-.61 1.52-.64 2.12-.09.64.59 1.37 1.18 2.19 1.75.68.48.84 1.42.36 2.09-.29.42-.76.64-1.23.64m7.9 4.28c-.2 0-.4-.04-.6-.13-.97-.42-1.91-.85-2.78-1.29a1.48 1.48 0 0 1-.68-2 1.48 1.48 0 0 1 2-.68c.84.41 1.73.82 2.66 1.22.76.33 1.11 1.22.78 1.98-.25.56-.8.9-1.38.9"/></svg>