<svg xmlns="http://www.w3.org/2000/svg" width="248" height="181" viewBox="0 0 248 181"><title>无访问权限</title><g fill="none" fill-rule="evenodd"><path fill="#a3b1bf" fill-rule="nonzero" d="M78.312 84.156q1.372-.001 2.702-.155A49 49 0 0 0 80.65 90c0 4.95.733 9.73 2.096 14.236a4.67 4.67 0 0 0-3.264 4.465c0 2.582 2.077 4.676 4.64 4.676h2.441a49.2 49.2 0 0 0 6.588 9.351H63.446c-2.593 0-4.695-2.094-4.695-4.676s2.102-4.675 4.695-4.675h1.565c2.594 0 4.696-2.094 4.696-4.676s-2.102-4.675-4.696-4.675h-35.77c-2.593 0-4.696-2.093-4.696-4.675s2.103-4.676 4.696-4.676h27.846c2.593 0 4.696-2.093 4.696-4.675s-2.103-4.675-4.696-4.675h-4.06c-2.593 0-4.696-2.094-4.696-4.676s2.103-4.675 4.696-4.675h7.52c4.287 5.008 10.655 8.182 17.765 8.182m114.525 29.22c2.593 0 4.695 2.094 4.695 4.676s-2.102 4.675-4.695 4.675l-26.507.001a49.2 49.2 0 0 0 6.588-9.35zm9.246-19.87c2.005 0 3.631 2.094 3.631 4.676s-1.626 4.675-3.631 4.675l-24.953.001a49 49 0 0 0 1.578-9.352zm-12.377-17.532c2.594 0 4.696 2.093 4.696 4.675s-2.102 4.676-4.696 4.676l-11.095-.001a49 49 0 0 0-1.813-9.35zM54.936 60.779c0 2.018.255 3.977.736 5.845H44.664c-2.594 0-4.696-2.094-4.696-4.676s2.102-4.675 4.696-4.675h10.532a23.6 23.6 0 0 0-.26 3.506m122.249-3.506c2.593 0 4.695 2.093 4.695 4.675s-2.102 4.675-4.695 4.675h-4.267a49.2 49.2 0 0 0-6.587-9.35z" opacity=".15"/><path fill="#a3b1bf" fill-rule="nonzero" d="M170.82 16.557q-.077 0-.155-.007a53 53 0 0 0-3.385-.185 1.753 1.753 0 0 1-1.714-1.792c.021-.967.797-1.766 1.792-1.713 1.212.027 2.428.093 3.613.197a1.753 1.753 0 0 1-.15 3.5m10.294 2.028a1.8 1.8 0 0 1-.533-.083 43 43 0 0 0-3.246-.897 1.754 1.754 0 0 1 .801-3.413c1.19.28 2.372.606 3.511.968a1.754 1.754 0 0 1-.533 3.425m9.485 4.461a1.74 1.74 0 0 1-.957-.286 35 35 0 0 0-2.878-1.687 1.754 1.754 0 0 1 1.627-3.105c1.09.57 2.156 1.195 3.17 1.857a1.755 1.755 0 0 1-.962 3.221m7.75 7.042a1.75 1.75 0 0 1-1.382-.674 28 28 0 0 0-2.18-2.476 1.753 1.753 0 0 1 2.492-2.466 32 32 0 0 1 2.452 2.784 1.752 1.752 0 0 1-1.381 2.832m4.695 9.328c-.778 0-1.49-.523-1.696-1.312a22 22 0 0 0-1.048-3.071 1.753 1.753 0 1 1 3.227-1.37 26 26 0 0 1 1.214 3.556 1.753 1.753 0 0 1-1.697 2.197m.177 10.41q-.2 0-.404-.047a1.753 1.753 0 0 1-1.304-2.109 19 19 0 0 0 .47-3.173 1.754 1.754 0 1 1 3.5.223 23 23 0 0 1-.557 3.754 1.754 1.754 0 0 1-1.705 1.351m-4.768 9.263a1.755 1.755 0 0 1-1.336-2.89 22 22 0 0 0 1.917-2.614 1.752 1.752 0 1 1 2.976 1.854 26 26 0 0 1-2.221 3.033 1.75 1.75 0 0 1-1.336.617m-8.142 6.566a1.753 1.753 0 0 1-.864-3.281 33 33 0 0 0 2.81-1.775 1.753 1.753 0 1 1 2.027 2.862 36 36 0 0 1-3.114 1.968 1.75 1.75 0 0 1-.86.226m-9.716 3.964a1.753 1.753 0 0 1-.479-3.44 49 49 0 0 0 3.221-1.035 1.753 1.753 0 0 1 1.191 3.298 53 53 0 0 1-3.452 1.11q-.242.067-.48.067M77.05 85.958a1.754 1.754 0 0 1-.719-3.353 73 73 0 0 1 3.315-1.387 1.752 1.752 0 1 1 1.27 3.268c-1.07.417-2.132.861-3.15 1.318a1.75 1.75 0 0 1-.716.153m-9.162 5.107a1.752 1.752 0 0 1-.994-3.2 56 56 0 0 1 3.04-1.944 1.753 1.753 0 1 1 1.795 3.012 52 52 0 0 0-2.85 1.823 1.75 1.75 0 0 1-.99.309m-7.978 6.806a1.753 1.753 0 0 1-1.29-2.94q.543-.589 1.12-1.16.729-.721 1.482-1.41a1.753 1.753 0 1 1 2.365 2.59q-.703.64-1.381 1.313-.518.512-1.004 1.04a1.75 1.75 0 0 1-1.292.567m-5.686 8.783a1.752 1.752 0 0 1-1.616-2.431 31 31 0 0 1 1.64-3.333 1.754 1.754 0 0 1 3.048 1.735 28 28 0 0 0-1.456 2.952 1.75 1.75 0 0 1-1.616 1.077m-2.212 10.222h-.056a1.756 1.756 0 0 1-1.698-1.808c.04-1.239.153-2.484.339-3.7a1.753 1.753 0 1 1 3.466.53 27 27 0 0 0-.299 3.28 1.754 1.754 0 0 1-1.752 1.698m1.453 10.367c-.747 0-1.44-.482-1.672-1.232a35 35 0 0 1-.912-3.575 1.753 1.753 0 0 1 3.44-.685c.213 1.073.488 2.155.82 3.217a1.754 1.754 0 0 1-1.676 2.275m4.518 9.458a1.75 1.75 0 0 1-1.468-.793 42 42 0 0 1-1.872-3.141 1.753 1.753 0 0 1 3.09-1.66 39 39 0 0 0 1.714 2.88 1.753 1.753 0 0 1-1.464 2.714m6.736 8.044c-.436 0-.873-.162-1.212-.487a51 51 0 0 1-2.532-2.599 1.754 1.754 0 0 1 2.598-2.355 48 48 0 0 0 2.358 2.422 1.752 1.752 0 0 1-1.212 3.019m8.242 6.504c-.327 0-.66-.092-.956-.285a63 63 0 0 1-2.963-2.056 1.754 1.754 0 0 1 2.084-2.82 59 59 0 0 0 2.795 1.939 1.753 1.753 0 0 1-.96 3.222" opacity=".254"/><path fill="#a3b1bf" fill-rule="nonzero" d="M100.36 157.792h55.253L163.637 180h-71.3z" opacity=".249"/><path fill="#a3b1bf" fill-rule="nonzero" d="M80.339 149.61h43.868l7.871 22.208h-59.61z" opacity=".352"/><path fill="#a3b1bf" fill-rule="nonzero" d="M89.852 164.246v.028a1.5 1.5 0 0 1-1.504 1.503l-2.53-.006.006 2.53a1.5 1.5 0 0 1-1.503 1.504h-.028a1.5 1.5 0 0 1-1.497-1.497l-.005-2.545-2.544-.004a1.5 1.5 0 0 1-1.497-1.497v-.027a1.5 1.5 0 0 1 1.497-1.504h.007l2.53.005-.006-2.53a1.5 1.5 0 0 1 1.503-1.503h.028a1.5 1.5 0 0 1 1.497 1.497l.005 2.543 2.544.006a1.5 1.5 0 0 1 1.497 1.497M78.312 37.403c9.502 0 17.68 5.669 21.335 13.81l.495-.381a48.88 48.88 0 0 1 29.598-9.923c27.112 0 49.091 21.979 49.091 49.091 0 25.945-20.127 47.189-45.619 48.97l-3.472 3.627-3.449-3.625C100.788 137.202 80.65 115.952 80.65 90c0-2.083.13-4.136.382-6.15l-.019.15q-1.329.155-2.7.156c-12.91 0-23.377-10.466-23.377-23.377s10.466-23.376 23.377-23.376m51.428 7.035c-25.175 0-45.584 20.41-45.584 45.585s20.409 45.584 45.584 45.584 45.585-20.409 45.585-45.584-20.41-45.585-45.585-45.585M78.312 40.91c-10.974 0-19.87 8.896-19.87 19.87s8.896 19.87 19.87 19.87q1.678-.001 3.28-.27l.135-.655C83.92 69.428 89.34 60.327 96.879 53.53l-.045.04c-2.886-7.41-10.09-12.66-18.522-12.66"/><path fill="#a3b1bf" fill-rule="nonzero" d="M78.312 40.91c8.431 0 15.636 5.25 18.522 12.661-7.675 6.936-13.147 16.264-15.242 26.807a20 20 0 0 1-3.28.271c-10.974 0-19.87-8.896-19.87-19.87s8.896-19.87 19.87-19.87" opacity=".15"/><path fill="#a3b1bf" fill-rule="nonzero" d="M129.74 44.416c25.176 0 45.585 20.408 45.585 45.584s-20.41 45.584-45.585 45.584S84.156 115.176 84.156 90s20.409-45.584 45.584-45.584m0 3.506c-23.239 0-42.078 18.839-42.078 42.078s18.84 42.078 42.078 42.078c23.24 0 42.078-18.839 42.078-42.078S152.98 47.922 129.74 47.922" opacity=".248"/><g fill="#a3b1bf" fill-rule="nonzero"><path d="M129.229 64.991c7.127 0 13.156 4.696 15.158 11.16h.694v10.144h-5.113V76.15h.37a12.06 12.06 0 0 0-11.11-7.354 12.06 12.06 0 0 0-11.108 7.354h1.393v10.145h-6.136V76.15h.694c2.001-6.463 8.03-11.159 15.158-11.159" opacity=".251"/><path stroke="#a3b1bf" stroke-width="3" d="M129.229 63.448c4.445 0 8.477 1.753 11.431 4.6 2.859 2.756 4.708 6.537 4.942 10.746l.017.422.01 5.535h4.657c.69 0 1.315.28 1.767.733.408.407.675.954.724 1.563l.009.205v12.462c0 4.004-1.623 7.63-4.247 10.253a14.45 14.45 0 0 1-9.854 4.242l-.4.005h-17.09c-4.004 0-7.63-1.623-10.253-4.247a14.45 14.45 0 0 1-4.242-9.854l-.005-.399V87.252c0-.69.28-1.316.732-1.768a2.5 2.5 0 0 1 1.563-.724l.205-.008 3.636-.001v-5.535c.133-4.378 2.011-8.32 4.966-11.168a16.42 16.42 0 0 1 11.432-4.6Zm2.85 29.463-6.026.027-.183.035a2.43 2.43 0 0 0-1.546 1.105c-.302.49-.46 1.122-.345 1.846l1.769 7.456.067.245a3.6 3.6 0 0 0 2.606 2.428 3.52 3.52 0 0 0 2.681-.43c.744-.458 1.354-1.206 1.646-2.203l1.822-7.8.009-.192a2.5 2.5 0 0 0-.733-1.785 2.5 2.5 0 0 0-1.767-.732Zm-2.85-29.42a16.34 16.34 0 0 0-11.34 4.545c-2.959 2.834-4.843 6.765-4.99 11.132v5.583h6.068v-5.523l.022-.336a10.1 10.1 0 0 1 3.13-6.531 10.28 10.28 0 0 1 7.1-2.826c2.753 0 5.254 1.074 7.1 2.825a10.15 10.15 0 0 1 3.171 6.87v5.521h6.07l-.01-5.584-.02-.422a16.1 16.1 0 0 0-4.961-10.708 16.34 16.34 0 0 0-11.34-4.546Zm-.01 6.087a10.2 10.2 0 0 0-6.987 2.751 10.08 10.08 0 0 0-3.196 6.822l-.002 5.6h20.397l-.034-5.604-.024-.333a10.07 10.07 0 0 0-3.167-6.484 10.2 10.2 0 0 0-6.987-2.752Z"/></g><path fill="#a3b1bf" fill-rule="nonzero" d="M43.323 100.809v.027a1.5 1.5 0 0 1-1.503 1.504l-2.53-.006.005 2.53a1.5 1.5 0 0 1-1.503 1.503h-.028a1.5 1.5 0 0 1-1.496-1.496l-.005-2.545-2.544-.005a1.5 1.5 0 0 1-1.497-1.496v-.028a1.5 1.5 0 0 1 1.496-1.503h.007l2.53.005-.005-2.53a1.5 1.5 0 0 1 1.503-1.503h.028a1.5 1.5 0 0 1 1.496 1.497l.006 2.543 2.544.006a1.5 1.5 0 0 1 1.496 1.497M225.391 89.732v.028a1.5 1.5 0 0 1-1.503 1.503l-2.53-.006.005 2.53a1.5 1.5 0 0 1-1.503 1.504h-.028a1.5 1.5 0 0 1-1.496-1.497l-.006-2.545-2.544-.004a1.5 1.5 0 0 1-1.496-1.497v-.027a1.5 1.5 0 0 1 1.496-1.504h.007l2.53.005-.005-2.53a1.5 1.5 0 0 1 1.503-1.502h.028a1.5 1.5 0 0 1 1.496 1.496l.006 2.543 2.544.007a1.5 1.5 0 0 1 1.496 1.496M78.96 60.106l2.018 1.797-3.213 2.908c.526.967.825 2.081.825 3.266 0 3.716-2.94 6.728-6.568 6.728s-6.567-3.012-6.567-6.728 2.94-6.728 6.567-6.728a6.44 6.44 0 0 1 4.015 1.403zm-6.938 4.348c-1.953 0-3.536 1.622-3.536 3.623 0 2 1.583 3.623 3.536 3.623s3.536-1.622 3.536-3.623c0-2-1.583-3.623-3.536-3.623m11.194-21.238 4.392 4.391-2.144 2.144 2.006 2.005 3.076-2.813 1.792 1.574-8.925 8.161-1.792-1.573 4.356-3.984-1.941-1.941-2.144 2.143-4.391-4.391 2.143-2.144 2.196 2.196 1.429-1.429-2.196-2.196zM164.55 0l-20.784 18.334 21.039 6.211v-7.784l-11.432-.684 11.432-3.804z"/><circle cx="189.935" cy="124.481" r="4.929" stroke="#a3b1bf" stroke-width="3"/><circle cx="11.104" cy="23.961" r="4.929" stroke="#a3b1bf" stroke-width="3"/><circle cx="199.286" cy="167.727" r="1.422" stroke="#a3b1bf" stroke-width="3"/><circle cx="104.61" cy="25.13" r="1.422" stroke="#a3b1bf" stroke-width="3"/><circle cx="4.5" cy="136.5" r="3" stroke="#a3b1bf" stroke-width="3"/><circle cx="245.5" cy="143.5" r="1" stroke="#a3b1bf" stroke-width="3"/><path fill="#a0aebb" d="M170.42 17.146q-.209 0-.418-.05-1.629-.4-3.37-.773a1.754 1.754 0 0 1-1.346-2.082 1.76 1.76 0 0 1 2.083-1.346q1.791.385 3.465.794a1.754 1.754 0 0 1-.415 3.457m10.049 3.077c-.21 0-.423-.037-.63-.116a66 66 0 0 0-3.22-1.142 1.753 1.753 0 0 1 1.092-3.333c1.183.387 2.323.792 3.388 1.202a1.755 1.755 0 0 1-.63 3.39m9.267 4.893c-.368 0-.737-.115-1.054-.354a27 27 0 0 0-2.747-1.803 1.753 1.753 0 1 1 1.752-3.038 31 31 0 0 1 3.107 2.043 1.752 1.752 0 0 1-1.058 3.152m5.814 8.449a1.75 1.75 0 0 1-1.724-1.449 9.2 9.2 0 0 0-.972-2.764 1.75 1.75 0 0 1 .713-2.374 1.75 1.75 0 0 1 2.374.712 12.7 12.7 0 0 1 1.338 3.815 1.752 1.752 0 0 1-1.729 2.06m-2.395 9.977a1.752 1.752 0 0 1-1.503-2.65 19.7 19.7 0 0 0 1.424-2.87 1.752 1.752 0 1 1 3.265 1.277 23 23 0 0 1-1.678 3.388c-.328.55-.91.855-1.508.855m-6.667 8.086a1.754 1.754 0 0 1-1.218-3.014 54 54 0 0 0 2.366-2.43 1.753 1.753 0 1 1 2.592 2.36 56 56 0 0 1-2.522 2.592c-.34.328-.778.492-1.218.492m-8.042 6.767a1.753 1.753 0 0 1-1.052-3.157q1.417-1.062 2.724-2.11a1.754 1.754 0 0 1 2.196 2.733q-1.35 1.086-2.818 2.185c-.315.235-.685.35-1.05.35m-8.665 5.96a1.753 1.753 0 0 1-.944-3.231q1.491-.953 2.903-1.896a1.753 1.753 0 1 1 1.95 2.915q-1.443.965-2.968 1.938a1.75 1.75 0 0 1-.941.274m-96.016 42.521a1.755 1.755 0 0 1-.665-3.377q1.603-.655 3.277-1.314a1.753 1.753 0 1 1 1.284 3.263q-1.652.649-3.232 1.296a1.8 1.8 0 0 1-.664.132m-9.628 4.234a1.755 1.755 0 0 1-.754-3.338q1.563-.742 3.217-1.486a1.753 1.753 0 1 1 1.438 3.198q-1.62.728-3.15 1.455c-.242.116-.498.17-.75.17m-9.312 4.884a1.754 1.754 0 0 1-.889-3.267q1.489-.873 3.108-1.748a1.753 1.753 0 1 1 1.669 3.083 102 102 0 0 0-3.003 1.69 1.74 1.74 0 0 1-.885.242m-8.662 5.945a1.752 1.752 0 0 1-1.12-3.102 53 53 0 0 1 2.868-2.215 1.754 1.754 0 1 1 2.051 2.845c-.957.69-1.86 1.386-2.68 2.067a1.75 1.75 0 0 1-1.119.405m-6.81 7.915a1.754 1.754 0 0 1-1.56-2.55 20.6 20.6 0 0 1 2.062-3.22 1.753 1.753 0 0 1 2.775 2.144c-.69.893-1.267 1.791-1.714 2.669-.31.606-.925.957-1.564.957m-.46 10.123c-.68 0-1.328-.397-1.613-1.063a13.6 13.6 0 0 1-1.034-3.863 1.753 1.753 0 1 1 3.485-.385c.104.95.365 1.914.773 2.869a1.753 1.753 0 0 1-1.611 2.442m6.6 8.05c-.392 0-.785-.13-1.111-.397a35 35 0 0 1-2.73-2.482 1.752 1.752 0 1 1 2.498-2.459c.73.741 1.556 1.491 2.456 2.229a1.755 1.755 0 0 1-1.114 3.11m8.763 5.788c-.286 0-.578-.07-.845-.218a79 79 0 0 1-3.101-1.801 1.754 1.754 0 0 1 1.833-2.99 75 75 0 0 0 2.961 1.72 1.754 1.754 0 0 1-.848 3.29m9.456 4.599a1.7 1.7 0 0 1-.698-.146q-1.672-.726-3.24-1.457a1.752 1.752 0 1 1 1.48-3.179q1.527.712 3.157 1.419a1.754 1.754 0 0 1-.7 3.363m9.773 3.888c-.2 0-.404-.035-.604-.107q-1.694-.623-3.309-1.245a1.754 1.754 0 0 1 1.262-3.272q1.589.613 3.256 1.224a1.754 1.754 0 0 1-.605 3.4"/></g></svg>