<svg xmlns="http://www.w3.org/2000/svg" width="506" height="172" fill="none" viewBox="0 0 506 172"><path fill="#a3b1bf" fill-rule="evenodd" d="M127.424 55.575c-.817-1.132-1.986-2.11-3.465-2.11-.615 0-1.418.135-1.983.371l-.689.353-.167-.725c-.478-1.857-2.565-3.57-4.78-3.57-1.9 0-3.693.923-4.447 2.599l-.207.462q-1.21-.12-1.412-.12c-1.467 0-2.356 1.372-2.514 2.74zm-11.168-7.915a7.03 7.03 0 0 1 6.172 3.704q.413-.05.83-.05A6.67 6.67 0 0 1 129.646 56l.028.09v1.582H91.931v-2.098h13.68a5.183 5.183 0 0 1 4.863-4.862 6.95 6.95 0 0 1 5.782-3.053m-18.24 3.653v2.062H85.838v-2.062zM41.585 124.951c-.817-1.132-1.985-2.111-3.465-2.111-.614 0-1.418.136-1.982.372l-.69.353-.166-.725c-.478-1.857-2.566-3.57-4.781-3.57-1.9 0-3.692.923-4.446 2.599l-.208.462q-1.21-.12-1.412-.12c-1.466 0-2.355 1.372-2.513 2.74zm-11.167-7.915a7.03 7.03 0 0 1 6.171 3.704 7 7 0 0 1 .83-.051 6.67 6.67 0 0 1 6.389 4.688l.028.089v1.583H6.092v-2.098h13.68a5.183 5.183 0 0 1 4.864-4.862 6.95 6.95 0 0 1 5.782-3.053m-18.241 3.653v2.062H0v-2.062zM503.585 124.951c-.817-1.132-1.985-2.111-3.465-2.111-.614 0-1.418.136-1.982.372l-.69.353-.166-.725c-.478-1.857-2.566-3.57-4.781-3.57-1.899 0-3.692.923-4.446 2.599l-.208.462q-1.21-.12-1.412-.12c-1.466 0-2.355 1.372-2.513 2.74zm-11.167-7.915a7.03 7.03 0 0 1 6.171 3.704q.413-.051.83-.051a6.675 6.675 0 0 1 6.389 4.688l.028.089v1.583h-37.744v-2.098h13.68a5.184 5.184 0 0 1 4.864-4.862 6.95 6.95 0 0 1 5.782-3.053m-18.241 3.653v2.062H462v-2.062z" clip-rule="evenodd"/><path stroke="url(#a)" stroke-linecap="round" stroke-width="3" d="M411.618 22.214Q386.51 67.319 340.445 47.27c-58.299-26.803 36.79-68.792 7.494 4.442-10.146 25.363-38.368 39.199-82.611 30.571"/><path fill="#a3b1bf" stroke="#a3b1bf" d="M362 69.986c.671 0 1.214-.543 1.214-1.214V67.25a1.214 1.214 0 1 0-2.428 0v1.522c0 .67.544 1.214 1.214 1.214Zm0 12.1c-.67 0-1.214.544-1.214 1.214v1.522a1.214 1.214 0 0 0 2.428 0V83.3c0-.67-.543-1.213-1.214-1.213Zm8.786-7.264h-1.522a1.214 1.214 0 0 0 0 2.428h1.522a1.214 1.214 0 1 0 0-2.428Zm-14.836 1.214c0-.67-.544-1.214-1.214-1.214h-1.522a1.214 1.214 0 0 0 0 2.428h1.522c.67 0 1.214-.543 1.214-1.214Zm12.045 4.279a1.214 1.214 0 0 0-1.717 1.716l1.077 1.076a1.209 1.209 0 0 0 1.716 0 1.21 1.21 0 0 0 0-1.716zm-11.991-8.557a1.213 1.213 0 0 0 1.718 0 1.215 1.215 0 0 0 0-1.716l-1.076-1.077a1.215 1.215 0 0 0-1.717 1.716zm.001 8.557-1.076 1.076a1.214 1.214 0 1 0 1.717 1.716l1.076-1.076a1.214 1.214 0 1 0-1.717-1.716Zm11.132-8.201c.31 0 .622-.118.859-.356l1.076-1.076a1.214 1.214 0 1 0-1.718-1.717l-1.076 1.076a1.214 1.214 0 0 0 .859 2.073Z" opacity=".403"/><path fill="#a3b1bf" d="M403.225 20.526a1.5 1.5 0 0 1-1.06 1.837l-2.416.646.648 2.415a1.5 1.5 0 0 1-2.898.777l-.647-2.416-2.415.648a1.5 1.5 0 0 1-.776-2.898l2.415-.647-.647-2.415a1.5 1.5 0 1 1 2.897-.776l.647 2.415 2.415-.647a1.5 1.5 0 0 1 1.837 1.06M183.617 110.391a1.5 1.5 0 0 1-.761 1.981l-2.284 1.016 1.017 2.284a1.5 1.5 0 0 1-2.74 1.221l-1.017-2.285-2.284 1.018a1.5 1.5 0 0 1-1.22-2.741l2.284-1.017-1.017-2.284a1.5 1.5 0 1 1 2.74-1.22l1.017 2.284 2.284-1.017a1.5 1.5 0 0 1 1.981.76" opacity=".403"/><path fill="#a3b1bf" d="M256.895 72.094c-2.35 2.088-2.84 1.986-2.84 1.986-2.437-2.88-7.321-4.388-11.357-3.544-5.37 1.123-7.698 7.73-14.931 8.328-1.687.139 10.016 9.054 18.391 7.737 6.121-.966 8.702-5.984 9.164-7.569.414-1.438.184-2.884.184-2.884 2.173-1.432 2.93-2.406 2.93-2.406.643-.605-.748-2.352-1.541-1.648m-2.962 4.715c-6.938 5.493-18.101 3.583-18.101 3.583s8.676.057 16.922-5.356c.378.302 1.171 1.355 1.179 1.773"/><path fill="#a3b1bf" fill-rule="evenodd" d="M284.037 104.222a.47.47 0 0 0-.782.051c-1.365 2.39-3.133 3.214-4.692 3.941-1.021.475-1.985.925-2.703 1.74-.801.91-1.175 2.138-1.175 3.863 0 .661.055 1.394.165 2.214-2.06.496-3.85.21-3.85.21v1.878a14.4 14.4 0 0 0 5.595-1.126 10 10 0 0 0 2.55-1.434c3.415-2.636 4.518-6.829 4.518-6.829 0 4.482-3.266 8.368-7.433 9.76 1.282.408 2.472.588 3.549.538 1.21-.057 2.282-.403 3.188-1.031 1.927-1.333 3.033-3.917 3.033-7.087 0-2.563-.734-5.063-1.963-6.688" clip-rule="evenodd"/><path fill="#a3b1bf" d="m310.611 108.854 8.232 23h-8.232zM206.964 45.686l-1 78-24.937-67.46zm71.75-26 5.31 14h-43.229z" opacity=".15"/><path fill="#a3b1bf" fill-rule="evenodd" d="M205 32.036h32.82l41.715-15.182 5.502 15.182H312l-.001 74.378 10.015 27.622-10.172-.001H309V35.036H208v98.999l-3 .001v-8.298l-26.157-72.236L205 43.982zm107 81.676v16.324h6.022zm-107-66.38-22.088 8.04L205 115.98zm76.875-15.296-4.123-11.182-30.726 11.182z" clip-rule="evenodd"/><path fill="#a3b1bf" fill-rule="evenodd" d="m206.212 99.551.833 2.288-2.389.87-.833-2.289zm.534-13.152.833 2.288-7.087 2.58-.833-2.289zM205.4 73.93l.833 2.289-9.906 3.605-.833-2.288zm-8.553-12.498a3.653 3.653 0 1 1 2.499 6.866 3.653 3.653 0 0 1-2.499-6.866" clip-rule="evenodd" opacity=".477"/><path fill="#a3b1bf" d="M211 134.036h-3v-99h101v99h-3v-96h-95z" opacity=".248"/><path fill="#a3b1bf" d="M233 124.036h66v3h-80v-3h11v-21h-11v-3h11v-9h-11v-3h11v-9h-11v-3h11v-9h-11v-3h11v-19h3v7h66v3h-66v9h66v3h-66v9h5v3h-5v9h66v3h-66v9h66v3h-66v9h43v3h-43zm66-12v3h-14v-3zm0-36v3h-44v-3z" opacity=".248"/><path stroke="#a3b1bf" stroke-width="3" d="M223 55.536a2.5 2.5 0 1 0 0-5 2.5 2.5 0 0 0 0 5ZM223 116.536a2.5 2.5 0 1 0 0-5 2.5 2.5 0 0 0 0 5Z" opacity=".3"/><path fill="url(#b)" d="M205 130.036h-51v4h51z"/><path fill="url(#c)" d="M364 130.036h-45v4h45z"/><defs><linearGradient id="a" x1="406.912" x2="350.983" y1="46.422" y2="82.738" gradientUnits="userSpaceOnUse"><stop stop-color="#a3b1bf" stop-opacity="0"/><stop offset="1" stop-color="#a3b1bf"/></linearGradient><linearGradient id="b" x1="154" x2="205" y1="132.036" y2="132.036" gradientUnits="userSpaceOnUse"><stop stop-color="#a3b1bf" stop-opacity="0"/><stop offset="1" stop-color="#a3b1bf"/></linearGradient><linearGradient id="c" x1="364" x2="320.247" y1="132.036" y2="132.036" gradientUnits="userSpaceOnUse"><stop stop-color="#a3b1bf" stop-opacity="0"/><stop offset="1" stop-color="#a3b1bf"/></linearGradient></defs></svg>