<svg xmlns="http://www.w3.org/2000/svg" width="831" height="821" viewBox="0 0 831 821"><path fill="#a3b1bf" fill-opacity=".396" fill-rule="evenodd" d="M424.6 254.06h-.04c-1.98-.05-3.97-.07-5.94-.05h-.02c-.82 0-1.49-.66-1.5-1.49s.66-1.5 1.48-1.51q3.045-.03 6.06.06a1.494 1.494 0 0 1-.04 2.99m-17.98.5c-.77 0-1.43-.59-1.5-1.37-.06-.83.55-1.55 1.37-1.62 2-.17 4.03-.3 6.05-.4.8-.04 1.52.61 1.56 1.43a1.5 1.5 0 0 1-1.43 1.57c-1.97.09-3.97.22-5.92.39zm29.95.29h-.16c-1.94-.21-3.94-.38-5.92-.51-.83-.05-1.45-.77-1.4-1.59.06-.83.78-1.46 1.6-1.4 2.02.13 4.05.31 6.03.51.83.09 1.42.82 1.34 1.65-.08.77-.73 1.34-1.49 1.34m-41.86 1.17c-.72 0-1.36-.53-1.47-1.26a1.49 1.49 0 0 1 1.24-1.72c1.97-.32 3.99-.61 5.99-.85.83-.09 1.57.48 1.67 1.31.1.82-.48 1.57-1.3 1.67-1.97.24-3.95.52-5.89.83-.08.01-.16.02-.24.02m53.73.53q-.135 0-.27-.03c-1.93-.35-3.9-.67-5.86-.95a1.5 1.5 0 0 1-1.28-1.69c.12-.82.87-1.39 1.7-1.28 2 .29 4.01.61 5.98.97.81.15 1.35.93 1.21 1.74-.13.73-.77 1.24-1.48 1.24m-65.49 1.83c-.67 0-1.29-.46-1.45-1.15-.2-.81.3-1.62 1.11-1.81 1.95-.47 3.93-.91 5.91-1.3a1.499 1.499 0 0 1 .59 2.94c-1.94.39-3.89.82-5.8 1.28-.12.02-.24.04-.36.04m77.2.76c-.12 0-.25-.02-.38-.05-1.92-.5-3.86-.97-5.77-1.4a1.5 1.5 0 0 1 .64-2.93c1.96.44 3.94.91 5.89 1.42a1.506 1.506 0 0 1-.38 2.96m-88.74 2.49c-.63 0-1.22-.41-1.43-1.04-.25-.79.18-1.63.97-1.89 1.9-.61 3.85-1.2 5.8-1.75.79-.23 1.62.24 1.85 1.04.22.79-.24 1.62-1.04 1.85-1.91.53-3.83 1.11-5.69 1.71-.15.05-.31.08-.46.08m100.22.98c-.16 0-.33-.02-.49-.08-1.87-.64-3.77-1.26-5.65-1.83-.8-.24-1.24-1.08-1-1.87s1.07-1.24 1.87-1c1.92.58 3.86 1.21 5.76 1.86.78.27 1.2 1.13.93 1.91-.22.62-.8 1.01-1.42 1.01m-111.51 3.15c-.59 0-1.15-.35-1.39-.93-.32-.77.05-1.64.82-1.96 1.87-.76 3.77-1.5 5.66-2.19.78-.29 1.64.11 1.92.89.29.78-.11 1.64-.89 1.92-1.85.68-3.72 1.41-5.55 2.16-.19.07-.38.11-.57.11m122.67 1.19c-.2 0-.4-.04-.59-.12-1.81-.78-3.65-1.54-5.48-2.25-.78-.3-1.16-1.17-.86-1.95.3-.77 1.17-1.15 1.94-.85 1.87.73 3.75 1.5 5.59 2.3.76.32 1.11 1.21.78 1.97-.25.56-.8.9-1.38.9m-133.61 3.79c-.55 0-1.08-.3-1.34-.82-.37-.74-.08-1.64.66-2.02 1.79-.9 3.63-1.78 5.48-2.62.75-.34 1.64-.01 1.98.75.35.75.01 1.64-.74 1.98-1.81.83-3.61 1.69-5.37 2.57-.21.11-.44.16-.67.16m144.4 1.38c-.23 0-.47-.05-.7-.17-1.74-.92-3.52-1.82-5.29-2.66a1.5 1.5 0 1 1 1.29-2.71c1.81.86 3.62 1.78 5.4 2.72.74.38 1.02 1.29.63 2.02-.27.51-.79.8-1.33.8m-154.92 4.42c-.51 0-1-.25-1.29-.72-.42-.71-.19-1.63.51-2.06 1.72-1.03 3.48-2.05 5.26-3.03a1.5 1.5 0 0 1 2.04.59c.4.72.13 1.64-.59 2.04-1.74.96-3.48 1.96-5.16 2.97-.24.14-.51.21-.77.21m-10.04 6.58a1.496 1.496 0 0 1-.87-2.72c1.64-1.17 3.32-2.32 5-3.42.69-.45 1.62-.26 2.08.44.45.69.26 1.62-.44 2.07-1.64 1.08-3.29 2.21-4.91 3.36-.26.18-.56.27-.86.27m-9.52 7.32c-.43 0-.86-.18-1.15-.54-.53-.64-.45-1.58.19-2.11 1.55-1.29 3.15-2.56 4.73-3.79.66-.5 1.6-.38 2.11.28.5.65.38 1.6-.28 2.1-1.56 1.2-3.12 2.45-4.64 3.72-.28.23-.62.34-.96.34m204.12 1.9c-.35 0-.7-.13-.98-.37-1.5-1.3-3.04-2.57-4.57-3.79-.65-.52-.75-1.46-.24-2.11.52-.65 1.46-.75 2.11-.24 1.56 1.25 3.13 2.55 4.66 3.87.63.54.69 1.49.15 2.12-.29.34-.71.52-1.13.52m-213.05 6.11c-.39 0-.78-.15-1.08-.45a1.5 1.5 0 0 1 .04-2.12c1.44-1.4 2.93-2.79 4.43-4.13.61-.55 1.56-.5 2.12.11.55.62.5 1.57-.12 2.12-1.47 1.32-2.93 2.68-4.35 4.05-.29.28-.66.42-1.04.42m-8.3 8.66c-.35 0-.71-.12-.99-.37-.62-.56-.68-1.5-.13-2.12 1.35-1.51 2.73-3.01 4.11-4.45a1.5 1.5 0 1 1 2.16 2.08c-1.35 1.41-2.71 2.88-4.02 4.36-.3.33-.71.5-1.13.5m-7.61 9.26c-.32 0-.64-.1-.91-.31-.66-.5-.79-1.44-.29-2.1 1.22-1.6 2.48-3.19 3.76-4.74.53-.64 1.47-.73 2.11-.21.64.53.73 1.47.21 2.11-1.26 1.52-2.5 3.09-3.69 4.66-.29.39-.74.59-1.19.59m-6.89 9.8c-.29 0-.57-.08-.82-.24a1.51 1.51 0 0 1-.44-2.08c1.08-1.67 2.22-3.36 3.38-5.01.48-.68 1.41-.84 2.09-.36s.84 1.41.36 2.09c-1.13 1.62-2.25 3.27-3.32 4.92-.28.44-.76.68-1.25.68m-6.13 10.29q-.375 0-.72-.18c-.73-.4-1-1.31-.6-2.04.96-1.76 1.96-3.52 2.99-5.25a1.51 1.51 0 0 1 2.06-.52c.71.42.94 1.34.52 2.05-1.01 1.7-2 3.43-2.94 5.16-.27.49-.78.78-1.31.78m-5.33 10.71c-.21 0-.41-.04-.62-.13a1.5 1.5 0 0 1-.75-1.98c.83-1.83 1.7-3.67 2.59-5.46.37-.74 1.27-1.05 2.01-.68s1.04 1.27.67 2.01c-.87 1.76-1.72 3.57-2.53 5.36-.25.56-.8.88-1.37.88m-4.5 11.11q-.255 0-.51-.09a1.5 1.5 0 0 1-.9-1.92c.68-1.89 1.41-3.79 2.17-5.66.31-.77 1.18-1.14 1.95-.82.77.31 1.14 1.18.83 1.95-.75 1.83-1.46 3.7-2.13 5.55-.22.61-.8.99-1.41.99m-9.22 46.9h-.07c-.82-.04-1.47-.74-1.43-1.57.08-1.99.21-4.02.37-6.04.06-.83.81-1.42 1.61-1.37.83.06 1.45.78 1.38 1.61-.16 1.98-.28 3.98-.36 5.93-.04.81-.7 1.44-1.5 1.44m315.81 3.1c-.81 0-1.48-.65-1.5-1.47-.05-1.97-.13-3.97-.25-5.93a1.5 1.5 0 0 1 1.41-1.59c.85-.07 1.54.58 1.59 1.4.12 2.01.2 4.04.25 6.05.02.83-.64 1.52-1.47 1.54zm-315.88 8.89c-.8 0-1.47-.64-1.5-1.45-.05-1.72-.08-3.47-.08-5.22v-.83c.01-.83.68-1.5 1.5-1.5h.01c.83 0 1.5.68 1.49 1.51v.82c0 1.72.03 3.44.08 5.12.03.83-.62 1.52-1.45 1.55zm315.71 3.1h-.08c-.83-.04-1.46-.75-1.42-1.57.1-1.97.17-3.96.19-5.94.02-.83.69-1.48 1.5-1.48h.03c.82.01 1.49.69 1.47 1.52-.02 2.02-.09 4.05-.19 6.05-.04.8-.71 1.42-1.5 1.42m-1.07 11.95c-.06 0-.13-.01-.19-.01-.82-.11-1.4-.86-1.3-1.68.25-1.96.47-3.95.64-5.91.08-.82.8-1.43 1.63-1.36.83.08 1.43.8 1.36 1.63-.18 2-.4 4.02-.65 6.02-.1.76-.75 1.31-1.49 1.31m-1.97 11.83q-.15 0-.3-.03c-.82-.17-1.34-.96-1.17-1.77.4-1.93.76-3.9 1.09-5.84.13-.82.91-1.37 1.72-1.24.82.14 1.37.91 1.24 1.73-.33 1.98-.71 3.98-1.11 5.95-.15.71-.77 1.2-1.47 1.2m-2.87 11.64c-.14 0-.27-.01-.41-.05a1.5 1.5 0 0 1-1.03-1.86c.55-1.91 1.06-3.84 1.53-5.74.2-.8 1-1.3 1.82-1.1a1.5 1.5 0 0 1 1.09 1.82c-.47 1.94-1 3.9-1.56 5.85-.19.66-.79 1.08-1.44 1.08m-3.75 11.4c-.17 0-.35-.03-.52-.1a1.495 1.495 0 0 1-.88-1.93c.68-1.84 1.34-3.73 1.96-5.6.26-.79 1.11-1.22 1.89-.96.79.26 1.22 1.11.96 1.9-.63 1.91-1.3 3.83-2 5.71-.23.6-.8.98-1.41.98m-292.91 8.28c-.57 0-1.12-.33-1.37-.9-.81-1.84-1.59-3.73-2.33-5.6-.3-.77.08-1.64.85-1.94.77-.31 1.64.07 1.94.84.72 1.84 1.49 3.69 2.29 5.5.33.76-.02 1.65-.77 1.98-.2.08-.4.12-.61.12m288.32 2.76c-.21 0-.43-.04-.63-.14a1.5 1.5 0 0 1-.73-1.99c.82-1.78 1.62-3.61 2.38-5.42a1.49 1.49 0 0 1 1.96-.81c.76.32 1.12 1.19.81 1.96-.78 1.85-1.59 3.71-2.43 5.53-.25.55-.8.87-1.36.87m-283.07 8.06c-.54 0-1.06-.29-1.33-.8-.94-1.77-1.87-3.59-2.75-5.41-.36-.74-.05-1.64.7-2 .74-.36 1.64-.05 2 .7.87 1.78 1.77 3.56 2.7 5.3.39.73.11 1.64-.62 2.03-.22.12-.46.18-.7.18m277.64 2.61c-.25 0-.5-.06-.73-.19-.72-.4-.98-1.32-.58-2.04.96-1.72 1.9-3.48 2.79-5.23a1.5 1.5 0 0 1 2.02-.66c.74.37 1.03 1.28.65 2.02-.91 1.79-1.86 3.58-2.84 5.33-.27.49-.78.77-1.31.77m-6.22 10.23c-.28 0-.57-.08-.82-.25-.7-.45-.89-1.39-.43-2.08 1.08-1.63 2.15-3.32 3.18-5.01.43-.7 1.35-.93 2.06-.5s.93 1.35.5 2.06c-1.04 1.72-2.13 3.44-3.24 5.11-.29.43-.76.67-1.25.67m-6.98 9.74c-.32 0-.65-.1-.92-.32-.65-.5-.77-1.45-.27-2.1 1.21-1.55 2.4-3.15 3.55-4.76.49-.67 1.42-.83 2.1-.34.67.48.83 1.42.34 2.09-1.17 1.64-2.39 3.27-3.62 4.85-.29.38-.73.58-1.18.58m-7.7 9.19a1.502 1.502 0 0 1-1.11-2.51c1.31-1.45 2.62-2.96 3.9-4.48.53-.63 1.47-.72 2.11-.18.63.53.72 1.47.19 2.11-1.31 1.55-2.64 3.09-3.98 4.56-.29.33-.7.5-1.11.5m-8.38 8.58c-.39 0-.79-.16-1.08-.47a1.5 1.5 0 0 1 .05-2.12c1.42-1.35 2.84-2.75 4.23-4.17a1.5 1.5 0 0 1 2.12-.03c.59.58.6 1.53.03 2.13-1.42 1.44-2.86 2.87-4.31 4.25-.29.27-.66.41-1.04.41m-210.9 6.07c-.34 0-.68-.11-.97-.35a175 175 0 0 1-4.54-4c-.61-.56-.65-1.51-.09-2.12a1.51 1.51 0 0 1 2.12-.1c1.44 1.33 2.94 2.65 4.45 3.93a1.493 1.493 0 0 1-.97 2.64m201.9 1.86c-.43 0-.86-.19-1.16-.55-.52-.64-.43-1.58.21-2.11 1.53-1.25 3.06-2.54 4.54-3.85a1.503 1.503 0 0 1 1.98 2.26c-1.51 1.32-3.06 2.64-4.62 3.91-.28.23-.61.34-.95.34m-192.46 5.54c-.31 0-.62-.09-.88-.29-1.63-1.18-3.26-2.4-4.83-3.64-.65-.51-.77-1.45-.26-2.11.51-.65 1.46-.76 2.11-.25 1.55 1.21 3.14 2.42 4.74 3.57a1.503 1.503 0 0 1-.88 2.72m182.88 1.7c-.47 0-.94-.23-1.23-.65-.47-.68-.31-1.61.37-2.09 1.62-1.12 3.24-2.3 4.82-3.49.66-.5 1.6-.37 2.1.3.5.66.37 1.6-.3 2.1-1.6 1.21-3.25 2.41-4.9 3.56-.26.18-.56.27-.86.27m-172.93 4.96c-.26 0-.54-.07-.78-.22-1.71-1.06-3.43-2.16-5.09-3.27-.69-.46-.87-1.39-.41-2.08s1.39-.87 2.08-.41c1.63 1.09 3.31 2.17 4.99 3.2.71.43.93 1.36.49 2.06-.28.46-.77.72-1.28.72m162.83 1.52c-.52 0-1.02-.26-1.3-.73-.42-.72-.18-1.64.54-2.06 1.7-1 3.4-2.05 5.06-3.12.7-.44 1.63-.24 2.07.45.45.7.25 1.63-.45 2.08a178 178 0 0 1-5.16 3.18c-.24.14-.5.2-.76.2m-152.4 4.36a1.4 1.4 0 0 1-.68-.17c-1.79-.92-3.58-1.88-5.32-2.86a1.502 1.502 0 0 1 1.47-2.62c1.71.97 3.47 1.91 5.22 2.82.74.38 1.03 1.28.65 2.02-.27.51-.79.81-1.34.81m141.83 1.35c-.56 0-1.09-.31-1.35-.84a1.5 1.5 0 0 1 .68-2.01c1.77-.86 3.55-1.78 5.3-2.72.73-.4 1.63-.13 2.03.6.39.73.12 1.64-.61 2.04-1.78.96-3.6 1.89-5.39 2.77-.22.11-.44.16-.66.16m-130.99 3.72c-.19 0-.39-.04-.58-.12-1.85-.78-3.7-1.6-5.52-2.45a1.495 1.495 0 0 1-.72-2c.35-.75 1.24-1.07 1.99-.72 1.78.84 3.6 1.65 5.41 2.41.77.32 1.12 1.2.8 1.96-.24.58-.8.92-1.38.92m120 1.16c-.59 0-1.16-.36-1.39-.94-.31-.77.07-1.64.83-1.95 1.84-.74 3.68-1.51 5.49-2.32.76-.33 1.64.01 1.98.76.34.76 0 1.65-.76 1.98-1.84.82-3.72 1.62-5.59 2.36-.19.08-.37.11-.56.11m-108.8 3.08c-.15 0-.31-.03-.47-.08-1.91-.64-3.83-1.33-5.71-2.03-.77-.3-1.16-1.16-.87-1.94.29-.77 1.16-1.16 1.93-.87 1.84.69 3.73 1.37 5.6 1.99.79.27 1.21 1.12.95 1.9-.21.63-.8 1.03-1.43 1.03m97.47.95a1.498 1.498 0 0 1-.45-2.93c1.89-.59 3.79-1.23 5.65-1.89.78-.28 1.64.13 1.92.91s-.13 1.64-.91 1.92c-1.9.67-3.84 1.32-5.76 1.92-.15.05-.3.07-.45.07m-85.95 2.42c-.13 0-.25-.02-.37-.05-1.95-.49-3.92-1.02-5.84-1.59-.8-.23-1.26-1.07-1.02-1.86a1.5 1.5 0 0 1 1.86-1.02c1.89.56 3.82 1.08 5.73 1.56a1.502 1.502 0 0 1-.36 2.96m74.37.72c-.68 0-1.3-.46-1.46-1.16-.18-.81.32-1.61 1.13-1.8 1.91-.44 3.85-.93 5.76-1.44.8-.22 1.62.25 1.84 1.05.21.8-.26 1.63-1.06 1.84-1.94.53-3.92 1.02-5.87 1.48-.11.02-.23.03-.34.03m-62.64 1.76c-.08 0-.17-.01-.26-.02-1.96-.34-3.96-.72-5.94-1.14-.81-.17-1.33-.97-1.16-1.78s.97-1.33 1.78-1.16c1.94.41 3.91.79 5.83 1.12.82.14 1.37.91 1.23 1.73-.13.73-.76 1.25-1.48 1.25m50.86.49c-.73 0-1.37-.53-1.48-1.27-.13-.82.44-1.58 1.26-1.71 1.94-.29 3.91-.63 5.85-1 .81-.15 1.6.38 1.76 1.19.15.82-.38 1.6-1.2 1.76-1.98.37-3.99.72-5.96 1.02-.08.01-.15.01-.23.01m-38.97 1.09c-.05 0-.1 0-.14-.01-1.99-.18-4.02-.41-6.02-.68a1.498 1.498 0 1 1 .39-2.97c1.97.26 3.96.48 5.91.67.82.07 1.43.81 1.35 1.63-.07.78-.73 1.36-1.49 1.36m27.05.26c-.77 0-1.43-.6-1.49-1.39-.06-.82.56-1.54 1.38-1.6 1.97-.15 3.96-.34 5.92-.56.81-.1 1.56.5 1.66 1.32.09.83-.5 1.57-1.32 1.66-2 .23-4.03.42-6.03.57zm-15.08.42h-.03c-2-.04-4.04-.12-6.05-.23-.82-.05-1.46-.76-1.41-1.58.05-.83.77-1.46 1.58-1.41 1.97.11 3.97.18 5.94.22.83.02 1.49.7 1.47 1.53-.01.82-.68 1.47-1.5 1.47m3.1.03c-.83 0-1.5-.67-1.5-1.5s.67-1.5 1.5-1.5c1.98 0 3.98-.04 5.94-.11.81-.05 1.52.61 1.56 1.44.03.83-.62 1.53-1.45 1.56-1.99.07-4.03.11-6.05.11M415.26 3.03a1.5 1.5 0 0 1-.02-3q2.4-.03 4.8-.03h1.22c.83 0 1.5.68 1.5 1.51 0 .82-.67 1.49-1.5 1.49h-1.21q-2.4 0-4.77.03zm17.98.18h-.05c-1.98-.06-3.97-.11-5.96-.15-.83-.01-1.49-.69-1.47-1.52a1.5 1.5 0 0 1 1.5-1.48h.02c2.01.04 4.01.09 6.01.15.83.03 1.48.72 1.45 1.55-.02.81-.69 1.45-1.5 1.45m-29.98.13c-.8 0-1.46-.64-1.49-1.44-.04-.83.61-1.53 1.43-1.56 2.01-.08 4.01-.15 6.02-.2.83-.03 1.52.63 1.54 1.46s-.63 1.52-1.46 1.54c-1.99.05-3.99.12-5.97.2zm41.97.42h-.09c-1.99-.12-3.98-.23-5.97-.32a1.5 1.5 0 0 1-1.43-1.57c.04-.82.76-1.45 1.57-1.43 2.01.1 4.01.2 6.01.33.83.05 1.46.76 1.41 1.58a1.5 1.5 0 0 1-1.5 1.41M391.28 4c-.78 0-1.43-.61-1.49-1.4a1.5 1.5 0 0 1 1.39-1.6c2-.14 4-.26 6.01-.37.83-.04 1.54.58 1.58 1.41.05.83-.59 1.54-1.41 1.58-2 .11-3.99.23-5.97.37-.03 0-.07.01-.11.01m65.91.67c-.04 0-.09-.01-.13-.01-1.98-.18-3.97-.34-5.96-.49-.83-.07-1.44-.79-1.38-1.61.06-.83.8-1.45 1.6-1.39 2.01.16 4.01.32 6.01.5.82.08 1.43.8 1.36 1.63a1.51 1.51 0 0 1-1.5 1.37M379.33 5c-.76 0-1.42-.58-1.49-1.35-.08-.83.52-1.56 1.34-1.64 2-.2 4-.38 6-.55.81-.06 1.55.54 1.62 1.37a1.5 1.5 0 0 1-1.37 1.62c-1.99.17-3.97.35-5.95.54-.05.01-.1.01-.15.01m89.8.92c-.06 0-.12-.01-.18-.02q-2.97-.345-5.94-.66a1.51 1.51 0 0 1-1.34-1.65c.09-.83.84-1.41 1.65-1.34 2 .21 3.99.44 5.98.68.83.09 1.41.84 1.31 1.66-.09.77-.73 1.33-1.48 1.33m-101.72.44c-.75 0-1.39-.56-1.49-1.31-.1-.82.48-1.58 1.3-1.68 1.99-.26 3.98-.5 5.98-.73.81-.09 1.56.5 1.66 1.33.09.82-.5 1.56-1.33 1.66-1.98.22-3.96.46-5.93.71-.07.01-.13.02-.19.02m113.61 1.15c-.08 0-.15 0-.23-.01-1.97-.3-3.94-.58-5.92-.84a1.5 1.5 0 0 1-1.28-1.69c.11-.82.87-1.4 1.69-1.29 1.99.27 3.97.55 5.96.85.82.12 1.38.89 1.26 1.71-.11.74-.75 1.27-1.48 1.27m-125.49.55c-.72 0-1.36-.53-1.48-1.27-.13-.82.43-1.58 1.25-1.71 1.98-.32 3.96-.62 5.95-.9.82-.13 1.58.45 1.7 1.27a1.5 1.5 0 0 1-1.27 1.7c-1.98.28-3.95.58-5.91.89-.08.01-.16.02-.24.02m137.33 1.4c-.09 0-.18-.01-.27-.02-1.96-.35-3.92-.69-5.89-1.02-.82-.13-1.37-.9-1.24-1.72s.91-1.37 1.72-1.24c1.99.33 3.97.67 5.94 1.03.81.14 1.36.92 1.21 1.74-.13.72-.76 1.23-1.47 1.23m-149.15.65c-.71 0-1.34-.5-1.47-1.22-.16-.82.38-1.6 1.19-1.75 1.97-.38 3.95-.73 5.93-1.08.81-.14 1.59.41 1.73 1.22.15.82-.4 1.6-1.22 1.74-1.96.34-3.92.69-5.88 1.06-.09.02-.19.03-.28.03m160.92 1.65c-.1 0-.21-.01-.31-.03-1.95-.41-3.9-.81-5.86-1.19a1.5 1.5 0 0 1-1.18-1.76c.16-.81.95-1.34 1.76-1.19 1.97.39 3.94.79 5.9 1.2.81.17 1.33.97 1.16 1.78-.15.7-.77 1.19-1.47 1.19m-172.68.75c-.68 0-1.31-.48-1.46-1.18-.18-.81.33-1.61 1.14-1.78 1.96-.44 3.93-.85 5.9-1.25.8-.17 1.6.35 1.76 1.17.17.81-.35 1.6-1.17 1.77-1.95.39-3.9.81-5.84 1.23-.11.03-.22.04-.33.04m184.38 1.89c-.11 0-.23-.01-.35-.04-1.93-.47-3.87-.92-5.82-1.36a1.49 1.49 0 0 1-1.13-1.79 1.5 1.5 0 0 1 1.79-1.14c1.96.44 3.92.9 5.86 1.37.81.2 1.31 1.01 1.11 1.81-.17.69-.78 1.15-1.46 1.15m-196.05.86c-.68 0-1.29-.46-1.46-1.14-.2-.8.29-1.62 1.09-1.82 1.95-.49 3.9-.96 5.85-1.42a1.5 1.5 0 1 1 .69 2.92c-1.94.46-3.88.93-5.81 1.41-.12.03-.24.05-.36.05m207.67 2.13q-.195 0-.39-.06c-1.92-.52-3.85-1.03-5.78-1.53a1.499 1.499 0 1 1 .75-2.9c1.94.5 3.88 1.01 5.82 1.54.8.22 1.27 1.04 1.05 1.84-.18.67-.79 1.11-1.45 1.11m-219.27.95c-.65 0-1.26-.43-1.44-1.09-.23-.8.24-1.63 1.04-1.85 1.92-.54 3.86-1.08 5.8-1.59a1.501 1.501 0 1 1 .78 2.9c-1.93.51-3.85 1.04-5.77 1.58-.14.04-.27.05-.41.05m230.8 2.37c-.14 0-.29-.02-.44-.06-1.9-.58-3.81-1.15-5.73-1.7a1.503 1.503 0 0 1-1.02-1.86c.23-.8 1.06-1.25 1.86-1.02 1.92.55 3.85 1.12 5.77 1.71.79.24 1.24 1.08.99 1.87-.19.65-.79 1.06-1.43 1.06m-242.3 1.06a1.498 1.498 0 0 1-.45-2.93c1.92-.6 3.84-1.19 5.76-1.76a1.5 1.5 0 0 1 1.87 1.01c.23.79-.22 1.63-1.01 1.86-1.91.57-3.82 1.16-5.72 1.75-.14.05-.3.07-.45.07m253.72 2.61c-.16 0-.32-.02-.48-.08-1.88-.63-3.77-1.25-5.67-1.87a1.485 1.485 0 0 1-.97-1.88 1.5 1.5 0 0 1 1.89-.97c1.91.61 3.81 1.24 5.71 1.88.79.27 1.21 1.12.94 1.9-.21.63-.79 1.02-1.42 1.02m-265.15 1.18a1.502 1.502 0 0 1-.5-2.92c1.91-.66 3.82-1.31 5.73-1.94.79-.26 1.64.17 1.89.95.27.79-.16 1.64-.95 1.9-1.9.63-3.79 1.27-5.68 1.93-.16.05-.33.08-.49.08m276.46 2.83c-.17 0-.35-.03-.52-.1-1.87-.69-3.74-1.37-5.62-2.03a1.504 1.504 0 0 1-.91-1.92c.28-.78 1.13-1.19 1.91-.91 1.9.67 3.78 1.35 5.67 2.05a1.503 1.503 0 0 1-.53 2.91m-287.78 1.29c-.6 0-1.17-.37-1.4-.97-.29-.77.1-1.64.87-1.93 1.88-.72 3.77-1.42 5.66-2.11.78-.28 1.64.11 1.93.89.28.78-.12 1.64-.9 1.93-1.88.68-3.76 1.38-5.62 2.09-.18.07-.36.1-.54.1m298.97 3.04c-.19 0-.38-.03-.56-.11-1.85-.74-3.7-1.48-5.56-2.2-.77-.3-1.16-1.17-.86-1.94s1.18-1.16 1.94-.85c1.88.72 3.74 1.46 5.6 2.21.77.31 1.14 1.19.83 1.96-.23.58-.8.93-1.39.93m-310.15 1.41c-.59 0-1.15-.35-1.39-.92-.31-.77.05-1.65.81-1.96 1.86-.78 3.73-1.53 5.6-2.28a1.5 1.5 0 1 1 1.11 2.79c-1.86.74-3.71 1.49-5.56 2.26-.18.08-.38.11-.57.11m321.16 3.24c-.2 0-.41-.04-.6-.13-1.82-.8-3.64-1.58-5.47-2.35-.76-.32-1.12-1.2-.8-1.97.32-.76 1.2-1.12 1.97-.8 1.84.78 3.68 1.57 5.5 2.38.76.33 1.11 1.21.77 1.97-.24.56-.79.9-1.37.9m10.87 4.97c-.21 0-.43-.05-.64-.15-1.79-.85-3.59-1.69-5.4-2.51a1.51 1.51 0 0 1-.74-1.99 1.5 1.5 0 0 1 1.99-.74c1.82.83 3.63 1.68 5.44 2.53.74.36 1.06 1.25.71 2-.26.54-.8.86-1.36.86M220.01 55.17c-.52 0-1.03-.27-1.31-.76-.41-.73-.15-1.64.57-2.05 1.76-.98 3.52-1.95 5.29-2.91.72-.4 1.63-.13 2.03.6s.12 1.64-.6 2.03c-1.76.96-3.51 1.92-5.25 2.9-.23.13-.48.19-.73.19m406.97 3.97c-.26 0-.52-.07-.76-.21-1.71-1-3.43-2-5.16-2.98-.72-.41-.97-1.33-.56-2.05s1.32-.97 2.04-.56c1.74.99 3.48 1.99 5.2 3.01.72.42.96 1.34.54 2.05-.28.48-.78.74-1.3.74m-417.36 2.07a1.5 1.5 0 0 1-1.29-.73c-.43-.71-.2-1.63.51-2.05 1.73-1.04 3.46-2.06 5.2-3.07.71-.42 1.63-.18 2.05.54.41.72.17 1.63-.55 2.05-1.72 1-3.44 2.02-5.15 3.05-.24.14-.51.21-.77.21m427.59 4.15c-.27 0-.55-.08-.8-.23-1.68-1.06-3.37-2.1-5.07-3.14-.71-.43-.93-1.35-.5-2.06s1.35-.93 2.06-.5c1.71 1.04 3.41 2.09 5.11 3.16.7.44.91 1.36.47 2.06-.28.46-.77.71-1.27.71m-437.8 2.19c-.49 0-.98-.24-1.26-.69-.45-.69-.25-1.62.45-2.07 1.69-1.08 3.39-2.16 5.1-3.22.7-.43 1.63-.22 2.06.48.44.71.23 1.63-.48 2.07-1.69 1.05-3.38 2.12-5.06 3.2-.25.16-.53.23-.81.23m447.85 4.32c-.29 0-.58-.08-.83-.25-1.66-1.11-3.32-2.2-4.99-3.29a1.5 1.5 0 0 1-.44-2.07 1.5 1.5 0 0 1 2.08-.44c1.68 1.09 3.35 2.19 5.02 3.31.68.46.87 1.39.41 2.08-.29.43-.77.66-1.25.66M189.4 74.19c-.48 0-.95-.23-1.24-.65-.47-.69-.3-1.62.39-2.09 1.66-1.13 3.32-2.25 5-3.36a1.49 1.49 0 0 1 2.08.42 1.5 1.5 0 0 1-.42 2.08c-1.67 1.1-3.32 2.21-4.97 3.34-.26.18-.55.26-.84.26m467.71 4.49c-.3 0-.6-.09-.87-.28-1.62-1.15-3.24-2.3-4.88-3.43-.68-.47-.85-1.4-.38-2.08.47-.69 1.4-.86 2.08-.39 1.65 1.14 3.29 2.29 4.93 3.46.67.48.83 1.41.35 2.09-.3.41-.76.63-1.23.63m-477.53 2.44a1.503 1.503 0 0 1-.88-2.72c1.62-1.18 3.26-2.35 4.9-3.51.68-.48 1.61-.32 2.09.36s.32 1.62-.36 2.09c-1.63 1.15-3.25 2.31-4.86 3.49-.27.19-.58.29-.89.29m487.19 4.65c-.32 0-.63-.1-.91-.3-1.58-1.2-3.18-2.39-4.78-3.57a1.501 1.501 0 1 1 1.78-2.42c1.61 1.19 3.22 2.39 4.82 3.6.66.5.79 1.44.29 2.1-.3.39-.75.59-1.2.59m-496.79 2.55c-.45 0-.89-.2-1.19-.58-.5-.65-.38-1.6.27-2.1 1.59-1.23 3.19-2.45 4.79-3.65.67-.5 1.61-.37 2.1.3.5.66.37 1.6-.3 2.09-1.59 1.2-3.18 2.41-4.75 3.63-.28.21-.6.31-.92.31m506.23 4.83c-.33 0-.66-.11-.93-.34-1.55-1.24-3.11-2.48-4.68-3.71-.66-.51-.77-1.45-.26-2.1s1.45-.77 2.1-.26c1.58 1.24 3.15 2.48 4.72 3.74a1.504 1.504 0 0 1-.95 2.67m-515.62 2.66c-.43 0-.86-.19-1.16-.55-.52-.64-.43-1.58.21-2.11 1.55-1.27 3.11-2.54 4.68-3.79.65-.51 1.59-.41 2.11.24.52.64.41 1.59-.24 2.11-1.55 1.24-3.1 2.49-4.65 3.76-.27.23-.61.34-.95.34m524.85 4.98c-.34 0-.69-.12-.97-.36-1.51-1.29-3.04-2.57-4.57-3.84-.64-.53-.73-1.47-.2-2.11s1.47-.73 2.11-.2c1.55 1.28 3.08 2.57 4.61 3.87.63.54.7 1.49.16 2.12-.29.34-.71.52-1.14.52m-534.01 2.77c-.42 0-.83-.17-1.13-.51-.54-.63-.48-1.57.15-2.12 1.51-1.32 3.03-2.63 4.56-3.92.64-.54 1.59-.46 2.12.17.53.64.45 1.58-.18 2.12-1.52 1.28-3.03 2.58-4.53 3.89-.29.25-.64.37-.99.37m543.02 5.15c-.36 0-.72-.13-1.01-.39-1.47-1.33-2.96-2.66-4.46-3.97-.62-.55-.68-1.5-.13-2.12.54-.62 1.49-.68 2.12-.14 1.5 1.33 3 2.66 4.49 4.01.61.55.66 1.5.1 2.12-.29.33-.7.49-1.11.49m-551.95 2.87a1.5 1.5 0 0 1-1.02-2.6 419 419 0 0 1 4.45-4.06c.62-.55 1.57-.5 2.12.12.56.61.5 1.56-.11 2.11-1.48 1.33-2.96 2.68-4.42 4.03-.29.27-.66.4-1.02.4m560.72 5.31c-.37 0-.75-.14-1.04-.42-1.44-1.38-2.88-2.75-4.34-4.11a1.5 1.5 0 0 1-.07-2.12c.56-.6 1.51-.63 2.12-.07 1.46 1.37 2.92 2.75 4.37 4.14.6.57.62 1.52.04 2.12-.29.3-.69.46-1.08.46m-569.41 2.96a1.5 1.5 0 0 1-1.05-2.57c1.43-1.41 2.88-2.8 4.33-4.18.6-.58 1.55-.55 2.12.05s.55 1.55-.05 2.12c-1.44 1.37-2.88 2.76-4.3 4.15-.29.29-.67.43-1.05.43m577.94 5.47a1.5 1.5 0 0 1-1.07-.45c-1.39-1.42-2.8-2.83-4.22-4.23a1.5 1.5 0 0 1-.01-2.12c.58-.59 1.53-.6 2.12-.01 1.43 1.41 2.85 2.83 4.25 4.26.58.59.58 1.54-.02 2.12-.29.28-.67.43-1.05.43m-586.38 3.05c-.38 0-.75-.14-1.04-.42-.6-.57-.62-1.52-.04-2.12 1.39-1.45 2.79-2.88 4.2-4.31a1.5 1.5 0 0 1 2.12-.01c.59.59.6 1.54.01 2.12-1.4 1.42-2.79 2.84-4.17 4.28-.3.31-.69.46-1.08.46M720.04 134c-.41 0-.81-.16-1.1-.48-1.36-1.46-2.72-2.92-4.1-4.36a1.5 1.5 0 0 1 2.17-2.07c1.39 1.45 2.76 2.92 4.13 4.39.56.61.52 1.55-.08 2.12-.29.27-.66.4-1.02.4m-602.87 3.13c-.36 0-.72-.13-1-.39-.62-.56-.66-1.51-.11-2.12 1.35-1.49 2.71-2.96 4.08-4.43.57-.6 1.52-.63 2.12-.07.61.57.64 1.52.07 2.12-1.36 1.46-2.71 2.92-4.05 4.4-.29.32-.7.49-1.11.49m610.9 5.78c-.42 0-.84-.17-1.13-.51-1.31-1.5-2.64-2.99-3.97-4.47-.56-.62-.51-1.56.11-2.12.62-.55 1.56-.5 2.12.11 1.34 1.49 2.67 3 4 4.51.54.62.48 1.57-.15 2.11-.28.25-.63.37-.98.37m-618.83 3.21c-.34 0-.69-.12-.97-.36-.63-.54-.7-1.49-.17-2.12 1.31-1.52 2.63-3.03 3.95-4.54a1.503 1.503 0 0 1 2.25 1.99c-1.31 1.49-2.62 2.99-3.92 4.51-.29.34-.71.52-1.14.52m626.59 5.94c-.43 0-.86-.18-1.15-.54a424 424 0 0 0-3.84-4.59c-.54-.63-.46-1.58.17-2.11.63-.54 1.58-.46 2.12.17 1.3 1.53 2.58 3.07 3.86 4.62a1.494 1.494 0 0 1-1.16 2.45m7.5 9.38c-.44 0-.89-.2-1.18-.58-1.23-1.58-2.46-3.14-3.7-4.7a1.498 1.498 0 1 1 2.34-1.87c1.25 1.56 2.49 3.14 3.73 4.73.51.65.39 1.6-.27 2.1-.27.22-.6.32-.92.32m7.23 9.59c-.47 0-.92-.21-1.22-.61-1.17-1.61-2.36-3.21-3.56-4.81-.5-.66-.37-1.6.3-2.1a1.5 1.5 0 0 1 2.1.3c1.2 1.6 2.4 3.22 3.59 4.84.49.67.34 1.61-.33 2.09-.27.2-.58.29-.88.29m6.94 9.8c-.48 0-.95-.22-1.24-.65-1.13-1.64-2.27-3.28-3.42-4.91-.48-.67-.32-1.61.35-2.09.68-.47 1.62-.32 2.09.36q1.755 2.46 3.45 4.95c.47.68.3 1.61-.39 2.08-.26.18-.55.26-.84.26m6.65 10.01c-.49 0-.98-.24-1.26-.69-1.08-1.68-2.18-3.35-3.28-5.01a1.5 1.5 0 0 1 .42-2.08c.69-.45 1.62-.27 2.08.42 1.11 1.68 2.21 3.36 3.3 5.05.45.69.25 1.62-.45 2.07a1.5 1.5 0 0 1-.81.24m6.36 10.2a1.5 1.5 0 0 1-1.29-.73c-1.03-1.71-2.07-3.41-3.13-5.1-.44-.71-.22-1.63.48-2.07s1.63-.22 2.07.48c1.06 1.71 2.11 3.42 3.15 5.14.43.71.2 1.63-.51 2.06-.24.15-.51.22-.77.22m6.05 10.38c-.52 0-1.03-.28-1.3-.77-.98-1.74-1.98-3.47-2.98-5.19-.42-.72-.18-1.63.54-2.05.71-.42 1.63-.18 2.05.54 1.01 1.73 2.01 3.48 3 5.23.41.72.15 1.64-.57 2.04-.23.13-.49.2-.74.2m-714.99 3.49c-.24 0-.49-.06-.72-.18a1.5 1.5 0 0 1-.59-2.04c.97-1.76 1.94-3.5 2.94-5.24.41-.72 1.32-.97 2.04-.56s.97 1.33.56 2.05c-.98 1.72-1.95 3.45-2.91 5.2-.28.49-.79.77-1.32.77m720.74 7.07c-.54 0-1.06-.29-1.33-.81-.92-1.76-1.87-3.52-2.82-5.28-.4-.72-.13-1.63.6-2.03.72-.4 1.64-.13 2.03.6.96 1.76 1.91 3.54 2.85 5.32.39.73.1 1.64-.63 2.02-.22.12-.46.18-.7.18m-726.36 3.49c-.23 0-.46-.05-.68-.16a1.496 1.496 0 0 1-.65-2.02c.91-1.78 1.84-3.56 2.78-5.32.39-.73 1.3-1.01 2.03-.62s1.01 1.3.62 2.03q-1.395 2.625-2.76 5.28c-.27.52-.79.81-1.34.81m731.8 7.23c-.55 0-1.09-.31-1.35-.84-.87-1.79-1.77-3.58-2.67-5.36-.37-.74-.08-1.64.66-2.02.74-.37 1.65-.08 2.02.66.91 1.8 1.8 3.6 2.69 5.41a1.5 1.5 0 0 1-.69 2c-.21.1-.44.15-.66.15m-737.1 3.49c-.22 0-.44-.04-.65-.14a1.5 1.5 0 0 1-.7-2c.86-1.81 1.73-3.61 2.62-5.4.37-.74 1.27-1.05 2.01-.68s1.04 1.27.68 2.01c-.88 1.78-1.75 3.57-2.61 5.36-.25.54-.79.85-1.35.85m742.22 7.4c-.57 0-1.12-.33-1.37-.88-.82-1.83-1.66-3.64-2.51-5.45-.35-.75-.03-1.64.72-1.99a1.51 1.51 0 0 1 2 .72c.85 1.82 1.7 3.64 2.53 5.48.34.75 0 1.64-.75 1.98-.2.1-.41.14-.62.14m4.8 11.04c-.59 0-1.15-.35-1.39-.93-.77-1.84-1.55-3.68-2.35-5.51-.33-.76.02-1.65.78-1.98s1.65.02 1.97.78c.81 1.85 1.6 3.7 2.37 5.56.32.76-.04 1.64-.81 1.96-.18.08-.38.12-.57.12m4.47 11.17a1.5 1.5 0 0 1-1.4-.96c-.72-1.87-1.45-3.73-2.19-5.59a1.5 1.5 0 1 1 2.79-1.11c.74 1.87 1.48 3.74 2.2 5.62.29.78-.09 1.65-.87 1.94-.17.07-.35.1-.53.1m4.14 11.31c-.62 0-1.2-.39-1.42-1.01-.66-1.89-1.33-3.77-2.02-5.64-.28-.78.11-1.64.89-1.93.78-.28 1.64.12 1.93.89.69 1.89 1.37 3.79 2.03 5.7.28.78-.14 1.63-.92 1.91-.16.05-.33.08-.49.08m3.8 11.43c-.64 0-1.23-.41-1.43-1.05-.61-1.91-1.22-3.81-1.85-5.71-.27-.78.16-1.63.95-1.89s1.63.16 1.89.95c.64 1.91 1.26 3.83 1.87 5.75a1.498 1.498 0 0 1-1.43 1.95m3.45 11.52c-.65 0-1.25-.43-1.44-1.09-.55-1.92-1.1-3.84-1.67-5.74a1.498 1.498 0 1 1 2.87-.86c.57 1.92 1.14 3.84 1.69 5.78a1.508 1.508 0 0 1-1.45 1.91m-787.94 3.43q-.195 0-.39-.06c-.8-.22-1.27-1.04-1.05-1.84.53-1.94 1.07-3.87 1.63-5.8.23-.79 1.06-1.25 1.86-1.02s1.26 1.07 1.02 1.86c-.55 1.91-1.09 3.83-1.62 5.75-.18.67-.79 1.11-1.45 1.11m791.05 8.16c-.67 0-1.28-.46-1.45-1.14-.49-1.93-.99-3.86-1.51-5.78-.21-.8.26-1.62 1.06-1.84.8-.21 1.62.26 1.84 1.06.52 1.94 1.02 3.88 1.51 5.83.21.8-.28 1.62-1.08 1.82-.13.03-.25.05-.37.05M22.59 315.1c-.12 0-.24-.01-.36-.04a1.5 1.5 0 0 1-1.1-1.81c.48-1.96.96-3.9 1.47-5.84.2-.81 1.02-1.28 1.82-1.08.81.21 1.29 1.02 1.08 1.83-.5 1.92-.98 3.86-1.46 5.8-.16.68-.78 1.14-1.45 1.14m796.81 8.22c-.69 0-1.31-.48-1.46-1.18-.43-1.94-.88-3.88-1.34-5.82-.19-.81.31-1.62 1.12-1.81s1.61.31 1.8 1.12c.47 1.95.91 3.91 1.35 5.87.18.81-.34 1.61-1.14 1.79q-.165.03-.33.03M19.93 326.8c-.1 0-.21-.01-.31-.03a1.51 1.51 0 0 1-1.16-1.78q.63-2.955 1.29-5.88c.19-.81.99-1.31 1.8-1.13s1.31.98 1.13 1.79c-.44 1.94-.87 3.89-1.28 5.84-.15.71-.78 1.19-1.47 1.19m801.89 8.27c-.71 0-1.34-.5-1.47-1.22-.38-1.95-.76-3.91-1.17-5.86-.16-.81.36-1.6 1.17-1.77.8-.17 1.61.36 1.77 1.17.41 1.96.8 3.93 1.17 5.9.16.82-.38 1.6-1.19 1.76-.1.02-.19.02-.28.02m-804.2 3.5c-.09 0-.18-.01-.27-.02a1.5 1.5 0 0 1-1.21-1.75c.36-1.97.73-3.95 1.12-5.91.16-.82.95-1.35 1.76-1.18.81.15 1.34.94 1.18 1.76-.38 1.95-.75 3.91-1.11 5.87-.13.72-.76 1.23-1.47 1.23m806.27 8.32c-.73 0-1.36-.52-1.48-1.26-.32-1.97-.65-3.94-.99-5.89a1.5 1.5 0 0 1 1.22-1.74c.81-.15 1.59.4 1.73 1.22.35 1.97.68 3.95 1 5.93.13.82-.43 1.59-1.24 1.72-.08.02-.16.02-.24.02m-808.24 3.52c-.07 0-.15-.01-.22-.02-.82-.12-1.39-.89-1.26-1.71.3-1.98.61-3.97.94-5.94.14-.82.9-1.37 1.72-1.24.82.14 1.37.91 1.24 1.73-.33 1.96-.64 3.93-.94 5.9-.11.75-.75 1.28-1.48 1.28m809.96 8.35a1.5 1.5 0 0 1-1.49-1.3c-.26-1.98-.53-3.95-.81-5.92a1.5 1.5 0 1 1 2.97-.43c.28 1.98.56 3.97.82 5.96.1.82-.48 1.58-1.3 1.68-.06.01-.13.01-.19.01M14.03 362.3c-.06 0-.12-.01-.18-.01-.82-.1-1.41-.85-1.31-1.67.24-2 .5-3.99.77-5.98a1.5 1.5 0 0 1 2.97.41c-.27 1.97-.52 3.95-.76 5.93-.09.76-.74 1.32-1.49 1.32m812.95 8.38c-.76 0-1.41-.57-1.49-1.34-.2-1.99-.41-3.97-.64-5.95-.1-.82.49-1.57 1.32-1.66.82-.09 1.57.49 1.66 1.32.23 1.99.44 3.99.64 5.98.09.83-.51 1.56-1.34 1.65zm-814.22 3.55c-.04 0-.09-.01-.13-.01a1.5 1.5 0 0 1-1.36-1.63c.18-2 .38-4 .59-5.99.09-.83.83-1.42 1.65-1.34.83.09 1.42.83 1.33 1.65-.21 1.98-.4 3.97-.58 5.95a1.51 1.51 0 0 1-1.5 1.37M828 382.64c-.78 0-1.44-.61-1.49-1.4-.14-1.99-.3-3.97-.47-5.96a1.5 1.5 0 0 1 2.99-.25c.17 2 .33 4 .47 6 .06.83-.56 1.55-1.39 1.6-.04.01-.07.01-.11.01m-816.16 3.55h-.09c-.83-.06-1.46-.77-1.4-1.59.12-2.01.26-4.01.41-6.01.07-.83.78-1.46 1.61-1.38.83.06 1.45.78 1.39 1.61-.16 1.98-.3 3.97-.42 5.96a1.5 1.5 0 0 1-1.5 1.41m816.84 8.43a1.5 1.5 0 0 1-1.5-1.44c-.08-1.99-.18-3.98-.29-5.97-.05-.83.58-1.54 1.41-1.58.83-.02 1.54.58 1.58 1.41.11 2 .21 4.01.3 6.01.03.83-.61 1.53-1.44 1.57zm-817.41 3.55h-.05c-.83-.03-1.47-.72-1.45-1.55.07-2.01.15-4.01.25-6.01.04-.83.7-1.48 1.57-1.43.82.04 1.46.74 1.42 1.57q-.135 2.985-.24 5.97c-.03.81-.69 1.45-1.5 1.45m817.74 8.44a1.5 1.5 0 0 1-1.5-1.48c-.03-2-.07-3.99-.12-5.98-.03-.82.63-1.51 1.46-1.54.82-.07 1.51.63 1.54 1.46.05 2 .09 4.01.12 6.02.01.83-.66 1.51-1.48 1.52zm-817.96 3.55h-.01c-.83-.01-1.5-.68-1.49-1.51.01-2.01.03-4.02.07-6.02.01-.83.7-1.5 1.52-1.47.83.01 1.49.7 1.48 1.53-.04 1.98-.06 3.98-.07 5.97-.01.83-.68 1.5-1.5 1.5m817.94 8.45h-.02c-.83-.02-1.49-.7-1.48-1.53.03-1.99.05-3.98.05-5.97 0-.83.67-1.5 1.5-1.5s1.5.67 1.5 1.5c0 2.01-.02 4.02-.05 6.02a1.5 1.5 0 0 1-1.5 1.48m-817.83 3.54c-.81 0-1.47-.64-1.5-1.46-.04-2-.08-4.01-.1-6.02-.01-.83.66-1.51 1.49-1.52.8-.01 1.5.66 1.51 1.49.02 1.99.06 3.99.1 5.98.02.82-.63 1.51-1.46 1.53zm817.47 8.44h-.07a1.5 1.5 0 0 1-1.43-1.57c.09-1.98.16-3.98.22-5.97.03-.81.69-1.46 1.5-1.46.02 0 .03 0 .05.01.83.02 1.48.71 1.45 1.54-.06 2.01-.13 4.01-.22 6.02-.04.8-.7 1.43-1.5 1.43m-817 3.55c-.79 0-1.45-.62-1.5-1.42-.1-2-.2-4.01-.27-6.01a1.497 1.497 0 1 1 2.99-.12c.08 1.99.17 3.98.28 5.97a1.5 1.5 0 0 1-1.42 1.58zm816.29 8.43c-.04 0-.08 0-.11-.01-.83-.06-1.45-.78-1.39-1.6.15-1.99.28-3.97.4-5.97.05-.82.72-1.45 1.58-1.41a1.5 1.5 0 0 1 1.41 1.59c-.12 2.01-.25 4.01-.4 6.01-.06.79-.71 1.39-1.49 1.39m-815.48 3.54c-.77 0-1.43-.59-1.49-1.38q-.255-2.985-.45-6a1.5 1.5 0 0 1 1.39-1.6c.81-.05 1.54.57 1.6 1.4.14 1.99.29 3.98.45 5.96.07.82-.55 1.55-1.37 1.62zm814.42 8.41c-.05 0-.1 0-.16-.01a1.49 1.49 0 0 1-1.33-1.65c.2-1.97.39-3.96.57-5.94a1.495 1.495 0 1 1 2.98.26c-.17 2-.36 4-.57 5.99-.08.77-.73 1.35-1.49 1.35M13.6 458.05c-.75 0-1.4-.56-1.48-1.33-.23-1.99-.44-3.99-.63-5.99-.08-.82.52-1.56 1.35-1.64a1.5 1.5 0 0 1 1.63 1.35c.2 1.99.4 3.97.63 5.95a1.495 1.495 0 0 1-1.5 1.66m811.85 8.38c-.06 0-.13 0-.2-.01-.82-.11-1.4-.86-1.29-1.68.27-1.98.51-3.95.75-5.94.1-.82.84-1.42 1.66-1.31.83.1 1.41.84 1.32 1.67q-.36 2.985-.75 5.97c-.1.76-.75 1.3-1.49 1.3m-810.34 3.53c-.73 0-1.37-.55-1.48-1.29-.28-1.99-.55-3.98-.8-5.97-.11-.82.48-1.57 1.3-1.68.81-.1 1.57.48 1.68 1.3.25 1.98.51 3.95.79 5.92a1.5 1.5 0 0 1-1.27 1.7c-.07.01-.15.02-.22.02m808.59 8.34c-.08 0-.16 0-.25-.02-.81-.13-1.37-.9-1.24-1.72.32-1.96.63-3.93.92-5.91.12-.82.89-1.38 1.71-1.26s1.38.88 1.26 1.7c-.29 1.99-.6 3.97-.92 5.95a1.5 1.5 0 0 1-1.48 1.26m-806.73 3.51c-.71 0-1.35-.52-1.47-1.25-.34-1.97-.67-3.95-.98-5.94-.13-.82.43-1.58 1.25-1.71.81-.13 1.59.43 1.71 1.25.31 1.97.64 3.93.97 5.89.15.82-.4 1.6-1.22 1.74-.09.01-.17.02-.26.02m804.62 8.3c-.09 0-.19 0-.28-.02a1.5 1.5 0 0 1-1.19-1.76c.38-1.95.74-3.91 1.09-5.88.15-.81.92-1.35 1.74-1.21.82.15 1.36.93 1.21 1.74-.35 1.98-.72 3.95-1.1 5.92-.14.72-.76 1.21-1.47 1.21M19.18 493.6c-.7 0-1.32-.49-1.47-1.2-.39-1.97-.78-3.94-1.15-5.91a1.502 1.502 0 0 1 2.95-.55c.37 1.96.75 3.91 1.14 5.86a1.492 1.492 0 0 1-1.47 1.8m799.96 8.26c-.11 0-.22-.01-.33-.04-.81-.18-1.32-.98-1.13-1.79.43-1.94.85-3.89 1.26-5.84.17-.81.96-1.34 1.77-1.16.82.17 1.34.96 1.17 1.77-.41 1.97-.84 3.93-1.28 5.89-.15.69-.77 1.17-1.46 1.17m-797.4 3.47c-.68 0-1.3-.47-1.46-1.16-.46-1.96-.9-3.91-1.33-5.88-.17-.81.34-1.61 1.15-1.78.8-.18 1.61.33 1.78 1.14.43 1.95.87 3.9 1.32 5.83.19.81-.31 1.62-1.12 1.81-.12.02-.23.04-.34.04m794.6 8.2c-.12 0-.25-.02-.37-.05-.8-.21-1.29-1.02-1.08-1.82.49-1.93.97-3.87 1.44-5.81.19-.8 1-1.3 1.8-1.1.81.19 1.31 1 1.11 1.8-.47 1.96-.95 3.91-1.45 5.85-.17.68-.78 1.13-1.45 1.13m-791.7 3.44c-.67 0-1.28-.45-1.45-1.12-.52-1.94-1.02-3.88-1.5-5.83a1.5 1.5 0 0 1 2.91-.73c.48 1.94.98 3.87 1.49 5.79.21.8-.27 1.62-1.07 1.84-.13.03-.26.05-.38.05m788.56 8.14a1.5 1.5 0 0 1-1.44-1.92c.55-1.91 1.09-3.83 1.61-5.76.21-.8 1.03-1.27 1.84-1.05.8.22 1.27 1.04 1.05 1.84-.52 1.94-1.06 3.87-1.62 5.8-.19.66-.79 1.09-1.44 1.09m-785.32 3.41c-.65 0-1.25-.42-1.44-1.08-.57-1.92-1.13-3.85-1.67-5.78-.22-.8.24-1.62 1.04-1.85.79-.22 1.62.24 1.85 1.04.54 1.92 1.09 3.83 1.66 5.74a1.51 1.51 0 0 1-1.44 1.93m781.84 8.07c-.15 0-.31-.02-.46-.07-.79-.26-1.22-1.1-.97-1.89.61-1.89 1.2-3.8 1.78-5.71a1.51 1.51 0 0 1 1.87-1c.79.24 1.24 1.08 1 1.87-.58 1.93-1.18 3.84-1.79 5.76-.21.63-.8 1.04-1.43 1.04m-778.25 3.4c-.63 0-1.22-.4-1.43-1.03-.63-1.91-1.24-3.83-1.84-5.76-.25-.79.19-1.63.98-1.87.79-.25 1.63.19 1.88.98.6 1.91 1.21 3.82 1.83 5.71.26.79-.17 1.64-.95 1.9-.16.05-.32.07-.47.07m774.43 7.97c-.16 0-.33-.03-.5-.08a1.504 1.504 0 0 1-.91-1.92c.66-1.88 1.3-3.76 1.94-5.65.27-.78 1.11-1.21 1.9-.94.79.26 1.21 1.11.94 1.9-.64 1.9-1.29 3.8-1.95 5.69-.22.62-.8 1-1.42 1m-770.5 3.42c-.61 0-1.19-.38-1.41-.99q-1.02-2.85-2.01-5.7c-.27-.78.14-1.64.92-1.91.79-.27 1.64.15 1.91.93.66 1.89 1.32 3.78 2 5.66.29.77-.12 1.63-.9 1.92-.16.06-.34.09-.51.09m766.35 7.84a1.495 1.495 0 0 1-1.4-2.04c.71-1.86 1.42-3.72 2.11-5.59a1.49 1.49 0 0 1 1.92-.89 1.5 1.5 0 0 1 .89 1.93c-.69 1.88-1.4 3.76-2.12 5.63-.23.59-.8.96-1.4.96m-762.08 3.41c-.59 0-1.16-.36-1.39-.94-.74-1.88-1.47-3.75-2.19-5.64-.29-.77.1-1.64.87-1.93.78-.3 1.65.09 1.94.87.71 1.87 1.43 3.73 2.17 5.59.3.77-.07 1.64-.84 1.95-.19.07-.37.1-.56.1m757.6 7.69c-.19 0-.39-.03-.58-.11-.76-.32-1.12-1.2-.8-1.97.77-1.83 1.52-3.66 2.26-5.5a1.499 1.499 0 0 1 2.78 1.12c-.74 1.85-1.5 3.7-2.28 5.54-.24.58-.79.92-1.38.92m-752.99 3.44c-.58 0-1.14-.34-1.38-.91-.8-1.85-1.58-3.7-2.35-5.56-.32-.77.04-1.65.81-1.96.77-.32 1.64.04 1.96.81.76 1.85 1.54 3.69 2.33 5.52.33.76-.02 1.65-.78 1.97-.19.09-.4.13-.59.13m748.2 7.51a1.5 1.5 0 0 1-.62-.13 1.504 1.504 0 0 1-.75-1.99c.83-1.8 1.64-3.62 2.43-5.44.33-.75 1.22-1.1 1.98-.77s1.1 1.22.77 1.98c-.8 1.83-1.62 3.65-2.45 5.47-.25.56-.79.88-1.36.88M49.2 584.73c-.56 0-1.11-.32-1.36-.86-.85-1.82-1.69-3.66-2.51-5.49-.34-.76 0-1.65.75-1.99.76-.33 1.65 0 1.99.76.81 1.82 1.64 3.64 2.49 5.45.35.75.02 1.64-.73 1.99-.2.1-.42.14-.63.14m738.16 7.35q-.33 0-.66-.15a1.5 1.5 0 0 1-.68-2.01c.87-1.78 1.74-3.57 2.59-5.37.35-.75 1.25-1.07 1.99-.71.75.35 1.07 1.25.72 2q-1.29 2.715-2.61 5.4c-.26.53-.79.84-1.35.84m-732.91 3.48c-.55 0-1.08-.3-1.34-.83-.91-1.79-1.8-3.6-2.68-5.41-.36-.75-.05-1.64.7-2 .74-.37 1.64-.06 2 .69.87 1.8 1.76 3.59 2.66 5.37.37.74.07 1.64-.67 2.02-.22.11-.45.16-.67.16m727.49 7.18c-.24 0-.48-.06-.7-.18a1.483 1.483 0 0 1-.63-2.02c.93-1.76 1.84-3.52 2.75-5.29.37-.74 1.27-1.03 2.01-.66.74.38 1.03 1.28.66 2.02-.91 1.78-1.83 3.56-2.77 5.33-.27.51-.79.8-1.32.8m-721.93 3.48c-.53 0-1.05-.29-1.32-.79-.96-1.77-1.9-3.54-2.83-5.33a1.5 1.5 0 0 1 .63-2.02c.74-.38 1.64-.1 2.03.63.92 1.78 1.86 3.54 2.81 5.3a1.504 1.504 0 0 1-1.32 2.21m716.18 7.01c-.25 0-.5-.06-.74-.19-.72-.41-.97-1.33-.56-2.05.98-1.72 1.94-3.46 2.9-5.2.39-.73 1.31-1 2.03-.6.73.4 1 1.31.6 2.04-.96 1.75-1.93 3.5-2.92 5.24-.28.49-.78.76-1.31.76m-710.31 3.48c-.52 0-1.02-.27-1.3-.75-1.01-1.74-2-3.49-2.98-5.24-.41-.72-.15-1.64.57-2.04.73-.41 1.64-.15 2.04.57.98 1.75 1.97 3.48 2.97 5.21.41.71.17 1.63-.55 2.05-.24.13-.49.2-.75.2m704.26 6.85c-.26 0-.53-.07-.77-.22-.71-.43-.94-1.35-.51-2.06 1.03-1.7 2.05-3.4 3.05-5.12a1.51 1.51 0 0 1 2.06-.53c.71.41.95 1.33.53 2.05-1.01 1.73-2.03 3.45-3.07 5.16-.28.46-.78.72-1.29.72m-698.08 3.46c-.5 0-.99-.25-1.28-.71-1.06-1.71-2.1-3.43-3.14-5.15a1.51 1.51 0 0 1 .52-2.06c.71-.43 1.63-.19 2.06.52 1.02 1.71 2.06 3.41 3.11 5.11.44.7.22 1.63-.48 2.06-.25.16-.52.23-.79.23m691.73 6.69a1.5 1.5 0 0 1-.81-.24c-.7-.45-.89-1.38-.45-2.08 1.08-1.66 2.15-3.34 3.21-5.03.43-.7 1.36-.92 2.06-.47.71.44.92 1.36.48 2.06-1.06 1.7-2.14 3.39-3.23 5.07-.28.45-.77.69-1.26.69m-685.26 3.43c-.48 0-.96-.24-1.25-.67-1.11-1.68-2.2-3.36-3.29-5.06-.44-.7-.24-1.62.46-2.07s1.62-.24 2.07.46c1.08 1.68 2.16 3.35 3.26 5.01.46.7.27 1.63-.42 2.08-.26.17-.54.25-.83.25m678.62 6.53a1.5 1.5 0 0 1-1.24-2.35c1.13-1.64 2.25-3.28 3.35-4.94.46-.69 1.39-.87 2.08-.41s.88 1.39.42 2.08a543 543 0 0 1-3.38 4.97c-.29.42-.76.65-1.23.65M85.3 647.06c-.47 0-.94-.22-1.23-.63-1.16-1.65-2.3-3.3-3.43-4.96-.47-.68-.29-1.62.39-2.08.68-.47 1.62-.29 2.09.39 1.12 1.65 2.26 3.29 3.4 4.92.48.68.32 1.61-.36 2.09-.26.19-.56.27-.86.27m664.91 6.38c-.31 0-.62-.1-.89-.29a1.51 1.51 0 0 1-.32-2.1c1.18-1.6 2.34-3.22 3.49-4.84.48-.67 1.42-.83 2.09-.35.68.48.84 1.41.36 2.09-1.16 1.63-2.34 3.26-3.52 4.87-.29.4-.75.62-1.21.62m-657.86 3.34c-.45 0-.9-.2-1.2-.6-1.2-1.61-2.4-3.22-3.58-4.85a1.5 1.5 0 0 1 .34-2.09 1.49 1.49 0 0 1 2.09.33c1.17 1.61 2.36 3.22 3.55 4.82.5.66.36 1.6-.3 2.1-.27.2-.59.29-.9.29M742.99 663c-.32 0-.65-.1-.92-.32-.66-.51-.77-1.45-.26-2.1q1.83-2.355 3.63-4.74a1.499 1.499 0 1 1 2.39 1.81c-1.21 1.6-2.42 3.19-3.66 4.77-.29.38-.73.58-1.18.58m-643.3 3.29c-.45 0-.88-.19-1.18-.56-1.25-1.58-2.49-3.16-3.71-4.75-.51-.65-.39-1.6.27-2.1.65-.51 1.6-.39 2.1.27q1.83 2.37 3.69 4.71c.51.65.41 1.59-.24 2.11a1.5 1.5 0 0 1-.93.32m635.8 6.06c-.33 0-.67-.11-.95-.35-.64-.52-.73-1.47-.2-2.11 1.26-1.53 2.52-3.08 3.77-4.63.51-.64 1.46-.75 2.1-.23.65.52.75 1.46.24 2.11-1.26 1.56-2.52 3.12-3.8 4.66-.3.36-.73.55-1.16.55m-628.2 3.23c-.43 0-.85-.18-1.15-.53a430 430 0 0 1-3.85-4.64c-.52-.64-.43-1.58.21-2.11.64-.52 1.59-.43 2.11.21 1.27 1.54 2.54 3.08 3.83 4.6.53.64.45 1.58-.18 2.12-.28.23-.63.35-.97.35m620.43 5.9c-.35 0-.7-.13-.99-.38a1.5 1.5 0 0 1-.14-2.11c1.32-1.5 2.62-3.01 3.91-4.52.54-.63 1.48-.71 2.11-.17.63.53.71 1.48.17 2.11q-1.95 2.295-3.93 4.56c-.3.33-.71.51-1.13.51m-612.56 3.16c-.41 0-.82-.17-1.12-.5-1.33-1.5-2.66-3-3.98-4.52-.54-.62-.48-1.57.15-2.11a1.49 1.49 0 0 1 2.11.14c1.31 1.51 2.63 3 3.96 4.49a1.502 1.502 0 0 1-1.12 2.5m604.53 5.74a1.501 1.501 0 0 1-1.1-2.52c1.36-1.46 2.7-2.93 4.04-4.41.55-.61 1.5-.66 2.11-.11.62.56.67 1.51.11 2.12-1.34 1.49-2.7 2.97-4.06 4.44-.3.32-.7.48-1.1.48m-596.4 3.08c-.39 0-.79-.15-1.08-.46-1.39-1.46-2.76-2.93-4.12-4.4-.56-.61-.52-1.56.09-2.12s1.56-.53 2.12.09c1.35 1.46 2.71 2.92 4.08 4.36.57.6.55 1.55-.05 2.12-.29.28-.67.41-1.04.41m588.11 5.58c-.38 0-.76-.14-1.06-.43a1.5 1.5 0 0 1-.01-2.12c1.4-1.42 2.78-2.85 4.16-4.29.57-.6 1.52-.62 2.12-.04.6.57.62 1.52.05 2.12q-2.085 2.175-4.2 4.32c-.29.29-.68.44-1.06.44m-579.72 3.01c-.39 0-.77-.15-1.06-.44-1.42-1.42-2.84-2.84-4.24-4.28-.58-.59-.57-1.54.03-2.12.59-.58 1.54-.57 2.12.03 1.39 1.42 2.79 2.84 4.2 4.24.59.59.59 1.54.01 2.12-.29.3-.68.45-1.06.45m571.17 5.41c-.39 0-.79-.15-1.08-.46a1.5 1.5 0 0 1 .05-2.12c1.43-1.38 2.86-2.77 4.28-4.16a1.49 1.49 0 0 1 2.12.01c.59.59.58 1.54-.01 2.12q-2.145 2.115-4.32 4.2c-.29.28-.66.41-1.04.41m-562.55 2.92c-.37 0-.73-.14-1.02-.41-1.47-1.37-2.92-2.76-4.36-4.15a1.5 1.5 0 0 1 2.08-2.16c1.43 1.39 2.88 2.76 4.33 4.12.6.57.63 1.52.07 2.12-.3.32-.7.48-1.1.48m553.77 5.25c-.41 0-.82-.16-1.12-.49-.55-.62-.5-1.56.11-2.12 1.48-1.34 2.95-2.68 4.41-4.04a1.501 1.501 0 0 1 2.04 2.2c-1.47 1.37-2.95 2.72-4.44 4.07-.28.26-.64.38-1 .38m-544.9 2.82c-.36 0-.71-.12-1-.38-1.5-1.33-2.99-2.66-4.47-4.02a1.48 1.48 0 0 1-.1-2.11c.56-.62 1.51-.66 2.12-.1q2.205 2.01 4.44 3.99c.62.55.68 1.49.13 2.11-.3.34-.71.51-1.12.51m535.87 5.1a1.505 1.505 0 0 1-.97-2.65c1.52-1.29 3.03-2.59 4.52-3.9.63-.55 1.58-.49 2.12.13.55.63.49 1.57-.14 2.12-1.5 1.32-3.02 2.64-4.55 3.94-.29.24-.63.36-.98.36m-526.78 2.71c-.34 0-.68-.11-.96-.35-1.54-1.28-3.07-2.58-4.59-3.88-.63-.54-.7-1.49-.16-2.12s1.48-.7 2.11-.16c1.51 1.3 3.03 2.58 4.56 3.86.64.53.73 1.48.19 2.11-.29.36-.72.54-1.15.54m517.53 4.93c-.44 0-.87-.19-1.17-.56-.52-.64-.41-1.59.23-2.11 1.56-1.24 3.1-2.5 4.64-3.77.64-.53 1.58-.44 2.11.2s.44 1.58-.2 2.11c-1.55 1.28-3.1 2.55-4.67 3.8-.28.23-.61.33-.94.33m-508.21 2.61c-.33 0-.65-.1-.93-.32a429 429 0 0 1-4.7-3.75c-.65-.52-.75-1.46-.22-2.11.52-.64 1.46-.74 2.11-.22 1.54 1.25 3.1 2.49 4.66 3.72a1.495 1.495 0 0 1-.92 2.68m498.74 4.77c-.46 0-.91-.21-1.2-.6-.5-.66-.37-1.6.29-2.1 1.6-1.2 3.18-2.41 4.75-3.64.65-.5 1.6-.39 2.11.27.5.65.39 1.59-.27 2.1a337 337 0 0 1-4.78 3.67c-.27.2-.59.3-.9.3m-489.21 2.5c-.31 0-.63-.1-.89-.3-1.62-1.19-3.22-2.39-4.81-3.61a1.499 1.499 0 1 1 1.82-2.38c1.58 1.2 3.17 2.4 4.77 3.58.66.49.81 1.43.31 2.1-.29.4-.74.61-1.2.61m479.52 4.6a1.5 1.5 0 0 1-.87-2.72c1.63-1.16 3.24-2.33 4.85-3.51.67-.48 1.61-.34 2.1.33s.34 1.61-.32 2.09c-1.62 1.19-3.25 2.37-4.89 3.53-.26.19-.57.28-.87.28m-469.79 2.38c-.3 0-.59-.09-.86-.27-1.64-1.15-3.28-2.3-4.91-3.47a1.5 1.5 0 0 1 1.75-2.44c1.62 1.16 3.24 2.31 4.88 3.45.68.47.84 1.4.37 2.08-.29.42-.76.65-1.23.65m459.9 4.43c-.49 0-.96-.23-1.25-.67-.46-.69-.28-1.62.41-2.08 1.66-1.11 3.31-2.22 4.96-3.36.68-.46 1.61-.29 2.08.39s.3 1.62-.38 2.08c-1.66 1.14-3.32 2.27-4.99 3.39-.26.17-.55.25-.83.25m-449.97 2.26c-.28 0-.56-.08-.82-.24-1.68-1.1-3.34-2.21-5.01-3.33-.68-.46-.86-1.39-.4-2.08s1.39-.87 2.08-.4c1.65 1.11 3.31 2.21 4.97 3.29.7.46.89 1.39.44 2.08-.29.44-.77.68-1.26.68M636.65 759c-.5 0-.99-.25-1.28-.7-.44-.71-.22-1.63.48-2.07 1.69-1.06 3.37-2.13 5.05-3.21.69-.45 1.62-.26 2.07.44s.25 1.63-.44 2.08c-1.69 1.09-3.39 2.17-5.09 3.23-.25.16-.52.23-.79.23m-429.76 2.14c-.26 0-.53-.07-.78-.22q-2.565-1.575-5.1-3.18c-.7-.44-.91-1.36-.47-2.07.45-.7 1.37-.9 2.07-.46q2.52 1.59 5.07 3.15c.7.43.93 1.35.49 2.06-.28.46-.77.72-1.28.72m419.47 4.08c-.51 0-1.01-.26-1.29-.74-.42-.71-.18-1.63.54-2.05 1.72-1.01 3.43-2.03 5.14-3.06a1.496 1.496 0 1 1 1.55 2.56 373 373 0 0 1-5.18 3.09c-.24.14-.5.2-.76.2m-409.17 2.01c-.25 0-.51-.06-.74-.19q-2.61-1.5-5.19-3.03c-.72-.42-.95-1.34-.53-2.05a1.5 1.5 0 0 1 2.05-.53q2.565 1.515 5.16 3c.72.41.97 1.33.55 2.05-.27.48-.78.75-1.3.75m398.71 3.91a1.496 1.496 0 0 1-.72-2.81c1.75-.96 3.5-1.93 5.23-2.91.72-.41 1.64-.16 2.05.56s.15 1.64-.57 2.05c-1.75.99-3.51 1.96-5.27 2.93-.23.12-.48.18-.72.18m-388.24 1.88c-.23 0-.48-.05-.7-.17-1.77-.95-3.53-1.9-5.28-2.87-.72-.4-.99-1.31-.58-2.04.4-.72 1.31-.98 2.03-.59 1.74.97 3.49 1.91 5.24 2.85.73.39 1.01 1.3.62 2.03-.27.51-.79.79-1.33.79m377.61 3.73c-.55 0-1.08-.3-1.34-.82-.38-.74-.08-1.64.66-2.01q2.67-1.365 5.31-2.76c.74-.39 1.64-.11 2.03.63.39.73.11 1.64-.63 2.02-1.77.94-3.56 1.87-5.35 2.78-.22.11-.45.16-.68.16M238.3 778.5c-.23 0-.46-.05-.67-.15-1.79-.89-3.58-1.8-5.36-2.72a1.499 1.499 0 0 1 1.38-2.66c1.76.91 3.53 1.81 5.31 2.69.75.37 1.05 1.27.68 2.01-.26.53-.79.83-1.34.83m356.17 3.55c-.56 0-1.1-.32-1.36-.86a1.51 1.51 0 0 1 .72-2c1.8-.85 3.6-1.72 5.4-2.6a1.502 1.502 0 0 1 1.32 2.7c-1.81.88-3.62 1.76-5.44 2.61-.21.1-.43.15-.64.15m-345.39 1.62c-.21 0-.42-.05-.63-.14q-2.715-1.26-5.43-2.55a1.504 1.504 0 0 1-.7-2c.36-.75 1.25-1.07 2-.71 1.79.86 3.59 1.7 5.39 2.53.75.35 1.08 1.24.74 1.99-.26.55-.8.88-1.37.88m334.43 3.35c-.58 0-1.13-.33-1.37-.89-.33-.76.01-1.65.77-1.98 1.83-.8 3.66-1.61 5.48-2.44.75-.34 1.64-.01 1.98.75.35.75.01 1.64-.74 1.98-1.83.84-3.67 1.65-5.52 2.46-.19.08-.4.12-.6.12m-323.5 1.49c-.2 0-.4-.04-.59-.12-1.84-.79-3.67-1.58-5.5-2.39-.76-.34-1.1-1.23-.76-1.98.33-.76 1.22-1.1 1.98-.77q2.715 1.215 5.46 2.37a1.507 1.507 0 0 1-.59 2.89m312.4 3.17a1.504 1.504 0 0 1-.56-2.9c1.86-.74 3.71-1.5 5.55-2.27a1.5 1.5 0 0 1 1.96.8 1.5 1.5 0 0 1-.8 1.96c-1.86.78-3.72 1.55-5.59 2.3-.18.07-.37.11-.56.11m-301.31 1.35c-.19 0-.37-.03-.55-.1-1.87-.73-3.74-1.48-5.59-2.24a1.483 1.483 0 0 1-.82-1.95c.31-.77 1.18-1.14 1.95-.82 1.85.75 3.69 1.49 5.55 2.22.77.3 1.15 1.17.85 1.94-.23.59-.8.95-1.39.95M561.17 796c-.61 0-1.18-.38-1.4-.99-.29-.77.11-1.63.89-1.92 1.87-.69 3.75-1.39 5.61-2.11.77-.3 1.64.09 1.94.86s-.09 1.64-.86 1.94c-1.88.72-3.77 1.43-5.66 2.13-.17.06-.34.09-.52.09m-278.84 1.24c-.17 0-.34-.03-.5-.09-1.89-.68-3.78-1.37-5.66-2.07a1.503 1.503 0 0 1-.88-1.93c.29-.77 1.16-1.17 1.93-.88 1.87.7 3.74 1.38 5.62 2.06.78.27 1.18 1.13.9 1.91-.21.62-.79 1-1.41 1m267.48 2.74c-.63 0-1.21-.39-1.42-1.02-.27-.79.16-1.64.94-1.9 1.9-.63 3.79-1.28 5.68-1.94.78-.28 1.64.13 1.91.92.28.78-.13 1.63-.92 1.91-1.89.67-3.8 1.32-5.71 1.96-.16.05-.32.07-.48.07m-256.12 1.13c-.16 0-.31-.02-.47-.07-1.91-.62-3.81-1.26-5.71-1.9-.78-.27-1.2-1.12-.93-1.91.26-.78 1.12-1.2 1.9-.93 1.88.64 3.78 1.27 5.67 1.88.79.26 1.22 1.11.96 1.89-.2.64-.79 1.04-1.42 1.04m244.64 2.52a1.496 1.496 0 0 1-.43-2.93c1.91-.58 3.82-1.17 5.73-1.78.79-.25 1.63.19 1.88.98s-.18 1.63-.97 1.88c-1.92.61-3.85 1.21-5.78 1.79-.14.04-.29.06-.43.06m-233.17 1.01c-.14 0-.29-.02-.43-.06-1.93-.56-3.85-1.14-5.76-1.73-.8-.24-1.24-1.08-1-1.87a1.51 1.51 0 0 1 1.88-1c1.9.59 3.81 1.16 5.72 1.72.8.23 1.26 1.07 1.02 1.86a1.49 1.49 0 0 1-1.43 1.08m221.63 2.29c-.66 0-1.27-.44-1.45-1.11-.21-.8.26-1.62 1.06-1.84 1.93-.52 3.85-1.05 5.76-1.6.79-.22 1.63.24 1.85 1.03a1.5 1.5 0 0 1-1.03 1.86c-1.93.55-3.86 1.08-5.8 1.61-.13.03-.26.05-.39.05m-210.07.91c-.12 0-.25-.02-.38-.05-1.94-.51-3.88-1.03-5.81-1.56-.8-.22-1.27-1.05-1.05-1.85s1.05-1.26 1.84-1.04c1.92.53 3.85 1.04 5.78 1.55.8.21 1.28 1.02 1.07 1.83-.18.67-.78 1.12-1.45 1.12m198.44 2.04c-.68 0-1.29-.46-1.46-1.15-.19-.81.31-1.62 1.11-1.81 1.94-.46 3.88-.94 5.81-1.43.8-.2 1.62.28 1.82 1.09.2.8-.28 1.62-1.08 1.82-1.95.5-3.9.97-5.85 1.44-.12.03-.24.04-.35.04m-186.78.81c-.12 0-.23-.01-.34-.04-1.96-.45-3.91-.91-5.86-1.39-.81-.19-1.3-1.01-1.1-1.81.2-.81 1.01-1.3 1.81-1.1q2.895.705 5.82 1.38c.81.18 1.31.98 1.13 1.79-.16.7-.78 1.17-1.46 1.17m175.07 1.8c-.7 0-1.32-.49-1.47-1.2-.17-.81.35-1.6 1.17-1.77 1.95-.4 3.9-.82 5.84-1.26.8-.18 1.61.33 1.79 1.14a1.5 1.5 0 0 1-1.14 1.79c-1.96.44-3.92.86-5.89 1.27q-.15.03-.3.03m-163.34.7c-.1 0-.2-.01-.29-.03-1.98-.39-3.94-.79-5.9-1.21-.81-.17-1.33-.97-1.16-1.78.18-.81.98-1.33 1.78-1.15 1.95.41 3.9.81 5.86 1.2a1.5 1.5 0 0 1 1.18 1.76c-.14.72-.77 1.21-1.47 1.21m151.56 1.56a1.5 1.5 0 0 1-.26-2.98q2.94-.525 5.88-1.08c.81-.16 1.6.38 1.75 1.19.16.81-.38 1.6-1.19 1.76-1.97.37-3.94.74-5.92 1.09-.09.01-.18.02-.26.02m-139.76.6c-.08 0-.16-.01-.25-.02-1.98-.33-3.96-.68-5.93-1.04-.81-.15-1.35-.93-1.2-1.74.14-.82.93-1.36 1.74-1.21 1.96.36 3.92.7 5.89 1.03a1.501 1.501 0 0 1-.25 2.98m127.91 1.31c-.73 0-1.37-.53-1.48-1.28a1.5 1.5 0 0 1 1.27-1.7c1.97-.29 3.94-.59 5.9-.91.83-.14 1.59.42 1.72 1.24.14.82-.42 1.59-1.24 1.72-1.98.32-3.96.63-5.95.92-.07.01-.15.01-.22.01m-116.05.5c-.07 0-.14 0-.21-.01-1.99-.28-3.97-.57-5.95-.87-.82-.12-1.39-.89-1.26-1.71s.89-1.38 1.71-1.25c1.97.3 3.94.58 5.91.85.82.12 1.4.88 1.29 1.7-.11.75-.75 1.29-1.49 1.29m104.16 1.07c-.76 0-1.4-.57-1.49-1.33-.1-.82.49-1.57 1.31-1.66 1.99-.23 3.96-.48 5.94-.74.81-.1 1.57.47 1.68 1.29s-.47 1.58-1.29 1.69c-1.99.26-3.98.5-5.98.74-.06 0-.12.01-.17.01m-92.25.39c-.05 0-.11 0-.16-.01-2-.21-3.99-.44-5.98-.69-.83-.1-1.41-.85-1.31-1.67s.87-1.4 1.67-1.3c1.98.24 3.96.47 5.94.68.82.09 1.42.83 1.33 1.65-.08.77-.73 1.34-1.49 1.34m80.31.82c-.77 0-1.43-.59-1.49-1.37-.08-.82.54-1.55 1.36-1.62 1.99-.18 3.97-.36 5.95-.57.83-.08 1.56.52 1.65 1.35.08.82-.52 1.56-1.34 1.64q-3 .3-6 .57zm-68.36.29h-.12c-2.01-.16-4.01-.33-6-.52a1.497 1.497 0 1 1 .28-2.98c1.98.18 3.96.35 5.95.51a1.5 1.5 0 0 1 1.38 1.61c-.06.79-.72 1.38-1.49 1.38m56.39.58c-.79 0-1.45-.62-1.49-1.42-.05-.82.58-1.53 1.41-1.58 1.99-.11 3.98-.24 5.96-.39.82-.07 1.55.56 1.61 1.39s-.56 1.55-1.39 1.61c-2 .14-4 .27-6.01.39zm-44.42.19h-.08c-2-.1-4.01-.22-6.01-.34-.82-.06-1.45-.77-1.4-1.6.05-.82.74-1.45 1.59-1.4 1.99.13 3.98.24 5.97.34a1.5 1.5 0 0 1 1.43 1.57c-.04.8-.71 1.43-1.5 1.43m32.44.33c-.81 0-1.48-.65-1.5-1.46-.02-.83.63-1.52 1.46-1.54 1.99-.06 3.98-.13 5.97-.22.82-.03 1.53.61 1.56 1.44.04.82-.6 1.52-1.43 1.56-2 .09-4.01.16-6.02.22zm-20.46.08h-.03c-2.01-.04-4.01-.09-6.01-.16-.83-.03-1.48-.72-1.45-1.55s.71-1.49 1.55-1.45c1.99.07 3.97.12 5.97.16.82.02 1.48.71 1.47 1.53-.02.82-.69 1.47-1.5 1.47m8.46.09c-.83 0-1.65 0-2.48-.01-.83 0-1.49-.68-1.49-1.51.01-.82.68-1.49 1.5-1.49h.01c2.81.02 5.63.01 8.44-.03h.02c.82 0 1.49.65 1.5 1.48.01.82-.65 1.51-1.48 1.52-2 .03-4.01.04-6.02.04M416.8 140.02a1.5 1.5 0 0 1-1.5-1.48c-.01-.83.66-1.51 1.49-1.52 2-.02 4.02-.02 6.03-.01.83.01 1.49.69 1.48 1.52 0 .83-.67 1.51-1.51 1.48-1.99-.02-3.98-.01-5.97.01zm17.99.37h-.08c-1.98-.11-3.97-.19-5.96-.25-.83-.03-1.48-.72-1.45-1.55.02-.83.69-1.51 1.54-1.45 2.02.06 4.03.15 6.03.25.83.05 1.46.76 1.42 1.58-.05.8-.71 1.42-1.5 1.42m-29.98.03c-.79 0-1.45-.62-1.49-1.42-.05-.83.58-1.53 1.41-1.58 2.01-.11 4.04-.2 6.03-.27.81-.03 1.52.63 1.55 1.45.02.83-.63 1.52-1.45 1.55-2 .07-3.98.16-5.96.27zm41.94.87h-.14c-1.98-.19-3.96-.37-5.95-.52-.82-.06-1.44-.78-1.38-1.61.06-.82.8-1.45 1.61-1.38 2.01.15 4.01.33 6.01.52.82.08 1.43.82 1.34 1.64-.07.78-.72 1.35-1.49 1.35m-53.9.05c-.76 0-1.41-.58-1.49-1.35-.08-.83.52-1.56 1.34-1.64 2-.2 4-.38 6.01-.53.82-.08 1.55.55 1.61 1.38.07.83-.55 1.55-1.38 1.61-1.98.15-3.97.33-5.94.52-.05.01-.1.01-.15.01m65.81 1.38c-.07 0-.14 0-.21-.01-1.96-.28-3.95-.54-5.91-.78-.83-.1-1.41-.84-1.31-1.67.09-.82.85-1.42 1.66-1.31 1.99.24 4.01.5 5.98.79a1.5 1.5 0 0 1 1.28 1.69c-.11.75-.75 1.29-1.49 1.29m-77.72.07a1.503 1.503 0 0 1-.21-2.99c1.96-.28 3.98-.55 5.98-.79.82-.09 1.57.49 1.67 1.31s-.49 1.57-1.31 1.67c-1.98.24-3.97.5-5.91.78-.07.01-.15.02-.22.02m89.56 1.88c-.09 0-.18-.01-.28-.02-1.95-.37-3.91-.72-5.87-1.04a1.499 1.499 0 1 1 .49-2.96q2.97.495 5.94 1.05c.81.15 1.35.93 1.19 1.75a1.49 1.49 0 0 1-1.47 1.22m-101.39.09c-.71 0-1.34-.5-1.47-1.22-.16-.82.38-1.6 1.19-1.75 1.98-.38 3.95-.73 5.94-1.06.81-.14 1.59.41 1.73 1.23.13.82-.42 1.59-1.24 1.73-1.96.33-3.92.67-5.87 1.04-.09.02-.19.03-.28.03m113.13 2.38c-.11 0-.23-.01-.34-.03-1.94-.46-3.88-.89-5.83-1.3-.81-.17-1.33-.97-1.16-1.78s.97-1.33 1.78-1.16c1.98.42 3.96.86 5.89 1.31.81.19 1.31 1 1.12 1.81-.16.69-.78 1.15-1.46 1.15m-124.86.11c-.68 0-1.3-.46-1.46-1.15-.19-.81.31-1.62 1.11-1.81 1.95-.46 3.93-.9 5.89-1.32.8-.17 1.61.35 1.78 1.16s-.35 1.61-1.16 1.78c-1.94.41-3.89.85-5.82 1.3-.11.03-.23.04-.34.04m136.48 2.88c-.14 0-.27-.01-.41-.05-1.92-.54-3.85-1.06-5.76-1.55-.8-.21-1.28-1.03-1.08-1.83.21-.8 1.03-1.28 1.83-1.08 1.93.5 3.89 1.02 5.82 1.57a1.5 1.5 0 0 1 1.04 1.85c-.19.66-.79 1.09-1.44 1.09m-148.1.14a1.503 1.503 0 0 1-.41-2.95c1.92-.54 3.88-1.07 5.83-1.58.8-.2 1.62.28 1.82 1.08a1.5 1.5 0 0 1-1.07 1.83c-1.93.5-3.87 1.02-5.76 1.56-.14.04-.27.06-.41.06m159.57 3.37c-.16 0-.31-.02-.47-.08-1.89-.62-3.78-1.22-5.69-1.8a1.503 1.503 0 0 1-.99-1.88 1.49 1.49 0 0 1 1.87-.99c1.93.59 3.86 1.2 5.75 1.82a1.5 1.5 0 0 1 .95 1.9c-.2.63-.79 1.03-1.42 1.03m-171.06.16c-.63 0-1.21-.4-1.42-1.03-.26-.78.16-1.63.95-1.89 1.91-.64 3.85-1.26 5.77-1.85.79-.24 1.63.2 1.87.99.25.8-.2 1.64-.99 1.88-1.91.59-3.81 1.19-5.7 1.82-.16.06-.32.08-.48.08m182.37 3.85c-.18 0-.36-.03-.54-.1-1.85-.7-3.72-1.39-5.6-2.05a1.51 1.51 0 0 1-.91-1.92c.28-.78 1.14-1.19 1.92-.91 1.9.67 3.8 1.37 5.66 2.08.77.29 1.16 1.16.87 1.93-.23.6-.8.97-1.4.97m-193.7.2c-.61 0-1.18-.37-1.41-.97-.29-.77.1-1.64.87-1.93 1.86-.72 3.77-1.42 5.68-2.1.78-.28 1.63.13 1.91.91s-.12 1.63-.91 1.91c-1.88.67-3.77 1.37-5.61 2.08-.17.07-.36.1-.53.1m204.79 4.3c-.2 0-.4-.04-.59-.12-1.82-.79-3.67-1.56-5.48-2.3a1.495 1.495 0 0 1-.83-1.95c.31-.77 1.18-1.13 1.95-.83 1.84.75 3.71 1.53 5.55 2.32.76.33 1.11 1.22.78 1.98-.24.56-.8.9-1.38.9m-215.93.24c-.58 0-1.13-.34-1.38-.9-.33-.76.02-1.64.78-1.97 1.83-.8 3.7-1.59 5.57-2.35.77-.32 1.65.05 1.96.82s-.06 1.64-.82 1.96c-1.85.75-3.69 1.52-5.52 2.32-.19.08-.39.12-.59.12m-10.93 5.04c-.55 0-1.09-.31-1.34-.84-.37-.75-.06-1.65.68-2.01 1.82-.89 3.66-1.76 5.47-2.59.75-.35 1.64-.02 1.99.73s.02 1.65-.74 1.99c-1.79.83-3.61 1.69-5.4 2.57-.21.1-.44.15-.66.15m248.38 5.16c-.24 0-.48-.06-.71-.18-1.75-.95-3.5-1.87-5.27-2.78a1.494 1.494 0 0 1-.65-2.01c.38-.74 1.29-1.03 2.02-.66 1.79.92 3.56 1.86 5.33 2.81.72.39 1 1.3.6 2.03-.27.5-.79.79-1.32.79m-259.06.35a1.501 1.501 0 0 1-.72-2.82c1.76-.96 3.56-1.91 5.34-2.83.74-.38 1.64-.09 2.02.65.38.73.09 1.64-.64 2.02-1.77.91-3.54 1.85-5.28 2.8-.23.12-.48.18-.72.18m269.46 5.57c-.26 0-.53-.06-.77-.21-1.7-1.02-3.41-2.02-5.14-3-.72-.41-.97-1.33-.56-2.05s1.33-.97 2.05-.56c1.74.99 3.47 2.01 5.19 3.04.71.42.94 1.34.52 2.06-.28.46-.78.72-1.29.72m-279.89.41c-.51 0-1-.26-1.28-.73-.43-.71-.2-1.63.51-2.06 1.72-1.04 3.46-2.06 5.21-3.06.71-.41 1.63-.17 2.04.55s.17 1.64-.55 2.05c-1.73.99-3.45 2-5.15 3.03-.25.15-.51.22-.78.22m290.02 5.97c-.28 0-.57-.08-.82-.24-1.66-1.1-3.33-2.17-5.01-3.23-.7-.45-.91-1.37-.47-2.07s1.37-.91 2.07-.47c1.7 1.07 3.39 2.16 5.06 3.26.69.46.88 1.39.43 2.08-.29.44-.77.67-1.26.67m-300.16.46c-.49 0-.97-.24-1.25-.67-.46-.69-.28-1.62.41-2.08 1.67-1.11 3.38-2.22 5.07-3.29.7-.44 1.62-.24 2.07.46.44.7.24 1.63-.47 2.07a267 267 0 0 0-5 3.26c-.26.17-.55.25-.83.25m310.01 6.36c-.3 0-.61-.09-.88-.28-1.6-1.16-3.23-2.32-4.86-3.45-.68-.47-.85-1.4-.38-2.09.47-.68 1.41-.85 2.09-.38 1.64 1.14 3.3 2.32 4.91 3.49.67.49.82 1.42.34 2.09-.3.41-.76.62-1.22.62m-319.87.51a1.503 1.503 0 0 1-.88-2.72c1.62-1.18 3.26-2.35 4.91-3.5.68-.48 1.62-.31 2.09.37s.31 1.61-.37 2.09c-1.64 1.14-3.26 2.29-4.86 3.47-.27.19-.58.29-.89.29m329.41 6.74c-.32 0-.65-.1-.93-.32q-2.325-1.86-4.71-3.66c-.66-.5-.78-1.44-.28-2.1s1.44-.79 2.1-.29c1.6 1.22 3.18 2.45 4.76 3.7.65.52.75 1.46.24 2.11-.3.37-.74.56-1.18.56m-338.94.55c-.44 0-.88-.19-1.17-.56-.52-.65-.42-1.59.23-2.11 1.57-1.26 3.16-2.5 4.75-3.72.66-.5 1.6-.38 2.11.28.5.66.37 1.6-.28 2.1-1.59 1.21-3.15 2.44-4.71 3.68-.27.22-.6.33-.93.33m-9.21 7.7c-.41 0-.83-.17-1.13-.51-.54-.62-.48-1.57.14-2.12 1.52-1.32 3.05-2.63 4.59-3.92.63-.53 1.58-.45 2.11.19.53.63.45 1.58-.19 2.11-1.52 1.28-3.03 2.57-4.53 3.88-.28.25-.64.37-.99.37m366.25 7.48c-.37 0-.75-.14-1.04-.41-1.44-1.37-2.91-2.74-4.37-4.06a1.502 1.502 0 0 1 2.02-2.22c1.47 1.34 2.96 2.72 4.42 4.1.6.57.62 1.52.05 2.12-.29.31-.69.47-1.08.47m-375.1.62c-.4 0-.79-.16-1.09-.46-.57-.6-.55-1.55.05-2.13 1.45-1.38 2.92-2.76 4.41-4.11.61-.56 1.56-.52 2.12.09s.51 1.56-.1 2.12c-1.47 1.34-2.92 2.7-4.36 4.07-.29.28-.66.42-1.03.42m383.61 7.83c-.39 0-.78-.16-1.08-.46a240 240 0 0 0-4.19-4.25 1.5 1.5 0 0 1 0-2.12 1.5 1.5 0 0 1 2.12-.01c1.42 1.42 2.84 2.85 4.23 4.29.58.6.56 1.55-.03 2.12-.3.29-.67.43-1.05.43m-392.1.65c-.37 0-.75-.14-1.04-.42-.6-.57-.62-1.52-.04-2.12 1.37-1.43 2.79-2.88 4.22-4.31a1.49 1.49 0 0 1 2.12 0c.58.59.58 1.54 0 2.12-1.42 1.41-2.82 2.85-4.18 4.26-.29.31-.69.47-1.08.47m400.24 8.16c-.41 0-.82-.17-1.12-.51-1.32-1.49-2.66-2.98-4-4.42a1.5 1.5 0 0 1 .08-2.12c.61-.57 1.56-.53 2.12.08 1.36 1.46 2.72 2.97 4.05 4.48.55.62.49 1.57-.13 2.11-.29.26-.64.38-1 .38m-408.35.67c-.35 0-.7-.12-.99-.37-.62-.55-.68-1.5-.14-2.12 1.33-1.51 2.67-3.01 4.03-4.49a1.501 1.501 0 0 1 2.21 2.03c-1.34 1.47-2.67 2.95-3.98 4.44-.3.34-.71.51-1.13.51m416.1 8.5c-.43 0-.87-.2-1.16-.56-1.26-1.56-2.54-3.11-3.81-4.6-.53-.63-.45-1.58.18-2.12.63-.53 1.58-.45 2.11.18 1.28 1.51 2.58 3.08 3.85 4.65a1.504 1.504 0 0 1-1.17 2.45m-423.81.68c-.33 0-.66-.11-.94-.33-.64-.52-.75-1.46-.23-2.11 1.25-1.55 2.53-3.12 3.83-4.66.53-.63 1.48-.71 2.11-.18s.72 1.48.18 2.11c-1.28 1.52-2.55 3.07-3.78 4.61-.3.37-.73.56-1.17.56m431.15 8.82c-.46 0-.91-.22-1.2-.61-1.18-1.6-2.39-3.2-3.6-4.77a1.49 1.49 0 0 1 .27-2.1c.65-.51 1.6-.39 2.1.27 1.23 1.58 2.45 3.2 3.64 4.81.49.67.35 1.61-.32 2.1-.26.2-.58.3-.89.3m-438.45.68c-.31 0-.62-.09-.88-.29-.67-.49-.82-1.43-.33-2.09 1.19-1.62 2.4-3.23 3.62-4.82.5-.66 1.44-.79 2.1-.28s.78 1.45.28 2.1c-1.21 1.58-2.4 3.17-3.58 4.77-.29.4-.75.61-1.21.61m445.37 9.13c-.48 0-.95-.23-1.24-.66a320 320 0 0 0-3.39-4.92c-.48-.68-.32-1.61.36-2.09s1.61-.32 2.09.36c1.14 1.61 2.29 3.29 3.43 4.97.46.69.28 1.62-.41 2.09-.26.17-.55.25-.84.25m-452.24.69c-.28 0-.57-.08-.83-.26-.69-.46-.87-1.39-.41-2.08 1.11-1.67 2.24-3.32 3.4-4.97.47-.68 1.41-.84 2.08-.36.68.47.85 1.41.37 2.08q-1.71 2.445-3.36 4.92c-.29.43-.76.67-1.25.67m458.72 9.43c-.5 0-1-.26-1.28-.72-1.03-1.7-2.09-3.39-3.16-5.07-.45-.7-.25-1.62.45-2.07a1.5 1.5 0 0 1 2.07.45c1.08 1.68 2.16 3.41 3.2 5.13a1.498 1.498 0 0 1-1.28 2.28m-465.15.67c-.27 0-.53-.07-.78-.22-.7-.43-.93-1.35-.5-2.06 1.04-1.72 2.1-3.42 3.18-5.11.44-.7 1.37-.9 2.07-.46s.9 1.37.46 2.07c-1.07 1.67-2.12 3.36-3.15 5.06-.28.46-.77.72-1.28.72m471.18 9.72c-.52 0-1.04-.28-1.31-.78-.96-1.73-1.94-3.48-2.94-5.2-.42-.71-.17-1.63.54-2.05.72-.41 1.64-.17 2.05.55 1.01 1.74 2.01 3.5 2.98 5.26.4.72.13 1.64-.59 2.03-.23.13-.48.19-.73.19m-477.16.65a1.498 1.498 0 0 1-1.31-2.22c.96-1.76 1.95-3.51 2.95-5.25.41-.72 1.33-.96 2.05-.55.71.41.96 1.33.55 2.05-.99 1.72-1.97 3.45-2.92 5.19-.27.5-.78.78-1.32.78m482.73 10.01c-.55 0-1.08-.31-1.35-.84-.87-1.77-1.78-3.56-2.7-5.33-.39-.73-.1-1.64.63-2.02.73-.39 1.64-.1 2.02.63.94 1.79 1.86 3.6 2.74 5.39.37.75.07 1.65-.68 2.01-.21.11-.44.16-.66.16m-488.24.61c-.22 0-.45-.05-.66-.15a1.5 1.5 0 0 1-.68-2.01c.88-1.8 1.78-3.59 2.71-5.37.38-.74 1.29-1.02 2.02-.64.74.38 1.02 1.29.64 2.02-.91 1.76-1.81 3.53-2.68 5.31-.26.53-.8.84-1.35.84m-5.03 10.85c-.2 0-.41-.04-.6-.13a1.51 1.51 0 0 1-.78-1.98c.81-1.83 1.63-3.66 2.47-5.48a1.52 1.52 0 0 1 2-.73c.75.35 1.07 1.24.73 2-.84 1.79-1.65 3.6-2.45 5.42-.24.56-.8.9-1.37.9m-4.56 11.07a1.504 1.504 0 0 1-1.4-2.04c.73-1.88 1.47-3.75 2.23-5.6a1.502 1.502 0 1 1 2.78 1.14c-.76 1.83-1.49 3.68-2.21 5.54-.23.59-.8.96-1.4.96m-4.07 11.29a1.503 1.503 0 0 1-1.42-1.98c.64-1.9 1.3-3.82 1.98-5.7.28-.78 1.14-1.18 1.92-.9s1.19 1.14.9 1.92c-.67 1.86-1.33 3.75-1.96 5.63-.21.63-.79 1.03-1.42 1.03m-9.14 34.78c-.1 0-.19-.01-.29-.03a1.5 1.5 0 0 1-1.19-1.75c.39-1.98.79-3.95 1.21-5.91.18-.81.98-1.33 1.79-1.15.8.17 1.32.97 1.14 1.78-.41 1.94-.81 3.89-1.19 5.85-.14.71-.77 1.21-1.47 1.21m.73 107.27c-.69 0-1.32-.48-1.47-1.19-.4-1.97-.79-3.94-1.15-5.92-.15-.82.38-1.6 1.2-1.75.81-.14 1.6.39 1.75 1.2.36 1.96.74 3.91 1.14 5.86a1.495 1.495 0 0 1-1.47 1.8m2.7 11.69c-.67 0-1.28-.45-1.46-1.13-.49-1.92-.96-3.89-1.42-5.86-.18-.81.32-1.61 1.13-1.8.8-.18 1.61.32 1.8 1.13.44 1.94.92 3.89 1.4 5.79.21.81-.28 1.62-1.08 1.83-.13.03-.25.04-.37.04m3.21 11.56c-.65 0-1.24-.42-1.44-1.06-.57-1.91-1.14-3.86-1.68-5.8-.22-.8.25-1.62 1.05-1.85a1.5 1.5 0 0 1 1.84 1.05c.54 1.91 1.09 3.84 1.66 5.73.24.79-.21 1.63-1 1.87-.14.04-.29.06-.43.06m513.1 22.18c-.18 0-.37-.03-.56-.1a1.495 1.495 0 0 1-.83-1.95c.74-1.85 1.45-3.7 2.15-5.57a1.49 1.49 0 0 1 1.93-.87c.78.29 1.17 1.15.88 1.93-.71 1.88-1.43 3.76-2.18 5.62-.23.59-.79.94-1.39.94m-4.68 11a1.5 1.5 0 0 1-.62-.13 1.5 1.5 0 0 1-.75-1.98c.82-1.81 1.61-3.62 2.39-5.45.32-.76 1.21-1.12 1.97-.79.76.32 1.12 1.2.79 1.96-.78 1.84-1.59 3.7-2.41 5.51-.25.56-.8.88-1.37.88m-5.17 10.79a1.497 1.497 0 0 1-1.33-2.18c.89-1.76 1.77-3.54 2.62-5.33.36-.75 1.26-1.07 2.01-.71.74.36 1.06 1.26.7 2-.87 1.81-1.75 3.61-2.66 5.4-.26.52-.79.82-1.34.82m-485.32.64c-.54 0-1.07-.3-1.33-.82-.92-1.8-1.81-3.6-2.69-5.42-.36-.75-.05-1.64.7-2 .74-.36 1.64-.05 2 .7.87 1.79 1.76 3.58 2.66 5.36.38.73.08 1.64-.66 2.01-.21.11-.45.17-.68.17m479.68 9.91a1.494 1.494 0 0 1-1.3-2.23c.97-1.73 1.92-3.47 2.86-5.22a1.49 1.49 0 0 1 2.03-.61c.73.39 1.01 1.3.61 2.03-.94 1.76-1.91 3.52-2.89 5.27-.27.49-.78.76-1.31.76m-473.98.67c-.53 0-1.03-.27-1.31-.76-.99-1.75-1.98-3.53-2.92-5.29a1.499 1.499 0 0 1 2.64-1.42c.93 1.74 1.91 3.5 2.89 5.23a1.5 1.5 0 0 1-1.3 2.24m467.88 9.63c-.27 0-.54-.07-.79-.22-.7-.44-.92-1.36-.48-2.07 1.05-1.68 2.08-3.38 3.09-5.09.42-.71 1.34-.94 2.06-.52.71.42.95 1.34.52 2.05-1.02 1.73-2.06 3.44-3.12 5.15-.29.45-.78.7-1.28.7m-461.73.69c-.5 0-.99-.25-1.27-.7-1.06-1.69-2.12-3.43-3.15-5.15-.43-.72-.19-1.64.52-2.06s1.63-.19 2.05.52q1.53 2.565 3.12 5.1a1.492 1.492 0 0 1-1.27 2.29m455.18 9.34a1.498 1.498 0 0 1-1.23-2.35c1.12-1.64 2.22-3.29 3.31-4.95.45-.69 1.38-.89 2.07-.43.7.45.89 1.38.44 2.07-1.1 1.68-2.22 3.35-3.35 5.01-.29.42-.76.65-1.24.65m-448.58.7c-.47 0-.94-.23-1.23-.65-1.15-1.66-2.27-3.33-3.38-5.01-.45-.69-.26-1.62.43-2.08.69-.45 1.62-.26 2.08.43a239 239 0 0 0 3.34 4.96c.47.68.29 1.61-.39 2.08-.26.18-.55.27-.85.27m441.59 9.03c-.31 0-.63-.1-.9-.3-.66-.5-.79-1.44-.29-2.1 1.19-1.58 2.37-3.2 3.52-4.8.49-.68 1.42-.83 2.1-.35.67.49.83 1.42.34 2.1a208 208 0 0 1-3.57 4.85c-.29.39-.74.6-1.2.6m-434.55.7c-.46 0-.9-.2-1.2-.59-1.21-1.61-2.41-3.23-3.59-4.86-.49-.67-.33-1.61.34-2.09.67-.49 1.6-.34 2.09.34 1.17 1.61 2.35 3.21 3.55 4.8.5.66.37 1.6-.29 2.1-.27.2-.59.3-.9.3m427.14 8.72a1.495 1.495 0 0 1-1.15-2.45c1.26-1.54 2.52-3.1 3.73-4.65.52-.65 1.46-.76 2.11-.25s.76 1.46.25 2.11c-1.23 1.56-2.5 3.14-3.78 4.69-.29.36-.72.55-1.16.55m-419.69.69c-.43 0-.86-.18-1.16-.54-1.28-1.55-2.54-3.12-3.79-4.69-.52-.65-.41-1.59.24-2.11.65-.51 1.59-.4 2.11.25 1.23 1.56 2.49 3.1 3.76 4.63.52.64.43 1.59-.2 2.12-.28.23-.62.34-.96.34m411.88 8.4a1.499 1.499 0 0 1-1.12-2.5c1.33-1.48 2.64-2.97 3.94-4.48.54-.63 1.48-.7 2.11-.16s.7 1.49.16 2.12c-1.3 1.51-2.64 3.03-3.98 4.52-.29.33-.7.5-1.11.5m-404.02.67c-.41 0-.82-.16-1.12-.49-1.35-1.49-2.68-3-4-4.52-.54-.62-.47-1.57.16-2.11.62-.55 1.57-.48 2.11.15q1.95 2.25 3.96 4.47c.55.61.51 1.56-.11 2.11-.28.26-.64.39-1 .39m395.8 8.07a1.5 1.5 0 0 1-1.07-2.55c1.4-1.42 2.77-2.86 4.14-4.3.56-.61 1.51-.64 2.12-.07.6.57.63 1.52.06 2.12-1.37 1.46-2.77 2.91-4.18 4.35-.29.3-.68.45-1.07.45m-387.56.65a1.5 1.5 0 0 1-1.07-.45c-1.4-1.41-2.81-2.87-4.19-4.33a1.5 1.5 0 0 1 .06-2.12c.6-.57 1.55-.55 2.12.06 1.37 1.44 2.76 2.88 4.15 4.28.58.59.57 1.54-.01 2.12-.3.29-.68.44-1.06.44m378.97 7.72c-.4 0-.8-.16-1.09-.48-.57-.6-.54-1.55.07-2.12 1.45-1.35 2.89-2.73 4.32-4.11a1.5 1.5 0 0 1 2.12.02c.58.6.57 1.55-.03 2.12-1.44 1.41-2.89 2.8-4.36 4.17-.29.27-.66.4-1.03.4m-370.35.62c-.37 0-.73-.13-1.02-.4-1.48-1.36-2.94-2.75-4.38-4.15a1.49 1.49 0 0 1-.03-2.12 1.5 1.5 0 0 1 2.12-.03c1.43 1.38 2.87 2.75 4.33 4.1.6.56.64 1.51.08 2.12-.3.32-.7.48-1.1.48m361.4 7.37c-.42 0-.84-.18-1.14-.52-.54-.63-.46-1.58.17-2.12a300 300 0 0 0 4.49-3.92c.62-.56 1.57-.5 2.12.12.55.61.5 1.56-.12 2.11-1.48 1.33-3.01 2.66-4.54 3.97-.29.24-.63.36-.98.36m-352.43.59c-.35 0-.69-.12-.97-.36-1.54-1.3-3.05-2.62-4.56-3.95-.62-.55-.67-1.5-.12-2.12s1.49-.68 2.11-.12c1.49 1.32 2.99 2.62 4.51 3.9a1.505 1.505 0 0 1-.97 2.65m343.14 7.01c-.45 0-.89-.2-1.19-.58-.51-.65-.39-1.6.26-2.11 1.57-1.22 3.13-2.46 4.67-3.72.64-.53 1.58-.43 2.11.21.52.64.43 1.59-.21 2.11-1.56 1.28-3.13 2.53-4.72 3.77-.27.21-.6.32-.92.32m-333.84.54c-.32 0-.64-.1-.92-.32-1.58-1.23-3.16-2.48-4.72-3.74-.64-.52-.74-1.47-.21-2.11.52-.64 1.46-.74 2.11-.22 1.54 1.25 3.09 2.49 4.66 3.71.66.5.78 1.45.27 2.1-.3.38-.74.58-1.19.58m324.21 6.64c-.47 0-.93-.22-1.22-.63-.48-.68-.32-1.61.35-2.1q2.43-1.725 4.83-3.51a1.5 1.5 0 0 1 2.1.3c.49.66.35 1.61-.31 2.1-1.61 1.2-3.24 2.39-4.88 3.56-.26.19-.56.28-.87.28m-314.58.49c-.3 0-.6-.09-.86-.27a250 250 0 0 1-4.88-3.54 1.49 1.49 0 0 1-.32-2.09c.5-.67 1.44-.81 2.1-.32 1.6 1.19 3.2 2.35 4.83 3.5.67.48.83 1.41.36 2.09-.3.41-.76.63-1.23.63m304.65 6.26c-.49 0-.97-.24-1.26-.69a1.5 1.5 0 0 1 .44-2.07q2.505-1.62 4.98-3.3c.68-.47 1.62-.29 2.08.39.47.69.29 1.62-.39 2.09a338 338 0 0 1-5.04 3.34 1.5 1.5 0 0 1-.81.24m-294.72.45a1.5 1.5 0 0 1-.81-.24c-1.69-1.09-3.37-2.19-5.03-3.32a1.497 1.497 0 1 1 1.68-2.48c1.64 1.11 3.3 2.2 4.97 3.28.7.44.9 1.37.45 2.07-.29.44-.77.69-1.26.69m284.5 5.86c-.52 0-1.02-.27-1.3-.74a1.51 1.51 0 0 1 .53-2.06c1.72-1.01 3.43-2.03 5.13-3.08.7-.43 1.62-.21 2.06.49.43.71.21 1.63-.49 2.06-1.71 1.06-3.44 2.1-5.18 3.12-.24.14-.5.21-.75.21m-274.29.39c-.26 0-.52-.06-.76-.2-1.73-1.01-3.46-2.04-5.17-3.09-.7-.43-.92-1.36-.49-2.06.43-.71 1.36-.93 2.06-.5 1.69 1.04 3.4 2.06 5.11 3.06.72.41.96 1.33.54 2.05-.28.48-.78.74-1.29.74m263.79 5.46a1.501 1.501 0 0 1-.7-2.83q2.64-1.395 5.25-2.85c.72-.4 1.63-.14 2.04.58.4.72.14 1.64-.58 2.04-1.74.97-3.53 1.94-5.31 2.89-.23.11-.46.17-.7.17m-253.33.34c-.23 0-.47-.05-.69-.17-1.78-.93-3.55-1.89-5.3-2.86-.72-.4-.98-1.31-.58-2.04.4-.72 1.31-.98 2.04-.58 1.73.96 3.48 1.9 5.23 2.82a1.501 1.501 0 0 1-.7 2.83m242.58 5.04c-.56 0-1.1-.31-1.36-.85a1.51 1.51 0 0 1 .71-2c1.81-.85 3.6-1.73 5.38-2.62a1.498 1.498 0 0 1 1.34 2.68c-1.8.9-3.61 1.79-5.43 2.65-.21.1-.43.14-.64.14m-231.87.29c-.21 0-.43-.04-.63-.14-1.82-.86-3.62-1.73-5.42-2.62a1.5 1.5 0 0 1-.67-2.01c.37-.74 1.27-1.05 2.01-.68 1.77.89 3.56 1.75 5.35 2.59.75.36 1.07 1.25.72 2-.25.54-.79.86-1.36.86m220.88 4.62c-.58 0-1.14-.35-1.38-.92-.32-.76.04-1.64.8-1.97 1.84-.77 3.69-1.57 5.49-2.37.76-.34 1.64 0 1.98.75.34.76 0 1.65-.76 1.99-1.82.81-3.68 1.62-5.55 2.4-.19.08-.38.12-.58.12m-209.95.23c-.19 0-.39-.04-.57-.12-1.83-.76-3.69-1.56-5.53-2.37a1.514 1.514 0 0 1-.76-1.98c.34-.76 1.22-1.1 1.98-.77 1.81.81 3.65 1.6 5.46 2.35.77.32 1.13 1.2.81 1.97-.24.57-.8.92-1.39.92m198.76 4.18a1.5 1.5 0 0 1-.52-2.91c1.85-.68 3.74-1.4 5.59-2.13.77-.3 1.64.08 1.95.85.3.77-.08 1.64-.85 1.94-1.87.74-3.78 1.47-5.66 2.16q-.255.09-.51.09m-187.61.19c-.17 0-.34-.03-.51-.1-1.87-.68-3.77-1.4-5.64-2.13-.77-.31-1.16-1.18-.85-1.95.3-.77 1.17-1.15 1.94-.85 1.85.73 3.71 1.43 5.58 2.12.78.28 1.18 1.14.89 1.92-.22.61-.79.99-1.41.99m176.22 3.72c-.64 0-1.23-.41-1.43-1.05-.25-.78.18-1.63.97-1.88 1.91-.61 3.8-1.23 5.69-1.88.78-.27 1.64.15 1.9.93.27.79-.14 1.64-.93 1.91-1.9.65-3.82 1.29-5.75 1.9-.15.05-.3.07-.45.07m-164.86.15c-.15 0-.3-.02-.45-.07-1.91-.6-3.84-1.24-5.74-1.88-.78-.27-1.2-1.13-.93-1.91s1.12-1.2 1.9-.93c1.88.64 3.79 1.26 5.67 1.86a1.498 1.498 0 0 1-.45 2.93m153.35 3.24a1.501 1.501 0 0 1-.39-2.95c1.93-.52 3.86-1.07 5.74-1.62.79-.24 1.63.22 1.86 1.01.24.8-.22 1.63-1.01 1.87-1.9.56-3.86 1.11-5.81 1.64-.13.03-.26.05-.39.05m-141.84.13c-.13 0-.26-.02-.39-.05-1.92-.52-3.88-1.07-5.81-1.63a1.5 1.5 0 0 1-1.01-1.86c.23-.8 1.06-1.25 1.86-1.02 1.9.56 3.84 1.1 5.74 1.61.8.21 1.28 1.03 1.06 1.84-.18.67-.78 1.11-1.45 1.11m130.19 2.74c-.69 0-1.31-.47-1.46-1.17a1.5 1.5 0 0 1 1.13-1.79c1.95-.44 3.88-.89 5.81-1.37.81-.2 1.62.29 1.82 1.1.2.8-.29 1.62-1.1 1.81-1.93.48-3.91.95-5.87 1.38-.11.03-.22.04-.33.04m-118.53.11c-.11 0-.22-.01-.33-.04-1.94-.43-3.91-.89-5.87-1.37-.81-.19-1.3-1.01-1.1-1.81.19-.8 1.01-1.3 1.81-1.1 1.94.47 3.89.93 5.81 1.35a1.5 1.5 0 0 1 1.14 1.79c-.15.7-.77 1.18-1.46 1.18m106.77 2.24a1.495 1.495 0 0 1-.26-2.97c1.96-.35 3.91-.72 5.86-1.11a1.5 1.5 0 0 1 1.76 1.18c.17.81-.36 1.6-1.17 1.76-1.97.4-3.95.77-5.93 1.12-.09.02-.18.02-.26.02m-95.01.09c-.08 0-.17-.01-.26-.02-1.98-.35-3.96-.72-5.92-1.11a1.5 1.5 0 0 1-1.19-1.76 1.5 1.5 0 0 1 1.77-1.18c1.94.38 3.9.75 5.86 1.09a1.5 1.5 0 0 1-.26 2.98m83.15 1.74c-.74 0-1.39-.55-1.49-1.3a1.5 1.5 0 0 1 1.3-1.68c1.96-.26 3.95-.55 5.9-.85.81-.12 1.59.44 1.71 1.26a1.5 1.5 0 0 1-1.25 1.71c-1.98.3-3.98.59-5.97.85-.07.01-.14.01-.2.01m-71.29.07c-.06 0-.13-.01-.19-.01-2-.26-3.99-.55-5.97-.85-.82-.12-1.39-.89-1.26-1.71.12-.82.89-1.38 1.71-1.25 1.96.3 3.93.57 5.9.83.83.11 1.41.86 1.3 1.68a1.5 1.5 0 0 1-1.49 1.31m59.36 1.24c-.76 0-1.42-.59-1.49-1.37a1.51 1.51 0 0 1 1.37-1.63c1.98-.17 3.96-.36 5.93-.58.83-.08 1.57.5 1.66 1.33.09.82-.51 1.56-1.33 1.65-1.99.22-4 .42-6 .59-.05.01-.09.01-.14.01m-47.43.04h-.13c-1.98-.17-4-.37-6-.58a1.503 1.503 0 0 1 .32-2.99c1.98.22 3.98.41 5.94.58.82.07 1.44.79 1.37 1.62a1.51 1.51 0 0 1-1.5 1.37m35.46.74c-.79 0-1.46-.63-1.49-1.43a1.5 1.5 0 0 1 1.43-1.57c1.99-.08 3.98-.19 5.96-.32.8-.06 1.54.57 1.59 1.4.06.82-.57 1.54-1.4 1.59-2 .13-4.01.24-6.02.33zm-23.49.02h-.06c-2.01-.08-4.02-.19-6.02-.32-.83-.05-1.46-.76-1.4-1.59.05-.83.77-1.46 1.59-1.4 1.98.13 3.96.23 5.96.31.82.04 1.47.74 1.43 1.56a1.5 1.5 0 0 1-1.5 1.44m11.5.24c-1.85 0-3.7-.02-5.54-.05-.83-.02-1.49-.71-1.47-1.53.01-.82.68-1.47 1.5-1.47h.03c3.8.07 7.64.07 11.45-.02.81-.01 1.51.64 1.53 1.47s-.64 1.52-1.47 1.53c-2 .05-4.01.07-6.03.07"/><path fill="#acc0dc" fill-opacity=".196" d="M703.9 371.34c0 7.01-1.32 13.86-3.91 20.37 6.95-1.99 12.05-8.39 12.05-16 0-6.55-3.78-12.2-9.27-14.91.7 3.4 1.08 6.91 1.13 10.54M629.42 359.07c-1.66 2.43-2.92 5.35-3.78 8.83l-.05.22c-.23 8.68-7.4 15.67-16.16 15.67-8.86 0-16.09-7.19-16.11-16.04v-.24c.16-2.08.32-3 .44-3.51.27-1.67.62-3.32 1.03-4.93h-8.01c-9.17 0-16.6-7.45-16.6-16.64 0-4.83 2.06-9.16 5.34-12.2-1.51.94-3.3.52-4.89.14-1.45-.35-2.81-.68-3.79-.07-.93.58-1.67 2.03-2.19 4.32-1.83 8.01-4.42 9.31-7.88 10.29-2.18.61-4.24 1.19-6.52 6.14-3.65 7.91-6.92 10.39-9.81 12.58-1.61 1.22-3.13 2.37-4.66 4.43-1.64 2.19-2.55 4.93-3.52 7.83-1.58 4.75-3.38 10.13-8.79 15.03l-1.56 1.44h134.33c3.51-1.04 6.48-2.67 8.85-4.93l.02-.02.02-.02c4.34-4 6.45-9.08 6.46-15.53-.12-5-1.43-9.21-3.97-12.79zM661.01 292.5h-80.96c-3.32 6.37-3.1 13.36-2.2 27.65.3 4.85-.12 7.7-1.39 9.25 2.84-2.25 6.42-3.61 10.32-3.61h33.24c7.93-4.72 16.87-7.17 26.71-7.29h.06c8.79.08 16.72 1.51 23.76 4.25 4.27-3.02 7.06-7.98 7.06-13.61 0-9.19-7.43-16.64-16.6-16.64M285.6 458.93h29.9c-3.01-5.59-5.21-11.31-6.57-17.15-20.98 8.94-23.68 14.54-23.33 17.15M370.02 292.5c-3.78 0-7.26 1.26-10.04 3.39-3.99 3.04 7.53 15.45 7.53 15.45l36.22-13.03 75.58 27.19h38.5c7.7 0 14.13 5.78 15.8 13.53.7-1.7 1.39-3.41 2.08-5.13 1.37-8.4 1.04-14.37-.98-17.77-2.3-3.88-2.79-8.73-1.26-12.66 1-2.59 3.35-6.04 8.88-7.73 2.08-.64 3.78-1.78 4.98-3.24zM500.23 360.5v31.86h6.1c6.54-10.28 12.72-21.49 18.51-33.61-2.13 1.11-4.5 1.75-7.03 1.75z"/><path fill="#acc0dc" fill-opacity=".196" d="M288.92 492.21h-20.47c-9.17 0-16.6-7.45-16.6-16.64s7.43-16.64 16.6-16.64h10.23c1.49-6.45 11.25-13.09 29.61-20.18-.7-3.81-1.06-7.67-1.06-11.56v-68.12H265.5c-9.17 0-16.6 7.45-16.6 16.64s7.43 16.65 16.6 16.65h19.94c9.17 0 16.6 7.45 16.6 16.64s-7.43 16.64-16.6 16.64h-57.05v5.68h9.14c7.98 0 14.51 6.52 14.51 14.49s-6.53 14.49-14.51 14.49h-9.14v21.03c0 9.44-7.74 17.17-17.2 17.17-5.42 0-10.28-2.55-13.43-6.5-.83.13-1.66.21-2.52.21H91.04c-9.17 0-16.6 7.45-16.6 16.65 0 9.19 7.43 16.64 16.6 16.64h197.88c9.17 0 16.6-7.45 16.6-16.64 0-9.2-7.43-16.65-16.6-16.65"/><path fill="#a3b1bf" fill-rule="evenodd" d="m309.69 438.21 1.1 2.79c-.64.26-1.26.52-1.87.78 2.36 10.09 7.19 19.85 14.44 29.15.43.56.88 1.11 1.34 1.67q2.205.315 4.44.6c-1.2-1.36-2.34-2.74-3.42-4.12-10.28-13.18-15.49-27.27-15.49-41.89v-92.05l19.06-6.86a23 23 0 0 1-2.01-2.47l-20.05 7.22v94.16c0 3.89.36 7.75 1.06 11.56.46-.18.92-.36 1.4-.54M369.05 313.98l34.68-12.48 93.5 33.64v70.56c1.01-1.39 2.01-2.79 3-4.21v-68.46l-96.5-34.72-34.7 12.48c.04.58.07 1.15.07 1.74 0 .48-.02.97-.05 1.45M497.21 428.13c-.22 14.28-5.41 28.06-15.47 40.95-7.5 9.61-17.73 18.74-30.43 27.14-20.81 13.77-41.41 21.07-42.28 21.38l-5.3 1.86-5.3-1.86c-.87-.31-21.47-7.61-42.28-21.38-4.97-3.29-9.56-6.7-13.77-10.2q-1.725-.255-3.48-.54c-.73-.12-1.44-.25-2.17-.37 5.26 4.71 11.19 9.26 17.77 13.61 21.1 13.96 42.05 21.4 42.93 21.71l6.3 2.21 6.3-2.21c.88-.31 21.84-7.75 42.93-21.71 12.97-8.58 23.45-17.93 31.14-27.79 10.71-13.72 16.13-28.44 16.13-43.74v-3.15c-.87 1.26-1.87 2.63-3.02 4.09"/><path fill="#a0c8ff" fill-opacity=".151" d="M457.61 463c-18.84 11.8-47.3 24.23-84.33 25.02 16.08 9.38 30.29 14.42 30.45 14.48l.02-.01c.19-.06 19.53-6.91 38.73-19.61 11.25-7.45 20.22-15.4 26.64-23.64 2.22-2.84 4.13-5.73 5.74-8.64-5.11 4.19-10.86 8.4-17.25 12.4"/><path fill="#f3f8ff" fill-rule="evenodd" d="m403.43 396.86-25.49-25.36-13.71 13.64 25.5 25.36-25.5 25.36 13.71 13.64 25.49-25.36 25.5 25.36 13.7-13.64-25.49-25.36 25.49-25.36-13.7-13.64Z"/><path fill="#a0c8ff" fill-opacity=".151" d="m444.75 433.74 2.14 2.12-2.14 2.13-13.71 13.64-2.11 2.1-2.12-2.1-23.38-23.26-23.38 23.26-2.11 2.1-2.12-2.1-13.7-13.64-2.14-2.13 2.14-2.12 23.35-23.24-23.35-23.24-2.14-2.12 2.14-2.13 13.7-13.64 2.12-2.1 2.11 2.1 23.38 23.26 23.38-23.26 2.12-2.1 2.11 2.1 13.71 13.64 2.14 2.13-2.14 2.12-23.36 23.24zM403.73 318.5l-77.5 27.88v80.81c0 10.97 4.08 21.75 12.11 32.05 4.44 5.69 10.08 11.24 16.85 16.58 39.84 2.45 75.1-7.98 104.83-31.05 7.36-5.71 14.43-12.24 21.21-19.56v-78.83z"/><path fill="#a3b1bf" fill-rule="evenodd" d="m442.64 435.86-13.71 13.64-25.5-25.36-25.49 25.36-13.71-13.64 25.5-25.36-25.5-25.36 13.71-13.64 25.49 25.36 25.5-25.36 13.71 13.64-25.5 25.36ZM105.04 579.5a2.5 2.5 0 0 1 2.5 2.5v10a2.5 2.5 0 0 1-5 0v-10a2.5 2.5 0 0 1 2.5-2.5M94.54 569a2.5 2.5 0 0 1 0 5h-10a2.5 2.5 0 0 1 0-5zm31 0a2.5 2.5 0 0 1 0 5h-10a2.5 2.5 0 0 1 0-5zm-20.5-20.5a2.5 2.5 0 0 1 2.5 2.5v10a2.5 2.5 0 0 1-5 0v-10a2.5 2.5 0 0 1 2.5-2.5M321.04 187.5a2.5 2.5 0 0 1 2.5 2.5v10a2.5 2.5 0 0 1-5 0v-10a2.5 2.5 0 0 1 2.5-2.5m-10.5-10.5a2.5 2.5 0 0 1 0 5h-10a2.5 2.5 0 0 1 0-5zm31 0a2.5 2.5 0 0 1 0 5h-10a2.5 2.5 0 0 1 0-5zm-20.5-20.5a2.5 2.5 0 0 1 2.5 2.5v10a2.5 2.5 0 0 1-5 0v-10a2.5 2.5 0 0 1 2.5-2.5M706.69 640.94a2.5 2.5 0 0 1 2.5 2.5v10a2.5 2.5 0 0 1-5 0v-10a2.5 2.5 0 0 1 2.5-2.5m-10.5-10.5a2.5 2.5 0 0 1 0 5h-10a2.5 2.5 0 0 1 0-5zm31 0a2.5 2.5 0 0 1 0 5h-10a2.5 2.5 0 0 1 0-5zm-20.5-20.5a2.5 2.5 0 0 1 2.5 2.5v10a2.5 2.5 0 0 1-5 0v-10a2.5 2.5 0 0 1 2.5-2.5"/><path fill="#a0c8ff" fill-opacity=".151" d="M102.64 147.7c-3.02 0-5.83.53-8.22 1.61-.75 1.1-6.93 15.25-18.53 42.46 2.34-.26 4.59-.38 6.76-.38 12.85 0 22.6 4.41 29.24 13.24q11.61 15.45 36.21 15.45h.1l18.41-41.1c-1.58.09-3.11.14-4.59.14-14.13 0-23.77-4.46-28.9-13.39-6.62-11.52-19.85-18.03-30.48-18.03m0 6c8.27 0 19.61 5.16 25.28 15.02 5.64 9.82 15.53 15.27 29.44 16.25l-13 29.01c-12.58-.69-21.65-4.95-27.68-12.95-7.36-9.79-17.97-15.03-31.57-15.59 8.56-19.99 12.14-28.11 13.6-31.29 1.18-.3 2.51-.45 3.93-.45"/><path fill="#a3b1bf" fill-rule="evenodd" d="M102.64 147.7c-3.02 0-5.83.53-8.22 1.61-.75 1.1-6.93 15.25-18.53 42.46 2.34-.26 4.59-.38 6.76-.38 12.85 0 22.6 4.41 29.24 13.24q11.61 15.45 36.21 15.45h.1l18.41-41.1c-1.58.09-3.11.14-4.59.14-14.13 0-23.77-4.46-28.9-13.39-6.62-11.52-19.85-18.03-30.48-18.03m0 3c9.14 0 21.65 5.68 27.88 16.52 5.67 9.87 16.23 14.88 31.4 14.9l-15.66 34.94c-14.58-.36-25.05-5.02-31.97-14.23-7.21-9.58-17.86-14.44-31.64-14.44-.68 0-1.37.01-2.08.04 11.19-26.17 14.86-34.4 15.99-36.76 1.77-.64 3.81-.97 6.08-.97"/><path fill="#a3b1bf" fill-rule="evenodd" d="M99.23 141.06a2.01 2.01 0 0 0-2.64 1.02l-43.82 98.41 3.68 1.58 43.8-98.36c.45-1.01-.01-2.2-1.02-2.65"/><path fill="#a0c8ff" fill-opacity=".151" d="M346.07 292.5c-11.06 0-20.03 8.97-20.03 20.03s8.97 20.03 20.03 20.03 20.03-8.97 20.03-20.03-8.97-20.03-20.03-20.03m0 6c7.74 0 14.03 6.29 14.03 14.03 0 7.73-6.29 14.03-14.03 14.03-7.73 0-14.03-6.3-14.03-14.03 0-7.74 6.3-14.03 14.03-14.03"/><path fill="#a3b1bf" fill-rule="evenodd" d="M346.07 289.5c-12.7 0-23.03 10.33-23.03 23.03s10.33 23.03 23.03 23.03 23.03-10.33 23.03-23.03-10.33-23.03-23.03-23.03m0 3c11.06 0 20.03 8.97 20.03 20.03s-8.97 20.03-20.03 20.03-20.03-8.97-20.03-20.03 8.97-20.03 20.03-20.03M144.04 431.5l50-55v55zm67.15-109c-.13 0-.26.02-.39.02-.24-.01-.48-.02-.71-.02-3.97 0-7.92 1.6-10.77 4.75l-.26.28c-.41.41-.8.84-1.17 1.28l-2.45 2.71h-40.25c-4.73 0-8.6 3.86-8.6 8.58s3.87 8.59 8.6 8.59h18.28c4.73 0 8.6 3.86 8.6 8.58s-3.87 8.59-8.6 8.59h-9.18l-.02.02c-.16-.01-.32-.02-.48-.02h-40.85c-4.73 0-8.6 3.86-8.6 8.58s3.87 8.59 8.6 8.59h25.78l-47.94 52.85c-5.36 5.9-4.9 15.11 1.02 20.46 2.28 2.06 5.06 3.25 7.91 3.61 1.01.22 2.05.35 3.11.35h81.17v21.03c0 9.44 7.74 17.17 17.2 17.17s17.2-7.73 17.2-17.17V460.3h9.14c7.98 0 14.51-6.52 14.51-14.49s-6.53-14.49-14.51-14.49h-9.14v-91.65c0-9.44-7.74-17.17-17.2-17.17m-73.93 112h59.78v-65.76l-5.22 5.74-50 55zm73.97-109c7.81.02 14.16 6.37 14.16 14.17v94.65h12.14c6.35 0 11.51 5.15 11.51 11.49 0 6.33-5.16 11.49-11.51 11.49h-12.14v24.03c0 7.81-6.37 14.17-14.2 14.17s-14.2-6.36-14.2-14.17V457.3h-84.17c-.8 0-1.63-.1-2.46-.28l-.14-.03-.14-.02c-2.36-.29-4.53-1.28-6.27-2.86-2.27-2.05-3.6-4.87-3.75-7.94-.16-3.08.89-6.02 2.94-8.28l47.94-52.85 4.55-5.01h-32.55c-3.09 0-5.6-2.51-5.6-5.59s2.51-5.58 5.6-5.58h40.97l.22.02 1.38.04.06-.06h7.9c6.39 0 11.6-5.2 11.6-11.59s-5.21-11.58-11.6-11.58h-18.28c-3.09 0-5.6-2.51-5.6-5.59s2.51-5.58 5.6-5.58h41.58l.9-.99 2.44-2.7.05-.05.05-.06c.31-.38.64-.74.97-1.07l.05-.05.05-.06.26-.28c2.17-2.39 5.28-3.76 8.55-3.76.19 0 .38.01.57.02h.19c.11 0 .22-.01.38-.02"/><path fill="#a0c8ff" fill-opacity=".151" d="M216.37 332.5c4.98 0 9 4.03 9 9v81c0 4.97-4.02 9-9 9a9 9 0 0 1-9-9v-81a9 9 0 0 1 9-9"/><path fill="#a3b1bf" fill-rule="evenodd" d="M44.04 238c-17.39 0-31.5 14.1-31.5 31.5S26.65 301 44.04 301c17.4 0 31.5-14.1 31.5-31.5S61.44 238 44.04 238m0 3c15.72 0 28.5 12.78 28.5 28.5 0 15.71-12.78 28.5-28.5 28.5-15.71 0-28.5-12.79-28.5-28.5 0-15.72 12.79-28.5 28.5-28.5"/><path fill="#a0c8ff" fill-opacity=".151" d="M44.04 292.5c12.7 0 23-10.3 23-23s-10.3-23-23-23-23 10.3-23 23 10.3 23 23 23"/><path fill="#a3b1bf" fill-rule="evenodd" d="m26.05 243.9-2.58 2.06c-10.39-3.25-18.09-3.49-20.13.04-3.59 6.22 11.72 21.78 34.2 34.76S81.16 299.22 84.75 293c2.09-3.63-2.26-10.44-10.71-18.07v-3.7c10.64 9.42 16.14 18.36 13.3 23.27-4.41 7.65-27.38 2.66-51.3-11.14C12.13 269.55-3.68 252.15.74 244.5c2.73-4.73 12.55-4.63 25.31-.6M646.76 318.5h-.03c-13.89.17-26 4.96-36 14.25-9.28 8.55-15 19.06-16.97 31.25-.12.51-.28 1.43-.44 3.51v.24c.02 8.85 7.25 16.04 16.11 16.04 8.76 0 15.93-6.99 16.16-15.67l.05-.22c1.54-6.25 4.33-10.73 8.5-13.68l.03-.03.03-.02c4.12-3.07 8.55-4.56 13.54-4.57 7.09.16 12.69 2.21 17.12 6.28 4.37 4.18 6.57 9.41 6.73 15.98-.01 6.45-2.12 11.53-6.46 15.53l-.02.02-.02.02c-4.35 4.15-10.69 6.26-18.83 6.26h-9.1l-.03.01h-.29c-7.68.27-13.67 6.47-13.67 14.11 0 7.78 6.35 14.11 14.14 14.11.12 0 .25 0 .37-.01h11.13c7.19.1 12.96 2.16 17.61 6.32 4.75 4.32 7.14 10.35 7.31 18.42-.17 7.89-2.55 13.76-7.29 17.93l-.05.04-.04.04c-4.75 4.53-10.46 6.74-17.45 6.74-6.54 0-11.58-1.61-15.41-4.92-3.91-3.29-6.97-7.66-9.12-13.02-.28-.73-.56-1.81-.85-2.96-1.36-5.4-3.64-14.45-15.2-14.54-8.99 0-16.28 7.27-16.28 16.22 0 .93.09 1.87.26 2.85v.01l.02.1q.06.345.15.69c3.04 14.9 9.67 26.5 19.69 34.48 10.15 8.09 21.96 12.19 35.11 12.19 16.92-.17 30.98-5.41 41.81-15.57a49 49 0 0 0 3.47-3.43h33.49c4.96 0 9-4.04 9-9s-4.04-9-9-9h-28c-4.96 0-9-4.04-9-9s4.04-9 9-9h50c4.96 0 9-4.04 9-9s-4.04-9-9-9h-44.72c-.7-2.03-1.53-4.05-2.49-6.02l-.01-.03-.02-.02c-3.09-6.05-7.83-11.41-14.1-15.98 6.07-4.56 10.48-9.72 13.14-15.37l.03-.08.04-.08a54.7 54.7 0 0 0 3.99-20.57c-.18-14.06-5.29-26.38-15.19-36.68-10.37-10.57-24.47-16-41.92-16.17zm0 3c16.71.16 29.97 5.25 39.79 15.25 9.4 9.77 14.18 21.3 14.35 34.6 0 6.72-1.26 13.21-3.78 19.45-2.93 6.25-8.18 11.81-15.73 16.7 7.72 4.8 13.3 10.56 16.74 17.29q1.845 3.795 3 7.71h46.91c3.32 0 6 2.69 6 6s-2.68 6-6 6h-50c-6.63 0-12 5.37-12 12s5.37 12 12 12h28c3.32 0 6 2.69 6 6s-2.68 6-6 6H691.2a47 47 0 0 1-4.15 4.23c-10.32 9.69-23.58 14.61-39.78 14.77-12.51 0-23.59-3.85-33.24-11.53-9.52-7.58-15.72-18.51-18.63-32.78-.05-.2-.09-.39-.13-.59v-.02c-.14-.78-.23-1.58-.23-2.4 0-7.3 5.93-13.22 13.25-13.22 11.45.09 11.41 10.73 13.29 15.62 2.35 5.85 5.67 10.57 9.95 14.17 4.36 3.77 10.15 5.65 17.37 5.65 7.73 0 14.23-2.52 19.52-7.57 5.37-4.72 8.14-11.45 8.31-20.18-.17-8.89-2.94-15.77-8.31-20.66q-7.755-6.915-19.59-7.08h-11.2c-.1 0-.21.01-.32.01-6.15 0-11.14-4.98-11.14-11.11 0-6.01 4.77-10.9 10.74-11.11l.29-.01h9.06c8.98 0 15.95-2.36 20.9-7.09 4.95-4.56 7.43-10.49 7.43-17.78-.17-7.36-2.73-13.41-7.68-18.13-4.96-4.56-11.33-6.93-19.14-7.09-5.62 0-10.74 1.73-15.36 5.17-4.75 3.35-7.98 8.5-9.69 15.43l-.13.54c-.02 7.21-5.92 13.05-13.16 13.05-7.23 0-13.09-5.84-13.11-13.05.11-1.53.24-2.58.38-3.15 1.86-11.6 7.21-21.48 16.07-29.64 9.48-8.81 20.82-13.29 33.99-13.45"/><path fill="#a0c8ff" fill-opacity=".151" d="M562.66 237.27c-18.21 0-15.16 12.54-20.14 19.73-5.15 7.43-14.66 11.58-1.26 17.95 13.39 6.38 11.38 19.21 1.51 22.22-9.87 3.02-10.11 12.58-6.77 18.2q3.345 5.61 1.14 18.93c-37.96 95.59-94.8 143.38-170.51 143.38-4.49 0-9.04-.16-13.66-.5-74.24-6.1-88.49-18.62-42.75-37.57-48.38 18.31-38.74 33.11 28.93 44.39 10.71 1.78 20.9 2.59 30.6 2.59 82.21 0 127.82-58.03 132.68-69.18 5.44-12.47 11.58-19.96 20.04-27.61 8.45-7.64 7.58-16.59 12.11-22.64 4.52-6.05 8.79-4.77 14.31-16.74 5.51-11.96 10.98-1.6 14.29-16.13 1.08-4.73 2.98-5.83 5.01-5.83 1.78 0 3.66.85 5.17.85 2.07 0 3.46-1.59 2.99-9.07-1.21-19.22-1.37-25.82 7.58-35.58 8.95-9.77.93-46.46-19.38-47.34-.65-.03-1.28-.05-1.89-.05m-59.21 169.22c-1.62 2.79-3.18 5.87-4.68 9.32-1.44 3.3-12.36 20.25-36 37.12-18.96 13.53-50.5 29.66-93.02 29.66-9.78 0-19.85-.85-29.94-2.54-.34-.05-.68-.11-1.02-.17 4.31.45 8.93.88 13.89 1.29 4.7.34 9.39.51 13.95.51 38.64 0 72.96-12.37 101.98-36.78 12.48-10.49 24.1-23.32 34.84-38.41m59.21-165.22c.55 0 1.13.02 1.72.04 9.09.4 14.14 10.27 15.89 14.5 4.53 10.92 4.01 22.55.71 26.15-10.34 11.27-9.8 19.82-8.62 38.53.15 2.4.07 3.82-.04 4.63-.14-.03-.28-.07-.4-.1-1.04-.25-2.33-.56-3.73-.56-3.13 0-7.22 1.55-8.91 8.94-1.23 5.43-2.16 5.69-4 6.21-3.38.95-6.94 2.44-10.03 9.14-3.07 6.66-5.41 8.44-8.13 10.5-1.76 1.33-3.75 2.84-5.75 5.51-2.17 2.91-3.27 6.2-4.33 9.39-1.5 4.51-2.92 8.76-7.26 12.69-3.72 3.37-7.13 6.79-10.3 10.78 11.62-17.85 22.11-38.5 31.38-61.84l.16-.4.07-.43c1.64-9.93 1.1-17-1.65-21.63-1.44-2.42-1.78-5.51-.87-7.87.82-2.11 2.63-3.61 5.37-4.45 6.1-1.87 10.32-6.89 10.76-12.79.5-6.83-3.88-13.13-11.73-16.87-3.44-1.64-4.34-2.72-4.54-3.01.26-.84 1.99-2.72 3.15-3.98 1.35-1.48 2.89-3.15 4.22-5.07 1.73-2.49 2.61-5.26 3.46-7.93 1.92-6.07 3.19-10.08 13.4-10.08"/><path fill="#a3b1bf" fill-rule="evenodd" d="M282.69 457.17c-1.02 1.53-1.31 2.85-1.2 3.96.54 5.44 11.02 13.57 57.91 21.39 53.14 8.86 92.75-7.11 116.62-22.07 27.3-17.1 42.57-37.97 45.04-43.64 5.77-13.23 12.33-20.81 20.4-28.12 4.83-4.37 6.41-9.13 7.95-13.75 1.05-3.13 2.03-6.1 3.96-8.68 1.79-2.39 3.55-3.73 5.26-5.02 2.73-2.07 5.56-4.22 8.89-11.44 2.87-6.22 5.96-7.08 8.44-7.78 2.43-.69 4.19-1.18 5.76-8.06.72-3.15 1.88-5.18 3.54-6.21 2.05-1.27 4.28-.73 6.07-.3 1.11.27 2.26.55 2.69.18.37-.31 1.19-1.64.83-7.3-1.16-18.52-1.64-26.19 7.97-36.69 4.44-4.84 4.33-17.75-.24-28.79-4.09-9.87-10.68-15.71-18.09-16.04-13.67-.59-15.51 5.14-17.62 11.79-.79 2.49-1.61 5.07-3.12 7.26-1.24 1.78-2.71 3.38-4.01 4.79-2.21 2.4-4.11 4.48-3.79 6.12.28 1.46 2.28 3.08 5.95 4.83 6.88 3.27 10.73 8.67 10.31 14.42-.37 4.95-3.82 9-9 10.59-3.46 1.06-5.87 3.11-6.97 5.94-1.18 3.05-.76 6.99 1.05 10.05 2.44 4.1 2.87 10.62 1.33 19.94l-.08.31c-20.12 50.65-45.92 88.42-76.68 112.29-30.86 23.94-67.53 34.55-108.99 31.54-61.04-5.02-69.31-13.37-70.23-19.22-.12-.76-.1-1.52.05-2.29m86.83 30.89c-9.65 0-19.86-.79-30.62-2.58-40.25-6.71-59.44-14.36-60.4-24.05-.73-7.41 9.47-15 31.19-23.22l1.1 2.79c-22.88 9.48-25.6 15.34-25.19 18 1.54 9.82 42.95 14.67 67.5 16.69 40.7 2.95 76.67-7.45 106.92-30.92 30.31-23.51 55.76-60.81 75.67-110.87 1.37-8.4 1.04-14.37-.98-17.77-2.3-3.88-2.79-8.73-1.27-12.66 1.01-2.59 3.36-6.04 8.89-7.73 3.98-1.22 6.61-4.26 6.88-7.94.34-4.47-2.88-8.77-8.6-11.49-4.7-2.25-7.12-4.46-7.61-6.96-.61-3.14 1.89-5.85 4.53-8.73 1.3-1.41 2.64-2.86 3.75-4.47 1.26-1.82 1.98-4.07 2.73-6.46 2.17-6.83 4.6-14.58 20.61-13.87 8.62.37 16.18 6.89 20.73 17.88 5.06 12.22 4.92 26.26-.32 31.97-8.38 9.15-8.4 15.13-7.18 34.48.34 5.45-.23 8.38-1.9 9.78-1.59 1.34-3.57.86-5.32.44-1.45-.35-2.81-.68-3.79-.07-.93.58-1.67 2.03-2.19 4.32-1.83 8-4.42 9.31-7.88 10.29-2.18.61-4.24 1.19-6.52 6.14-3.65 7.91-6.92 10.39-9.81 12.58-1.61 1.22-3.13 2.37-4.66 4.43-1.64 2.19-2.56 4.93-3.52 7.83-1.58 4.75-3.38 10.13-8.79 15.03-7.78 7.04-14.11 14.35-19.66 27.09-3.02 6.91-18.83 27.84-46.2 44.99-19.47 12.2-49.22 25.06-88.09 25.06"/><path fill="#a0c8ff" fill-opacity=".151" d="M573 136.11h-.24c-13.42 0-24.63 3.76-31.76 10.18 4.16-8.26 16.61-13.6 32.46-13.61.19 0 .37.01.56.01.62-2.04 1.23-4.02 1.85-5.96-.81-.03-1.61-.05-2.41-.05-20.16.01-36.39 8.16-39.44 21.4-1.53 6.61.45 13.53 5.08 19.89-.53-2.53-.54-5.08.04-7.58 2.54-10.98 15.63-17.87 32.1-18.26.59-2.06 1.18-4.06 1.76-6.02M605.57 133.28c-.3 2-.62 4.04-.96 6.13 15 6.74 25.18 17.49 25.25 27.44-3.82-9.51-13.13-18.22-25.82-23.96-.34 2.01-.69 4.06-1.07 6.15 15.55 7.52 25 19.9 22.38 31.25-.58 2.5-1.7 4.79-3.29 6.84 6.95-3.7 11.77-9.04 13.29-15.66 3.26-14.12-9.48-29.59-29.78-38.19"/><path fill="#a3b1bf" fill-rule="evenodd" d="M605.57 133.28c-.15 1-.31 2.01-.47 3.04 7.2 3.13 13.49 7.21 18.36 11.99 7.45 7.29 10.63 15.28 8.97 22.49-.61 2.65-1.87 5.12-3.71 7.34.62-7.27-2.71-14.83-9.58-21.58-4.24-4.17-9.58-7.76-15.63-10.59-.18 1.02-.35 2.03-.54 3.07 15.55 7.52 25 19.9 22.38 31.25-.58 2.5-1.7 4.79-3.29 6.84 6.95-3.7 11.77-9.04 13.29-15.66 3.26-14.12-9.48-29.59-29.78-38.19M572.11 139.12c-17.54.17-30.88 7.04-35.05 17.86-.69-2.81-.73-5.58-.12-8.23 2.63-11.4 17.31-19.06 36.52-19.07.49 0 .98.02 1.48.03.31-1.01.62-2 .93-2.98-.81-.03-1.61-.05-2.41-.05-20.16.01-36.39 8.16-39.44 21.4-1.53 6.61.45 13.53 5.08 19.89-.53-2.53-.54-5.08.04-7.58 2.54-10.98 15.63-17.87 32.1-18.26.29-1.02.58-2.02.87-3.01"/><path fill="#a0c8ff" fill-opacity=".151" d="M603.93 72.5q-16.53 7.065-37.86 88.41c4.57 5.39 9.62 8.73 15.14 10 1.7.4 3.46.59 5.26.59 4.01 0 8.26-.98 12.73-2.94 11.12-55.06 12.7-87.07 4.73-96.06m-2.18 9.6c.88 3.95 1.5 10.38.98 20.86-.74 15.01-3.69 35.59-8.77 61.2-2.64.89-5.15 1.34-7.49 1.34-1.34 0-2.66-.14-3.91-.44-3.49-.8-6.74-2.71-9.85-5.8 6.7-25.18 13.09-44.95 19.01-58.76 4.13-9.67 7.51-15.22 10.03-18.4"/><path fill="#a3b1bf" fill-rule="evenodd" d="M603.93 72.5q-16.53 7.065-37.86 88.41c4.57 5.39 9.62 8.73 15.14 10 1.7.4 3.46.59 5.26.59 4.01 0 8.26-.98 12.73-2.94 11.12-55.06 12.7-87.07 4.73-96.06m-.91 4.03c1.88 3.73 3.46 11.3 2.71 26.58-.77 15.48-3.85 36.77-9.16 63.29-3.55 1.4-6.94 2.1-10.1 2.1-1.57 0-3.11-.17-4.59-.51-4.45-1.03-8.65-3.67-12.5-7.87 6.89-26.1 13.48-46.56 19.58-60.81 6.02-14.07 10.75-20.22 14.06-22.78"/><path fill="#a3b1bf" fill-rule="evenodd" d="M579.03 182.78c2.15.5 5.86-7.6 8.28-18.1 2.42-10.49 2.64-19.4.49-19.9s-5.86 7.61-8.29 18.1c-2.42 10.5-2.64 19.41-.48 19.9M549.28 203.36c1.26.57 4.46-3.89 7.16-9.94 2.7-6.06 3.86-11.42 2.6-11.98s-4.47 3.89-7.17 9.94c-2.69 6.06-3.86 11.42-2.59 11.98M569.09 227.85c1.27.56 4.57-4.1 7.37-10.41 2.81-6.3 4.06-11.87 2.8-12.43s-4.56 4.09-7.36 10.4c-2.81 6.31-4.07 11.87-2.81 12.44M593.83 209.76c1.32.43 3.97-4.12 5.94-10.16 1.96-6.04 2.48-11.29 1.17-11.71-1.31-.43-3.97 4.12-5.93 10.16s-2.49 11.28-1.18 11.71"/><path fill="#a0c8ff" fill-opacity=".151" d="M591.23 123.72c-3.19 0-6.07 2.19-6.82 5.43-.87 3.77 1.48 7.53 5.25 8.39.53.13 1.06.19 1.58.19 3.19 0 6.07-2.19 6.82-5.43.86-3.77-1.48-7.53-5.25-8.4-.53-.12-1.06-.18-1.58-.18m0 6c.07 0 .15.01.23.03a1 1 0 0 1 .75 1.2c-.12.51-.58.78-.97.78a1 1 0 0 1-.23-.03 1 1 0 0 1-.62-.45.96.96 0 0 1-.13-.75c.12-.51.58-.78.97-.78"/><path fill="#a3b1bf" fill-rule="evenodd" d="M591.23 123.72c-3.19 0-6.07 2.19-6.82 5.43-.87 3.77 1.48 7.53 5.25 8.39.53.13 1.06.19 1.58.19 3.19 0 6.07-2.19 6.82-5.43.86-3.77-1.48-7.53-5.25-8.4-.53-.12-1.06-.18-1.58-.18m0 3c.3 0 .6.04.9.11 2.15.49 3.5 2.65 3 4.79a3.98 3.98 0 0 1-3.89 3.11c-.3 0-.61-.04-.91-.11a3.97 3.97 0 0 1-2.49-1.78c-.56-.9-.74-1.97-.5-3.01a3.98 3.98 0 0 1 3.89-3.11M595.43 107.77a3.99 3.99 0 0 0-3.89 3.1c-.5 2.15.84 4.3 2.99 4.79.31.08.61.11.91.11a3.99 3.99 0 0 0 3.89-3.1c.5-2.16-.84-4.3-2.99-4.8-.31-.07-.61-.1-.91-.1m0 3c.08 0 .15.01.23.02.35.08.54.32.62.45.09.13.21.4.13.75-.12.51-.58.78-.97.78-.08 0-.15-.01-.23-.03a.98.98 0 0 1-.62-.44.98.98 0 0 1-.13-.76c.12-.51.58-.77.97-.77M608.46 53.08c.8.19 1.31.99 1.12 1.8l-4.5 19.48c-.18.81-.99 1.32-1.8 1.13-.8-.19-1.31-.99-1.12-1.8l4.5-19.49c.18-.8.99-1.31 1.8-1.12"/><path fill="#a0c8ff" fill-opacity=".151" d="M608.27 56.11c2.15.5 4.85-3.24 6.03-8.35 1.18-5.12.4-9.66-1.76-10.16-2.15-.5-4.85 3.24-6.03 8.36-1.18 5.11-.39 9.66 1.76 10.15"/><path fill="#a3b1bf" fill-rule="evenodd" d="M608.61 54.65c.68.17 3.06-2.17 4.23-7.23s.07-8.19-.63-8.36c-.25-.05-.97.3-1.83 1.49-1.01 1.4-1.89 3.5-2.41 5.74-.52 2.25-.65 4.52-.35 6.22.25 1.45.74 2.09.99 2.14m.08 3.01c-.25 0-.5-.03-.76-.08-.96-.23-2.67-1.12-3.27-4.56-.37-2.11-.23-4.74.39-7.4.61-2.66 1.64-5.09 2.9-6.82 2.04-2.83 3.96-2.88 4.93-2.66 3.52.81 4.11 6.63 2.89 11.95-1.14 4.94-3.88 9.57-7.08 9.57M574.04 278.75q-.15 0-.3-.03c-.81-.17-1.34-.97-1.17-1.78 1.92-9.25-.27-17.6-6.69-25.51-.52-.64-.43-1.59.22-2.11.64-.53 1.58-.43 2.11.22 6.93 8.54 9.39 17.96 7.3 28.01-.15.71-.77 1.2-1.47 1.2M355.39 323.34c-.33 0-.65-.11-.93-.32-.65-.52-.76-1.46-.25-2.11 5.31-6.76 4.62-12.78-2.18-18.96a1.5 1.5 0 0 1-.1-2.12 1.51 1.51 0 0 1 2.12-.1c7.87 7.15 8.74 15.12 2.52 23.03-.3.38-.74.58-1.18.58"/><path fill="#a0c8ff" fill-opacity=".151" d="M684.66 402.84c-1.84 0-3.69-.63-5.2-1.93-3.36-2.87-3.74-7.92-.86-11.28 6.69-7.79 8.21-16.65 4.79-27.87-3.41-11.2-11.19-18.58-23.77-22.57-4.21-1.34-6.54-5.84-5.2-10.05 1.33-4.21 5.83-6.54 10.04-5.2 17.72 5.62 29.24 16.77 34.23 33.15 5.03 16.5 2.36 30.95-7.95 42.96a7.96 7.96 0 0 1-6.08 2.79"/><path fill="#a3b1bf" fill-rule="evenodd" d="M646.23 211.5c0 2.76-2.24 5-5 5s-5-2.24-5-5 2.24-5 5-5 5 2.24 5 5M237.04 80.53c0 2.76-2.24 5-5 5s-5-2.24-5-5 2.24-5 5-5 5 2.24 5 5M510.12 278.24c0 2.76-2.24 5-5 5-2.77 0-5-2.24-5-5 0-2.77 2.23-5 5-5 2.76 0 5 2.23 5 5M308.04 658.5c0 2.76-2.24 5-5 5s-5-2.24-5-5 2.24-5 5-5 5 2.24 5 5M53.95 639c-5.52 0-10 4.48-10 10s4.48 10 10 10 10-4.48 10-10-4.48-10-10-10m0 3c3.86 0 7 3.14 7 7s-3.14 7-7 7-7-3.14-7-7 3.14-7 7-7"/><path fill="#a0c8ff" fill-opacity=".151" d="M53.95 642c3.86 0 7 3.14 7 7s-3.14 7-7 7-7-3.14-7-7 3.14-7 7-7"/><path fill="#a3b1bf" fill-rule="evenodd" d="M247.04 27.56c-5.52 0-10 4.47-10 10 0 5.52 4.48 10 10 10s10-4.48 10-10c0-5.53-4.48-10-10-10m0 3c3.86 0 7 3.14 7 7s-3.14 7-7 7-7-3.14-7-7 3.14-7 7-7"/><path fill="#a0c8ff" fill-opacity=".151" d="M247.04 30.56c3.86 0 7 3.14 7 7s-3.14 7-7 7-7-3.14-7-7 3.14-7 7-7"/><path fill="#a3b1bf" fill-rule="evenodd" d="M286.04 553.5c-5.52 0-10 4.48-10 10s4.48 10 10 10 10-4.48 10-10-4.48-10-10-10m0 3c3.86 0 7 3.14 7 7s-3.14 7-7 7-7-3.14-7-7 3.14-7 7-7"/><path fill="#a0c8ff" fill-opacity=".151" d="M286.04 556.5c3.86 0 7 3.14 7 7s-3.14 7-7 7-7-3.14-7-7 3.14-7 7-7"/><path fill="#a3b1bf" fill-rule="evenodd" d="M742.54 371.5c0 2.76-2.24 5-5 5s-5-2.24-5-5 2.24-5 5-5 5 2.24 5 5"/></svg>