<svg xmlns="http://www.w3.org/2000/svg" width="823" height="823" viewBox="0 0 823 823"><title>500</title><g fill="none" fill-rule="evenodd"><path fill="#a3b1bf" d="M416.917 3.035h-.02A421 421 0 0 0 411.5 3h-.583a1.5 1.5 0 0 1 0-3h.583q2.722 0 5.437.035a1.5 1.5 0 0 1-.02 3m-17.986.153a1.499 1.499 0 0 1-.044-2.999q3-.09 6.009-.137h.023a1.5 1.5 0 0 1 .023 3 437 437 0 0 0-6.011.136m29.979.174h-.063a423 423 0 0 0-5.974-.208 1.499 1.499 0 0 1 .04-2.999l.042.001q3.014.082 6.017.207a1.5 1.5 0 0 1-.062 2.999m-41.948.36a1.5 1.5 0 0 1-.086-2.997q3-.176 6.014-.31c.825-.022 1.528.603 1.564 1.432a1.5 1.5 0 0 1-1.432 1.564q-2.992.134-5.97.31zm53.927.315q-.053.001-.108-.004a390 390 0 0 0-5.964-.379 1.5 1.5 0 0 1-1.414-1.582c.047-.828.777-1.428 1.582-1.414q3.01.169 6.009.383a1.5 1.5 0 0 1-.105 2.996m-65.892.565a1.5 1.5 0 0 1-.13-2.994q2.994-.265 6.003-.485c.816-.06 1.545.56 1.606 1.387a1.5 1.5 0 0 1-1.387 1.605q-2.985.22-5.958.482a2 2 0 0 1-.134.005m77.846.456a2 2 0 0 1-.152-.007 415 415 0 0 0-5.951-.553 1.5 1.5 0 0 1-1.366-1.622 1.507 1.507 0 0 1 1.622-1.366q3.004.256 5.994.556a1.5 1.5 0 0 1-.147 2.992m-89.781.773a1.5 1.5 0 0 1-.173-2.989q2.985-.352 5.984-.66a1.51 1.51 0 0 1 1.646 1.337 1.5 1.5 0 0 1-1.34 1.646q-2.976.306-5.94.656-.09.01-.177.01m101.7.597q-.097 0-.195-.013a412 412 0 0 0-5.932-.726 1.5 1.5 0 0 1-1.32-1.66 1.51 1.51 0 0 1 1.662-1.32q2.995.345 5.977.731a1.5 1.5 0 0 1-.191 2.988m-113.593.98a1.5 1.5 0 0 1-.217-2.985q2.974-.438 5.963-.835a1.501 1.501 0 0 1 .395 2.974q-2.969.395-5.92.83a2 2 0 0 1-.221.015m125.469.737q-.119 0-.24-.018a393 393 0 0 0-5.908-.9 1.5 1.5 0 0 1-1.27-1.698 1.494 1.494 0 0 1 1.7-1.27q2.983.43 5.952.905a1.5 1.5 0 0 1-.234 2.981M339.325 9.332a1.5 1.5 0 0 1-.261-2.977q2.963-.526 5.936-1.009a1.493 1.493 0 0 1 1.722 1.24 1.5 1.5 0 0 1-1.24 1.72 439 439 0 0 0-5.892 1.002 1.5 1.5 0 0 1-.265.024m149.13.878q-.138 0-.281-.027a408 408 0 0 0-5.88-1.072 1.5 1.5 0 1 1 .518-2.955q2.967.519 5.922 1.08a1.5 1.5 0 0 1-.278 2.974m-160.91 1.392a1.501 1.501 0 0 1-.304-2.968q2.945-.613 5.905-1.183c.806-.156 1.6.374 1.756 1.188a1.5 1.5 0 0 1-1.188 1.757q-2.939.567-5.861 1.175a1.5 1.5 0 0 1-.308.031m172.662 1.02q-.16 0-.324-.036a379 379 0 0 0-5.846-1.244 1.5 1.5 0 0 1-1.168-1.772 1.504 1.504 0 0 1 1.772-1.168q2.95.606 5.888 1.254a1.5 1.5 0 0 1-.322 2.965m-184.37 1.597a1.5 1.5 0 0 1-.347-2.959q2.925-.7 5.866-1.358a1.502 1.502 0 0 1 .657 2.928q-2.922.653-5.825 1.348a1.5 1.5 0 0 1-.35.041m196.05 1.16a1.5 1.5 0 0 1-.367-.046 403 403 0 0 0-5.808-1.416 1.5 1.5 0 1 1 .689-2.92q2.934.692 5.85 1.428a1.5 1.5 0 0 1-.365 2.954M304.21 17.18a1.5 1.5 0 0 1-.391-2.949 405 405 0 0 1 5.825-1.528 1.496 1.496 0 0 1 1.823 1.083 1.5 1.5 0 0 1-1.083 1.823q-2.899.74-5.781 1.52a1.5 1.5 0 0 1-.393.051m219.267 1.296a1.5 1.5 0 0 1-.41-.056 405 405 0 0 0-5.762-1.586 1.5 1.5 0 1 1 .773-2.899 418 418 0 0 1 5.806 1.598 1.501 1.501 0 0 1-.407 2.943m-230.801 2.006a1.5 1.5 0 0 1-.435-2.935q2.88-.871 5.777-1.7a1.499 1.499 0 1 1 .826 2.884 403 403 0 0 0-5.734 1.687 1.5 1.5 0 0 1-.434.064M534.97 21.92q-.226 0-.451-.07a406 406 0 0 0-5.715-1.755 1.5 1.5 0 1 1 .861-2.874q2.888.864 5.756 1.768a1.5 1.5 0 0 1-.451 2.931m-253.727 2.205a1.501 1.501 0 0 1-.476-2.922 394 394 0 0 1 5.724-1.87 1.501 1.501 0 0 1 .91 2.859q-2.85.907-5.681 1.855a1.5 1.5 0 0 1-.477.078m265.159 1.588a1.5 1.5 0 0 1-.493-.084 404 404 0 0 0-5.682-1.932 1.5 1.5 0 0 1 .946-2.848q2.87.954 5.722 1.948a1.5 1.5 0 0 1-.493 2.916M269.925 28.1a1.498 1.498 0 0 1-.519-2.907 393 393 0 0 1 5.667-2.038 1.5 1.5 0 1 1 .994 2.83 400 400 0 0 0-5.624 2.023 1.5 1.5 0 0 1-.518.092m287.79 1.74c-.177 0-.358-.032-.533-.099a425 425 0 0 0-5.621-2.098 1.5 1.5 0 1 1 1.029-2.818 426 426 0 0 1 5.66 2.113 1.5 1.5 0 0 1-.534 2.902m-298.988 2.57a1.5 1.5 0 0 1-.56-2.893 412 412 0 0 1 5.604-2.204 1.5 1.5 0 0 1 1.079 2.8 420 420 0 0 0-5.564 2.188 1.5 1.5 0 0 1-.56.108m310.168 1.89c-.192 0-.387-.037-.576-.116a413 413 0 0 0-5.552-2.262 1.5 1.5 0 0 1 1.111-2.787q2.805 1.12 5.594 2.28a1.5 1.5 0 0 1-.577 2.885m-321.19 2.725a1.5 1.5 0 0 1-.6-2.875 395 395 0 0 1 5.515-2.357 1.5 1.5 0 1 1 1.158 2.767 396 396 0 0 0-5.473 2.34 1.5 1.5 0 0 1-.6.125m332.232 2.061c-.207 0-.417-.042-.617-.133q-2.73-1.231-5.481-2.425a1.497 1.497 0 0 1-.78-1.972 1.495 1.495 0 0 1 1.973-.78 401 401 0 0 1 5.523 2.443 1.5 1.5 0 0 1-.618 2.867M236.82 41.967a1.5 1.5 0 0 1-.64-2.857 421 421 0 0 1 5.444-2.52 1.5 1.5 0 1 1 1.24 2.732q-2.712 1.23-5.405 2.501a1.5 1.5 0 0 1-.64.144m354.008 2.227c-.221 0-.444-.049-.656-.15a394 394 0 0 0-5.406-2.586 1.5 1.5 0 0 1 1.273-2.717q2.735 1.283 5.447 2.605a1.501 1.501 0 0 1-.658 2.848m-364.747 3.03a1.498 1.498 0 0 1-.681-2.836 413 413 0 0 1 5.372-2.68 1.5 1.5 0 0 1 1.319 2.694 420 420 0 0 0-5.331 2.66c-.218.111-.45.162-.68.162m375.48 2.396c-.235 0-.473-.055-.695-.172a388 388 0 0 0-5.327-2.74 1.502 1.502 0 0 1 1.354-2.679q2.694 1.361 5.366 2.763a1.5 1.5 0 0 1-.697 2.828m-386.065 3.177a1.5 1.5 0 0 1-.719-2.818 433 433 0 0 1 5.29-2.835 1.503 1.503 0 0 1 2.028.628 1.5 1.5 0 0 1-.628 2.027q-2.639 1.389-5.254 2.815a1.5 1.5 0 0 1-.717.183m396.63 2.561c-.248 0-.501-.06-.733-.192a405 405 0 0 0-5.243-2.898 1.5 1.5 0 1 1 1.432-2.636 403 403 0 0 1 5.28 2.92 1.5 1.5 0 0 1-.735 2.806M205.076 58.68a1.5 1.5 0 0 1-.757-2.796 437 437 0 0 1 5.208-2.99A1.5 1.5 0 1 1 211 55.506a419 419 0 0 0-5.171 2.967 1.5 1.5 0 0 1-.755.205M622.517 61.4c-.264 0-.531-.069-.773-.215a403 403 0 0 0-5.153-3.047 1.5 1.5 0 1 1 1.508-2.594 421 421 0 0 1 5.192 3.071 1.5 1.5 0 0 1-.774 2.785m-427.69 3.465a1.498 1.498 0 0 1-.795-2.772 413 413 0 0 1 5.12-3.143 1.5 1.5 0 1 1 1.55 2.568 404 404 0 0 0-5.082 3.12 1.5 1.5 0 0 1-.793.227m437.895 2.88c-.28 0-.56-.078-.81-.239a414 414 0 0 0-5.06-3.198 1.499 1.499 0 1 1 1.584-2.546 401 401 0 0 1 5.097 3.22 1.499 1.499 0 0 1-.811 2.762m-447.96 3.603a1.5 1.5 0 0 1-.831-2.749 426 426 0 0 1 5.027-3.29 1.5 1.5 0 0 1 1.625 2.522 408 408 0 0 0-4.992 3.267c-.255.17-.543.25-.83.25m457.973 3.035c-.293 0-.588-.085-.846-.263a414 414 0 0 0-4.964-3.344 1.5 1.5 0 1 1 1.658-2.5 401 401 0 0 1 5 3.37 1.5 1.5 0 0 1-.848 2.737m9.814 6.926c-.307 0-.615-.093-.882-.287a398 398 0 0 0-4.863-3.486 1.501 1.501 0 0 1 1.73-2.45 393 393 0 0 1 4.899 3.511 1.5 1.5 0 0 1-.884 2.712m9.603 7.207c-.32 0-.643-.102-.917-.313a406 406 0 0 0-4.757-3.625 1.501 1.501 0 0 1 1.8-2.4 404 404 0 0 1 4.793 3.652 1.499 1.499 0 0 1-.92 2.686M671.539 96c-.335 0-.672-.11-.951-.34a400 400 0 0 0-4.65-3.763 1.5 1.5 0 1 1 1.87-2.345 414 414 0 0 1 4.684 3.79 1.5 1.5 0 0 1-.953 2.658m9.164 7.752c-.35 0-.7-.12-.984-.369a409 409 0 0 0-4.537-3.895 1.5 1.5 0 1 1 1.937-2.29 416 416 0 0 1 4.57 3.923 1.5 1.5 0 0 1-.986 2.631m8.933 8.014c-.365 0-.73-.13-1.018-.397a421 421 0 0 0-4.421-4.025 1.5 1.5 0 0 1 2.004-2.233 449 449 0 0 1 4.452 4.053 1.5 1.5 0 0 1-1.017 2.602m8.693 8.268c-.38 0-.758-.143-1.05-.428a421 421 0 0 0-4.3-4.15 1.5 1.5 0 0 1-.053-2.12 1.497 1.497 0 0 1 2.12-.054 407 407 0 0 1 4.332 4.18 1.5 1.5 0 0 1-1.05 2.572m8.447 8.516c-.393 0-.786-.154-1.08-.459a411 411 0 0 0-4.176-4.273 1.5 1.5 0 1 1 2.128-2.113 388 388 0 0 1 4.208 4.304 1.499 1.499 0 0 1-1.08 2.541m-594.996 4.684a1.499 1.499 0 0 1-1.096-2.523 417 417 0 0 1 4.14-4.37 1.5 1.5 0 0 1 2.12-.042c.599.574.618 1.523.043 2.121a401 401 0 0 0-4.11 4.338 1.5 1.5 0 0 1-1.097.476m603.192 4.072c-.41 0-.815-.166-1.111-.49a411 411 0 0 0-4.05-4.393 1.5 1.5 0 1 1 2.19-2.049q2.055 2.195 4.08 4.424a1.5 1.5 0 0 1-1.11 2.508m-611.254 4.815a1.5 1.5 0 0 1-1.125-2.491 427 427 0 0 1 4.013-4.49 1.5 1.5 0 0 1 2.223 2.015 410 410 0 0 0-3.984 4.457 1.5 1.5 0 0 1-1.127.51m619.19 4.174c-.423 0-.843-.178-1.14-.524a439 439 0 0 0-3.92-4.507 1.5 1.5 0 1 1 2.25-1.984 438 438 0 0 1 3.948 4.538 1.5 1.5 0 0 1-1.138 2.477m-626.99 4.948a1.498 1.498 0 0 1-1.153-2.458 407 407 0 0 1 3.882-4.606 1.499 1.499 0 1 1 2.28 1.949 420 420 0 0 0-3.854 4.573 1.5 1.5 0 0 1-1.155.542m634.658 4.264c-.437 0-.871-.19-1.168-.557a400 400 0 0 0-3.786-4.617 1.5 1.5 0 1 1 2.305-1.92 434 434 0 0 1 3.815 4.65 1.503 1.503 0 0 1-1.166 2.444M88.384 160.59a1.501 1.501 0 0 1-1.181-2.425 435 435 0 0 1 3.747-4.718 1.5 1.5 0 0 1 2.336 1.883 392 392 0 0 0-3.72 4.685 1.5 1.5 0 0 1-1.182.575m649.589 4.347c-.453 0-.9-.203-1.195-.59a410 410 0 0 0-3.651-4.725 1.501 1.501 0 0 1 2.36-1.852 434 434 0 0 1 3.678 4.758 1.5 1.5 0 0 1-1.192 2.41m-656.85 5.218a1.5 1.5 0 0 1-1.207-2.389 388 388 0 0 1 3.608-4.827 1.5 1.5 0 1 1 2.389 1.815 400 400 0 0 0-3.581 4.79c-.294.4-.748.611-1.21.611m663.964 4.422a1.5 1.5 0 0 1-1.221-.627 415 415 0 0 0-3.51-4.828 1.5 1.5 0 0 1 2.414-1.78 413 413 0 0 1 3.536 4.862 1.5 1.5 0 0 1-1.22 2.373m-670.942 5.352a1.499 1.499 0 0 1-1.233-2.354q1.716-2.479 3.467-4.932a1.5 1.5 0 1 1 2.441 1.745 401 401 0 0 0-3.441 4.894 1.5 1.5 0 0 1-1.234.647m677.772 4.487a1.5 1.5 0 0 1-1.245-.662 428 428 0 0 0-3.367-4.927 1.5 1.5 0 1 1 2.465-1.71q1.71 2.469 3.39 4.961a1.5 1.5 0 0 1-1.243 2.338m-684.465 5.49a1.5 1.5 0 0 1-1.257-2.317 412 412 0 0 1 3.323-5.032 1.5 1.5 0 0 1 2.492 1.67 422 422 0 0 0-3.3 4.996 1.5 1.5 0 0 1-1.258.683m691.004 4.54c-.497 0-.983-.247-1.27-.699a428 428 0 0 0-3.22-5.02 1.5 1.5 0 1 1 2.512-1.639 414 414 0 0 1 3.246 5.057 1.502 1.502 0 0 1-1.268 2.301m-697.403 5.631a1.5 1.5 0 0 1-1.281-2.28 421 421 0 0 1 3.174-5.128 1.499 1.499 0 1 1 2.539 1.597 422 422 0 0 0-3.15 5.091c-.282.464-.776.72-1.282.72m703.644 4.584a1.5 1.5 0 0 1-1.292-.736 400 400 0 0 0-3.072-5.112 1.5 1.5 0 1 1 2.56-1.564 425 425 0 0 1 3.094 5.148 1.5 1.5 0 0 1-1.29 2.264m-709.743 5.772a1.5 1.5 0 0 1-1.303-2.242 416 416 0 0 1 3.023-5.219 1.5 1.5 0 0 1 2.054-.533c.713.421.952 1.34.532 2.054a387 387 0 0 0-3.001 5.183 1.5 1.5 0 0 1-1.305.757m715.68 4.618a1.5 1.5 0 0 1-1.314-.776q-1.44-2.608-2.92-5.196a1.5 1.5 0 1 1 2.605-1.488 393 393 0 0 1 2.942 5.235 1.5 1.5 0 0 1-1.312 2.225M49.16 220.966a1.5 1.5 0 0 1-1.323-2.204q1.415-2.665 2.869-5.308a1.501 1.501 0 0 1 2.629 1.447 386 386 0 0 0-2.85 5.27 1.5 1.5 0 0 1-1.325.795m727.107 4.64a1.5 1.5 0 0 1-1.335-.814 420 420 0 0 0-2.766-5.279 1.5 1.5 0 0 1 2.647-1.412q1.41 2.649 2.787 5.318a1.502 1.502 0 0 1-1.333 2.186m-732.591 6.063a1.5 1.5 0 0 1-1.344-2.164 405 405 0 0 1 2.712-5.392 1.5 1.5 0 0 1 2.67 1.367 432 432 0 0 0-2.693 5.353c-.26.53-.792.836-1.345.836m737.908 4.648c-.56 0-1.097-.314-1.355-.852a389 389 0 0 0-2.61-5.356 1.5 1.5 0 0 1 .678-2.01 1.505 1.505 0 0 1 2.01.676 441 441 0 0 1 2.63 5.395 1.5 1.5 0 0 1-1.353 2.147M38.509 242.53a1.5 1.5 0 0 1-1.363-2.124 412 412 0 0 1 2.553-5.472 1.5 1.5 0 0 1 2.709 1.29 394 394 0 0 0-2.534 5.43 1.5 1.5 0 0 1-1.365.876m748.075 4.647a1.5 1.5 0 0 1-1.373-.894 401 401 0 0 0-2.45-5.426 1.5 1.5 0 1 1 2.724-1.256q1.255 2.723 2.47 5.47a1.5 1.5 0 0 1-1.371 2.106M33.66 253.545a1.502 1.502 0 0 1-1.381-2.084 401 401 0 0 1 2.392-5.546 1.5 1.5 0 0 1 2.746 1.209 395 395 0 0 0-2.374 5.505 1.5 1.5 0 0 1-1.383.916m757.6 4.63a1.5 1.5 0 0 1-1.39-.935q-1.125-2.758-2.29-5.495a1.5 1.5 0 1 1 2.76-1.174 401 401 0 0 1 2.307 5.536 1.497 1.497 0 0 1-1.387 2.067M29.14 264.7a1.499 1.499 0 0 1-1.399-2.043q1.096-2.818 2.229-5.616a1.505 1.505 0 0 1 1.954-.827 1.5 1.5 0 0 1 .827 1.954 396 396 0 0 0-2.212 5.575 1.5 1.5 0 0 1-1.398.957m766.487 4.646a1.5 1.5 0 0 1-1.405-.974 412 412 0 0 0-2.136-5.583 1.5 1.5 0 0 1 2.795-1.092 432 432 0 0 1 2.15 5.624 1.5 1.5 0 0 1-1.404 2.025m-770.676 6.641q-.25.001-.501-.086a1.5 1.5 0 0 1-.913-1.915q1.01-2.851 2.062-5.68a1.5 1.5 0 0 1 2.812 1.043 398 398 0 0 0-2.046 5.64 1.5 1.5 0 0 1-1.414.998m774.715 4.658a1.5 1.5 0 0 1-1.42-1.016q-.966-2.832-1.97-5.644a1.5 1.5 0 0 1 2.825-1.01 406 406 0 0 1 1.985 5.687 1.5 1.5 0 0 1-1.42 1.983M21.097 287.4q-.23.001-.46-.072a1.5 1.5 0 0 1-.968-1.887 397 397 0 0 1 1.893-5.74 1.496 1.496 0 0 1 1.9-.942 1.5 1.5 0 0 1 .94 1.9 452 452 0 0 0-1.878 5.7 1.5 1.5 0 0 1-1.427 1.041m782.275 4.658a1.5 1.5 0 0 1-1.434-1.057 389 389 0 0 0-1.803-5.699 1.5 1.5 0 0 1 2.853-.926q.93 2.86 1.818 5.74a1.5 1.5 0 0 1-1.434 1.942M17.587 298.9q-.208.001-.417-.058a1.5 1.5 0 0 1-1.025-1.858q.837-2.895 1.715-5.773a1.501 1.501 0 0 1 2.87.877 370 370 0 0 0-1.703 5.728 1.5 1.5 0 0 1-1.44 1.084m-3.163 11.574q-.187.001-.375-.046a1.5 1.5 0 0 1-1.078-1.828q.75-2.917 1.543-5.82a1.5 1.5 0 0 1 2.894.791 426 426 0 0 0-1.533 5.777 1.5 1.5 0 0 1-1.451 1.126m-2.82 11.663q-.164 0-.332-.038a1.5 1.5 0 0 1-1.131-1.794q.664-2.939 1.372-5.863a1.5 1.5 0 0 1 2.916.705 403 403 0 0 0-1.363 5.821 1.5 1.5 0 0 1-1.461 1.17m800.834 4.744a1.5 1.5 0 0 1-1.465-1.187 418 418 0 0 0-1.292-5.836 1.5 1.5 0 0 1 1.127-1.797 1.496 1.496 0 0 1 1.796 1.127q.673 2.931 1.302 5.88a1.5 1.5 0 0 1-1.468 1.813M9.13 333.877q-.143 0-.29-.028a1.5 1.5 0 0 1-1.184-1.759q.577-2.959 1.199-5.903a1.5 1.5 0 0 1 2.935.619q-.616 2.922-1.19 5.858a1.5 1.5 0 0 1-1.47 1.213m805.643 4.77a1.5 1.5 0 0 1-1.473-1.23q-.54-2.943-1.12-5.87a1.501 1.501 0 0 1 2.943-.584q.586 2.95 1.128 5.915a1.5 1.5 0 0 1-1.478 1.77M7 345.684q-.122 0-.246-.02a1.5 1.5 0 0 1-1.235-1.724q.49-2.974 1.023-5.932a1.5 1.5 0 0 1 2.953.531 421 421 0 0 0-1.017 5.89A1.5 1.5 0 0 1 7 345.684m809.76 4.796a1.5 1.5 0 0 1-1.48-1.273q-.453-2.958-.948-5.902a1.501 1.501 0 0 1 2.959-.498q.498 2.967.954 5.947a1.498 1.498 0 0 1-1.484 1.726M5.22 357.55q-.101 0-.203-.015a1.5 1.5 0 0 1-1.286-1.688q.405-2.986.85-5.96a1.5 1.5 0 1 1 2.968.445 411 411 0 0 0-.845 5.918 1.5 1.5 0 0 1-1.484 1.3m813.182 4.815a1.5 1.5 0 0 1-1.486-1.316 426 426 0 0 0-.775-5.927 1.5 1.5 0 0 1 1.28-1.69 1.49 1.49 0 0 1 1.69 1.28q.414 2.978.782 5.97a1.5 1.5 0 0 1-1.491 1.683M3.787 369.461a1.5 1.5 0 0 1-1.494-1.657q.316-2.999.677-5.984a1.495 1.495 0 0 1 1.669-1.309 1.5 1.5 0 0 1 1.309 1.67 399 399 0 0 0-.671 5.937 1.5 1.5 0 0 1-1.49 1.343m815.907 4.832a1.5 1.5 0 0 1-1.491-1.36 431 431 0 0 0-.6-5.948 1.499 1.499 0 1 1 2.982-.322q.325 2.989.604 5.99a1.5 1.5 0 0 1-1.495 1.64M2.7 381.41q-.059.001-.116-.004a1.5 1.5 0 0 1-1.382-1.61q.23-3.007.5-6a1.5 1.5 0 0 1 2.988.271q-.269 2.972-.496 5.957A1.5 1.5 0 0 1 2.7 381.41m817.94 4.845a1.5 1.5 0 0 1-1.496-1.404 419 419 0 0 0-.427-5.962 1.5 1.5 0 1 1 2.99-.236q.236 2.997.43 6.005a1.503 1.503 0 0 1-1.497 1.597M1.96 393.385q-.034 0-.07-.002a1.5 1.5 0 0 1-1.428-1.569q.14-3.012.326-6.012a1.49 1.49 0 0 1 1.59-1.405 1.5 1.5 0 0 1 1.404 1.59q-.183 2.976-.324 5.968a1.5 1.5 0 0 1-1.497 1.43m819.276 4.852a1.5 1.5 0 0 1-1.498-1.447 393 393 0 0 0-.254-5.972 1.5 1.5 0 0 1 1.423-1.573 1.51 1.51 0 0 1 1.573 1.423q.15 3.003.256 6.016a1.5 1.5 0 0 1-1.446 1.552zM1.57 405.377h-.028a1.5 1.5 0 0 1-1.473-1.529q.054-3.014.154-6.018a1.51 1.51 0 0 1 1.548-1.45 1.5 1.5 0 0 1 1.45 1.548 394 394 0 0 0-.152 5.975 1.5 1.5 0 0 1-1.5 1.473m-.048 11.997a1.5 1.5 0 0 1-1.5-1.484A401 401 0 0 1 0 411.5l.003-1.632a1.5 1.5 0 0 1 1.5-1.494h.006a1.5 1.5 0 0 1 1.494 1.505L3 411.5a395 395 0 0 0 .022 4.358 1.5 1.5 0 0 1-1.484 1.516zM821.458 419h-.022a1.5 1.5 0 0 1-1.48-1.522q.044-2.982.044-5.977c0-.629.387-1.167.936-1.39a1.5 1.5 0 0 1-.945-1.385 409 409 0 0 0-.083-5.973 1.5 1.5 0 0 1 1.469-1.53c.81-.032 1.513.64 1.53 1.467q.064 3.002.084 6.017a1.5 1.5 0 0 1-.935 1.4c.552.221.944.762.944 1.394q0 3.015-.043 6.02a1.5 1.5 0 0 1-1.5 1.48M1.818 429.346a1.5 1.5 0 0 1-1.497-1.442 441 441 0 0 1-.192-6 1.5 1.5 0 0 1 1.463-1.537c.81-.068 1.516.634 1.537 1.462q.073 2.985.19 5.958a1.5 1.5 0 0 1-1.44 1.558zm819.295 1.646h-.065a1.5 1.5 0 0 1-1.435-1.564q.129-2.983.216-5.974c.024-.828.708-1.495 1.542-1.456a1.5 1.5 0 0 1 1.456 1.542q-.086 3.015-.216 6.016a1.5 1.5 0 0 1-1.498 1.436M2.462 441.326a1.5 1.5 0 0 1-1.494-1.398 410 410 0 0 1-.367-6.01 1.5 1.5 0 0 1 1.418-1.578c.86-.028 1.533.591 1.578 1.418q.16 2.988.363 5.966a1.5 1.5 0 0 1-1.498 1.602m817.96 1.645q-.053.001-.11-.004a1.5 1.5 0 0 1-1.387-1.604q.214-2.978.387-5.965a1.49 1.49 0 0 1 1.583-1.41 1.5 1.5 0 0 1 1.412 1.582 410 410 0 0 1-.39 6.008 1.5 1.5 0 0 1-1.494 1.393M3.453 453.284a1.5 1.5 0 0 1-1.491-1.354 439 439 0 0 1-.54-5.997 1.5 1.5 0 0 1 1.37-1.619 1.506 1.506 0 0 1 1.62 1.371q.247 2.985.536 5.953a1.5 1.5 0 0 1-1.495 1.646m815.933 1.638q-.077 0-.155-.008a1.5 1.5 0 0 1-1.34-1.644q.303-2.969.56-5.95a1.496 1.496 0 0 1 1.625-1.365 1.5 1.5 0 0 1 1.364 1.624 381 381 0 0 1-.564 5.994 1.5 1.5 0 0 1-1.49 1.35M4.79 465.206a1.5 1.5 0 0 1-1.486-1.31 392 392 0 0 1-.715-5.98 1.5 1.5 0 0 1 1.322-1.657c.832-.1 1.567.5 1.658 1.322q.335 2.975.71 5.935a1.5 1.5 0 0 1-1.49 1.69m813.207 1.634a1.498 1.498 0 0 1-1.489-1.696q.39-2.96.734-5.932a1.5 1.5 0 0 1 1.664-1.317 1.5 1.5 0 0 1 1.317 1.663q-.35 2.996-.741 5.977a1.5 1.5 0 0 1-1.485 1.305M6.477 477.085a1.5 1.5 0 0 1-1.48-1.268 414 414 0 0 1-.891-5.954 1.5 1.5 0 0 1 2.97-.422q.421 2.964.884 5.911a1.5 1.5 0 0 1-1.483 1.733m809.787 1.627q-.12 0-.242-.02a1.5 1.5 0 0 1-1.241-1.72q.475-2.944.907-5.907a1.51 1.51 0 0 1 1.702-1.267 1.5 1.5 0 0 1 1.267 1.701q-.435 2.982-.915 5.952a1.5 1.5 0 0 1-1.478 1.261M8.512 488.91a1.5 1.5 0 0 1-1.473-1.225 423 423 0 0 1-1.064-5.924 1.5 1.5 0 1 1 2.957-.51q.507 2.95 1.056 5.884a1.5 1.5 0 0 1-1.476 1.775m805.67 1.618q-.14 0-.283-.026a1.5 1.5 0 0 1-1.192-1.755q.561-2.933 1.08-5.88a1.507 1.507 0 0 1 1.738-1.217 1.5 1.5 0 0 1 1.217 1.74 426 426 0 0 1-1.088 5.92 1.5 1.5 0 0 1-1.471 1.218m-803.29 10.141a1.5 1.5 0 0 1-1.464-1.18q-.64-2.94-1.238-5.893a1.5 1.5 0 1 1 2.94-.596q.594 2.932 1.229 5.85a1.502 1.502 0 0 1-1.466 1.82m800.86 1.61q-.161 0-.325-.036c-.81-.18-1.32-.98-1.14-1.789q.649-2.913 1.254-5.845a1.498 1.498 0 1 1 2.937.608 397 397 0 0 1-1.262 5.887 1.5 1.5 0 0 1-1.463 1.175M13.62 512.352a1.5 1.5 0 0 1-1.454-1.137 423 423 0 0 1-1.412-5.854 1.5 1.5 0 1 1 2.922-.68q.68 2.911 1.4 5.81a1.5 1.5 0 0 1-1.456 1.861m795.36 1.598q-.183 0-.37-.046a1.5 1.5 0 0 1-1.085-1.822q.733-2.895 1.425-5.805a1.49 1.49 0 0 1 1.806-1.112c.807.191 1.305 1 1.112 1.806a405 405 0 0 1-1.434 5.847 1.5 1.5 0 0 1-1.454 1.132M16.688 523.951a1.5 1.5 0 0 1-1.443-1.096 428 428 0 0 1-1.583-5.809 1.5 1.5 0 0 1 2.9-.768q.766 2.894 1.572 5.77a1.5 1.5 0 0 1-1.446 1.903m789.176 1.587q-.205 0-.412-.058a1.497 1.497 0 0 1-1.031-1.853 398 398 0 0 0 1.595-5.76 1.5 1.5 0 1 1 2.896.779 404 404 0 0 1-1.606 5.803 1.5 1.5 0 0 1-1.442 1.09M20.1 535.454a1.5 1.5 0 0 1-1.432-1.053 426 426 0 0 1-1.754-5.76 1.5 1.5 0 0 1 1.012-1.865 1.504 1.504 0 0 1 1.865 1.012 410 410 0 0 0 1.74 5.72 1.5 1.5 0 0 1-1.431 1.946m782.298 1.598q-.226 0-.453-.07a1.5 1.5 0 0 1-.976-1.884 410 410 0 0 0 1.77-5.736 1.5 1.5 0 1 1 2.873.864 399 399 0 0 1-1.784 5.78 1.5 1.5 0 0 1-1.43 1.046m-778.551 9.8a1.5 1.5 0 0 1-1.418-1.01 398 398 0 0 1-1.923-5.706 1.5 1.5 0 1 1 2.849-.938 401 401 0 0 0 1.91 5.664 1.5 1.5 0 0 1-1.418 1.99m774.74 1.626a1.5 1.5 0 0 1-1.416-1.995q.99-2.83 1.94-5.678a1.5 1.5 0 1 1 2.846.949 423 423 0 0 1-1.953 5.72 1.5 1.5 0 0 1-1.416 1.004M27.93 558.135a1.5 1.5 0 0 1-1.403-.969 381 381 0 0 1-2.09-5.647 1.5 1.5 0 1 1 2.82-1.02q1.018 2.811 2.075 5.604a1.5 1.5 0 0 1-1.402 2.032m766.512 1.65a1.5 1.5 0 0 1-1.4-2.037 410 410 0 0 0 2.106-5.617 1.5 1.5 0 1 1 2.817 1.033 421 421 0 0 1-2.122 5.657 1.5 1.5 0 0 1-1.401.963m-762.1 9.507a1.5 1.5 0 0 1-1.387-.928 404 404 0 0 1-2.256-5.583 1.5 1.5 0 1 1 2.789-1.103 417 417 0 0 0 2.24 5.542 1.5 1.5 0 0 1-1.385 2.072m757.624 1.666a1.5 1.5 0 0 1-1.383-2.078q1.155-2.766 2.27-5.55a1.5 1.5 0 0 1 2.786 1.115 407 407 0 0 1-2.288 5.591 1.5 1.5 0 0 1-1.385.922m-752.903 9.313a1.5 1.5 0 0 1-1.371-.887 415 415 0 0 1-2.41-5.494 1.5 1.5 0 0 1 2.756-1.185 407 407 0 0 0 2.393 5.454 1.498 1.498 0 0 1-1.368 2.112m748.1 1.72a1.498 1.498 0 0 1-1.365-2.118 407 407 0 0 0 2.432-5.479 1.5 1.5 0 0 1 1.974-.776c.76.33 1.108 1.214.776 1.974a407 407 0 0 1-2.45 5.517c-.25.555-.796.882-1.367.882m-743.058 9.12a1.5 1.5 0 0 1-1.352-.848 413 413 0 0 1-2.57-5.422 1.5 1.5 0 0 1 .727-1.994 1.504 1.504 0 0 1 1.993.728 414 414 0 0 0 2.55 5.383 1.5 1.5 0 0 1-1.348 2.152m737.933 1.765a1.5 1.5 0 0 1-1.347-2.159 383 383 0 0 0 2.593-5.403 1.5 1.5 0 0 1 2.715 1.278 431 431 0 0 1-2.612 5.443 1.5 1.5 0 0 1-1.35.841m-732.574 8.927a1.5 1.5 0 0 1-1.332-.809 419 419 0 0 1-2.73-5.345 1.5 1.5 0 0 1 2.682-1.345 413 413 0 0 0 2.71 5.306 1.5 1.5 0 0 1-1.33 2.193m727.133 1.796c-.236 0-.475-.055-.698-.17a1.5 1.5 0 0 1-.63-2.028 411 411 0 0 0 2.75-5.322 1.5 1.5 0 1 1 2.676 1.357 424 424 0 0 1-2.77 5.362c-.268.51-.79.801-1.328.801m-721.461 8.738a1.5 1.5 0 0 1-1.312-.77 439 439 0 0 1-2.885-5.266 1.502 1.502 0 0 1 2.643-1.422q1.411 2.625 2.863 5.227a1.5 1.5 0 0 1-1.31 2.231m715.708 1.82a1.501 1.501 0 0 1-1.306-2.237 405 405 0 0 0 2.904-5.238 1.5 1.5 0 1 1 2.635 1.436 404 404 0 0 1-2.926 5.276 1.5 1.5 0 0 1-1.307.763m-709.73 8.546a1.5 1.5 0 0 1-1.29-.73 425 425 0 0 1-3.038-5.182 1.5 1.5 0 1 1 2.598-1.5q1.492 2.584 3.017 5.143a1.5 1.5 0 0 1-1.287 2.27m703.67 1.836a1.5 1.5 0 0 1-1.283-2.275 403 403 0 0 0 3.056-5.149 1.5 1.5 0 0 1 2.59 1.512 397 397 0 0 1-3.078 5.187 1.5 1.5 0 0 1-1.285.725m-697.388 8.355c-.496 0-.981-.245-1.267-.694a410 410 0 0 1-3.19-5.092 1.5 1.5 0 0 1 2.555-1.574 404 404 0 0 0 3.166 5.055 1.5 1.5 0 0 1-1.264 2.305m691.03 1.84a1.5 1.5 0 0 1-1.26-2.312 419 419 0 0 0 3.205-5.056 1.499 1.499 0 1 1 2.545 1.588 413 413 0 0 1-3.23 5.093 1.5 1.5 0 0 1-1.26.687m-684.453 8.167c-.481 0-.952-.23-1.243-.658a421 421 0 0 1-3.337-4.997 1.5 1.5 0 0 1 2.505-1.649 420 420 0 0 0 3.315 4.962 1.5 1.5 0 0 1-1.24 2.342m677.799 1.837a1.498 1.498 0 0 1-1.235-2.349 422 422 0 0 0 3.35-4.959 1.5 1.5 0 0 1 2.498 1.662 424 424 0 0 1-3.375 4.995c-.29.424-.76.651-1.238.651M78.84 652.714c-.465 0-.924-.216-1.217-.622a394 394 0 0 1-3.483-4.9 1.499 1.499 0 1 1 2.457-1.72 427 427 0 0 0 3.458 4.864 1.5 1.5 0 0 1-1.215 2.378m663.99 1.827a1.5 1.5 0 0 1-1.211-2.384 418 418 0 0 0 3.495-4.859 1.499 1.499 0 1 1 2.447 1.734 436 436 0 0 1-3.517 4.893 1.5 1.5 0 0 1-1.213.616m-656.836 7.784c-.45 0-.895-.202-1.191-.587a404 404 0 0 1-3.624-4.798 1.499 1.499 0 1 1 2.406-1.79 399 399 0 0 0 3.599 4.762 1.501 1.501 0 0 1-1.19 2.413m649.615 1.808a1.499 1.499 0 0 1-1.184-2.419 435 435 0 0 0 3.633-4.754 1.5 1.5 0 1 1 2.396 1.804 429 429 0 0 1-3.658 4.788 1.5 1.5 0 0 1-1.187.581m-642.183 7.593c-.436 0-.868-.188-1.164-.552a424 424 0 0 1-3.764-4.69 1.5 1.5 0 0 1 2.354-1.862 409 409 0 0 0 3.736 4.657 1.499 1.499 0 0 1-1.162 2.447m634.686 1.783a1.5 1.5 0 0 1-1.157-2.453 432 432 0 0 0 3.77-4.645 1.499 1.499 0 1 1 2.34 1.875 425 425 0 0 1-3.794 4.676c-.296.36-.726.547-1.16.547m-626.983 7.4c-.421 0-.84-.176-1.136-.52a409 409 0 0 1-3.9-4.58 1.5 1.5 0 0 1 2.299-1.928q1.92 2.288 3.87 4.548a1.499 1.499 0 0 1-1.133 2.48m619.217 1.754a1.5 1.5 0 0 1-1.13-2.487 412 412 0 0 0 3.903-4.532 1.5 1.5 0 0 1 2.114-.172 1.5 1.5 0 0 1 .173 2.114 414 414 0 0 1-3.93 4.564 1.5 1.5 0 0 1-1.13.513m-611.248 7.205c-.406 0-.811-.164-1.107-.487a427 427 0 0 1-4.031-4.466 1.499 1.499 0 1 1 2.24-1.994 431 431 0 0 0 4.004 4.434 1.498 1.498 0 0 1-1.106 2.513m603.222 1.715a1.5 1.5 0 0 1-1.1-2.52 411 411 0 0 0 4.03-4.415 1.5 1.5 0 0 1 2.23 2.008 426 426 0 0 1-4.06 4.446c-.295.32-.696.481-1.1.481m-594.994 7.01a1.5 1.5 0 0 1-1.076-.455 417 417 0 0 1-4.161-4.348 1.5 1.5 0 1 1 2.18-2.059 432 432 0 0 0 4.133 4.317 1.5 1.5 0 0 1-1.076 2.545m586.713 1.671a1.5 1.5 0 0 1-1.07-2.551 401 401 0 0 0 4.156-4.295 1.5 1.5 0 0 1 2.172 2.07 407 407 0 0 1-4.188 4.326c-.294.3-.681.45-1.07.45m-578.232 6.811c-.377 0-.754-.14-1.046-.425a416 416 0 0 1-4.286-4.225 1.5 1.5 0 1 1 2.12-2.12 421 421 0 0 0 4.258 4.195 1.5 1.5 0 0 1-1.046 2.575m569.705 1.622a1.5 1.5 0 0 1-1.039-2.582 420 420 0 0 0 4.278-4.17 1.5 1.5 0 1 1 2.109 2.133 407 407 0 0 1-4.31 4.201 1.5 1.5 0 0 1-1.038.418m-560.98 6.613a1.5 1.5 0 0 1-1.013-.394 439 439 0 0 1-4.41-4.1 1.5 1.5 0 0 1-.062-2.12 1.504 1.504 0 0 1 2.12-.063 411 411 0 0 0 4.379 4.072 1.5 1.5 0 0 1-1.014 2.605m552.21 1.57a1.502 1.502 0 0 1-1.008-2.612 384 384 0 0 0 4.4-4.045 1.5 1.5 0 0 1 2.047 2.194 428 428 0 0 1-4.43 4.074 1.5 1.5 0 0 1-1.008.39m-543.248 6.41c-.348 0-.696-.12-.98-.366a419 419 0 0 1-4.527-3.972 1.499 1.499 0 1 1 1.994-2.24 422 422 0 0 0 4.496 3.942 1.5 1.5 0 0 1-.983 2.635m534.25 1.511a1.5 1.5 0 0 1-.975-2.64 409 409 0 0 0 4.512-3.914 1.5 1.5 0 0 1 2.117.135 1.5 1.5 0 0 1-.134 2.117 414 414 0 0 1-4.545 3.942c-.283.241-.63.36-.974.36m-525.056 6.206c-.333 0-.668-.11-.946-.337a426 426 0 0 1-4.642-3.84 1.5 1.5 0 0 1 1.928-2.298 418 418 0 0 0 4.609 3.812 1.5 1.5 0 0 1-.95 2.663m515.832 1.45a1.5 1.5 0 0 1-.942-2.668 420 420 0 0 0 4.623-3.78 1.497 1.497 0 0 1 2.112.195c.53.638.442 1.583-.196 2.112a424 424 0 0 1-4.656 3.808c-.277.223-.61.332-.941.332m-506.416 5.997c-.318 0-.64-.1-.912-.31a435 435 0 0 1-4.754-3.703 1.501 1.501 0 0 1 1.862-2.353 400 400 0 0 0 4.719 3.676 1.5 1.5 0 0 1-.915 2.69m496.976 1.382a1.501 1.501 0 0 1-.907-2.696 409 409 0 0 0 4.729-3.64 1.5 1.5 0 1 1 1.848 2.362 404 404 0 0 1-4.765 3.67c-.27.204-.59.304-.905.304m-487.343 5.79c-.304 0-.611-.093-.877-.285a415 415 0 0 1-4.86-3.564 1.5 1.5 0 0 1 1.791-2.406q2.4 1.786 4.825 3.538a1.5 1.5 0 0 1-.88 2.716m477.696 1.312c-.468 0-.93-.218-1.222-.629a1.497 1.497 0 0 1 .35-2.09 418 418 0 0 0 4.83-3.504 1.501 1.501 0 0 1 1.779 2.416 405 405 0 0 1-4.867 3.528 1.5 1.5 0 0 1-.87.28m-467.857 5.576c-.29 0-.583-.084-.841-.259a393 393 0 0 1-4.964-3.42 1.5 1.5 0 0 1 1.72-2.458 426 426 0 0 0 4.928 3.395 1.5 1.5 0 0 1-.843 2.742m458.006 1.24a1.501 1.501 0 0 1-.836-2.746 415 415 0 0 0 4.93-3.36 1.5 1.5 0 1 1 1.708 2.467 395 395 0 0 1-4.968 3.385 1.5 1.5 0 0 1-.834.254m-447.967 5.36c-.276 0-.554-.077-.804-.236a401 401 0 0 1-5.063-3.275 1.5 1.5 0 0 1-.43-2.078 1.504 1.504 0 0 1 2.078-.429 431 431 0 0 0 5.026 3.252 1.501 1.501 0 0 1-.807 2.765m437.927 1.164a1.5 1.5 0 0 1-.8-2.769 424 424 0 0 0 5.026-3.214 1.5 1.5 0 0 1 1.634 2.515 414 414 0 0 1-5.062 3.238c-.248.156-.525.23-.798.23m-427.695 5.14c-.262 0-.527-.069-.768-.212a428 428 0 0 1-5.157-3.126 1.501 1.501 0 0 1 1.574-2.555 415 415 0 0 0 5.12 3.105 1.499 1.499 0 0 1-.77 2.788m417.47 1.087a1.499 1.499 0 0 1-.762-2.792 417 417 0 0 0 5.116-3.066 1.5 1.5 0 0 1 1.56 2.563 410 410 0 0 1-5.153 3.087 1.5 1.5 0 0 1-.761.208m-407.056 4.916c-.247 0-.498-.06-.73-.19a416 416 0 0 1-5.248-2.974 1.501 1.501 0 0 1 1.498-2.6q2.594 1.496 5.21 2.953a1.5 1.5 0 0 1-.73 2.811m396.66 1.006a1.5 1.5 0 0 1-1.316-.777 1.5 1.5 0 0 1 .59-2.038 406 406 0 0 0 5.202-2.912 1.5 1.5 0 0 1 1.485 2.607q-2.609 1.485-5.238 2.933a1.5 1.5 0 0 1-.723.187m-386.072 4.69a1.5 1.5 0 0 1-.691-.169 431 431 0 0 1-5.335-2.819 1.5 1.5 0 1 1 1.42-2.643 425 425 0 0 0 5.298 2.8 1.5 1.5 0 0 1-.692 2.831m375.508.925a1.5 1.5 0 0 1-.685-2.835 401 401 0 0 0 5.282-2.758 1.5 1.5 0 0 1 2.028.62c.389.732.112 1.64-.62 2.028q-2.65 1.41-5.321 2.78a1.5 1.5 0 0 1-.684.165m-364.753 4.46c-.22 0-.441-.049-.651-.15a388 388 0 0 1-5.418-2.664 1.499 1.499 0 1 1 1.344-2.68 388 388 0 0 0 5.377 2.641 1.502 1.502 0 0 1-.652 2.852m354.034.842a1.501 1.501 0 0 1-.647-2.855 407 407 0 0 0 5.36-2.6 1.5 1.5 0 1 1 1.33 2.688 420 420 0 0 1-5.4 2.621 1.5 1.5 0 0 1-.643.146m-343.122 4.222c-.204 0-.412-.042-.611-.13a407 407 0 0 1-5.495-2.503 1.5 1.5 0 1 1 1.264-2.72q2.716 1.262 5.454 2.484a1.5 1.5 0 0 1-.612 2.87m332.255.76a1.5 1.5 0 0 1-.606-2.872 420 420 0 0 0 5.432-2.443 1.499 1.499 0 1 1 1.25 2.726q-2.724 1.25-5.471 2.461a1.5 1.5 0 0 1-.605.128m-321.196 3.984c-.19 0-.384-.036-.57-.113a380 380 0 0 1-5.57-2.34 1.5 1.5 0 0 1-.786-1.97 1.5 1.5 0 0 1 1.97-.787 388 388 0 0 0 5.526 2.324 1.498 1.498 0 0 1-.57 2.886m310.192.678a1.5 1.5 0 0 1-.565-2.89 395 395 0 0 0 5.498-2.28 1.5 1.5 0 1 1 1.17 2.762q-2.76 1.168-5.54 2.298c-.184.075-.375.11-.563.11m-298.992 3.738c-.175 0-.355-.03-.53-.096a415 415 0 0 1-5.636-2.175 1.5 1.5 0 1 1 1.1-2.79q2.787 1.098 5.596 2.158a1.5 1.5 0 0 1-.53 2.903m287.81.613a1.5 1.5 0 0 1-.524-2.906 407 407 0 0 0 5.587-2.127 1.5 1.5 0 1 1 1.088 2.795 393 393 0 0 1-5.627 2.143 1.5 1.5 0 0 1-.523.095m-276.481 3.471a1.5 1.5 0 0 1-.49-.082 405 405 0 0 1-5.7-2.007 1.5 1.5 0 0 1 1.018-2.823q2.82 1.017 5.66 1.994a1.499 1.499 0 0 1-.488 2.918m265.177.551a1.5 1.5 0 0 1-.481-2.92 392 392 0 0 0 5.645-1.962 1.5 1.5 0 0 1 1.006 2.827q-2.835 1.008-5.688 1.976-.242.08-.482.08m-253.73 3.197q-.221.002-.445-.067-2.889-.9-5.76-1.839a1.501 1.501 0 0 1 .935-2.85q2.849.933 5.716 1.824a1.5 1.5 0 0 1-.445 2.932m242.312.491a1.5 1.5 0 0 1-.44-2.935 381 381 0 0 0 5.702-1.794 1.504 1.504 0 0 1 1.889.967 1.5 1.5 0 0 1-.967 1.89 408 408 0 0 1-5.744 1.806 1.5 1.5 0 0 1-.44.066m-230.801 2.905q-.202 0-.405-.056a411 411 0 0 1-5.788-1.66 1.5 1.5 0 1 1 .85-2.878 407 407 0 0 0 5.745 1.65 1.5 1.5 0 0 1-.402 2.944m219.279.441a1.5 1.5 0 0 1-.397-2.946 394 394 0 0 0 5.752-1.626 1.501 1.501 0 0 1 .838 2.881q-2.89.84-5.795 1.638a1.5 1.5 0 0 1-.398.053m-207.677 2.613q-.18 0-.361-.044-2.926-.725-5.834-1.49a1.5 1.5 0 0 1-1.07-1.833 1.5 1.5 0 0 1 1.833-1.068q2.887.76 5.79 1.48a1.5 1.5 0 0 1-.358 2.955m196.063.394a1.502 1.502 0 0 1-.354-2.958q2.908-.706 5.797-1.455a1.5 1.5 0 1 1 .752 2.904q-2.912.755-5.84 1.467a1.5 1.5 0 0 1-.355.042m-184.374 2.317q-.158.001-.32-.035a394 394 0 0 1-5.876-1.317 1.5 1.5 0 0 1 .678-2.922q2.908.674 5.833 1.308a1.5 1.5 0 0 1-.315 2.966m172.674.346a1.5 1.5 0 0 1-.31-2.968q2.928-.619 5.839-1.283a1.503 1.503 0 0 1 1.796 1.13 1.5 1.5 0 0 1-1.13 1.796 427 427 0 0 1-5.881 1.293q-.158.033-.314.032m-160.912 2.02a1.4 1.4 0 0 1-.276-.027 431 431 0 0 1-5.911-1.143 1.5 1.5 0 0 1 .59-2.942q2.929.589 5.87 1.136a1.5 1.5 0 0 1-.273 2.975m149.14.297a1.5 1.5 0 0 1-.265-2.976q2.943-.535 5.872-1.11a1.5 1.5 0 1 1 .58 2.943 384 384 0 0 1-5.917 1.118 1.4 1.4 0 0 1-.27.025m-137.314 1.72q-.115 0-.232-.017a411 411 0 0 1-5.942-.97 1.499 1.499 0 1 1 .503-2.957q2.942.502 5.9.962a1.5 1.5 0 0 1-.229 2.982m125.48.253a1.5 1.5 0 0 1-.223-2.983q2.96-.447 5.904-.939a1.5 1.5 0 1 1 .492 2.959q-2.966.495-5.947.947a2 2 0 0 1-.226.016m-113.598 1.42q-.094 0-.19-.012a404 404 0 0 1-5.968-.796 1.5 1.5 0 0 1 .42-2.97q2.955.415 5.924.79a1.5 1.5 0 0 1-.186 2.987m101.71.203a1.5 1.5 0 0 1-.18-2.989q2.973-.36 5.929-.766a1.514 1.514 0 0 1 1.69 1.284 1.5 1.5 0 0 1-1.284 1.69q-2.978.406-5.971.771-.093.01-.184.01m-89.786 1.12q-.072 0-.145-.007-3.002-.29-5.99-.62a1.5 1.5 0 0 1-1.325-1.658 1.503 1.503 0 0 1 1.657-1.325q2.965.331 5.945.616a1.5 1.5 0 0 1-.142 2.993m77.856.154a1.501 1.501 0 0 1-.136-2.994q2.98-.275 5.948-.59a1.493 1.493 0 0 1 1.65 1.331 1.5 1.5 0 0 1-1.332 1.65q-2.989.32-5.991.596a1 1 0 0 1-.14.007m-65.898.82q-.051 0-.102-.003a425 425 0 0 1-6.004-.446 1.5 1.5 0 0 1-1.373-1.617 1.494 1.494 0 0 1 1.617-1.373q2.973.243 5.96.442a1.501 1.501 0 0 1-.098 2.997m53.938.108a1.5 1.5 0 0 1-.094-2.998q2.986-.187 5.963-.418a1.49 1.49 0 0 1 1.61 1.38 1.5 1.5 0 0 1-1.378 1.611q-3 .232-6.006.422zm-41.957.521h-.058a427 427 0 0 1-6.015-.272 1.5 1.5 0 1 1 .157-2.997q2.981.157 5.97.27a1.5 1.5 0 0 1 1.444 1.556 1.5 1.5 0 0 1-1.498 1.443m29.972.06a1.5 1.5 0 0 1-.05-2.999q2.993-.103 5.973-.247c.817-.027 1.53.6 1.57 1.426a1.5 1.5 0 0 1-1.425 1.571q-3.001.146-6.016.248zm-17.98.221h-.013q-3.015-.027-6.02-.097a1.5 1.5 0 0 1 .035-3h.036q2.983.07 5.976.097a1.5 1.5 0 0 1-.013 3m6 .013a1.5 1.5 0 0 1-.007-3q2.991-.015 5.974-.074c.778-.014 1.513.641 1.53 1.47a1.5 1.5 0 0 1-1.471 1.53q-3.003.059-6.017.074zM417.154 138.058h-.031Q414.318 138 411.5 138h-.345a1.5 1.5 0 1 1 0-3h.345q2.848 0 5.683.058a1.5 1.5 0 0 1-.029 3m-17.98.214a1.503 1.503 0 0 1-1.498-1.434 1.5 1.5 0 0 1 1.433-1.565 285 285 0 0 1 6.014-.2h.035a1.5 1.5 0 0 1 .033 3q-2.983.066-5.95.197zm29.965.285-.096-.003c-1.955-.125-3.96-.23-5.957-.312a1.5 1.5 0 0 1-1.437-1.562c.035-.827.69-1.476 1.562-1.436 2.018.084 4.045.19 6.023.316a1.5 1.5 0 0 1-.095 2.997m-41.937.502a1.5 1.5 0 0 1-.13-2.994q2.999-.263 6.015-.462a1.5 1.5 0 0 1 .197 2.994q-2.985.196-5.95.456a2 2 0 0 1-.132.006m53.89.516q-.078 0-.161-.01a264 264 0 0 0-5.937-.57 1.5 1.5 0 0 1-1.367-1.622c.069-.825.798-1.45 1.62-1.367q3.012.256 6.005.577a1.5 1.5 0 0 1-.16 2.992m-65.816.79a1.5 1.5 0 0 1-.194-2.988q2.985-.393 5.988-.721a1.505 1.505 0 0 1 1.654 1.328 1.5 1.5 0 0 1-1.328 1.654q-2.97.325-5.922.714a2 2 0 0 1-.198.013m77.717.746q-.113 0-.227-.017a273 273 0 0 0-5.91-.83 1.5 1.5 0 1 1 .386-2.974q2.997.388 5.974.837a1.5 1.5 0 0 1-.223 2.984m-89.573 1.077a1.502 1.502 0 0 1-.26-2.978q2.965-.522 5.952-.982a1.5 1.5 0 0 1 .457 2.965q-2.955.455-5.887.972a1.5 1.5 0 0 1-.262.023m101.392.976q-.144.001-.292-.028a270 270 0 0 0-5.866-1.087 1.5 1.5 0 0 1-1.221-1.734 1.49 1.49 0 0 1 1.735-1.221c1.969.342 3.965.712 5.932 1.099a1.5 1.5 0 0 1-.288 2.97m-113.157 1.367a1.5 1.5 0 0 1-.324-2.964q2.94-.654 5.902-1.243a1.5 1.5 0 1 1 .586 2.942 276 276 0 0 0-5.838 1.229 1.5 1.5 0 0 1-.326.036m124.875 1.204q-.175 0-.355-.042-2.895-.704-5.813-1.343a1.5 1.5 0 0 1-1.144-1.786 1.49 1.49 0 0 1 1.787-1.144c1.94.425 3.918.882 5.878 1.357a1.5 1.5 0 0 1-.353 2.958m-136.527 1.65a1.5 1.5 0 0 1-1.45-1.11 1.503 1.503 0 0 1 1.062-1.838q2.908-.78 5.842-1.5a1.5 1.5 0 0 1 .715 2.914q-2.902.712-5.78 1.484a1.5 1.5 0 0 1-.39.05m148.12 1.432q-.208 0-.417-.06a272 272 0 0 0-5.75-1.595 1.5 1.5 0 0 1-1.063-1.835 1.495 1.495 0 0 1 1.835-1.064q2.919.776 5.812 1.612a1.502 1.502 0 0 1-.416 2.942M328.49 150.75a1.5 1.5 0 0 1-.452-2.93 262 262 0 0 1 5.77-1.755 1.5 1.5 0 0 1 .843 2.879c-1.9.554-3.82 1.139-5.71 1.736q-.226.071-.451.07m171.103 1.662q-.241.001-.481-.08a278 278 0 0 0-5.694-1.853 1.501 1.501 0 0 1 .898-2.863q2.892.907 5.757 1.876a1.499 1.499 0 0 1-.48 2.92m-182.46 2.206a1.5 1.5 0 0 1-.515-2.91c1.89-.69 3.805-1.366 5.688-2.007a1.5 1.5 0 1 1 .967 2.839q-2.827.963-5.626 1.987-.257.09-.514.09m193.776 1.899q-.273.001-.543-.102a273 273 0 0 0-5.604-2.103 1.5 1.5 0 0 1 1.024-2.82c1.884.683 3.79 1.399 5.666 2.127a1.5 1.5 0 0 1-.543 2.898m11.119 4.597c-.202 0-.406-.041-.603-.127a267 267 0 0 0-5.503-2.347 1.5 1.5 0 0 1 1.146-2.773c1.88.777 3.753 1.576 5.565 2.374a1.5 1.5 0 0 1-.605 2.873m10.9 5.079c-.221 0-.448-.05-.661-.155a275 275 0 0 0-5.393-2.585 1.5 1.5 0 0 1 1.267-2.72q2.742 1.279 5.452 2.614a1.5 1.5 0 0 1-.664 2.846m10.665 5.55c-.244 0-.492-.06-.72-.185a274 274 0 0 0-5.273-2.818 1.499 1.499 0 1 1 1.385-2.661q2.682 1.395 5.33 2.85a1.5 1.5 0 0 1-.723 2.815m-269.752 3.14a1.5 1.5 0 0 1-.753-2.798 277 277 0 0 1 5.239-2.96 1.5 1.5 0 1 1 1.447 2.628 283 283 0 0 0-5.182 2.928 1.5 1.5 0 0 1-.751.202m280.159 2.87c-.266 0-.535-.07-.78-.217a269 269 0 0 0-5.14-3.045 1.5 1.5 0 1 1 1.5-2.598 276 276 0 0 1 5.2 3.079 1.502 1.502 0 0 1-.78 2.782m-290.385 3.356a1.5 1.5 0 0 1-.809-2.764q2.535-1.62 5.109-3.186a1.498 1.498 0 1 1 1.558 2.562 270 270 0 0 0-5.051 3.15c-.25.162-.53.238-.807.238m300.516 3.1a1.5 1.5 0 0 1-.833-.252 271 271 0 0 0-5.001-3.265 1.5 1.5 0 0 1-.46-2.071 1.5 1.5 0 0 1 2.07-.46 283 283 0 0 1 5.059 3.302 1.502 1.502 0 0 1-.835 2.747m-310.467 3.567a1.499 1.499 0 0 1-.863-2.728 281 281 0 0 1 4.966-3.407 1.5 1.5 0 1 1 1.67 2.492 292 292 0 0 0-4.913 3.37 1.5 1.5 0 0 1-.86.273m320.303 3.325c-.308 0-.62-.095-.886-.291a277 277 0 0 0-4.854-3.48 1.5 1.5 0 0 1 1.721-2.457 277 277 0 0 1 4.908 3.519 1.5 1.5 0 0 1-.89 2.709m-329.957 3.77a1.5 1.5 0 0 1-.915-2.689 283 283 0 0 1 4.815-3.618 1.5 1.5 0 1 1 1.777 2.416 282 282 0 0 0-4.763 3.582c-.273.209-.594.31-.914.31m339.482 3.538c-.33 0-.661-.108-.938-.331a279 279 0 0 0-4.697-3.685 1.5 1.5 0 0 1 1.826-2.38 272 272 0 0 1 4.748 3.726 1.499 1.499 0 0 1-.94 2.67m-348.822 3.973a1.499 1.499 0 0 1-.966-2.648 272 272 0 0 1 4.656-3.827 1.497 1.497 0 0 1 2.108.229c.52.646.417 1.59-.23 2.109a270 270 0 0 0-4.604 3.786 1.5 1.5 0 0 1-.964.35m358.018 3.74a1.5 1.5 0 0 1-.987-.372 279 279 0 0 0-4.531-3.884 1.501 1.501 0 0 1 1.927-2.3 272 272 0 0 1 4.58 3.929 1.501 1.501 0 0 1-.99 2.627m-367.027 4.172a1.5 1.5 0 0 1-1.014-2.605q2.22-2.037 4.486-4.027a1.5 1.5 0 0 1 1.98 2.254 275 275 0 0 0-4.438 3.984 1.5 1.5 0 0 1-1.014.394m375.877 3.932c-.373 0-.746-.138-1.036-.416a289 289 0 0 0-4.358-4.077 1.5 1.5 0 1 1 2.026-2.213 272 272 0 0 1 4.404 4.122 1.498 1.498 0 0 1-1.036 2.584m-384.538 4.366a1.5 1.5 0 0 1-1.061-2.56 272 272 0 0 1 4.309-4.22 1.5 1.5 0 0 1 2.076 2.167 271 271 0 0 0-4.263 4.174 1.5 1.5 0 0 1-1.061.439m393.025 4.11c-.394 0-.788-.154-1.083-.461a266 266 0 0 0-4.175-4.261 1.5 1.5 0 0 1 2.12-2.122 286 286 0 0 1 4.22 4.306 1.502 1.502 0 0 1-1.082 2.539m-401.32 4.557a1.501 1.501 0 0 1-1.106-2.514 291 291 0 0 1 4.123-4.403 1.5 1.5 0 0 1 2.168 2.074 280 280 0 0 0-4.08 4.357c-.296.322-.7.486-1.105.486m409.43 4.277c-.416 0-.83-.172-1.127-.51a270 270 0 0 0-3.984-4.436 1.5 1.5 0 0 1 2.209-2.03 276 276 0 0 1 4.029 4.485 1.5 1.5 0 0 1-1.126 2.49M200.79 236.28a1.5 1.5 0 0 1-1.148-2.465 276 276 0 0 1 3.929-4.578 1.501 1.501 0 0 1 2.256 1.978 270 270 0 0 0-3.888 4.529 1.5 1.5 0 0 1-1.15.536m425.063 4.43a1.5 1.5 0 0 1-1.17-.558 270 270 0 0 0-3.787-4.604 1.5 1.5 0 1 1 2.295-1.931 272 272 0 0 1 3.83 4.654 1.5 1.5 0 0 1-1.168 2.44m-432.581 4.93a1.5 1.5 0 0 1-1.188-2.414 279 279 0 0 1 3.727-4.746 1.501 1.501 0 1 1 2.34 1.879 274 274 0 0 0-3.688 4.695 1.5 1.5 0 0 1-1.191.586m439.89 4.567c-.461 0-.916-.211-1.21-.611a273 273 0 0 0-3.582-4.762 1.499 1.499 0 1 1 2.377-1.83c1.23 1.6 2.45 3.22 3.623 4.815a1.502 1.502 0 0 1-1.208 2.388m-446.994 5.112a1.502 1.502 0 0 1-1.228-2.362 277 277 0 0 1 3.52-4.906 1.499 1.499 0 1 1 2.419 1.776 273 273 0 0 0-3.482 4.853 1.5 1.5 0 0 1-1.23.639m453.882 4.689c-.483 0-.958-.232-1.247-.664a272 272 0 0 0-3.373-4.911 1.5 1.5 0 0 1 2.455-1.725 277 277 0 0 1 3.409 4.964 1.5 1.5 0 0 1-1.244 2.336m-460.562 5.294a1.499 1.499 0 0 1-1.264-2.306 274 274 0 0 1 3.304-5.056 1.5 1.5 0 0 1 2.494 1.668 275 275 0 0 0-3.268 5 1.5 1.5 0 0 1-1.266.694m467.014 4.793c-.506 0-1-.256-1.283-.72a268 268 0 0 0-3.153-5.05 1.501 1.501 0 0 1 2.527-1.618 272 272 0 0 1 3.189 5.108 1.5 1.5 0 0 1-1.28 2.28m-473.253 5.476a1.5 1.5 0 0 1-1.298-2.251c1-1.73 2.037-3.48 3.08-5.198a1.5 1.5 0 1 1 2.563 1.559 264 264 0 0 0-3.045 5.14c-.28.48-.783.75-1.3.75m479.259 4.88a1.5 1.5 0 0 1-1.315-.776 268 268 0 0 0-2.931-5.181 1.5 1.5 0 0 1 2.596-1.504 280 280 0 0 1 2.962 5.236 1.5 1.5 0 0 1-1.312 2.225m-485.045 5.656a1.5 1.5 0 0 1-1.33-2.194 266 266 0 0 1 2.852-5.328 1.5 1.5 0 0 1 2.036-.592c.727.398.992 1.31.593 2.036a283 283 0 0 0-2.82 5.27 1.5 1.5 0 0 1-1.331.808m490.589 4.946a1.5 1.5 0 0 1-1.344-.834 275 275 0 0 0-2.7-5.302 1.5 1.5 0 1 1 2.658-1.39 272 272 0 0 1 2.729 5.36 1.5 1.5 0 0 1-1.343 2.166m5.077 10.828a1.5 1.5 0 0 1-1.373-.893 275 275 0 0 0-2.465-5.411 1.501 1.501 0 1 1 2.717-1.274 285 285 0 0 1 2.492 5.472 1.5 1.5 0 0 1-1.371 2.106m-517.386 40.166q-.192.002-.388-.051a1.5 1.5 0 0 1-1.062-1.835 275 275 0 0 1 1.616-5.81 1.5 1.5 0 0 1 2.881.834 276 276 0 0 0-1.6 5.749 1.5 1.5 0 0 1-1.447 1.113m-2.833 11.658q-.16.001-.323-.035a1.5 1.5 0 0 1-1.143-1.787 283 283 0 0 1 1.359-5.877 1.5 1.5 0 1 1 2.916.709 267 267 0 0 0-1.345 5.813 1.5 1.5 0 0 1-1.464 1.177m-5.398 35.56q-.064 0-.13-.006a1.5 1.5 0 0 1-1.366-1.622q.259-3.01.579-6.003a1.495 1.495 0 0 1 1.652-1.331c.823.088 1.42.827 1.33 1.65a277 277 0 0 0-.572 5.94 1.5 1.5 0 0 1-1.493 1.372m-.763 11.972-.064-.001a1.5 1.5 0 0 1-1.436-1.562c.085-2.02.192-4.046.319-6.023.054-.827.807-1.441 1.593-1.402a1.5 1.5 0 0 1 1.4 1.594 263 263 0 0 0-.314 5.956 1.5 1.5 0 0 1-1.498 1.438m-.248 11.994a1.5 1.5 0 0 1-1.5-1.5v-.231q0-2.906.059-5.798c.018-.83.704-1.515 1.532-1.47a1.5 1.5 0 0 1 1.468 1.532q-.06 2.861-.06 5.736v.23a1.5 1.5 0 0 1-1.5 1.5m.265 11.98a1.5 1.5 0 0 1-1.498-1.434 292 292 0 0 1-.198-6.013 1.5 1.5 0 0 1 1.466-1.534c.835.01 1.515.638 1.534 1.466q.066 2.983.196 5.95a1.5 1.5 0 0 1-1.433 1.564zm.782 11.97a1.5 1.5 0 0 1-1.493-1.37 290 290 0 0 1-.46-6.013 1.503 1.503 0 0 1 1.4-1.595 1.507 1.507 0 0 1 1.596 1.4q.193 2.984.453 5.949a1.5 1.5 0 0 1-1.496 1.63m525.699 86.663a1.5 1.5 0 0 1-1.371-2.105 275 275 0 0 0 2.353-5.501 1.502 1.502 0 0 1 2.772 1.15 290 290 0 0 1-2.381 5.562 1.5 1.5 0 0 1-1.373.894m-500.99 5.51a1.5 1.5 0 0 1-1.36-.863 270 270 0 0 1-2.486-5.475 1.5 1.5 0 1 1 2.744-1.211q1.201 2.724 2.46 5.414a1.5 1.5 0 0 1-1.357 2.136m495.897 5.386a1.5 1.5 0 0 1-1.344-2.165 281 281 0 0 0 2.593-5.391 1.499 1.499 0 1 1 2.717 1.27 276 276 0 0 1-2.62 5.45 1.5 1.5 0 0 1-1.346.836m-490.595 5.338a1.5 1.5 0 0 1-1.331-.806 284 284 0 0 1-2.725-5.362 1.5 1.5 0 1 1 2.689-1.331 278 278 0 0 0 2.696 5.304 1.502 1.502 0 0 1-1.33 2.195m5.768 10.485a1.5 1.5 0 0 1-1.3-.748 281 281 0 0 1-2.957-5.241 1.501 1.501 0 0 1 2.629-1.446q1.435 2.61 2.925 5.183a1.5 1.5 0 0 1-1.297 2.252m6.223 10.229c-.496 0-.98-.245-1.266-.693a281 281 0 0 1-3.184-5.108 1.5 1.5 0 0 1 2.563-1.56 282 282 0 0 0 3.15 5.055 1.5 1.5 0 0 1-1.263 2.306m6.664 9.952c-.472 0-.937-.223-1.23-.64a269 269 0 0 1-3.404-4.967 1.5 1.5 0 0 1 .412-2.08 1.496 1.496 0 0 1 2.08.412 280 280 0 0 0 3.368 4.913 1.498 1.498 0 0 1-1.226 2.362m7.09 9.657c-.45 0-.894-.201-1.19-.586a267 267 0 0 1-3.618-4.818 1.499 1.499 0 1 1 2.418-1.775 274 274 0 0 0 3.579 4.765 1.5 1.5 0 0 1-1.19 2.414m7.507 9.343c-.427 0-.852-.181-1.15-.535a276 276 0 0 1-3.825-4.657 1.5 1.5 0 0 1 2.34-1.88 265 265 0 0 0 3.783 4.608 1.5 1.5 0 0 1-1.148 2.464m417.338 4.703a1.501 1.501 0 0 1-1.126-2.491 275 275 0 0 0 3.892-4.526 1.5 1.5 0 1 1 2.295 1.932 290 290 0 0 1-3.933 4.575 1.5 1.5 0 0 1-1.128.51m-409.431 4.309c-.406 0-.81-.164-1.106-.486a284 284 0 0 1-4.024-4.488 1.5 1.5 0 1 1 2.254-1.98 283 283 0 0 0 3.98 4.44 1.498 1.498 0 0 1-1.104 2.514m401.319 4.53a1.499 1.499 0 0 1-1.082-2.538 266 266 0 0 0 4.082-4.352 1.503 1.503 0 0 1 2.12-.091c.61.56.65 1.51.09 2.12a276 276 0 0 1-4.128 4.4 1.5 1.5 0 0 1-1.082.46M217.01 607.42c-.383 0-.768-.146-1.06-.44a281 281 0 0 1-4.217-4.31 1.498 1.498 0 1 1 2.166-2.074 280 280 0 0 0 4.173 4.264 1.5 1.5 0 0 1-1.062 2.56m384.539 4.343a1.5 1.5 0 0 1-1.036-2.584 271 271 0 0 0 4.265-4.17 1.5 1.5 0 1 1 2.12 2.123 277 277 0 0 1-4.312 4.215c-.29.278-.663.416-1.037.416m-375.874 3.956a1.5 1.5 0 0 1-1.014-.394 286 286 0 0 1-4.403-4.126 1.5 1.5 0 0 1 2.077-2.166 270 270 0 0 0 4.353 4.08 1.5 1.5 0 0 1-1.013 2.606m367.033 4.142a1.5 1.5 0 0 1-.99-2.628 275 275 0 0 0 4.44-3.98 1.5 1.5 0 0 1 2.12.094c.56.61.518 1.56-.094 2.119a272 272 0 0 1-4.49 4.023 1.5 1.5 0 0 1-.986.372m-358.016 3.776c-.341 0-.683-.115-.964-.351a276 276 0 0 1-4.576-3.932 1.5 1.5 0 1 1 1.979-2.254 290 290 0 0 0 4.527 3.889 1.499 1.499 0 0 1-.966 2.648m348.83 3.929a1.499 1.499 0 0 1-.938-2.67 274 274 0 0 0 4.608-3.782 1.5 1.5 0 1 1 1.928 2.298 276 276 0 0 1-4.66 3.824c-.276.222-.608.33-.937.33m-339.475 3.592c-.32 0-.641-.102-.914-.311a285 285 0 0 1-4.745-3.73 1.499 1.499 0 1 1 1.879-2.338 274 274 0 0 0 4.695 3.689 1.5 1.5 0 0 1-.915 2.69m329.97 3.706a1.499 1.499 0 0 1-.888-2.709 287 287 0 0 0 4.767-3.577 1.5 1.5 0 1 1 1.826 2.378 274 274 0 0 1-4.817 3.617 1.5 1.5 0 0 1-.887.29m-320.293 3.403a1.5 1.5 0 0 1-.861-.273 292 292 0 0 1-4.903-3.521 1.5 1.5 0 1 1 1.775-2.418 278 278 0 0 0 4.853 3.484 1.501 1.501 0 0 1-.864 2.728m310.484 3.473a1.498 1.498 0 0 1-.835-2.746 285 285 0 0 0 4.916-3.368 1.5 1.5 0 1 1 1.72 2.457 274 274 0 0 1-4.968 3.403 1.5 1.5 0 0 1-.833.254m-300.504 3.21c-.277 0-.556-.077-.807-.236a278 278 0 0 1-5.055-3.306 1.5 1.5 0 0 1 1.67-2.493 270 270 0 0 0 5 3.27 1.5 1.5 0 0 1-.808 2.765m290.409 3.229a1.5 1.5 0 0 1-.78-2.782 265 265 0 0 0 5.054-3.148 1.503 1.503 0 0 1 2.072.458c.445.699.24 1.625-.458 2.072a274 274 0 0 1-5.11 3.18 1.5 1.5 0 0 1-.778.22m-280.143 3.015a1.5 1.5 0 0 1-.751-.202 294 294 0 0 1-5.195-3.082 1.503 1.503 0 0 1-.503-2.062 1.504 1.504 0 0 1 2.062-.503 279 279 0 0 0 5.139 3.05 1.498 1.498 0 0 1-.752 2.799m269.78 2.977a1.5 1.5 0 0 1-.723-2.814 277 277 0 0 0 5.185-2.924 1.501 1.501 0 0 1 1.502 2.598 283 283 0 0 1-5.242 2.955 1.5 1.5 0 0 1-.721.185m-259.246 2.814a1.5 1.5 0 0 1-.693-.17 278 278 0 0 1-5.328-2.854 1.5 1.5 0 0 1 1.445-2.63q2.618 1.44 5.27 2.824a1.5 1.5 0 0 1-.694 2.83m248.637 2.718a1.5 1.5 0 0 1-.666-2.845q2.672-1.32 5.307-2.694a1.5 1.5 0 0 1 1.387 2.66 287 287 0 0 1-5.364 2.723 1.5 1.5 0 0 1-.664.156m-237.857 2.607a1.5 1.5 0 0 1-.634-.141 278 278 0 0 1-5.45-2.618 1.5 1.5 0 1 1 1.328-2.69q2.68 1.324 5.392 2.59a1.499 1.499 0 0 1-.636 2.859m227.022 2.454a1.5 1.5 0 0 1-.605-2.873q2.723-1.2 5.415-2.458a1.5 1.5 0 1 1 1.269 2.719 279 279 0 0 1-5.475 2.485 1.5 1.5 0 0 1-.604.127m-216.014 2.395c-.192 0-.386-.037-.574-.115a268 268 0 0 1-5.563-2.38 1.5 1.5 0 0 1 1.211-2.744c1.808.798 3.658 1.589 5.5 2.353a1.5 1.5 0 0 1-.575 2.886m204.973 2.187a1.5 1.5 0 0 1-.545-2.897 273 273 0 0 0 5.515-2.22 1.499 1.499 0 1 1 1.15 2.772 279 279 0 0 1-5.575 2.243c-.178.07-.363.102-.545.102M317.51 671.52q-.257.001-.512-.09a271 271 0 0 1-5.664-2.132 1.5 1.5 0 1 1 1.088-2.795c1.83.712 3.715 1.42 5.6 2.107a1.5 1.5 0 0 1 .899 1.923 1.5 1.5 0 0 1-1.411.987m182.484 1.933a1.5 1.5 0 0 1-.484-2.92 282 282 0 0 0 5.628-1.982 1.5 1.5 0 0 1 1.028 2.819 280 280 0 0 1-5.69 2.002q-.241.081-.482.08m-171.08 1.93c-.15 0-.3-.02-.45-.068a266 266 0 0 1-5.756-1.881 1.5 1.5 0 1 1 .965-2.84c1.86.632 3.776 1.257 5.69 1.86a1.5 1.5 0 0 1-.45 2.93m159.637 1.677a1.5 1.5 0 0 1-.418-2.94 269 269 0 0 0 5.709-1.732 1.5 1.5 0 1 1 .902 2.861 279 279 0 0 1-5.772 1.75q-.21.06-.421.06m-148.115 1.67q-.193 0-.387-.051a275 275 0 0 1-5.811-1.618 1.5 1.5 0 0 1-1.022-1.858 1.497 1.497 0 0 1 1.858-1.023 268 268 0 0 0 5.748 1.6 1.5 1.5 0 0 1-.386 2.95m136.525 1.432a1.5 1.5 0 0 1-.355-2.958c1.913-.466 3.858-.963 5.78-1.48a1.5 1.5 0 0 1 .776 2.899c-1.944.52-3.91 1.024-5.845 1.496a1.5 1.5 0 0 1-.356.043m-124.87 1.405q-.158 0-.322-.035a272 272 0 0 1-5.878-1.363 1.5 1.5 0 0 1-1.101-1.812 1.495 1.495 0 0 1 1.812-1.102q2.893.704 5.812 1.347a1.5 1.5 0 0 1-.322 2.965m113.156 1.183a1.501 1.501 0 0 1-.29-2.971q2.93-.58 5.84-1.224a1.506 1.506 0 0 1 1.788 1.142 1.5 1.5 0 0 1-1.142 1.788q-2.94.648-5.902 1.237-.15.029-.294.028m-101.383 1.139a1.5 1.5 0 0 1-.26-.022c-2.001-.35-3.996-.721-5.931-1.104a1.501 1.501 0 0 1 .582-2.943c1.914.379 3.886.746 5.865 1.092a1.5 1.5 0 0 1-.256 2.977m89.567.936a1.5 1.5 0 0 1-.225-2.983q2.953-.454 5.887-.968a1.506 1.506 0 0 1 1.737 1.219 1.5 1.5 0 0 1-1.22 1.736q-2.964.52-5.95.978a1.5 1.5 0 0 1-.23.018m-77.708.869a1.4 1.4 0 0 1-.195-.013c-1.99-.258-4-.542-5.973-.843a1.5 1.5 0 0 1-1.256-1.708 1.505 1.505 0 0 1 1.708-1.257q2.943.449 5.908.833a1.5 1.5 0 0 1-.192 2.988m65.813.685a1.5 1.5 0 0 1-.16-2.991q2.971-.323 5.924-.71a1.5 1.5 0 1 1 .388 2.976q-2.984.39-5.988.716a2 2 0 0 1-.164.009m-53.885.6q-.065 0-.131-.005a276 276 0 0 1-6.003-.582 1.5 1.5 0 1 1 .323-2.982q2.96.32 5.938.576a1.5 1.5 0 0 1-.127 2.994m41.934.435a1.5 1.5 0 0 1-.097-2.997q2.985-.195 5.95-.45a1.51 1.51 0 0 1 1.624 1.365 1.5 1.5 0 0 1-1.365 1.623q-2.999.26-6.014.457zm-29.962.334-.065-.001q-3.018-.128-6.023-.321a1.5 1.5 0 0 1-1.401-1.593 1.495 1.495 0 0 1 1.593-1.401q2.97.19 5.958.317a1.5 1.5 0 0 1-.062 2.999m17.989.185a1.5 1.5 0 0 1-.031-3q2.983-.063 5.95-.193a1.5 1.5 0 1 1 .129 2.998q-3 .128-6.015.195zm-5.997.067h-.115q-2.965 0-5.914-.061a1.5 1.5 0 0 1-1.47-1.531c.018-.83.718-1.462 1.532-1.47q2.918.063 5.852.062h.115a1.5 1.5 0 0 1 0 3M403.846 223.152a1.5 1.5 0 0 1-.059-3c1.986-.078 4.017-.127 6.04-.145h.012a1.5 1.5 0 0 1 .013 3c-1.99.018-3.99.066-5.945.144zm17.986.125-.08-.002a194 194 0 0 0-5.948-.226 1.5 1.5 0 0 1 .032-3h.034c2.002.045 4.035.123 6.041.23a1.5 1.5 0 0 1-.079 2.998M391.88 224a1.5 1.5 0 0 1-.15-2.993c1.99-.204 4.015-.38 6.022-.522a1.5 1.5 0 1 1 .213 2.992c-1.976.14-3.972.315-5.93.515a2 2 0 0 1-.155.008m41.905.293q-.088 0-.175-.01c-1.968-.231-3.96-.432-5.922-.6a1.5 1.5 0 0 1-1.367-1.62 1.51 1.51 0 0 1 1.621-1.368c1.993.17 4.016.374 6.015.607a1.5 1.5 0 0 1 1.317 1.664 1.5 1.5 0 0 1-1.489 1.327m-53.793 1.306a1.5 1.5 0 0 1-.245-2.98c1.981-.33 3.993-.632 5.98-.9.811-.125 1.574.467 1.684 1.288a1.5 1.5 0 0 1-1.287 1.686 190 190 0 0 0-5.882.886 2 2 0 0 1-.25.02m65.656.46q-.133 0-.27-.024c-1.956-.354-3.93-.68-5.87-.97a1.5 1.5 0 1 1 .442-2.966c1.97.293 3.976.624 5.963.985a1.497 1.497 0 0 1 1.208 1.743 1.5 1.5 0 0 1-1.473 1.232m-77.416 1.889a1.5 1.5 0 0 1-.339-2.961c1.97-.458 3.957-.888 5.91-1.276a1.5 1.5 0 1 1 .586 2.941c-1.922.383-3.878.806-5.816 1.257a1.6 1.6 0 0 1-.34.039m89.144.627q-.179 0-.362-.044a182 182 0 0 0-5.798-1.34 1.5 1.5 0 0 1 .63-2.934c1.965.422 3.947.88 5.891 1.362a1.5 1.5 0 0 1-.36 2.956m-100.735 2.463a1.501 1.501 0 0 1-.432-2.937 189 189 0 0 1 5.818-1.65 1.5 1.5 0 1 1 .771 2.898c-1.904.509-3.83 1.055-5.723 1.625a1.5 1.5 0 0 1-.434.064m112.278.792q-.225 0-.452-.071a195 195 0 0 0-5.7-1.705 1.5 1.5 0 0 1 .814-2.886c1.93.544 3.878 1.127 5.79 1.73a1.502 1.502 0 0 1-.452 2.932m-123.647 3.03a1.5 1.5 0 0 1-.524-2.906 188 188 0 0 1 5.701-2.017 1.5 1.5 0 0 1 .955 2.844 188 188 0 0 0-5.609 1.985 1.5 1.5 0 0 1-.523.094m134.997.968c-.18 0-.365-.032-.544-.102a181 181 0 0 0-5.596-2.072 1.5 1.5 0 0 1 .996-2.83c1.905.67 3.818 1.379 5.688 2.105a1.5 1.5 0 0 1 .854 1.943 1.5 1.5 0 0 1-1.398.956m-146.084 3.56a1.5 1.5 0 0 1-.61-2.87 193 193 0 0 1 5.541-2.366 1.5 1.5 0 0 1 1.134 2.777 196 196 0 0 0-5.456 2.33c-.198.088-.405.13-.609.13m157.148 1.148c-.21 0-.425-.044-.63-.14a192 192 0 0 0-5.45-2.422 1.5 1.5 0 0 1 1.175-2.76c1.843.785 3.706 1.613 5.537 2.46a1.504 1.504 0 0 1 .731 1.993 1.5 1.5 0 0 1-1.363.869m-167.915 4.07a1.5 1.5 0 0 1-.697-2.828 185 185 0 0 1 5.386-2.715 1.499 1.499 0 1 1 1.306 2.699 192 192 0 0 0-5.299 2.672 1.5 1.5 0 0 1-.696.172m-10.422 5.89a1.5 1.5 0 0 1-.779-2.783 190 190 0 0 1 5.206-3.05 1.498 1.498 0 1 1 1.475 2.61 191 191 0 0 0-5.124 3.005 1.5 1.5 0 0 1-.778.218m-10.037 6.538a1.499 1.499 0 0 1-.859-2.731 192 192 0 0 1 5.007-3.374 1.499 1.499 0 1 1 1.636 2.514 186 186 0 0 0-4.926 3.32c-.262.183-.56.27-.858.27m-9.608 7.159a1.5 1.5 0 0 1-.935-2.674 191 191 0 0 1 4.787-3.684 1.499 1.499 0 1 1 1.791 2.406 190 190 0 0 0-4.71 3.626 1.5 1.5 0 0 1-.933.326m238.566 1.833c-.335 0-.672-.111-.95-.341a189 189 0 0 0-4.662-3.702 1.5 1.5 0 1 1 1.828-2.38 187 187 0 0 1 4.736 3.764c.641.525.735 1.47.208 2.11a1.5 1.5 0 0 1-1.16.549m-247.713 5.919a1.498 1.498 0 0 1-1.005-2.613 195 195 0 0 1 4.546-3.98 1.5 1.5 0 0 1 1.94 2.289c-1.493 1.267-3 2.584-4.477 3.917a1.5 1.5 0 0 1-1.004.387m256.748 1.979a1.5 1.5 0 0 1-1.022-.402 190 190 0 0 0-4.419-3.988 1.5 1.5 0 1 1 1.975-2.258 189 189 0 0 1 4.49 4.05 1.5 1.5 0 0 1-1.024 2.598m-265.392 6.333a1.5 1.5 0 0 1-1.073-2.547c1.4-1.436 2.844-2.87 4.29-4.258a1.5 1.5 0 0 1 2.121.04 1.5 1.5 0 0 1-.04 2.122 186 186 0 0 0-4.225 4.19 1.5 1.5 0 0 1-1.073.453m273.91 2.112c-.398 0-.795-.157-1.09-.47a190 190 0 0 0-4.158-4.253 1.5 1.5 0 1 1 2.111-2.131 187 187 0 0 1 4.225 4.323 1.499 1.499 0 0 1-1.089 2.53m-282.02 6.73a1.502 1.502 0 0 1-1.136-2.479 199 199 0 0 1 4.016-4.52 1.501 1.501 0 0 1 2.211 2.029 191 191 0 0 0-3.954 4.45c-.297.343-.716.52-1.137.52m289.99 2.23c-.43 0-.858-.183-1.155-.538a185 185 0 0 0-3.88-4.506 1.5 1.5 0 1 1 2.241-1.994 187 187 0 0 1 3.944 4.578 1.502 1.502 0 0 1-1.15 2.46m7.385 9.438c-.46 0-.916-.212-1.209-.612a193 193 0 0 0-3.592-4.74 1.502 1.502 0 0 1 2.363-1.85 197 197 0 0 1 3.646 4.815 1.498 1.498 0 0 1-1.208 2.387m6.777 9.878c-.494 0-.978-.244-1.264-.691a187 187 0 0 0-3.284-4.951 1.501 1.501 0 0 1 2.475-1.698 196 196 0 0 1 3.335 5.032 1.497 1.497 0 0 1-1.262 2.308M231.76 351.25q-.242 0-.487-.081a1.503 1.503 0 0 1-.932-1.907 190 190 0 0 1 2.062-5.704 1.5 1.5 0 1 1 2.804 1.067c-.7 1.84-1.38 3.729-2.028 5.612a1.5 1.5 0 0 1-1.419 1.013m-3.538 11.48q-.197.001-.396-.052a1.5 1.5 0 0 1-1.052-1.842 194 194 0 0 1 1.687-5.805 1.5 1.5 0 0 1 1.875-.992 1.5 1.5 0 0 1 .992 1.875 185 185 0 0 0-1.66 5.713 1.5 1.5 0 0 1-1.446 1.104m-6.509 59.386a1.5 1.5 0 0 1-1.497-1.43c-.095-1.997-.159-4.03-.192-6.043a1.5 1.5 0 0 1 1.475-1.524h.026a1.5 1.5 0 0 1 1.5 1.475c.031 1.982.094 3.985.187 5.952a1.5 1.5 0 0 1-1.427 1.568zm.942 11.958a1.5 1.5 0 0 1-1.49-1.335c-.22-2-.412-4.025-.568-6.02a1.5 1.5 0 0 1 1.378-1.612 1.51 1.51 0 0 1 1.612 1.378c.155 1.963.343 3.957.561 5.924a1.5 1.5 0 0 1-1.493 1.665m1.69 11.875a1.5 1.5 0 0 1-1.476-1.241 188 188 0 0 1-.946-5.972 1.5 1.5 0 0 1 1.275-1.696 1.505 1.505 0 0 1 1.696 1.274c.274 1.94.588 3.917.931 5.876a1.5 1.5 0 0 1-1.48 1.759m2.44 11.743a1.5 1.5 0 0 1-1.457-1.148 192 192 0 0 1-1.323-5.9 1.5 1.5 0 0 1 2.938-.61c.402 1.94.841 3.893 1.301 5.806a1.498 1.498 0 0 1-1.459 1.852m3.182 11.565a1.5 1.5 0 0 1-1.432-1.056 190 190 0 0 1-1.696-5.803 1.5 1.5 0 1 1 2.893-.795 188 188 0 0 0 1.668 5.71 1.5 1.5 0 0 1-1.433 1.944m338.324 51.088a1.498 1.498 0 0 1-1.235-2.348 189 189 0 0 0 3.292-4.965 1.497 1.497 0 0 1 2.071-.454c.698.446.902 1.374.455 2.07a192 192 0 0 1-3.345 5.046c-.29.424-.76.65-1.238.65m-311.923 2.379c-.47 0-.933-.22-1.225-.633a192 192 0 0 1-3.413-4.98 1.5 1.5 0 0 1 2.502-1.656 191 191 0 0 0 3.358 4.902 1.499 1.499 0 0 1-1.222 2.367m304.824 7.302a1.5 1.5 0 0 1-1.18-2.425 190 190 0 0 0 3.596-4.745 1.5 1.5 0 0 1 2.42 1.773 191 191 0 0 1-3.655 4.822 1.5 1.5 0 0 1-1.18.575m-297.59 2.254c-.439 0-.872-.191-1.169-.558a191 191 0 0 1-3.72-4.758 1.5 1.5 0 1 1 2.393-1.81 187 187 0 0 0 3.661 4.683 1.5 1.5 0 0 1-1.166 2.443m289.9 6.959a1.499 1.499 0 0 1-1.119-2.497 192 192 0 0 0 3.885-4.51 1.5 1.5 0 0 1 2.112-.19c.637.53.722 1.477.191 2.113a187 187 0 0 1-3.949 4.58 1.5 1.5 0 0 1-1.12.504m-282.082 2.128c-.405 0-.809-.163-1.105-.487-1.35-1.471-2.7-2.991-4.014-4.517a1.5 1.5 0 1 1 2.274-1.957 190 190 0 0 0 3.951 4.447 1.5 1.5 0 0 1-1.106 2.514m273.83 6.58a1.5 1.5 0 0 1-1.055-2.566 194 194 0 0 0 4.16-4.253 1.5 1.5 0 0 1 2.178 2.062 191 191 0 0 1-4.227 4.322c-.292.29-.674.435-1.056.435m-265.45 2c-.375 0-.75-.138-1.04-.418a189 189 0 0 1-4.29-4.258 1.5 1.5 0 1 1 2.146-2.096 183 183 0 0 0 4.223 4.192 1.5 1.5 0 0 1-1.04 2.58m256.674 6.17a1.498 1.498 0 0 1-.988-2.629 196 196 0 0 0 4.418-3.984 1.5 1.5 0 0 1 2.043 2.196 195 195 0 0 1-4.487 4.047 1.5 1.5 0 0 1-.986.37M288.7 557.993a1.5 1.5 0 0 1-.968-.356 191 191 0 0 1-4.55-3.982 1.5 1.5 0 0 1 2.011-2.227 189 189 0 0 0 4.478 3.92 1.502 1.502 0 0 1-.97 2.645m238.504 5.728a1.499 1.499 0 0 1-.916-2.688 191 191 0 0 0 4.657-3.7 1.501 1.501 0 0 1 1.902 2.32 195 195 0 0 1-4.729 3.757 1.5 1.5 0 0 1-.914.31m-229.109 1.742c-.312 0-.626-.097-.895-.297a191 191 0 0 1-4.793-3.691 1.5 1.5 0 1 1 1.867-2.347 191 191 0 0 0 4.718 3.63 1.5 1.5 0 0 1-.897 2.705m219.385 5.259a1.498 1.498 0 0 1-.839-2.744c1.63-1.097 3.27-2.24 4.878-3.397a1.5 1.5 0 1 1 1.752 2.435 195 195 0 0 1-4.954 3.45 1.5 1.5 0 0 1-.837.256m-209.535 1.607a1.5 1.5 0 0 1-.818-.243 190 190 0 0 1-5.018-3.382 1.5 1.5 0 0 1-.373-2.088 1.495 1.495 0 0 1 2.088-.373 188 188 0 0 0 4.94 3.329 1.499 1.499 0 0 1-.819 2.757m199.395 4.765a1.5 1.5 0 0 1-.759-2.795 187 187 0 0 0 5.078-3.08 1.5 1.5 0 0 1 1.598 2.539 189 189 0 0 1-5.16 3.13 1.5 1.5 0 0 1-.757.206m-189.127 1.469c-.25 0-.504-.062-.736-.193a194 194 0 0 1-5.224-3.06 1.5 1.5 0 0 1 1.557-2.564 189 189 0 0 0 5.141 3.01 1.5 1.5 0 0 1-.738 2.807m178.612 4.249a1.5 1.5 0 0 1-.676-2.84 189 189 0 0 0 5.26-2.753 1.5 1.5 0 0 1 1.433 2.635c-1.744.949-3.542 1.89-5.344 2.798-.216.108-.446.16-.673.16m-167.964 1.325a1.5 1.5 0 0 1-.653-.15 191 191 0 0 1-5.41-2.723 1.5 1.5 0 0 1 1.391-2.658 189 189 0 0 0 5.326 2.68 1.5 1.5 0 0 1-.654 2.85m157.114 3.713a1.501 1.501 0 0 1-.589-2.88 184 184 0 0 0 5.42-2.413 1.5 1.5 0 0 1 1.263 2.72 189 189 0 0 1-5.507 2.453 1.5 1.5 0 0 1-.587.12m-146.13 1.177q-.285.002-.566-.111a191 191 0 0 1-5.576-2.376 1.5 1.5 0 0 1-.76-1.98 1.495 1.495 0 0 1 1.98-.761 189 189 0 0 0 5.488 2.339 1.5 1.5 0 0 1-.567 2.889m134.97 3.17a1.5 1.5 0 0 1-.5-2.914 192 192 0 0 0 5.578-2.071 1.496 1.496 0 0 1 1.942.853 1.5 1.5 0 0 1-.853 1.94 187 187 0 0 1-5.667 2.106 1.5 1.5 0 0 1-.5.086m-123.689 1.012q-.237 0-.476-.078a191 191 0 0 1-5.719-2.017 1.5 1.5 0 1 1 1.043-2.813c1.851.687 3.744 1.355 5.63 1.985a1.5 1.5 0 0 1-.478 2.923m112.256 2.622a1.5 1.5 0 0 1-.408-2.944 190 190 0 0 0 5.7-1.712 1.5 1.5 0 1 1 .907 2.86c-1.905.605-3.853 1.19-5.789 1.739a1.5 1.5 0 0 1-.41.057m-100.765.823q-.19 0-.385-.05a189 189 0 0 1-5.819-1.644 1.499 1.499 0 1 1 .862-2.873c1.891.567 3.818 1.11 5.726 1.617a1.501 1.501 0 0 1-.384 2.95m89.125 2.077a1.5 1.5 0 0 1-.314-2.967c1.915-.412 3.864-.865 5.795-1.345a1.498 1.498 0 1 1 .725 2.91 191 191 0 0 1-5.889 1.369 1.6 1.6 0 0 1-.317.033m-77.438.63q-.146 0-.294-.027a199 199 0 0 1-5.909-1.271 1.499 1.499 0 1 1 .676-2.923c1.934.448 3.891.868 5.817 1.25a1.501 1.501 0 0 1-.29 2.972m65.638 1.525a1.5 1.5 0 0 1-.22-2.983c1.95-.292 3.924-.62 5.868-.976a1.5 1.5 0 1 1 .539 2.952c-1.975.36-3.98.694-5.963.99q-.113.017-.224.017m-53.804.438q-.1 0-.2-.013a191 191 0 0 1-5.979-.893 1.5 1.5 0 1 1 .491-2.96c1.96.325 3.94.62 5.884.879a1.5 1.5 0 0 1-.196 2.987m41.891.969a1.5 1.5 0 0 1-.127-2.995 192 192 0 0 0 5.921-.604c.821-.111 1.567.49 1.665 1.313a1.5 1.5 0 0 1-1.314 1.666c-1.985.234-4.009.44-6.015.614a1 1 0 0 1-.13.006m-29.958.24a1 1 0 0 1-.107-.003 192 192 0 0 1-6.023-.516 1.5 1.5 0 0 1-1.34-1.643c.083-.824.822-1.436 1.642-1.341 1.97.199 3.964.37 5.93.508a1.5 1.5 0 0 1-.102 2.996m17.982.417a1.501 1.501 0 0 1-.035-3 190 190 0 0 0 5.95-.234c.814-.018 1.533.589 1.58 1.416a1.5 1.5 0 0 1-1.417 1.58 202 202 0 0 1-6.04.238zm-5.999.046h-.01a191 191 0 0 1-6.045-.14 1.5 1.5 0 0 1-1.44-1.558c.033-.827.76-1.477 1.558-1.44 1.956.077 3.957.123 5.948.138a1.5 1.5 0 0 1-.01 3" opacity=".396"/><path fill="#acc0dc" fill-rule="nonzero" d="M446.01 510.852v35.846c0 6.423-5.181 11.63-11.572 11.63s-11.571-5.207-11.571-11.63v-35.846zm-324-131.028v55.994c0 3.616 1.725 6.83 4.4 8.904-3.102 3.658-4.97 8.345-4.97 13.448l.018.23c1.582 10.116 5.066 19.78 10.156 28.542-6.105.32-10.961 5.383-10.961 11.599v43.48c0 6.424-5.18 11.63-11.571 11.63-6.392 0-11.572-5.206-11.572-11.63V379.825zm603.5 124.827v23.007c0 6.423-5.181 11.629-11.572 11.629s-11.571-5.206-11.571-11.63v-23.006zM341.866 285.495c6.391 0 11.572 5.206 11.572 11.629v87.027c0 4 2.011 7.528 5.071 9.62v35.58c0 6.352 5.15 11.5 11.5 11.5h29.715v10H370.01c-6.35 0-11.5 5.149-11.5 11.5v13.902a11.63 11.63 0 0 0-5.07 9.62v38.963c0 6.423-5.182 11.63-11.573 11.63-6.39 0-11.57-5.207-11.57-11.63V413.15c0-6.423-5.182-11.63-11.572-11.63s-11.57 5.207-11.57 11.63v87.473c0 6.423-5.182 11.63-11.573 11.63-6.39 0-11.572-5.207-11.572-11.63v-37.068a82.3 82.3 0 0 0 2-17.978c0-6.176-.705-12.188-2-17.98v-108.79c0-6.422 5.181-11.628 11.572-11.628s11.572 5.206 11.572 11.629v9.57c0 6.423 5.18 11.63 11.571 11.63 6.39 0 11.571-5.207 11.571-11.63v-31.255c0-6.423 5.181-11.63 11.571-11.63m232.787-33.844c6.39 0 11.571 5.22 11.571 11.66v47.34h-3.215c-6.35 0-11.5 5.149-11.5 11.5v171q.001.579.058 1.14a11.64 11.64 0 0 1-8.486-11.227v-14.79c0-6.438-5.18-11.66-11.572-11.66-6.39 0-11.57 5.222-11.57 11.66v54.718c0 6.439-5.182 11.659-11.573 11.659-6.39 0-11.57-5.22-11.57-11.66v-109.84c0-6.44-5.182-11.66-11.572-11.66-2.506 0-4.82.81-6.715 2.176v-11.315c0-6.351-5.148-11.5-11.5-11.5h-16.5v-10h16.5c6.352 0 11.5-5.15 11.5-11.5v-22.793a11.45 11.45 0 0 0 6.715 2.176c6.39 0 11.571-5.221 11.571-11.66v-31.336c0-6.441 5.181-11.66 11.571-11.66 6.391 0 11.572 5.219 11.572 11.66v76.753c0 6.439 5.18 11.659 11.571 11.659s11.572-5.22 11.572-11.66v-109.18c0-6.44 5.181-11.66 11.572-11.66M259.51 506.055v6.699c0 6.423-5.18 11.63-11.571 11.63-3.636 0-6.876-1.688-8.997-4.324a83.1 83.1 0 0 0 20.568-14.005m466-31.404v16h-23.143v-16zm-580.5-71.22c.426.808.887 1.604 1.421 2.366 3.257 4.64 8.111 7.734 13.582 8.694 11.436 2.706 20.348-2.148 20.722-2.357l.102-.063a40.25 40.25 0 0 1 22.388-6.759c22.263 0 40.374 18.063 40.374 40.265 0 8.527-2.679 16.437-7.23 22.955v-37.245c0-6.423-5.182-11.629-11.573-11.629-6.39 0-11.57 5.206-11.57 11.63v48.362c0 1.883-.456 3.655-1.246 5.228a40.4 40.4 0 0 1-8.755.965c-4.274 0-8.417-.665-12.32-1.902a11.6 11.6 0 0 1-.823-4.29v-30.977c0-6.423-5.18-11.63-11.572-11.63-6.39 0-11.57 5.207-11.57 11.63v14.577a41 41 0 0 1-2.218-5.535l-.022-.069c-2.627-12.788-9.444-19.852-19.766-20.562.048-.417.076-.838.076-1.268Zm568.93-79.41c6.39 0 11.57 5.207 11.57 11.63v125h-14V324.283a11.6 11.6 0 0 1 2.43-.261m-267.93 116.831v10h-23.143v-10zm-186.5-112.947V385.1a83 83 0 0 0-24.854-15.897 11.6 11.6 0 0 0 1.711-6.063v-33.68h15.198c2.81 0 5.49-.56 7.945-1.555m186.501 42.947v10h-69.428v-10zM213.225 329.46v33.68c0 .166.017.327.024.491a83 83 0 0 0-10.024-.627c-4.17 0-8.42.333-12.665.992l6.105-34.536zM109.08 311.8c2.63 0 5.046.892 6.99 2.377h-5.857c-4.686 0-8.5 3.814-8.5 8.5v3.198c0 4.686 3.814 8.5 8.5 8.5h4.535l.293-.03a10 10 0 0 1 1.967-.192h5.875c2.104 2.895 5.5 4.783 9.34 4.783 3.841 0 7.234-1.888 9.34-4.783h19.445c2.221 0 4.268.736 5.93 1.966v15.392c0 1.714.377 3.335 1.04 4.799a9.96 9.96 0 0 1-6.97 2.843h-63.5v-35.723c0-6.423 5.181-11.63 11.572-11.63m46.285-58.148c6.391 0 11.572 5.207 11.572 11.63v25.636c-4.585 3.136-7.94 8.007-8.949 13.715l-1.687 9.544h-12.507v-48.895c0-6.423 5.181-11.63 11.571-11.63m232.787-.5c6.39 0 11.571 5.207 11.571 11.63v46.07h-23.143v-46.07c0-6.423 5.181-11.63 11.572-11.63m279.5 47.708c5.767 0 10.534 4.245 11.413 9.792H656.24c.878-5.547 5.645-9.792 11.413-9.792M247.938 265.28c6.391 0 11.571 5.207 11.571 11.63v11.796a21.1 21.1 0 0 0-7.945-1.555h-15.197V276.91c0-6.423 5.18-11.63 11.571-11.63" opacity=".196"/><path fill="#a3b1bf" d="m772.313 337.243 26.216-35.645q1.422-1.943 3.469-2.085 2.043-.143 3.555 1.17 1.509 1.312 1.576 3.29.067 1.982-1.506 3.792-.722.831-2.457 2.37-1.737 1.539-5.29 4.941-3.555 3.404-9.364 9.02t-14.689 14.46zm-2.778 4.872q1.66 1.444 1.808 3.56.148 2.118-1.295 3.776-1.444 1.661-3.527 1.771t-3.743-1.333q-1.661-1.443-1.841-3.522-.182-2.078 1.262-3.738t3.559-1.809q2.116-.147 3.777 1.295m-93.139-89.18-1.66-1.443 9.204-13.33q2.607.808 4.042 2.056 6.866 5.968 11.513 6.495 4.642.527 8.186-3.549 1.639-1.887 2.564-4.398.922-2.51.985-5.17a14.6 14.6 0 0 0-.784-5.122 9.54 9.54 0 0 0-2.807-4.163q-1.661-1.443-3.936-2.559-2.278-1.118-3.483-2.167-3.17-2.755-.874-5.397 2.623-3.017 7.275.625l1.245 1.083a8 8 0 0 1 1.189 1.3q3.334 4.09 4.294 8.701t.443 8.865-2.044 7.763q-1.529 3.51-3.102 5.321a17.5 17.5 0 0 1-3.742 3.238 15.8 15.8 0 0 1-4.363 1.971 13.3 13.3 0 0 1-4.505.457q-2.245-.161-4.092-1.238-.811-.44-2.338-1.503a27 27 0 0 0-3.181-1.904q-1.653-.84-3.263-1.047-1.61-.208-2.8 1.011zm-11.287 11.918q-1.662-1.443-1.842-3.52-.182-2.08 1.263-3.739 1.443-1.66 3.559-1.809 2.116-.148 3.777 1.295 1.66 1.443 1.77 3.527t-1.333 3.743q-1.445 1.661-3.489 1.804-2.047.143-3.705-1.3"/><path fill="#a0c8ff" fill-rule="nonzero" d="M353.827 480.358c-17.728 4.84-33.743 7.258-47.988 7.258-11.55 0-21.94-1.59-31.137-4.763l3.913-9.245c18.516 6.188 42.805 5.23 72.577-2.896a4.996 4.996 0 0 1 6.14 3.505 5 5 0 0 1-3.505 6.14" opacity=".151"/><path fill="#a3b1bf" d="M353.827 480.358c-17.728 4.84-33.743 7.258-47.988 7.258-11.012 0-20.967-1.445-29.843-4.33l4.169-9.181c18.313 5.632 42.078 4.51 71.027-3.393a4.996 4.996 0 0 1 6.14 3.505 5 5 0 0 1-3.505 6.14m6.4-6.93a8 8 0 0 0-9.825-5.61c-28.83 7.872-52.306 8.919-70.156 3.168l-6.09 14.858c9.399 3.18 19.962 4.772 31.665 4.772 14.527 0 30.81-2.452 48.796-7.362a8 8 0 0 0 5.61-9.826"/><path fill="#a3b1bf" d="M305.854 484.117c-10.545 0-20.067-1.364-28.544-4.09l.913-2.86c19.096 6.146 43.82 5.131 73.891-3.08a1.5 1.5 0 1 1 .791 2.894c-17.432 4.76-33.133 7.136-47.05 7.136"/><path fill="#a0c8ff" fill-rule="nonzero" d="M360.87 412.868c-22.66-3.234-38.936-14.653-43.883-30.985-4.231-13.97.712-28.886 12.9-38.924 9.893-8.147 20.217-12.577 30.79-13.226-.305 1.326-.14 8.698.107 10.007-8.304.613-16.392 4.228-24.54 10.938-9.014 7.423-12.726 18.27-9.686 28.306 3.68 12.15 16.31 20.835 34.2 23.751.549.09.507 9.644.112 10.133" opacity=".151"/><path fill="#a3b1bf" d="M359.78 326.787c-10.954.832-21.613 5.468-31.8 13.855-13.14 10.823-18.453 26.958-13.864 42.111 5.224 17.245 22.013 29.345 45.352 32.94 1.555.24 2.434-15.787.565-16.124-16.085-2.9-27.346-10.7-30.604-21.454-2.682-8.855.66-18.48 8.722-25.12 7.299-6.012 14.5-9.372 21.83-10.162 1.13-.122.997-16.137-.2-16.046m.008 13.047c-7.97.82-15.705 4.39-23.545 10.844-9.014 7.424-12.726 18.271-9.686 28.306 3.624 11.964 15.929 20.571 33.39 23.616 1.807.314 1.349 10.342-.218 10.097-22.064-3.449-37.88-14.757-42.742-30.814-4.231-13.972.71-28.887 12.899-38.925 9.753-8.03 19.956-12.46 30.374-13.197 0 0 .719 9.95-.472 10.073"/><path fill="#a3b1bf" d="M360.37 333.269h-.001c-9.655.725-19.125 4.873-28.256 12.392-11.078 9.123-15.59 22.614-11.775 35.208 4.386 14.48 18.74 24.786 38.897 28.202q.135.023.26.023c1.596 0 1.765-2.718.018-3.018-18.886-3.255-32.274-12.771-36.304-26.077-3.457-11.413.685-23.683 10.81-32.022 8.294-6.83 16.846-10.718 25.522-11.618.857-.033 1.136-3.09.83-3.09M700.01 310.65c6.351 0 11.5 5.15 11.5 11.5v138.5h21a7 7 0 0 1 0 14h-34a8 8 0 0 0 0 16h48a7 7 0 0 1 0 14h-163.5c-6.352 0-11.5-5.147-11.5-11.5v-11.602q1.498-.13 3-.311v11.914c0 4.687 3.812 8.5 8.5 8.5h163.5c2.205 0 4-1.794 4-4s-1.795-4-4-4h-48c-6.066 0-11-4.935-11-11s4.934-11 11-11h34c2.205 0 4-1.794 4-4s-1.795-4-4-4h-24v-141.5c0-4.687-3.814-8.5-8.5-8.5h-117c-4.688 0-8.5 3.813-8.5 8.5v148.991a83 83 0 0 1-3 .352V322.15c0-6.351 5.148-11.5 11.5-11.5Z"/><path fill="#a0c8ff" fill-rule="nonzero" d="m669.908 361.753-12.778-12.609 2.032-2.005 12.778 12.61zm-29.398 28.898h3v-18h-3zm-28.272-28.898-2.031-2.005 12.777-12.609 2.033 2.005zm87.778-48.103H582.938a8.43 8.43 0 0 0-8.428 8.43v90.57c0 5.524 4.477 10 10 10h114c5.523 0 10-4.476 10-10v-90.505a8.494 8.494 0 0 0-8.494-8.495" opacity=".151"/><path fill="#a3b1bf" d="M645.51 366.65h-7a4 4 0 0 0-4 4v22a4 4 0 0 0 4 4h7c2.21 0 4-1.79 4-4v-22a4 4 0 0 0-4-4m0 3c.551 0 1 .45 1 1v22a1 1 0 0 1-1 1h-7c-.552 0-1-.447-1-1v-22c0-.55.448-1 1-1z"/><path fill="#c4cedf" d="M640.509 390.652h3v-18h-3zm5-21.001h-7c-.55 0-1 .449-1 1v22c0 .551.45 1 1 1h7c.552 0 1-.449 1-1v-22c0-.551-.448-1-1-1"/><path fill="#a3b1bf" d="M622.985 340.33a4 4 0 0 0-2.811 1.151l-15.625 15.42-.038.038a4 4 0 0 0 .038 5.657l4.879 4.814a4 4 0 0 0 2.81 1.152 3.99 3.99 0 0 0 2.81-1.153l15.625-15.42.038-.037a4 4 0 0 0-.04-5.657l-4.877-4.814a4 4 0 0 0-2.81-1.152m0 3c.154 0 .449.037.703.288l4.879 4.814c.257.252.297.55.298.705 0 .154-.035.452-.298.718l-15.626 15.42a1 1 0 0 1-.702.288 1 1 0 0 1-.702-.288l-4.88-4.813a.997.997 0 0 1 0-1.424l15.626-15.42a1 1 0 0 1 .703-.288"/><path fill="#c4cedf" d="m612.238 361.753-2.032-2.005 12.778-12.609 2.032 2.005zm16.328-13.322-4.88-4.814a1 1 0 0 0-.701-.288 1 1 0 0 0-.703.288l-15.625 15.42a.997.997 0 0 0 0 1.424l4.879 4.813a.996.996 0 0 0 1.404 0l15.626-15.419c.263-.267.299-.565.298-.719a1 1 0 0 0-.298-.705"/><path fill="#a3b1bf" d="M659.162 340.33a4 4 0 0 0-2.81 1.151l-4.878 4.814a4 4 0 0 0-.04 5.657l.039.037 15.626 15.42a3.98 3.98 0 0 0 2.809 1.153c1.016 0 2.03-.383 2.81-1.152l4.879-4.814a4 4 0 0 0 .038-5.657l-.038-.038-15.625-15.42a4 4 0 0 0-2.81-1.152m-.001 3c.153 0 .449.037.703.288l15.625 15.42a1.003 1.003 0 0 1 0 1.424l-4.88 4.813a1 1 0 0 1-.701.288 1 1 0 0 1-.702-.288l-15.626-15.42a1 1 0 0 1 0-1.423l4.879-4.814a1 1 0 0 1 .702-.288"/><path fill="#c4cedf" d="m657.13 349.144 2.032-2.005 12.779 12.609-2.034 2.005zm-3.848-.008c-.002.154.034.452.298.719l15.625 15.42a1 1 0 0 0 .702.288 1 1 0 0 0 .702-.288l4.88-4.814a.995.995 0 0 0 0-1.423l-15.625-15.42a1 1 0 0 0-.704-.288 1 1 0 0 0-.702.288l-4.878 4.813a1 1 0 0 0-.298.705"/><path fill="#a3b1bf" d="M589.01 424.65a3.5 3.5 0 1 0-3.5-3.5 3.5 3.5 0 0 0 3.5 3.5M690.01 334.65a2.5 2.5 0 1 0 0-4.999 2.5 2.5 0 0 0 0 5M593.01 334.65a2.5 2.5 0 1 0 0-4.999 2.5 2.5 0 0 0 0 5M613.193 467.273c-14.034 9.516-32.34 14.612-49.37 14.612-10.556 0-20.621-1.958-28.876-6.035-14.698-7.26-22.717-20.054-23.19-36.997-.594-21.384-9.47-27.875-15.44-30.18-.551-.844-.64-10.642-.11-10.497 11.588 3.193 24.782 12.9 25.548 40.398.367 13.19 6.295 22.717 17.62 28.31 18.535 9.154 49.236 5.374 68.917-8.376.25-.175 5.475 8.376 4.9 8.765m-6.88-11.044c-18.875 13.043-48.034 16.646-65.607 7.966-10.251-5.064-15.617-13.711-15.951-25.704-.817-29.317-15.134-39.736-27.718-43.198-.583-.161-2.185 15.992-.565 16.769 5.909 2.83 11.804 9.474 12.288 26.874.498 17.866 9.327 31.932 24.86 39.604 8.832 4.363 19.41 6.465 30.449 6.465 17.906 0 37.02-5.537 51.815-15.942.257-.181-9.245-13.06-9.571-12.834"/><path fill="#a0c8ff" fill-rule="nonzero" d="M607.403 459.116c-19.705 13.251-49.77 16.784-68.027 7.768-11.326-5.594-17.254-15.12-17.621-28.31-.754-27.078-13.56-36.902-25.014-40.244v10.515c5.956 2.446 14.435 9.121 15.017 30.007.472 16.944 8.49 29.738 23.189 36.997 8.255 4.078 18.32 6.036 28.876 6.036 17.009 0 35.29-5.084 49.319-14.578.59-.4-5.185-8.563-5.74-8.19" opacity=".151"/><path fill="#a3b1bf" d="M563.884 478.43c-10.023 0-19.564-1.854-27.387-5.718-13.463-6.65-20.807-18.391-21.24-33.957-.51-18.288-6.576-29.324-18.516-33.603-1.136-.408-.974-3.48-.056-3.185 13.762 4.414 21.014 16.745 21.57 36.704.401 14.384 7.168 25.225 19.57 31.35 19.485 9.624 50.214 6.16 71.15-7.743.716-.476 2.503 1.934 1.805 2.4-13.42 8.954-30.778 13.752-46.896 13.752"/><path fill="#a0c8ff" fill-rule="nonzero" d="M470.51 350.65c-5.515 0-10-4.484-10-10 0-5.513 4.485-10 10-10s10 4.487 10 10c0 5.516-4.486 10-10 10m14-29.798h-112a4 4 0 0 0-4 4v32a4 4 0 0 0 4 4h112a4 4 0 0 0 4-4v-32c0-2.21-1.79-4-4-4" opacity=".151"/><path fill="#a3b1bf" d="M487.01 310.852h-117c-6.352 0-11.5 5.148-11.5 11.5v37c0 6.35 5.148 11.5 11.5 11.5h117c6.351 0 11.5-5.15 11.5-11.5v-37c0-6.352-5.149-11.5-11.5-11.5m0 3c4.686 0 8.5 3.812 8.5 8.5v37c0 4.686-3.814 8.5-8.5 8.5h-117c-4.688 0-8.5-3.814-8.5-8.5v-37c0-4.688 3.812-8.5 8.5-8.5z"/><path fill="#a3b1bf" d="M435.01 323.852a1.5 1.5 0 0 1 1.5 1.5v31a1.5 1.5 0 1 1-3 0v-31a1.5 1.5 0 0 1 1.5-1.5M447.01 323.852a1.5 1.5 0 0 1 1.5 1.5v31a1.5 1.5 0 1 1-3 0v-31a1.5 1.5 0 0 1 1.5-1.5M423.51 340.852a5 5 0 1 1-10 0 5 5 0 0 1 10 0M403.51 340.852a5 5 0 1 1-10 0 5 5 0 0 1 10 0M383.51 340.852a5 5 0 1 1-10 0 5 5 0 0 1 10 0M470.51 327.65c-7.18 0-13 5.82-13 13s5.82 13 13 13 13-5.82 13-13-5.82-13-13-13m0 3c5.514 0 10 4.487 10 10 0 5.516-4.486 10-10 10s-10-4.484-10-10c0-5.513 4.485-10 10-10"/><path fill="#a0c8ff" fill-rule="nonzero" d="M470.51 420.65c-5.515 0-10-4.484-10-10 0-5.513 4.485-10 10-10s10 4.487 10 10c0 5.516-4.486 10-10 10m14-29.798h-112a4 4 0 0 0-4 4v32a4 4 0 0 0 4 4h112a4 4 0 0 0 4-4v-32c0-2.21-1.79-4-4-4" opacity=".151"/><path fill="#a3b1bf" d="M487.01 380.852h-117c-6.352 0-11.5 5.148-11.5 11.5v37c0 6.35 5.148 11.5 11.5 11.5h117c6.351 0 11.5-5.15 11.5-11.5v-37c0-6.352-5.149-11.5-11.5-11.5m0 3c4.686 0 8.5 3.812 8.5 8.5v37c0 4.687-3.814 8.5-8.5 8.5h-117c-4.688 0-8.5-3.813-8.5-8.5v-37c0-4.688 3.812-8.5 8.5-8.5z"/><path fill="#a3b1bf" d="M435.01 393.852a1.5 1.5 0 0 1 1.5 1.5v31a1.5 1.5 0 1 1-3 0v-31a1.5 1.5 0 0 1 1.5-1.5M447.01 393.852a1.5 1.5 0 0 1 1.5 1.5v31a1.5 1.5 0 1 1-3 0v-31a1.5 1.5 0 0 1 1.5-1.5M423.51 410.852a5 5 0 1 1-10 0 5 5 0 0 1 10 0M403.51 410.852a5 5 0 1 1-10 0 5 5 0 0 1 10 0M383.51 410.852a5 5 0 1 1-10 0 5 5 0 0 1 10 0M470.51 397.65c-7.18 0-13 5.82-13 13s5.82 13 13 13 13-5.82 13-13-5.82-13-13-13m0 3c5.514 0 10 4.487 10 10 0 5.516-4.486 10-10 10s-10-4.484-10-10c0-5.513 4.485-10 10-10"/><path fill="#a0c8ff" fill-rule="nonzero" d="M470.51 490.65c-5.515 0-10-4.484-10-10 0-5.513 4.485-10 10-10s10 4.487 10 10c0 5.516-4.486 10-10 10m14-29.798h-112a4 4 0 0 0-4 4v32a4 4 0 0 0 4 4h112a4 4 0 0 0 4-4v-32c0-2.21-1.79-4-4-4" opacity=".151"/><path fill="#a3b1bf" d="M487.01 450.852h-117c-6.352 0-11.5 5.148-11.5 11.5v37c0 6.35 5.148 11.5 11.5 11.5h117c6.351 0 11.5-5.15 11.5-11.5v-37c0-6.352-5.149-11.5-11.5-11.5m0 3c4.686 0 8.5 3.812 8.5 8.5v37c0 4.687-3.814 8.5-8.5 8.5h-117c-4.688 0-8.5-3.813-8.5-8.5v-37c0-4.688 3.812-8.5 8.5-8.5z"/><path fill="#a3b1bf" d="M435.01 463.852a1.5 1.5 0 0 1 1.5 1.5v31a1.5 1.5 0 1 1-3 0v-31a1.5 1.5 0 0 1 1.5-1.5M447.01 463.852a1.5 1.5 0 0 1 1.5 1.5v31a1.5 1.5 0 1 1-3 0v-31a1.5 1.5 0 0 1 1.5-1.5M423.51 480.852a5 5 0 1 1-10 0 5 5 0 0 1 10 0M403.51 480.852a5 5 0 1 1-10 0 5 5 0 0 1 10 0M383.51 480.852a5 5 0 1 1-10 0 5 5 0 0 1 10 0M470.51 467.65c-7.18 0-13 5.82-13 13s5.82 13 13 13 13-5.82 13-13-5.82-13-13-13m0 3c5.514 0 10 4.487 10 10 0 5.516-4.486 10-10 10s-10-4.484-10-10c0-5.513 4.485-10 10-10M141.51 519.65a2.5 2.5 0 0 1 2.5 2.5v10a2.5 2.5 0 1 1-5 0v-10a2.5 2.5 0 0 1 2.5-2.5m-8-8a2.5 2.5 0 0 1-2.5 2.5h-10a2.5 2.5 0 0 1 0-5h10a2.5 2.5 0 0 1 2.5 2.5M388.51 240.65a2.5 2.5 0 0 1 2.5 2.5v10a2.5 2.5 0 1 1-5 0v-10a2.5 2.5 0 0 1 2.5-2.5m0 31a2.5 2.5 0 0 1 2.5 2.5v10a2.5 2.5 0 1 1-5 0v-10a2.5 2.5 0 0 1 2.5-2.5m23-8a2.5 2.5 0 0 1-2.5 2.5h-10a2.5 2.5 0 0 1 0-5h10a2.5 2.5 0 0 1 2.5 2.5m-31 0a2.5 2.5 0 0 1-2.5 2.5h-10a2.5 2.5 0 0 1 0-5h10a2.5 2.5 0 0 1 2.5 2.5M552.51 51.65a2.5 2.5 0 0 1 2.5 2.5v10a2.5 2.5 0 1 1-5 0v-10a2.5 2.5 0 0 1 2.5-2.5m0 31a2.5 2.5 0 0 1 2.5 2.5v10a2.5 2.5 0 1 1-5 0v-10a2.5 2.5 0 0 1 2.5-2.5m23-8a2.5 2.5 0 0 1-2.5 2.5h-10a2.5 2.5 0 0 1 0-5h10a2.5 2.5 0 0 1 2.5 2.5m-31 0a2.5 2.5 0 0 1-2.5 2.5h-10a2.5 2.5 0 0 1 0-5h10a2.5 2.5 0 0 1 2.5 2.5M124.44 458.054c2.922 18.5 12.391 35.459 26.672 47.769 14.463 12.464 32.97 19.329 52.112 19.329 43.994 0 79.785-35.698 79.785-79.575s-35.791-79.573-79.785-79.573c-4.682 0-9.475.438-14.245 1.3l-2.118.383 7.288-41.227h57.415c10.039 0 18.206-8.143 18.206-18.154s-8.167-18.154-18.206-18.154h-71.896q-.091.001-.179.009-.15.011-.3.016-.122-.002-.244-.002c-8.793 0-16.484 6.4-18.001 14.98l-2.126 12.02h-48.604a5.507 5.507 0 0 0-5.5 5.5v3.198c0 3.033 2.468 5.5 5.5 5.5h4.392a13 13 0 0 1 2.403-.221h44c7.168 0 13 5.832 13 13v5c0 7.168-5.832 13-13 13h-70.5c-2.929 0-5.5 2.792-5.5 5.974v3.198c0 3.032 2.468 5.5 5.5 5.5h57.764l-2.421 13.699c-.841 4.754.236 9.566 3.033 13.55 2.798 3.986 6.964 6.643 11.733 7.48 10.008 2.366 17.95-1.666 18.613-2.017 7.119-4.726 15.414-7.223 23.993-7.223 23.917 0 43.374 19.408 43.374 43.264s-19.457 43.266-43.374 43.266c-18.648 0-34.993-11.677-41.016-29.174h-.146l-.259-1.205c-2.454-12.242-8.718-18.45-18.618-18.45-10.296 0-18.681 8.083-18.745 18.04m78.784 70.098c-19.861 0-39.063-7.123-54.07-20.057-14.851-12.8-24.687-30.447-27.696-49.694l-.018-.232c0-11.664 9.755-21.154 21.745-21.154 11.306 0 18.74 7.134 21.514 20.633l.022.068c5.327 16.824 20.8 28.127 38.503 28.127 22.263 0 40.374-18.063 40.374-40.266s-18.111-40.264-40.374-40.264a40.25 40.25 0 0 0-22.388 6.759l-.102.062c-.374.209-9.286 5.064-20.722 2.357-5.47-.96-10.325-4.053-13.582-8.694-3.259-4.641-4.513-10.252-3.533-15.796l1.8-10.177H90.509c-4.686 0-8.5-3.814-8.5-8.5v-3.198c0-4.864 3.893-8.974 8.5-8.974h70.5c5.514 0 10-4.487 10-10v-5c0-5.514-4.486-10-10-10h-44c-.663 0-1.324.064-1.966.192l-.293.029h-4.536c-4.686 0-8.5-3.813-8.5-8.5v-3.197c0-4.686 3.814-8.5 8.5-8.5h46.088l1.687-9.544c1.785-10.091 10.89-17.575 21.186-17.455l.107-.01q.191-.014.386-.015h71.896c11.693 0 21.206 9.49 21.206 21.154s-9.513 21.154-21.206 21.154h-54.899l-6.106 34.536a83 83 0 0 1 12.665-.992c45.648 0 82.785 37.042 82.785 82.573 0 45.532-37.137 82.575-82.785 82.575"/><path fill="#a0c8ff" fill-rule="nonzero" d="M619.591 422.581s.688 10.348 11.386 21.875c10.696 11.528 23.97 13.48 23.97 13.48l-8.405 8.405c-9.763 9.762-25.592 9.762-35.355 0-9.763-9.764-9.763-25.593 0-35.356z" opacity=".151"/><path fill="#a3b1bf" d="m619.591 422.581-8.404 8.404c-9.763 9.763-9.763 25.592 0 35.356a24.92 24.92 0 0 0 17.677 7.322 24.92 24.92 0 0 0 17.678-7.322l8.404-8.405s-14.173-2.9-23.859-13.868c-9.684-10.966-11.496-21.487-11.496-21.487m0 4.243 10.724 17.93 20.388 13.182-6.282 6.284a21.86 21.86 0 0 1-15.557 6.443c-5.876 0-11.4-2.288-15.555-6.443a21.86 21.86 0 0 1-6.445-15.557 21.86 21.86 0 0 1 6.445-15.557z"/><path fill="#a0c8ff" fill-rule="nonzero" d="M648.517 451.527c-3.06-1.548-7.558-4.585-12.744-9.771-5.189-5.19-8.2-9.715-9.75-12.763 3.06 1.549 7.556 4.586 12.741 9.77 5.19 5.19 8.201 9.716 9.753 12.764" opacity=".151"/><path fill="#a3b1bf" d="M622.225 421.668c-1.117 0-2.015.294-2.634.913-3.169 3.17 2.177 13.652 11.94 23.416 7.856 7.857 16.18 12.853 20.782 12.853 1.117 0 2.015-.294 2.634-.913 3.17-3.169-2.177-13.653-11.94-23.416-7.856-7.856-16.179-12.853-20.782-12.853m0 3c4.39 0 12.711 6.023 18.661 11.975 9.812 9.811 12.5 17.634 11.93 19.153a1.9 1.9 0 0 1-.503.054c-4.39 0-12.71-6.024-18.66-11.974-9.812-9.812-12.5-17.636-11.93-19.154a1.8 1.8 0 0 1 .502-.054"/><path fill="#a3b1bf" d="M646.896 420.026a3.5 3.5 0 0 1 0 4.949l-11.394 11.394a1.004 1.004 0 0 1-1.418 0l-3.53-3.531a1.004 1.004 0 0 1 0-1.418l11.393-11.394a3.5 3.5 0 0 1 4.95 0M657.504 430.632a3.5 3.5 0 0 1 0 4.95l-11.397 11.395c-.39.39-1.024.39-1.415 0l-3.534-3.534a1 1 0 0 1 0-1.416l11.395-11.395a3.5 3.5 0 0 1 4.95 0M651.01 412.968a1.5 1.5 0 0 1-1.5-1.5v-17.816a1.5 1.5 0 1 1 3 0v17.816a1.5 1.5 0 0 1-1.5 1.5M664.508 422.116a1.498 1.498 0 0 1-1.175-2.432l19-23.964a1.5 1.5 0 0 1 2.108-.245c.65.515.758 1.46.244 2.108l-19 23.965a1.5 1.5 0 0 1-1.177.568M669.508 438.259a1.5 1.5 0 0 1-.332-2.963l40-9.107a1.5 1.5 0 0 1 .666 2.925l-40 9.108a1.5 1.5 0 0 1-.334.037"/><path fill="#a0c8ff" fill-rule="nonzero" d="M203.01 329.352h35a6.5 6.5 0 0 1 6.5 6.5 6.5 6.5 0 0 1-6.5 6.5h-35a6.5 6.5 0 1 1 0-13" opacity=".151"/><path fill="#a3b1bf" d="M620.01 488.65a3.5 3.5 0 1 0-3.5-3.5 3.5 3.5 0 0 0 3.5 3.5M775.01 510.65a6.5 6.5 0 0 0 6.5-6.5 6.5 6.5 0 1 0-6.5 6.5M504.01 599.65a6.5 6.5 0 0 0 6.5-6.5 6.5 6.5 0 1 0-6.5 6.5M169.51 313.65a5 5 0 1 0 0-10 5 5 0 0 0 0 10M510.51 239.65a9 9 0 1 0 0 18.002 9 9 0 0 0 0-18.001m0 3c3.308 0 6 2.692 6 6 0 3.309-2.692 6-6 6-3.309 0-6-2.691-6-6 0-3.308 2.691-6 6-6"/><path fill="#a0c8ff" fill-rule="nonzero" d="M510.51 242.65c3.308 0 6 2.693 6 6 0 3.31-2.692 6-6 6-3.309 0-6-2.69-6-6 0-3.307 2.691-6 6-6" opacity=".151"/><path fill="#a3b1bf" d="M734.51 374.852a9 9 0 1 0 0 18 9 9 0 0 0 0-18m0 3c3.308 0 6 2.69 6 6 0 3.308-2.692 6-6 6-3.309 0-6-2.692-6-6 0-3.31 2.691-6 6-6"/><path fill="#a0c8ff" fill-rule="nonzero" d="M734.51 377.852c3.308 0 6 2.69 6 6 0 3.308-2.692 6-6 6-3.309 0-6-2.692-6-6 0-3.31 2.691-6 6-6" opacity=".151"/><path fill="#a3b1bf" d="M289.51 548.852a9 9 0 1 0 0 18 9 9 0 0 0 0-18m0 3c3.308 0 6 2.69 6 6 0 3.308-2.692 6-6 6-3.309 0-6-2.692-6-6 0-3.31 2.691-6 6-6"/><path fill="#a0c8ff" fill-rule="nonzero" d="M289.51 551.852c3.308 0 6 2.69 6 6 0 3.308-2.692 6-6 6-3.309 0-6-2.692-6-6 0-3.31 2.691-6 6-6" opacity=".151"/><path fill="#a3b1bf" d="M100.294 402.467a9 9 0 1 0 0 18.001 9 9 0 0 0 0-18.001m0 3c3.309 0 6 2.692 6 6 0 3.309-2.691 6-6 6-3.308 0-6-2.691-6-6 0-3.308 2.692-6 6-6"/><path fill="#a0c8ff" fill-rule="nonzero" d="M100.294 405.467c3.309 0 6 2.692 6 6 0 3.309-2.691 6-6 6-3.308 0-6-2.691-6-6 0-3.308 2.692-6 6-6" opacity=".151"/><path fill="#a3b1bf" d="M299.51 142.65c-8.285 0-15 6.717-15 15 0 8.286 6.715 15 15 15s15-6.714 15-15c0-8.283-6.716-15-15-15m0 3c6.616 0 12 5.385 12 12 0 6.618-5.384 12-12 12-6.617 0-12-5.382-12-12 0-6.615 5.383-12 12-12"/><path fill="#a0c8ff" fill-rule="nonzero" d="M299.51 145.65c6.616 0 12 5.385 12 12 0 6.618-5.384 12-12 12-6.617 0-12-5.382-12-12 0-6.615 5.383-12 12-12" opacity=".151"/><path fill="#a3b1bf" d="M315.51 442.65a5 5 0 1 0 0-10 5 5 0 0 0 0 10"/><path fill="#a3b1bf" d="M315.51 442.65a5 5 0 1 0 0-10 5 5 0 0 0 0 10M375.51 146.65a5 5 0 1 0 0-10 5 5 0 0 0 0 10M143.557 137.494a7.75 7.75 0 0 1-3.885-1.042l-28.278-16.326a7.78 7.78 0 0 1-3.885-6.727V80.74a7.8 7.8 0 0 1 3.885-6.726l28.278-16.327c2.393-1.373 5.37-1.388 7.761 0l22.713 13.051c1.256.718 1.682 1.32.964 2.576-.719 1.255-2.314.682-3.577-.029L144.82 60.226a2.55 2.55 0 0 0-2.534 0l-30.27 17.327a2.53 2.53 0 0 0-1.265 2.186v34.66c0 .901.483 1.738 1.264 2.188l30.278 17.334c.775.45 1.745.45 2.527 0l30.287-17.326a2.53 2.53 0 0 0 1.263-2.187v-24.74c0-1.445.176-2.62 1.621-2.62s1.621 1.175 1.621 2.62V113.4a7.79 7.79 0 0 1-3.884 6.727l-28.279 16.326a7.8 7.8 0 0 1-3.892 1.042"/><path fill="#a0c8ff" fill-rule="nonzero" d="M144 112.622c-8.534 0-15.49-6.947-15.49-15.49S135.458 81.65 144 81.65s15.48 6.948 15.48 15.482-6.946 15.49-15.48 15.49" opacity=".151"/><path fill="#a3b1bf" d="M144 78.65c-10.195 0-18.49 8.292-18.49 18.482 0 10.196 8.295 18.49 18.49 18.49 10.19 0 18.48-8.294 18.48-18.49 0-10.19-8.29-18.481-18.48-18.481m0 3c8.542 0 15.48 6.948 15.48 15.48 0 8.536-6.946 15.492-15.48 15.492s-15.49-6.948-15.49-15.491S135.457 81.65 144 81.65M644.507 586.65c-.67 0-1.34-.175-1.938-.527l-14.12-8.28a3.96 3.96 0 0 1-1.94-3.412v-16.563c0-1.402.745-2.71 1.94-3.411l14.12-8.281a3.84 3.84 0 0 1 3.874 0l11.34 6.62c.627.364.84.669.481 1.306-.359.636-1.154.345-1.785-.014l-11.34-6.624a1.26 1.26 0 0 0-1.266 0l-15.114 8.788a1.28 1.28 0 0 0-.63 1.109v17.578c0 .456.24.88.63 1.108l15.118 8.792c.386.228.871.228 1.261 0l15.122-8.787c.391-.228.631-.653.631-1.11v-12.546c0-.732.088-1.33.81-1.33.72 0 .808.598.808 1.33v12.035a3.96 3.96 0 0 1-1.939 3.412l-14.12 8.28a3.84 3.84 0 0 1-1.943.528m.005-13c-4.409 0-8.003-3.59-8.003-8.002s3.59-7.998 8.003-7.998c4.412 0 7.997 3.59 7.997 7.998s-3.589 8.002-7.997 8.002m-.003-14c-3.31 0-6 2.69-6 6s2.69 6 6 6 6-2.69 6-6-2.689-6-6-6"/></g></svg>